G04 ================== begin FILE IDENTIFICATION RECORD ==================*
G04 Layout Name:  SMA_fabB_v1_auto.brd*
G04 Film Name:    SMA_SILKSCREEN_faba*
G04 File Format:  Gerber RS274X*
G04 File Origin:  Cadence Allegro 17.2-P019*
G04 Origin Date:  Sun Apr 01 22:41:11 2018*
G04 *
G04 Layer:  REF DES/SILKSCREEN_BOTTOM*
G04 Layer:  BOARD GEOMETRY/SILKSCREEN_TOP*
G04 Layer:  BOARD GEOMETRY/SILKSCREEN_BOTTOM*
G04 Layer:  REF DES/SILKSCREEN_TOP*
G04 Layer:  PACKAGE GEOMETRY/SILKSCREEN_TOP*
G04 Layer:  PACKAGE GEOMETRY/SILKSCREEN_BOTTOM*
G04 *
G04 Offset:    (0.0000 0.0000)*
G04 Mirror:    No*
G04 Mode:      Positive*
G04 Rotation:  0*
G04 FullContactRelief:  No*
G04 UndefLineWidth:     0.2540*
G04 ================== end FILE IDENTIFICATION RECORD ====================*
%FSLAX25Y25*MOMM*%
%IR0*IPPOS*OFA0.00000B0.00000*MIA0B0*SFA1.00000B1.00000*%
%ADD10C,.254*%
G75*
%LPD*%
G75*
G36*
G01X-2621400Y-6512000D02*
X-2311400D01*
Y-5842000D01*
X-2621400D01*
Y-6512000D01*
G37*
G36*
G01X-1881200Y-5130800D02*
G03I-100000J0D01*
G37*
G36*
G01X-35800Y-5764800D02*
Y-5384800D01*
X-685800D01*
Y-5764800D01*
X-35800D01*
G37*
G36*
G01X1054100Y-5842000D02*
G03I-63500J0D01*
G37*
G36*
G01D02*
G03I-63500J0D01*
G37*
G36*
G01D02*
G03I-63500J0D01*
G37*
G36*
G01D02*
G03I-63500J0D01*
G37*
G36*
G01D02*
G03I-63500J0D01*
G37*
G36*
G01D02*
G03I-63500J0D01*
G37*
G36*
G01D02*
G03I-63500J0D01*
G37*
G36*
G01X2377200Y-5764800D02*
Y-5384800D01*
X1727200D01*
Y-5764800D01*
X2377200D01*
G37*
G36*
G01X1866900Y-4876800D02*
G03I-63500J0D01*
G37*
G36*
G01D02*
G03I-63500J0D01*
G37*
G36*
G01D02*
G03I-63500J0D01*
G37*
G36*
G01D02*
G03I-63500J0D01*
G37*
G36*
G01D02*
G03I-63500J0D01*
G37*
G36*
G01D02*
G03I-63500J0D01*
G37*
G36*
G01D02*
G03I-63500J0D01*
G37*
G36*
G01X3111500Y-5689600D02*
G03I-63500J0D01*
G37*
G36*
G01D02*
G03I-63500J0D01*
G37*
G36*
G01D02*
G03I-63500J0D01*
G37*
G36*
G01D02*
G03I-63500J0D01*
G37*
G36*
G01D02*
G03I-63500J0D01*
G37*
G36*
G01D02*
G03I-63500J0D01*
G37*
G36*
G01D02*
G03I-63500J0D01*
G37*
G36*
G01X-609600Y-5715000D02*
G03I-25400J0D01*
G37*
G36*
G01X1803400D02*
G03I-25400J0D01*
G37*
G54D10*
G01X-3089400Y-6795250D02*
Y-5395250D01*
X-4089400D01*
Y-6795250D01*
X-3089400D01*
G01X-4318000Y-5379300D02*
X-4157980D01*
Y-5429040D01*
X-4165980Y-5444960D01*
X-4176650Y-5454910D01*
X-4197990Y-5458880D01*
X-4219320Y-5454910D01*
X-4232650Y-5442970D01*
X-4240660Y-5429040D01*
Y-5379300D01*
G01Y-5429040D02*
X-4318000Y-5458880D01*
G01Y-5579110D02*
X-4157980D01*
X-4189980Y-5555230D01*
G01X-4318000D02*
Y-5602980D01*
G01Y-5763010D02*
X-4157980D01*
X-4272660Y-5689390D01*
Y-5788870D01*
G01X-4341800Y-5251400D02*
X-4141800D01*
Y-4751400D01*
X-4341800D01*
Y-5251400D01*
G01X-4648200Y-5353900D02*
X-4488180D01*
Y-5403640D01*
X-4496180Y-5419560D01*
X-4506850Y-5429510D01*
X-4528190Y-5433480D01*
X-4549520Y-5429510D01*
X-4562850Y-5417570D01*
X-4570860Y-5403640D01*
Y-5353900D01*
G01Y-5403640D02*
X-4648200Y-5433480D01*
G01Y-5553710D02*
X-4488180D01*
X-4520180Y-5529830D01*
G01X-4648200D02*
Y-5577580D01*
G01X-4624200Y-5669960D02*
X-4637530Y-5681890D01*
X-4645530Y-5695820D01*
X-4648200Y-5713730D01*
X-4642870Y-5731640D01*
X-4632200Y-5745560D01*
X-4613530Y-5755510D01*
X-4592200Y-5757500D01*
X-4570860Y-5753520D01*
X-4557520Y-5743570D01*
X-4546860Y-5729650D01*
X-4544190Y-5715720D01*
X-4546860Y-5701790D01*
X-4557520Y-5683890D01*
X-4488180Y-5689850D01*
Y-5743570D01*
G01X-4672000Y-5251400D02*
X-4472000D01*
Y-4751400D01*
X-4672000D01*
Y-5251400D01*
G01X-4337000Y-4370400D02*
Y-4570400D01*
X-3837000D01*
Y-4370400D01*
X-4337000D01*
G01X-4073480Y-4191000D02*
Y-4030980D01*
X-4033690D01*
X-4017770Y-4038980D01*
X-4005830Y-4049650D01*
X-3995880Y-4065650D01*
X-3987930Y-4084320D01*
X-3985940Y-4110990D01*
X-3987930Y-4137660D01*
X-3995880Y-4156330D01*
X-4005830Y-4172330D01*
X-4017770Y-4183000D01*
X-4033690Y-4191000D01*
X-4073480D01*
G01X-3873670D02*
X-3869690Y-4156330D01*
X-3863720Y-4127000D01*
X-3855760Y-4100320D01*
X-3845810Y-4070990D01*
X-3829900Y-4030980D01*
X-3909480D01*
G01X-4667200Y-4014800D02*
Y-4214800D01*
X-4167200D01*
Y-4014800D01*
X-4667200D01*
G01X-3867200Y-3605200D02*
Y-3405200D01*
X-4367200D01*
Y-3605200D01*
X-3867200D01*
G01X-4057600Y-3710000D02*
Y-3910000D01*
X-3557600D01*
Y-3710000D01*
X-4057600D01*
G01X-4167200Y-2343200D02*
X-4367200D01*
Y-2843200D01*
X-4167200D01*
Y-2343200D01*
G01X-4450500Y-2286000D02*
Y-2125980D01*
X-4400760D01*
X-4384840Y-2133980D01*
X-4374890Y-2144650D01*
X-4370920Y-2165990D01*
X-4374890Y-2187320D01*
X-4386830Y-2200650D01*
X-4400760Y-2208660D01*
X-4450500D01*
G01X-4400760D02*
X-4370920Y-2286000D01*
G01X-4250690D02*
Y-2125980D01*
X-4274570Y-2157980D01*
G01Y-2286000D02*
X-4226820D01*
G01X-4128470Y-2152650D02*
X-4116540Y-2136650D01*
X-4102610Y-2128650D01*
X-4086690Y-2125980D01*
X-4066790Y-2131310D01*
X-4052870Y-2144650D01*
X-4048890Y-2160650D01*
X-4050880Y-2176660D01*
X-4058840Y-2189990D01*
X-4098630Y-2216660D01*
X-4116540Y-2235330D01*
X-4128470Y-2262000D01*
X-4132450Y-2286000D01*
X-4048890D01*
G01X-4101930Y-1524000D02*
Y-1615020D01*
X-4095500Y-1634070D01*
X-4082630Y-1646770D01*
X-4066550Y-1651000D01*
X-4050470Y-1646770D01*
X-4037600Y-1634070D01*
X-4031170Y-1615020D01*
Y-1524000D01*
G01X-3937050Y-1651000D02*
X-3925790Y-1648880D01*
X-3912930Y-1642540D01*
X-3904880Y-1631950D01*
X-3901670Y-1617130D01*
X-3904880Y-1602320D01*
X-3914530Y-1589620D01*
X-3929010Y-1583270D01*
X-3945090D01*
X-3954740Y-1579030D01*
X-3962790Y-1568450D01*
X-3966000Y-1553630D01*
X-3961170Y-1538820D01*
X-3949920Y-1528230D01*
X-3937050Y-1524000D01*
X-3924180Y-1528230D01*
X-3912930Y-1538820D01*
X-3908100Y-1553630D01*
X-3911320Y-1568450D01*
X-3919360Y-1579030D01*
X-3929010Y-1583270D01*
X-3945090D01*
X-3959570Y-1589620D01*
X-3969220Y-1602320D01*
X-3972430Y-1617130D01*
X-3969220Y-1631950D01*
X-3961170Y-1642540D01*
X-3948310Y-1648880D01*
X-3937050Y-1651000D01*
G01X-4422970Y-1079500D02*
X-4426360Y-1085850D01*
X-4430420Y-1090080D01*
X-4435170Y-1092200D01*
X-4440580Y-1090080D01*
X-4444650Y-1085850D01*
X-4448710Y-1079500D01*
X-4450070Y-1071030D01*
Y-1028700D01*
G01X-4477500Y-1094320D02*
X-4507300Y-1047750D01*
G01X-4492400Y-1039280D02*
Y-1102780D01*
G01X-4507300Y-1094320D02*
X-4477500Y-1047750D01*
G01X-4472080Y-1071030D02*
X-4512720D01*
G01X-4422970Y-479500D02*
X-4426360Y-485850D01*
X-4430420Y-490080D01*
X-4435170Y-492200D01*
X-4440580Y-490080D01*
X-4444650Y-485850D01*
X-4448710Y-479500D01*
X-4450070Y-471030D01*
Y-428700D01*
G01X-4477500Y-494320D02*
X-4507300Y-447750D01*
G01X-4492400Y-439280D02*
Y-502780D01*
G01X-4507300Y-494320D02*
X-4477500Y-447750D01*
G01X-4472080Y-471030D02*
X-4512720D01*
G01X-4422970Y120500D02*
X-4426360Y114150D01*
X-4430420Y109920D01*
X-4435170Y107800D01*
X-4440580Y109920D01*
X-4444650Y114150D01*
X-4448710Y120500D01*
X-4450070Y128970D01*
Y171300D01*
G01X-4477500Y105680D02*
X-4507300Y152250D01*
G01X-4492400Y160720D02*
Y97220D01*
G01X-4507300Y105680D02*
X-4477500Y152250D01*
G01X-4472080Y128970D02*
X-4512720D01*
G01X-4422970Y720500D02*
X-4426360Y714150D01*
X-4430420Y709920D01*
X-4435170Y707800D01*
X-4440580Y709920D01*
X-4444650Y714150D01*
X-4448710Y720500D01*
X-4450070Y728970D01*
Y771300D01*
G01X-4477500Y705680D02*
X-4507300Y752250D01*
G01X-4492400Y760720D02*
Y697220D01*
G01X-4507300Y705680D02*
X-4477500Y752250D01*
G01X-4472080Y728970D02*
X-4512720D01*
G01X-3688500Y-5312450D02*
X-3678550Y-5328450D01*
X-3666620Y-5339120D01*
X-3652690Y-5344450D01*
X-3636770Y-5339120D01*
X-3624830Y-5328450D01*
X-3612890Y-5312450D01*
X-3608920Y-5291110D01*
Y-5184430D01*
G01X-3532460Y-5312450D02*
X-3520530Y-5331120D01*
X-3504610Y-5341780D01*
X-3486700Y-5344450D01*
X-3470780Y-5341780D01*
X-3454860Y-5328450D01*
X-3444920Y-5312450D01*
X-3442930Y-5296440D01*
X-3446910Y-5277780D01*
X-3460840Y-5264440D01*
X-3474760Y-5259100D01*
X-3492670D01*
G01X-3474760D02*
X-3462820Y-5251110D01*
X-3452870Y-5237770D01*
X-3448900Y-5221770D01*
X-3452870Y-5205770D01*
X-3462820Y-5192430D01*
X-3480730Y-5184430D01*
X-3498640Y-5187100D01*
X-3516540Y-5197770D01*
G01X-3743280Y-4546600D02*
Y-4386580D01*
X-3703490D01*
X-3687570Y-4394580D01*
X-3675630Y-4405250D01*
X-3665680Y-4421250D01*
X-3657730Y-4439920D01*
X-3655740Y-4466590D01*
X-3657730Y-4493260D01*
X-3665680Y-4511930D01*
X-3675630Y-4527930D01*
X-3687570Y-4538600D01*
X-3703490Y-4546600D01*
X-3743280D01*
G01X-3577290Y-4479930D02*
X-3563370Y-4461250D01*
X-3551430Y-4450590D01*
X-3535510Y-4445260D01*
X-3521580Y-4450590D01*
X-3511640Y-4461250D01*
X-3503670Y-4477260D01*
X-3501690Y-4495930D01*
X-3503670Y-4511930D01*
X-3511640Y-4527930D01*
X-3523570Y-4541270D01*
X-3537500Y-4546600D01*
X-3553420Y-4541270D01*
X-3567340Y-4525270D01*
X-3575310Y-4501260D01*
X-3577290Y-4474590D01*
X-3573320Y-4439920D01*
X-3567340Y-4421250D01*
X-3557400Y-4402580D01*
X-3543470Y-4389250D01*
X-3529540Y-4386580D01*
X-3515610Y-4391910D01*
X-3505660Y-4405250D01*
G01X-3768680Y-3581400D02*
Y-3421380D01*
X-3728890D01*
X-3712970Y-3429380D01*
X-3701030Y-3440050D01*
X-3691080Y-3456050D01*
X-3683130Y-3474720D01*
X-3681140Y-3501390D01*
X-3683130Y-3528060D01*
X-3691080Y-3546730D01*
X-3701030Y-3562730D01*
X-3712970Y-3573400D01*
X-3728890Y-3581400D01*
X-3768680D01*
G01X-3541010D02*
Y-3421380D01*
X-3614630Y-3536060D01*
X-3515150D01*
G01X-3459900Y-3886200D02*
Y-3726180D01*
X-3410160D01*
X-3394240Y-3734180D01*
X-3384290Y-3744850D01*
X-3380320Y-3766190D01*
X-3384290Y-3787520D01*
X-3396230Y-3800850D01*
X-3410160Y-3808860D01*
X-3459900D01*
G01X-3410160D02*
X-3380320Y-3886200D01*
G01X-3260090D02*
Y-3726180D01*
X-3283970Y-3758180D01*
G01Y-3886200D02*
X-3236220D01*
G01X-3143840Y-3854200D02*
X-3131910Y-3872870D01*
X-3115990Y-3883530D01*
X-3098080Y-3886200D01*
X-3082160Y-3883530D01*
X-3066240Y-3870200D01*
X-3056300Y-3854200D01*
X-3054310Y-3838190D01*
X-3058290Y-3819530D01*
X-3072220Y-3806190D01*
X-3086140Y-3800850D01*
X-3104050D01*
G01X-3086140D02*
X-3074200Y-3792860D01*
X-3064250Y-3779520D01*
X-3060280Y-3763520D01*
X-3064250Y-3747520D01*
X-3074200Y-3734180D01*
X-3092110Y-3726180D01*
X-3110020Y-3728850D01*
X-3127920Y-3739520D01*
G01X-3867000Y-3221100D02*
X-3117000D01*
Y-1681100D01*
X-3867000D01*
Y-3221100D01*
G01X-3176600Y-1098600D02*
X-3376600D01*
Y-1598600D01*
X-3176600D01*
Y-1098600D01*
G01X-3456000D02*
X-3656000D01*
Y-1598600D01*
X-3456000D01*
Y-1098600D01*
G01X-3347080Y-887140D02*
X-3355090Y-899080D01*
X-3360420Y-913000D01*
Y-928920D01*
X-3352420Y-946830D01*
X-3339080Y-960750D01*
X-3323080Y-970700D01*
X-3296410Y-978660D01*
X-3272410Y-980650D01*
X-3248410Y-976670D01*
X-3232400Y-970700D01*
X-3216400Y-958760D01*
X-3205730Y-944840D01*
X-3200400Y-930910D01*
Y-916980D01*
X-3205730Y-903060D01*
X-3213730Y-891120D01*
X-3224400Y-881170D01*
G01X-3200400Y-770890D02*
X-3360420D01*
X-3328420Y-794770D01*
G01X-3200400D02*
Y-747020D01*
G01X-3267070Y-648670D02*
X-3285750Y-634750D01*
X-3296410Y-622810D01*
X-3301740Y-606890D01*
X-3296410Y-592960D01*
X-3285750Y-583020D01*
X-3269740Y-575050D01*
X-3251070Y-573070D01*
X-3235070Y-575050D01*
X-3219070Y-583020D01*
X-3205730Y-594950D01*
X-3200400Y-608880D01*
X-3205730Y-624800D01*
X-3221730Y-638720D01*
X-3245740Y-646690D01*
X-3272410Y-648670D01*
X-3307080Y-644700D01*
X-3325750Y-638720D01*
X-3344420Y-628780D01*
X-3357750Y-614850D01*
X-3360420Y-600920D01*
X-3355090Y-586990D01*
X-3341750Y-577040D01*
G01X-3626480Y-887140D02*
X-3634490Y-899080D01*
X-3639820Y-913000D01*
Y-928920D01*
X-3631820Y-946830D01*
X-3618480Y-960750D01*
X-3602480Y-970700D01*
X-3575810Y-978660D01*
X-3551810Y-980650D01*
X-3527810Y-976670D01*
X-3511800Y-970700D01*
X-3495800Y-958760D01*
X-3485130Y-944840D01*
X-3479800Y-930910D01*
Y-916980D01*
X-3485130Y-903060D01*
X-3493130Y-891120D01*
X-3503800Y-881170D01*
G01X-3479800Y-770890D02*
X-3639820D01*
X-3607820Y-794770D01*
G01X-3479800D02*
Y-747020D01*
G01Y-614850D02*
X-3514470Y-610870D01*
X-3543800Y-604900D01*
X-3570480Y-596940D01*
X-3599810Y-586990D01*
X-3639820Y-571080D01*
Y-650660D01*
G01X-3222970Y-1079500D02*
X-3226360Y-1085850D01*
X-3230420Y-1090080D01*
X-3235170Y-1092200D01*
X-3240580Y-1090080D01*
X-3244650Y-1085850D01*
X-3248710Y-1079500D01*
X-3250070Y-1071030D01*
Y-1028700D01*
G01X-3277500Y-1094320D02*
X-3307300Y-1047750D01*
G01X-3292400Y-1039280D02*
Y-1102780D01*
G01X-3307300Y-1094320D02*
X-3277500Y-1047750D01*
G01X-3272080Y-1071030D02*
X-3312720D01*
G01X-3822970Y-1079500D02*
X-3826360Y-1085850D01*
X-3830420Y-1090080D01*
X-3835170Y-1092200D01*
X-3840580Y-1090080D01*
X-3844650Y-1085850D01*
X-3848710Y-1079500D01*
X-3850070Y-1071030D01*
Y-1028700D01*
G01X-3877500Y-1094320D02*
X-3907300Y-1047750D01*
G01X-3892400Y-1039280D02*
Y-1102780D01*
G01X-3907300Y-1094320D02*
X-3877500Y-1047750D01*
G01X-3872080Y-1071030D02*
X-3912720D01*
G01X-3222970Y-479500D02*
X-3226360Y-485850D01*
X-3230420Y-490080D01*
X-3235170Y-492200D01*
X-3240580Y-490080D01*
X-3244650Y-485850D01*
X-3248710Y-479500D01*
X-3250070Y-471030D01*
Y-428700D01*
G01X-3277500Y-494320D02*
X-3307300Y-447750D01*
G01X-3292400Y-439280D02*
Y-502780D01*
G01X-3307300Y-494320D02*
X-3277500Y-447750D01*
G01X-3272080Y-471030D02*
X-3312720D01*
G01X-3222970Y120500D02*
X-3226360Y114150D01*
X-3230420Y109920D01*
X-3235170Y107800D01*
X-3240580Y109920D01*
X-3244650Y114150D01*
X-3248710Y120500D01*
X-3250070Y128970D01*
Y171300D01*
G01X-3277500Y105680D02*
X-3307300Y152250D01*
G01X-3292400Y160720D02*
Y97220D01*
G01X-3307300Y105680D02*
X-3277500Y152250D01*
G01X-3272080Y128970D02*
X-3312720D01*
G01X-3822970Y-479500D02*
X-3826360Y-485850D01*
X-3830420Y-490080D01*
X-3835170Y-492200D01*
X-3840580Y-490080D01*
X-3844650Y-485850D01*
X-3848710Y-479500D01*
X-3850070Y-471030D01*
Y-428700D01*
G01X-3877500Y-494320D02*
X-3907300Y-447750D01*
G01X-3892400Y-439280D02*
Y-502780D01*
G01X-3907300Y-494320D02*
X-3877500Y-447750D01*
G01X-3872080Y-471030D02*
X-3912720D01*
G01X-3822970Y120500D02*
X-3826360Y114150D01*
X-3830420Y109920D01*
X-3835170Y107800D01*
X-3840580Y109920D01*
X-3844650Y114150D01*
X-3848710Y120500D01*
X-3850070Y128970D01*
Y171300D01*
G01X-3877500Y105680D02*
X-3907300Y152250D01*
G01X-3892400Y160720D02*
Y97220D01*
G01X-3907300Y105680D02*
X-3877500Y152250D01*
G01X-3872080Y128970D02*
X-3912720D01*
G01X-3222970Y720500D02*
X-3226360Y714150D01*
X-3230420Y709920D01*
X-3235170Y707800D01*
X-3240580Y709920D01*
X-3244650Y714150D01*
X-3248710Y720500D01*
X-3250070Y728970D01*
Y771300D01*
G01X-3277500Y705680D02*
X-3307300Y752250D01*
G01X-3292400Y760720D02*
Y697220D01*
G01X-3307300Y705680D02*
X-3277500Y752250D01*
G01X-3272080Y728970D02*
X-3312720D01*
G01X-3822970Y720500D02*
X-3826360Y714150D01*
X-3830420Y709920D01*
X-3835170Y707800D01*
X-3840580Y709920D01*
X-3844650Y714150D01*
X-3848710Y720500D01*
X-3850070Y728970D01*
Y771300D01*
G01X-3877500Y705680D02*
X-3907300Y752250D01*
G01X-3892400Y760720D02*
Y697220D01*
G01X-3907300Y705680D02*
X-3877500Y752250D01*
G01X-3872080Y728970D02*
X-3912720D01*
G01X-2235200Y1955800D02*
Y1447800D01*
X-3505200D01*
Y1955800D01*
X-2235200D01*
G01X-2819400Y-3403600D02*
X-2311400D01*
Y-5435600D01*
X-2819400D01*
Y-3403600D01*
G01X-2748700Y-3320800D02*
X-2738750Y-3336800D01*
X-2726820Y-3347470D01*
X-2712890Y-3352800D01*
X-2696970Y-3347470D01*
X-2685030Y-3336800D01*
X-2673090Y-3320800D01*
X-2669120Y-3299460D01*
Y-3192780D01*
G01X-2592660Y-3320800D02*
X-2580730Y-3339470D01*
X-2564810Y-3350130D01*
X-2546900Y-3352800D01*
X-2530980Y-3350130D01*
X-2515060Y-3336800D01*
X-2505120Y-3320800D01*
X-2503130Y-3304790D01*
X-2507110Y-3286130D01*
X-2521040Y-3272790D01*
X-2534960Y-3267450D01*
X-2552870D01*
G01X-2534960D02*
X-2523020Y-3259460D01*
X-2513070Y-3246120D01*
X-2509100Y-3230120D01*
X-2513070Y-3214120D01*
X-2523020Y-3200780D01*
X-2540930Y-3192780D01*
X-2558840Y-3195450D01*
X-2576740Y-3206120D01*
G01X-2432640Y-3328800D02*
X-2420710Y-3342130D01*
X-2406780Y-3350130D01*
X-2388870Y-3352800D01*
X-2370960Y-3347470D01*
X-2357040Y-3336800D01*
X-2347090Y-3318130D01*
X-2345100Y-3296800D01*
X-2349080Y-3275460D01*
X-2359030Y-3262120D01*
X-2372950Y-3251460D01*
X-2386880Y-3248790D01*
X-2400810Y-3251460D01*
X-2418710Y-3262120D01*
X-2412750Y-3192780D01*
X-2359030D01*
G01X-2622970Y-1079500D02*
X-2626360Y-1085850D01*
X-2630420Y-1090080D01*
X-2635170Y-1092200D01*
X-2640580Y-1090080D01*
X-2644650Y-1085850D01*
X-2648710Y-1079500D01*
X-2650070Y-1071030D01*
Y-1028700D01*
G01X-2677500Y-1094320D02*
X-2707300Y-1047750D01*
G01X-2692400Y-1039280D02*
Y-1102780D01*
G01X-2707300Y-1094320D02*
X-2677500Y-1047750D01*
G01X-2672080Y-1071030D02*
X-2712720D01*
G01X-2622970Y-479500D02*
X-2626360Y-485850D01*
X-2630420Y-490080D01*
X-2635170Y-492200D01*
X-2640580Y-490080D01*
X-2644650Y-485850D01*
X-2648710Y-479500D01*
X-2650070Y-471030D01*
Y-428700D01*
G01X-2677500Y-494320D02*
X-2707300Y-447750D01*
G01X-2692400Y-439280D02*
Y-502780D01*
G01X-2707300Y-494320D02*
X-2677500Y-447750D01*
G01X-2672080Y-471030D02*
X-2712720D01*
G01X-2622970Y120500D02*
X-2626360Y114150D01*
X-2630420Y109920D01*
X-2635170Y107800D01*
X-2640580Y109920D01*
X-2644650Y114150D01*
X-2648710Y120500D01*
X-2650070Y128970D01*
Y171300D01*
G01X-2677500Y105680D02*
X-2707300Y152250D01*
G01X-2692400Y160720D02*
Y97220D01*
G01X-2707300Y105680D02*
X-2677500Y152250D01*
G01X-2672080Y128970D02*
X-2712720D01*
G01X-2622970Y720500D02*
X-2626360Y714150D01*
X-2630420Y709920D01*
X-2635170Y707800D01*
X-2640580Y709920D01*
X-2644650Y714150D01*
X-2648710Y720500D01*
X-2650070Y728970D01*
Y771300D01*
G01X-2677500Y705680D02*
X-2707300Y752250D01*
G01X-2692400Y760720D02*
Y697220D01*
G01X-2707300Y705680D02*
X-2677500Y752250D01*
G01X-2672080Y728970D02*
X-2712720D01*
G01X-3057310Y1295400D02*
X-3049270Y1282700D01*
X-3039620Y1274230D01*
X-3028360Y1270000D01*
X-3015490Y1274230D01*
X-3005840Y1282700D01*
X-2996180Y1295400D01*
X-2992970Y1312330D01*
Y1397000D01*
G01X-2930990Y1295400D02*
X-2921340Y1280580D01*
X-2908470Y1272120D01*
X-2893990Y1270000D01*
X-2881120Y1272120D01*
X-2868250Y1282700D01*
X-2860210Y1295400D01*
X-2858600Y1308100D01*
X-2861820Y1322910D01*
X-2873080Y1333500D01*
X-2884340Y1337730D01*
X-2898820D01*
G01X-2884340D02*
X-2874690Y1344080D01*
X-2866640Y1354660D01*
X-2863430Y1367370D01*
X-2866640Y1380070D01*
X-2874690Y1390650D01*
X-2889170Y1397000D01*
X-2903640Y1394880D01*
X-2918120Y1386420D01*
G01X-2766060Y1270000D02*
Y1397000D01*
X-2785360Y1371600D01*
G01Y1270000D02*
X-2746760D01*
G01X-1727200Y-6630800D02*
Y-5130800D01*
X-1227200D01*
Y-6630800D01*
X-1727200D01*
G01X-2260600Y-6126820D02*
X-2197100D01*
Y-6140370D01*
X-2200280Y-6145780D01*
X-2204510Y-6149850D01*
X-2210860Y-6153240D01*
X-2218270Y-6155940D01*
X-2228850Y-6156620D01*
X-2239430Y-6155940D01*
X-2246840Y-6153240D01*
X-2253190Y-6149850D01*
X-2257430Y-6145780D01*
X-2260600Y-6140370D01*
Y-6126820D01*
G01X-2251080Y-6182700D02*
X-2256370Y-6186760D01*
X-2259540Y-6191500D01*
X-2260600Y-6197600D01*
X-2258480Y-6203700D01*
X-2254250Y-6208440D01*
X-2246840Y-6211820D01*
X-2238380Y-6212500D01*
X-2229910Y-6211150D01*
X-2224620Y-6207760D01*
X-2220380Y-6203020D01*
X-2219330Y-6198280D01*
X-2220380Y-6193540D01*
X-2224620Y-6187440D01*
X-2197100Y-6189470D01*
Y-6207760D01*
G01X-2051680Y-4294460D02*
X-2059690Y-4282520D01*
X-2065020Y-4268600D01*
Y-4252680D01*
X-2057020Y-4234770D01*
X-2043680Y-4220850D01*
X-2027680Y-4210900D01*
X-2001010Y-4202940D01*
X-1977010Y-4200950D01*
X-1953010Y-4204930D01*
X-1937000Y-4210900D01*
X-1921000Y-4222840D01*
X-1910330Y-4236760D01*
X-1905000Y-4250690D01*
Y-4264620D01*
X-1910330Y-4278540D01*
X-1918330Y-4290480D01*
X-1929000Y-4300430D01*
G01X-1905000Y-4434590D02*
X-2065020D01*
X-1950340Y-4360970D01*
Y-4460450D01*
G01X-1937000Y-4526960D02*
X-1918330Y-4538890D01*
X-1907670Y-4554810D01*
X-1905000Y-4572720D01*
X-1907670Y-4588640D01*
X-1921000Y-4604560D01*
X-1937000Y-4614500D01*
X-1953010Y-4616490D01*
X-1971670Y-4612510D01*
X-1985010Y-4598580D01*
X-1990350Y-4584660D01*
Y-4566750D01*
G01Y-4584660D02*
X-1998340Y-4596600D01*
X-2011680Y-4606550D01*
X-2027680Y-4610520D01*
X-2043680Y-4606550D01*
X-2057020Y-4596600D01*
X-2065020Y-4578690D01*
X-2062350Y-4560780D01*
X-2051680Y-4542880D01*
G01X-1627200Y-4616400D02*
X-1827200D01*
Y-4116400D01*
X-1627200D01*
Y-4616400D01*
G01X-1380700Y-3630000D02*
Y-3469980D01*
X-1430440D01*
X-1446360Y-3477980D01*
X-1456310Y-3488650D01*
X-1460280Y-3509990D01*
X-1456310Y-3531320D01*
X-1444370Y-3544650D01*
X-1430440Y-3552660D01*
X-1380700D01*
G01X-1430440D02*
X-1460280Y-3630000D01*
G01X-1604390D02*
Y-3469980D01*
X-1530770Y-3584660D01*
X-1630250D01*
G01X-1740530Y-3630000D02*
Y-3469980D01*
X-1716650Y-3501980D01*
G01Y-3630000D02*
X-1764400D01*
G01X-1822400Y-3910000D02*
Y-3710000D01*
X-1322400D01*
Y-3910000D01*
X-1822400D01*
G01X-2051680Y-2821260D02*
X-2059690Y-2809320D01*
X-2065020Y-2795400D01*
Y-2779480D01*
X-2057020Y-2761570D01*
X-2043680Y-2747650D01*
X-2027680Y-2737700D01*
X-2001010Y-2729740D01*
X-1977010Y-2727750D01*
X-1953010Y-2731730D01*
X-1937000Y-2737700D01*
X-1921000Y-2749640D01*
X-1910330Y-2763560D01*
X-1905000Y-2777490D01*
Y-2791420D01*
X-1910330Y-2805340D01*
X-1918330Y-2817280D01*
X-1929000Y-2827230D01*
G01X-1905000Y-2961390D02*
X-2065020D01*
X-1950340Y-2887770D01*
Y-2987250D01*
G01X-1905000Y-3121410D02*
X-2065020D01*
X-1950340Y-3047790D01*
Y-3147270D01*
G01X-1627200Y-3143200D02*
X-1827200D01*
Y-2643200D01*
X-1627200D01*
Y-3143200D01*
G01X-1355300Y-2131400D02*
Y-1971380D01*
X-1405040D01*
X-1420960Y-1979380D01*
X-1430910Y-1990050D01*
X-1434880Y-2011390D01*
X-1430910Y-2032720D01*
X-1418970Y-2046050D01*
X-1405040Y-2054060D01*
X-1355300D01*
G01X-1405040D02*
X-1434880Y-2131400D01*
G01X-1578990D02*
Y-1971380D01*
X-1505370Y-2086060D01*
X-1604850D01*
G01X-1671360Y-2099400D02*
X-1683290Y-2118070D01*
X-1699210Y-2128730D01*
X-1717120Y-2131400D01*
X-1733040Y-2128730D01*
X-1748960Y-2115400D01*
X-1758900Y-2099400D01*
X-1760890Y-2083390D01*
X-1756910Y-2064730D01*
X-1742980Y-2051390D01*
X-1729060Y-2046050D01*
X-1711150D01*
G01X-1729060D02*
X-1741000Y-2038060D01*
X-1750950Y-2024720D01*
X-1754920Y-2008720D01*
X-1750950Y-1992720D01*
X-1741000Y-1979380D01*
X-1723090Y-1971380D01*
X-1705180Y-1974050D01*
X-1687280Y-1984720D01*
G01X-1822400Y-2386000D02*
Y-2186000D01*
X-1322400D01*
Y-2386000D01*
X-1822400D01*
G01X-2077080Y-1119460D02*
X-2085090Y-1107520D01*
X-2090420Y-1093600D01*
Y-1077680D01*
X-2082420Y-1059770D01*
X-2069080Y-1045850D01*
X-2053080Y-1035900D01*
X-2026410Y-1027940D01*
X-2002410Y-1025950D01*
X-1978410Y-1029930D01*
X-1962400Y-1035900D01*
X-1946400Y-1047840D01*
X-1935730Y-1061760D01*
X-1930400Y-1075690D01*
Y-1089620D01*
X-1935730Y-1103540D01*
X-1943730Y-1115480D01*
X-1954400Y-1125430D01*
G01X-1930400Y-1259590D02*
X-2090420D01*
X-1975740Y-1185970D01*
Y-1285450D01*
G01X-1997070Y-1357930D02*
X-2015750Y-1371850D01*
X-2026410Y-1383790D01*
X-2031740Y-1399710D01*
X-2026410Y-1413640D01*
X-2015750Y-1423580D01*
X-1999740Y-1431550D01*
X-1981070Y-1433530D01*
X-1965070Y-1431550D01*
X-1949070Y-1423580D01*
X-1935730Y-1411650D01*
X-1930400Y-1397720D01*
X-1935730Y-1381800D01*
X-1951730Y-1367880D01*
X-1975740Y-1359910D01*
X-2002410Y-1357930D01*
X-2037080Y-1361900D01*
X-2055750Y-1367880D01*
X-2074420Y-1377820D01*
X-2087750Y-1391750D01*
X-2090420Y-1405680D01*
X-2085090Y-1419610D01*
X-2071750Y-1429560D01*
G01X-1652600Y-1441400D02*
X-1852600D01*
Y-941400D01*
X-1652600D01*
Y-1441400D01*
G01X-1380700Y-480400D02*
Y-320380D01*
X-1430440D01*
X-1446360Y-328380D01*
X-1456310Y-339050D01*
X-1460280Y-360390D01*
X-1456310Y-381720D01*
X-1444370Y-395050D01*
X-1430440Y-403060D01*
X-1380700D01*
G01X-1430440D02*
X-1460280Y-480400D01*
G01X-1604390D02*
Y-320380D01*
X-1530770Y-435060D01*
X-1630250D01*
G01X-1696760Y-456400D02*
X-1708690Y-469730D01*
X-1722620Y-477730D01*
X-1740530Y-480400D01*
X-1758440Y-475070D01*
X-1772360Y-464400D01*
X-1782310Y-445730D01*
X-1784300Y-424400D01*
X-1780320Y-403060D01*
X-1770370Y-389720D01*
X-1756450Y-379060D01*
X-1742520Y-376390D01*
X-1728590Y-379060D01*
X-1710690Y-389720D01*
X-1716650Y-320380D01*
X-1770370D01*
G01X-1847800Y-735000D02*
Y-535000D01*
X-1347800D01*
Y-735000D01*
X-1847800D01*
G01X-2153280Y480740D02*
X-2161290Y492680D01*
X-2166620Y506600D01*
Y522520D01*
X-2158620Y540430D01*
X-2145280Y554350D01*
X-2129280Y564300D01*
X-2102610Y572260D01*
X-2078610Y574250D01*
X-2054610Y570270D01*
X-2038600Y564300D01*
X-2022600Y552360D01*
X-2011930Y538440D01*
X-2006600Y524510D01*
Y510580D01*
X-2011930Y496660D01*
X-2019930Y484720D01*
X-2030600Y474770D01*
G01X-2006600Y340610D02*
X-2166620D01*
X-2051940Y414230D01*
Y314750D01*
G01X-2006600Y204470D02*
X-2009270Y190540D01*
X-2017270Y174630D01*
X-2030600Y164680D01*
X-2049270Y160700D01*
X-2067940Y164680D01*
X-2083940Y176620D01*
X-2091950Y194520D01*
Y214420D01*
X-2097280Y226360D01*
X-2110610Y236310D01*
X-2129280Y240290D01*
X-2147950Y234310D01*
X-2161290Y220390D01*
X-2166620Y204470D01*
X-2161290Y188550D01*
X-2147950Y174630D01*
X-2129280Y168650D01*
X-2110610Y172640D01*
X-2097280Y182580D01*
X-2091950Y194520D01*
Y214420D01*
X-2083940Y232320D01*
X-2067940Y244260D01*
X-2049270Y248240D01*
X-2030600Y244260D01*
X-2017270Y234310D01*
X-2009270Y218400D01*
X-2006600Y204470D01*
G01X-1728800Y158800D02*
X-1928800D01*
Y658800D01*
X-1728800D01*
Y158800D01*
G01X-1924000Y839800D02*
Y1039800D01*
X-1424000D01*
Y839800D01*
X-1924000D01*
G01X-1493100Y1117600D02*
Y1277620D01*
X-1542840D01*
X-1558760Y1269620D01*
X-1568710Y1258950D01*
X-1572680Y1237610D01*
X-1568710Y1216280D01*
X-1556770Y1202950D01*
X-1542840Y1194940D01*
X-1493100D01*
G01X-1542840D02*
X-1572680Y1117600D01*
G01X-1716790D02*
Y1277620D01*
X-1643170Y1162940D01*
X-1742650D01*
G01X-1848950Y1117600D02*
X-1852930Y1152270D01*
X-1858900Y1181600D01*
X-1866860Y1208280D01*
X-1876810Y1237610D01*
X-1892720Y1277620D01*
X-1813140D01*
G01X-963340Y-6457320D02*
X-975280Y-6449310D01*
X-989200Y-6443980D01*
X-1005120D01*
X-1023030Y-6451980D01*
X-1036950Y-6465320D01*
X-1046900Y-6481320D01*
X-1054860Y-6507990D01*
X-1056850Y-6531990D01*
X-1052870Y-6555990D01*
X-1046900Y-6572000D01*
X-1034960Y-6588000D01*
X-1021040Y-6598670D01*
X-1007110Y-6604000D01*
X-993180D01*
X-979260Y-6598670D01*
X-967320Y-6590670D01*
X-957370Y-6580000D01*
G01X-890860D02*
X-878930Y-6593330D01*
X-865000Y-6601330D01*
X-847090Y-6604000D01*
X-829180Y-6598670D01*
X-815260Y-6588000D01*
X-805310Y-6569330D01*
X-803320Y-6548000D01*
X-807300Y-6526660D01*
X-817250Y-6513320D01*
X-831170Y-6502660D01*
X-845100Y-6499990D01*
X-859030Y-6502660D01*
X-876930Y-6513320D01*
X-870970Y-6443980D01*
X-817250D01*
G01X-1039800Y-6394400D02*
X-839800D01*
Y-5894400D01*
X-1039800D01*
Y-6394400D01*
G01X-1656500Y-5048000D02*
X-1646550Y-5064000D01*
X-1634620Y-5074670D01*
X-1620690Y-5080000D01*
X-1604770Y-5074670D01*
X-1592830Y-5064000D01*
X-1580890Y-5048000D01*
X-1576920Y-5026660D01*
Y-4919980D01*
G01X-1456690Y-5080000D02*
Y-4919980D01*
X-1480570Y-4951980D01*
G01Y-5080000D02*
X-1432820D01*
G01X-1272790D02*
Y-4919980D01*
X-1346410Y-5034660D01*
X-1246930D01*
G01X-1238880Y-4294460D02*
X-1246890Y-4282520D01*
X-1252220Y-4268600D01*
Y-4252680D01*
X-1244220Y-4234770D01*
X-1230880Y-4220850D01*
X-1214880Y-4210900D01*
X-1188210Y-4202940D01*
X-1164210Y-4200950D01*
X-1140210Y-4204930D01*
X-1124200Y-4210900D01*
X-1108200Y-4222840D01*
X-1097530Y-4236760D01*
X-1092200Y-4250690D01*
Y-4264620D01*
X-1097530Y-4278540D01*
X-1105530Y-4290480D01*
X-1116200Y-4300430D01*
G01X-1092200Y-4434590D02*
X-1252220D01*
X-1137540Y-4360970D01*
Y-4460450D01*
G01X-1225550Y-4532930D02*
X-1241550Y-4544860D01*
X-1249550Y-4558790D01*
X-1252220Y-4574710D01*
X-1246890Y-4594610D01*
X-1233550Y-4608530D01*
X-1217550Y-4612510D01*
X-1201540Y-4610520D01*
X-1188210Y-4602560D01*
X-1161540Y-4562770D01*
X-1142870Y-4544860D01*
X-1116200Y-4532930D01*
X-1092200Y-4528950D01*
Y-4612510D01*
G01X-1297000Y-4616400D02*
X-1497000D01*
Y-4116400D01*
X-1297000D01*
Y-4616400D01*
G01X-1590000Y-4230000D02*
X-950000D01*
Y-3390000D01*
X-1590000D01*
Y-4230000D01*
G01X-745700Y-3630000D02*
Y-3469980D01*
X-795440D01*
X-811360Y-3477980D01*
X-821310Y-3488650D01*
X-825280Y-3509990D01*
X-821310Y-3531320D01*
X-809370Y-3544650D01*
X-795440Y-3552660D01*
X-745700D01*
G01X-795440D02*
X-825280Y-3630000D01*
G01X-969390D02*
Y-3469980D01*
X-895770Y-3584660D01*
X-995250D01*
G01X-1105530Y-3469980D02*
X-1089610Y-3475310D01*
X-1077680Y-3488650D01*
X-1069710Y-3504650D01*
X-1063750Y-3525990D01*
X-1061760Y-3549990D01*
X-1063750Y-3574000D01*
X-1069710Y-3595330D01*
X-1077680Y-3611330D01*
X-1089610Y-3624670D01*
X-1105530Y-3630000D01*
X-1121450Y-3624670D01*
X-1133380Y-3611330D01*
X-1141350Y-3595330D01*
X-1147310Y-3574000D01*
X-1149300Y-3549990D01*
X-1147310Y-3525990D01*
X-1141350Y-3504650D01*
X-1133380Y-3488650D01*
X-1121450Y-3475310D01*
X-1105530Y-3469980D01*
G01X-1187400Y-3910000D02*
Y-3710000D01*
X-687400D01*
Y-3910000D01*
X-1187400D01*
G01X-1238880Y-2821260D02*
X-1246890Y-2809320D01*
X-1252220Y-2795400D01*
Y-2779480D01*
X-1244220Y-2761570D01*
X-1230880Y-2747650D01*
X-1214880Y-2737700D01*
X-1188210Y-2729740D01*
X-1164210Y-2727750D01*
X-1140210Y-2731730D01*
X-1124200Y-2737700D01*
X-1108200Y-2749640D01*
X-1097530Y-2763560D01*
X-1092200Y-2777490D01*
Y-2791420D01*
X-1097530Y-2805340D01*
X-1105530Y-2817280D01*
X-1116200Y-2827230D01*
G01X-1092200Y-2961390D02*
X-1252220D01*
X-1137540Y-2887770D01*
Y-2987250D01*
G01X-1116200Y-3053760D02*
X-1102870Y-3065690D01*
X-1094870Y-3079620D01*
X-1092200Y-3097530D01*
X-1097530Y-3115440D01*
X-1108200Y-3129360D01*
X-1126870Y-3139310D01*
X-1148200Y-3141300D01*
X-1169540Y-3137320D01*
X-1182880Y-3127370D01*
X-1193540Y-3113450D01*
X-1196210Y-3099520D01*
X-1193540Y-3085590D01*
X-1182880Y-3067690D01*
X-1252220Y-3073650D01*
Y-3127370D01*
G01X-1297000Y-3143200D02*
X-1497000D01*
Y-2643200D01*
X-1297000D01*
Y-3143200D01*
G01X-1409530Y-3225800D02*
Y-3316820D01*
X-1403100Y-3335870D01*
X-1390230Y-3348570D01*
X-1374150Y-3352800D01*
X-1358070Y-3348570D01*
X-1345200Y-3335870D01*
X-1338770Y-3316820D01*
Y-3225800D01*
G01X-1275210Y-3246970D02*
X-1265560Y-3234270D01*
X-1254300Y-3227920D01*
X-1241430Y-3225800D01*
X-1225350Y-3230030D01*
X-1214090Y-3240620D01*
X-1210870Y-3253310D01*
X-1212480Y-3266020D01*
X-1218920Y-3276600D01*
X-1251080Y-3297770D01*
X-1265560Y-3312580D01*
X-1275210Y-3333750D01*
X-1278430Y-3352800D01*
X-1210870D01*
G01X-1115150D02*
Y-3225800D01*
X-1134450Y-3251200D01*
G01Y-3352800D02*
X-1095850D01*
G01X-1590000Y-2706000D02*
X-950000D01*
Y-1866000D01*
X-1590000D01*
Y-2706000D01*
G01X-720300Y-2131400D02*
Y-1971380D01*
X-770040D01*
X-785960Y-1979380D01*
X-795910Y-1990050D01*
X-799880Y-2011390D01*
X-795910Y-2032720D01*
X-783970Y-2046050D01*
X-770040Y-2054060D01*
X-720300D01*
G01X-770040D02*
X-799880Y-2131400D01*
G01X-943990D02*
Y-1971380D01*
X-870370Y-2086060D01*
X-969850D01*
G01X-1042330Y-1998050D02*
X-1054260Y-1982050D01*
X-1068190Y-1974050D01*
X-1084110Y-1971380D01*
X-1104010Y-1976710D01*
X-1117930Y-1990050D01*
X-1121910Y-2006050D01*
X-1119920Y-2022060D01*
X-1111960Y-2035390D01*
X-1072170Y-2062060D01*
X-1054260Y-2080730D01*
X-1042330Y-2107400D01*
X-1038350Y-2131400D01*
X-1121910D01*
G01X-1187400Y-2386000D02*
Y-2186000D01*
X-687400D01*
Y-2386000D01*
X-1187400D01*
G01X-1289680Y-1119460D02*
X-1297690Y-1107520D01*
X-1303020Y-1093600D01*
Y-1077680D01*
X-1295020Y-1059770D01*
X-1281680Y-1045850D01*
X-1265680Y-1035900D01*
X-1239010Y-1027940D01*
X-1215010Y-1025950D01*
X-1191010Y-1029930D01*
X-1175000Y-1035900D01*
X-1159000Y-1047840D01*
X-1148330Y-1061760D01*
X-1143000Y-1075690D01*
Y-1089620D01*
X-1148330Y-1103540D01*
X-1156330Y-1115480D01*
X-1167000Y-1125430D01*
G01X-1143000Y-1259590D02*
X-1303020D01*
X-1188340Y-1185970D01*
Y-1285450D01*
G01X-1143000Y-1391750D02*
X-1177670Y-1395730D01*
X-1207000Y-1401700D01*
X-1233680Y-1409660D01*
X-1263010Y-1419610D01*
X-1303020Y-1435520D01*
Y-1355940D01*
G01X-1347800Y-1441400D02*
X-1547800D01*
Y-941400D01*
X-1347800D01*
Y-1441400D01*
G01X-1384130Y-1676400D02*
Y-1767420D01*
X-1377700Y-1786470D01*
X-1364830Y-1799170D01*
X-1348750Y-1803400D01*
X-1332670Y-1799170D01*
X-1319800Y-1786470D01*
X-1313370Y-1767420D01*
Y-1676400D01*
G01X-1249810Y-1697570D02*
X-1240160Y-1684870D01*
X-1228900Y-1678520D01*
X-1216030Y-1676400D01*
X-1199950Y-1680630D01*
X-1188690Y-1691220D01*
X-1185470Y-1703910D01*
X-1187080Y-1716620D01*
X-1193520Y-1727200D01*
X-1225680Y-1748370D01*
X-1240160Y-1763180D01*
X-1249810Y-1784350D01*
X-1253030Y-1803400D01*
X-1185470D01*
G01X-1120310Y-1697570D02*
X-1110660Y-1684870D01*
X-1099400Y-1678520D01*
X-1086530Y-1676400D01*
X-1070450Y-1680630D01*
X-1059190Y-1691220D01*
X-1055970Y-1703910D01*
X-1057580Y-1716620D01*
X-1064020Y-1727200D01*
X-1096180Y-1748370D01*
X-1110660Y-1763180D01*
X-1120310Y-1784350D01*
X-1123530Y-1803400D01*
X-1055970D01*
G01X-1590000Y-1055000D02*
X-950000D01*
Y-215000D01*
X-1590000D01*
Y-1055000D01*
G01X-720300Y-480400D02*
Y-320380D01*
X-770040D01*
X-785960Y-328380D01*
X-795910Y-339050D01*
X-799880Y-360390D01*
X-795910Y-381720D01*
X-783970Y-395050D01*
X-770040Y-403060D01*
X-720300D01*
G01X-770040D02*
X-799880Y-480400D01*
G01X-943990D02*
Y-320380D01*
X-870370Y-435060D01*
X-969850D01*
G01X-1104010Y-480400D02*
Y-320380D01*
X-1030390Y-435060D01*
X-1129870D01*
G01X-1187400Y-735000D02*
Y-535000D01*
X-687400D01*
Y-735000D01*
X-1187400D01*
G01X-1315080Y506140D02*
X-1323090Y518080D01*
X-1328420Y532000D01*
Y547920D01*
X-1320420Y565830D01*
X-1307080Y579750D01*
X-1291080Y589700D01*
X-1264410Y597660D01*
X-1240410Y599650D01*
X-1216410Y595670D01*
X-1200400Y589700D01*
X-1184400Y577760D01*
X-1173730Y563840D01*
X-1168400Y549910D01*
Y535980D01*
X-1173730Y522060D01*
X-1181730Y510120D01*
X-1192400Y500170D01*
G01X-1168400Y366010D02*
X-1328420D01*
X-1213740Y439630D01*
Y340150D01*
G01X-1187070Y263700D02*
X-1173730Y249770D01*
X-1168400Y233850D01*
X-1173730Y217930D01*
X-1189730Y204000D01*
X-1213740Y194050D01*
X-1237740Y190080D01*
X-1267080D01*
X-1291080Y194050D01*
X-1312420Y204000D01*
X-1323090Y215940D01*
X-1328420Y229870D01*
X-1323090Y245790D01*
X-1312420Y257720D01*
X-1296420Y265690D01*
X-1275080Y269660D01*
X-1256410Y265690D01*
X-1237740Y255740D01*
X-1227070Y243800D01*
X-1224400Y229870D01*
X-1229740Y213950D01*
X-1243070Y202020D01*
X-1267080Y190080D01*
G01X-1373200Y158800D02*
X-1573200D01*
Y658800D01*
X-1373200D01*
Y158800D01*
G01X-1409530Y-50800D02*
Y-141820D01*
X-1403100Y-160870D01*
X-1390230Y-173570D01*
X-1374150Y-177800D01*
X-1358070Y-173570D01*
X-1345200Y-160870D01*
X-1338770Y-141820D01*
Y-50800D01*
G01X-1275210Y-71970D02*
X-1265560Y-59270D01*
X-1254300Y-52920D01*
X-1241430Y-50800D01*
X-1225350Y-55030D01*
X-1214090Y-65620D01*
X-1210870Y-78310D01*
X-1212480Y-91020D01*
X-1218920Y-101600D01*
X-1251080Y-122770D01*
X-1265560Y-137580D01*
X-1275210Y-158750D01*
X-1278430Y-177800D01*
X-1210870D01*
G01X-1150530Y-152400D02*
X-1140890Y-167220D01*
X-1128020Y-175680D01*
X-1113540Y-177800D01*
X-1100670Y-175680D01*
X-1087810Y-165100D01*
X-1079770Y-152400D01*
X-1078160Y-139700D01*
X-1081370Y-124890D01*
X-1092630Y-114300D01*
X-1103890Y-110070D01*
X-1118370D01*
G01X-1103890D02*
X-1094240Y-103720D01*
X-1086200Y-93140D01*
X-1082980Y-80430D01*
X-1086200Y-67730D01*
X-1094240Y-57150D01*
X-1108720Y-50800D01*
X-1123190Y-52920D01*
X-1137670Y-61380D01*
G01X-1590000Y519800D02*
X-950000D01*
Y1359800D01*
X-1590000D01*
Y519800D01*
G01X-1187400Y839800D02*
Y1039800D01*
X-687400D01*
Y839800D01*
X-1187400D01*
G01X-1409530Y1549400D02*
Y1458380D01*
X-1403100Y1439330D01*
X-1390230Y1426630D01*
X-1374150Y1422400D01*
X-1358070Y1426630D01*
X-1345200Y1439330D01*
X-1338770Y1458380D01*
Y1549400D01*
G01X-1275210Y1528230D02*
X-1265560Y1540930D01*
X-1254300Y1547280D01*
X-1241430Y1549400D01*
X-1225350Y1545170D01*
X-1214090Y1534580D01*
X-1210870Y1521890D01*
X-1212480Y1509180D01*
X-1218920Y1498600D01*
X-1251080Y1477430D01*
X-1265560Y1462620D01*
X-1275210Y1441450D01*
X-1278430Y1422400D01*
X-1210870D01*
G01X-1095850D02*
Y1549400D01*
X-1155360Y1458380D01*
X-1074940D01*
G01X-756500Y1117600D02*
Y1277620D01*
X-806240D01*
X-822160Y1269620D01*
X-832110Y1258950D01*
X-836080Y1237610D01*
X-832110Y1216280D01*
X-820170Y1202950D01*
X-806240Y1194940D01*
X-756500D01*
G01X-806240D02*
X-836080Y1117600D01*
G01X-980190D02*
Y1277620D01*
X-906570Y1162940D01*
X-1006050D01*
G01X-1078530Y1184270D02*
X-1092450Y1202950D01*
X-1104390Y1213610D01*
X-1120310Y1218940D01*
X-1134240Y1213610D01*
X-1144180Y1202950D01*
X-1152150Y1186940D01*
X-1154130Y1168270D01*
X-1152150Y1152270D01*
X-1144180Y1136270D01*
X-1132250Y1122930D01*
X-1118320Y1117600D01*
X-1102400Y1122930D01*
X-1088480Y1138930D01*
X-1080510Y1162940D01*
X-1078530Y1189610D01*
X-1082500Y1224280D01*
X-1088480Y1242950D01*
X-1098420Y1261620D01*
X-1112350Y1274950D01*
X-1126280Y1277620D01*
X-1140210Y1272290D01*
X-1150160Y1258950D01*
G01X-400680Y-4294460D02*
X-408690Y-4282520D01*
X-414020Y-4268600D01*
Y-4252680D01*
X-406020Y-4234770D01*
X-392680Y-4220850D01*
X-376680Y-4210900D01*
X-350010Y-4202940D01*
X-326010Y-4200950D01*
X-302010Y-4204930D01*
X-286000Y-4210900D01*
X-270000Y-4222840D01*
X-259330Y-4236760D01*
X-254000Y-4250690D01*
Y-4264620D01*
X-259330Y-4278540D01*
X-267330Y-4290480D01*
X-278000Y-4300430D01*
G01X-286000Y-4366940D02*
X-267330Y-4378870D01*
X-256670Y-4394790D01*
X-254000Y-4412700D01*
X-256670Y-4428620D01*
X-270000Y-4444540D01*
X-286000Y-4454480D01*
X-302010Y-4456470D01*
X-320670Y-4452490D01*
X-334010Y-4438560D01*
X-339350Y-4424640D01*
Y-4406730D01*
G01Y-4424640D02*
X-347340Y-4436580D01*
X-360680Y-4446530D01*
X-376680Y-4450500D01*
X-392680Y-4446530D01*
X-406020Y-4436580D01*
X-414020Y-4418670D01*
X-411350Y-4400760D01*
X-400680Y-4382860D01*
G01X-254000Y-4594610D02*
X-414020D01*
X-299340Y-4520990D01*
Y-4620470D01*
G01X-400680Y-2821260D02*
X-408690Y-2809320D01*
X-414020Y-2795400D01*
Y-2779480D01*
X-406020Y-2761570D01*
X-392680Y-2747650D01*
X-376680Y-2737700D01*
X-350010Y-2729740D01*
X-326010Y-2727750D01*
X-302010Y-2731730D01*
X-286000Y-2737700D01*
X-270000Y-2749640D01*
X-259330Y-2763560D01*
X-254000Y-2777490D01*
Y-2791420D01*
X-259330Y-2805340D01*
X-267330Y-2817280D01*
X-278000Y-2827230D01*
G01X-286000Y-2893740D02*
X-267330Y-2905670D01*
X-256670Y-2921590D01*
X-254000Y-2939500D01*
X-256670Y-2955420D01*
X-270000Y-2971340D01*
X-286000Y-2981280D01*
X-302010Y-2983270D01*
X-320670Y-2979290D01*
X-334010Y-2965360D01*
X-339350Y-2951440D01*
Y-2933530D01*
G01Y-2951440D02*
X-347340Y-2963380D01*
X-360680Y-2973330D01*
X-376680Y-2977300D01*
X-392680Y-2973330D01*
X-406020Y-2963380D01*
X-414020Y-2945470D01*
X-411350Y-2927560D01*
X-400680Y-2909660D01*
G01X-320670Y-3059730D02*
X-339350Y-3073650D01*
X-350010Y-3085590D01*
X-355340Y-3101510D01*
X-350010Y-3115440D01*
X-339350Y-3125380D01*
X-323340Y-3133350D01*
X-304670Y-3135330D01*
X-288670Y-3133350D01*
X-272670Y-3125380D01*
X-259330Y-3113450D01*
X-254000Y-3099520D01*
X-259330Y-3083600D01*
X-275330Y-3069680D01*
X-299340Y-3061710D01*
X-326010Y-3059730D01*
X-360680Y-3063700D01*
X-379350Y-3069680D01*
X-398020Y-3079620D01*
X-411350Y-3093550D01*
X-414020Y-3107480D01*
X-408690Y-3121410D01*
X-395350Y-3131360D01*
G01X-1600Y-3143200D02*
X-201600D01*
Y-2643200D01*
X-1600D01*
Y-3143200D01*
G01X-196800Y-2386000D02*
Y-2186000D01*
X303200D01*
Y-2386000D01*
X-196800D01*
G01X-426080Y-1119460D02*
X-434090Y-1107520D01*
X-439420Y-1093600D01*
Y-1077680D01*
X-431420Y-1059770D01*
X-418080Y-1045850D01*
X-402080Y-1035900D01*
X-375410Y-1027940D01*
X-351410Y-1025950D01*
X-327410Y-1029930D01*
X-311400Y-1035900D01*
X-295400Y-1047840D01*
X-284730Y-1061760D01*
X-279400Y-1075690D01*
Y-1089620D01*
X-284730Y-1103540D01*
X-292730Y-1115480D01*
X-303400Y-1125430D01*
G01X-311400Y-1191940D02*
X-292730Y-1203870D01*
X-282070Y-1219790D01*
X-279400Y-1237700D01*
X-282070Y-1253620D01*
X-295400Y-1269540D01*
X-311400Y-1279480D01*
X-327410Y-1281470D01*
X-346070Y-1277490D01*
X-359410Y-1263560D01*
X-364750Y-1249640D01*
Y-1231730D01*
G01Y-1249640D02*
X-372740Y-1261580D01*
X-386080Y-1271530D01*
X-402080Y-1275500D01*
X-418080Y-1271530D01*
X-431420Y-1261580D01*
X-439420Y-1243670D01*
X-436750Y-1225760D01*
X-426080Y-1207860D01*
G01X-279400Y-1395730D02*
X-282070Y-1409660D01*
X-290070Y-1425570D01*
X-303400Y-1435520D01*
X-322070Y-1439500D01*
X-340740Y-1435520D01*
X-356740Y-1423580D01*
X-364750Y-1405680D01*
Y-1385780D01*
X-370080Y-1373840D01*
X-383410Y-1363890D01*
X-402080Y-1359910D01*
X-420750Y-1365890D01*
X-434090Y-1379810D01*
X-439420Y-1395730D01*
X-434090Y-1411650D01*
X-420750Y-1425570D01*
X-402080Y-1431550D01*
X-383410Y-1427560D01*
X-370080Y-1417620D01*
X-364750Y-1405680D01*
Y-1385780D01*
X-356740Y-1367880D01*
X-340740Y-1355940D01*
X-322070Y-1351960D01*
X-303400Y-1355940D01*
X-290070Y-1365890D01*
X-282070Y-1381800D01*
X-279400Y-1395730D01*
G01X-1600Y-1441400D02*
X-201600D01*
Y-941400D01*
X-1600D01*
Y-1441400D01*
G01X-196800Y-735000D02*
Y-535000D01*
X303200D01*
Y-735000D01*
X-196800D01*
G01X-324480Y480740D02*
X-332490Y492680D01*
X-337820Y506600D01*
Y522520D01*
X-329820Y540430D01*
X-316480Y554350D01*
X-300480Y564300D01*
X-273810Y572260D01*
X-249810Y574250D01*
X-225810Y570270D01*
X-209800Y564300D01*
X-193800Y552360D01*
X-183130Y538440D01*
X-177800Y524510D01*
Y510580D01*
X-183130Y496660D01*
X-191130Y484720D01*
X-201800Y474770D01*
G01X-177800Y340610D02*
X-337820D01*
X-223140Y414230D01*
Y314750D01*
G01X-337820Y204470D02*
X-332490Y220390D01*
X-319150Y232320D01*
X-303150Y240290D01*
X-281810Y246250D01*
X-257810Y248240D01*
X-233800Y246250D01*
X-212470Y240290D01*
X-196470Y232320D01*
X-183130Y220390D01*
X-177800Y204470D01*
X-183130Y188550D01*
X-196470Y176620D01*
X-212470Y168650D01*
X-233800Y162690D01*
X-257810Y160700D01*
X-281810Y162690D01*
X-303150Y168650D01*
X-319150Y176620D01*
X-332490Y188550D01*
X-337820Y204470D01*
G01X205060Y-6457320D02*
X193120Y-6449310D01*
X179200Y-6443980D01*
X163280D01*
X145370Y-6451980D01*
X131450Y-6465320D01*
X121500Y-6481320D01*
X113540Y-6507990D01*
X111550Y-6531990D01*
X115530Y-6555990D01*
X121500Y-6572000D01*
X133440Y-6588000D01*
X147360Y-6598670D01*
X161290Y-6604000D01*
X175220D01*
X189140Y-6598670D01*
X201080Y-6590670D01*
X211030Y-6580000D01*
G01X283510Y-6537330D02*
X297430Y-6518650D01*
X309370Y-6507990D01*
X325290Y-6502660D01*
X339220Y-6507990D01*
X349160Y-6518650D01*
X357130Y-6534660D01*
X359110Y-6553330D01*
X357130Y-6569330D01*
X349160Y-6585330D01*
X337230Y-6598670D01*
X323300Y-6604000D01*
X307380Y-6598670D01*
X293460Y-6582670D01*
X285490Y-6558660D01*
X283510Y-6531990D01*
X287480Y-6497320D01*
X293460Y-6478650D01*
X303400Y-6459980D01*
X317330Y-6446650D01*
X331260Y-6443980D01*
X345190Y-6449310D01*
X355140Y-6462650D01*
G01X154000Y-6394400D02*
X354000D01*
Y-5894400D01*
X154000D01*
Y-6394400D01*
G01X5420Y-5549900D02*
Y-5595410D01*
X8130Y-5604940D01*
X13550Y-5611280D01*
X20320Y-5613400D01*
X27090Y-5611280D01*
X32510Y-5604940D01*
X35220Y-5595410D01*
Y-5549900D01*
G01X61300Y-5600700D02*
X65360Y-5608110D01*
X70780Y-5612340D01*
X76880Y-5613400D01*
X82300Y-5612340D01*
X87720Y-5607050D01*
X91100Y-5600700D01*
X91780Y-5594350D01*
X90420Y-5586940D01*
X85680Y-5581650D01*
X80940Y-5579530D01*
X74850D01*
G01X80940D02*
X85010Y-5576360D01*
X88390Y-5571070D01*
X89750Y-5564720D01*
X88390Y-5558370D01*
X85010Y-5553080D01*
X78910Y-5549900D01*
X72810Y-5550960D01*
X66720Y-5555190D01*
G01X23800Y-4616400D02*
X-176200D01*
Y-4116400D01*
X23800D01*
Y-4616400D01*
G01X437520Y-4294460D02*
X429510Y-4282520D01*
X424180Y-4268600D01*
Y-4252680D01*
X432180Y-4234770D01*
X445520Y-4220850D01*
X461520Y-4210900D01*
X488190Y-4202940D01*
X512190Y-4200950D01*
X536190Y-4204930D01*
X552200Y-4210900D01*
X568200Y-4222840D01*
X578870Y-4236760D01*
X584200Y-4250690D01*
Y-4264620D01*
X578870Y-4278540D01*
X570870Y-4290480D01*
X560200Y-4300430D01*
G01X552200Y-4366940D02*
X570870Y-4378870D01*
X581530Y-4394790D01*
X584200Y-4412700D01*
X581530Y-4428620D01*
X568200Y-4444540D01*
X552200Y-4454480D01*
X536190Y-4456470D01*
X517530Y-4452490D01*
X504190Y-4438560D01*
X498850Y-4424640D01*
Y-4406730D01*
G01Y-4424640D02*
X490860Y-4436580D01*
X477520Y-4446530D01*
X461520Y-4450500D01*
X445520Y-4446530D01*
X432180Y-4436580D01*
X424180Y-4418670D01*
X426850Y-4400760D01*
X437520Y-4382860D01*
G01X560200Y-4526960D02*
X573530Y-4538890D01*
X581530Y-4552820D01*
X584200Y-4570730D01*
X578870Y-4588640D01*
X568200Y-4602560D01*
X549530Y-4612510D01*
X528200Y-4614500D01*
X506860Y-4610520D01*
X493520Y-4600570D01*
X482860Y-4586650D01*
X480190Y-4572720D01*
X482860Y-4558790D01*
X493520Y-4540890D01*
X424180Y-4546850D01*
Y-4600570D01*
G01X354000Y-4616400D02*
X154000D01*
Y-4116400D01*
X354000D01*
Y-4616400D01*
G01X527900Y-4946400D02*
X537850Y-4962400D01*
X549780Y-4973070D01*
X563710Y-4978400D01*
X579630Y-4973070D01*
X591570Y-4962400D01*
X603510Y-4946400D01*
X607480Y-4925060D01*
Y-4818380D01*
G01X683940Y-4946400D02*
X695870Y-4965070D01*
X711790Y-4975730D01*
X729700Y-4978400D01*
X745620Y-4975730D01*
X761540Y-4962400D01*
X771480Y-4946400D01*
X773470Y-4930390D01*
X769490Y-4911730D01*
X755560Y-4898390D01*
X741640Y-4893050D01*
X723730D01*
G01X741640D02*
X753580Y-4885060D01*
X763530Y-4871720D01*
X767500Y-4855720D01*
X763530Y-4839720D01*
X753580Y-4826380D01*
X735670Y-4818380D01*
X717760Y-4821050D01*
X699860Y-4831720D01*
G01X843960Y-4946400D02*
X855890Y-4965070D01*
X871810Y-4975730D01*
X889720Y-4978400D01*
X905640Y-4975730D01*
X921560Y-4962400D01*
X931500Y-4946400D01*
X933490Y-4930390D01*
X929510Y-4911730D01*
X915580Y-4898390D01*
X901660Y-4893050D01*
X883750D01*
G01X901660D02*
X913600Y-4885060D01*
X923550Y-4871720D01*
X927520Y-4855720D01*
X923550Y-4839720D01*
X913600Y-4826380D01*
X895690Y-4818380D01*
X877780Y-4821050D01*
X859880Y-4831720D01*
G01X86400Y-4230000D02*
X726400D01*
Y-3390000D01*
X86400D01*
Y-4230000D01*
G01X905300Y-3630000D02*
Y-3469980D01*
X855560D01*
X839640Y-3477980D01*
X829690Y-3488650D01*
X825720Y-3509990D01*
X829690Y-3531320D01*
X841630Y-3544650D01*
X855560Y-3552660D01*
X905300D01*
G01X855560D02*
X825720Y-3630000D01*
G01X749260Y-3598000D02*
X737330Y-3616670D01*
X721410Y-3627330D01*
X703500Y-3630000D01*
X687580Y-3627330D01*
X671660Y-3614000D01*
X661720Y-3598000D01*
X659730Y-3581990D01*
X663710Y-3563330D01*
X677640Y-3549990D01*
X691560Y-3544650D01*
X709470D01*
G01X691560D02*
X679620Y-3536660D01*
X669670Y-3523320D01*
X665700Y-3507320D01*
X669670Y-3491320D01*
X679620Y-3477980D01*
X697530Y-3469980D01*
X715440Y-3472650D01*
X733340Y-3483320D01*
G01X583270Y-3496650D02*
X571340Y-3480650D01*
X557410Y-3472650D01*
X541490Y-3469980D01*
X521590Y-3475310D01*
X507670Y-3488650D01*
X503690Y-3504650D01*
X505680Y-3520660D01*
X513640Y-3533990D01*
X553430Y-3560660D01*
X571340Y-3579330D01*
X583270Y-3606000D01*
X587250Y-3630000D01*
X503690D01*
G01X463600Y-3910000D02*
Y-3710000D01*
X963600D01*
Y-3910000D01*
X463600D01*
G01X270300Y-3630000D02*
Y-3469980D01*
X220560D01*
X204640Y-3477980D01*
X194690Y-3488650D01*
X190720Y-3509990D01*
X194690Y-3531320D01*
X206630Y-3544650D01*
X220560Y-3552660D01*
X270300D01*
G01X220560D02*
X190720Y-3630000D01*
G01X114260Y-3598000D02*
X102330Y-3616670D01*
X86410Y-3627330D01*
X68500Y-3630000D01*
X52580Y-3627330D01*
X36660Y-3614000D01*
X26720Y-3598000D01*
X24730Y-3581990D01*
X28710Y-3563330D01*
X42640Y-3549990D01*
X56560Y-3544650D01*
X74470D01*
G01X56560D02*
X44620Y-3536660D01*
X34670Y-3523320D01*
X30700Y-3507320D01*
X34670Y-3491320D01*
X44620Y-3477980D01*
X62530Y-3469980D01*
X80440Y-3472650D01*
X98340Y-3483320D01*
G01X-45760Y-3598000D02*
X-57690Y-3616670D01*
X-73610Y-3627330D01*
X-91520Y-3630000D01*
X-107440Y-3627330D01*
X-123360Y-3614000D01*
X-133300Y-3598000D01*
X-135290Y-3581990D01*
X-131310Y-3563330D01*
X-117380Y-3549990D01*
X-103460Y-3544650D01*
X-85550D01*
G01X-103460D02*
X-115400Y-3536660D01*
X-125350Y-3523320D01*
X-129320Y-3507320D01*
X-125350Y-3491320D01*
X-115400Y-3477980D01*
X-97490Y-3469980D01*
X-79580Y-3472650D01*
X-61680Y-3483320D01*
G01X-171400Y-3910000D02*
Y-3710000D01*
X328600D01*
Y-3910000D01*
X-171400D01*
G01X361320Y-2821260D02*
X353310Y-2809320D01*
X347980Y-2795400D01*
Y-2779480D01*
X355980Y-2761570D01*
X369320Y-2747650D01*
X385320Y-2737700D01*
X411990Y-2729740D01*
X435990Y-2727750D01*
X459990Y-2731730D01*
X476000Y-2737700D01*
X492000Y-2749640D01*
X502670Y-2763560D01*
X508000Y-2777490D01*
Y-2791420D01*
X502670Y-2805340D01*
X494670Y-2817280D01*
X484000Y-2827230D01*
G01X476000Y-2893740D02*
X494670Y-2905670D01*
X505330Y-2921590D01*
X508000Y-2939500D01*
X505330Y-2955420D01*
X492000Y-2971340D01*
X476000Y-2981280D01*
X459990Y-2983270D01*
X441330Y-2979290D01*
X427990Y-2965360D01*
X422650Y-2951440D01*
Y-2933530D01*
G01Y-2951440D02*
X414660Y-2963380D01*
X401320Y-2973330D01*
X385320Y-2977300D01*
X369320Y-2973330D01*
X355980Y-2963380D01*
X347980Y-2945470D01*
X350650Y-2927560D01*
X361320Y-2909660D01*
G01X508000Y-3093550D02*
X473330Y-3097530D01*
X444000Y-3103500D01*
X417320Y-3111460D01*
X387990Y-3121410D01*
X347980Y-3137320D01*
Y-3057740D01*
G01X303200Y-3143200D02*
X103200D01*
Y-2643200D01*
X303200D01*
Y-3143200D01*
G01X266870Y-3225800D02*
Y-3316820D01*
X273300Y-3335870D01*
X286170Y-3348570D01*
X302250Y-3352800D01*
X318330Y-3348570D01*
X331200Y-3335870D01*
X337630Y-3316820D01*
Y-3225800D01*
G01X431750Y-3352800D02*
Y-3225800D01*
X412450Y-3251200D01*
G01Y-3352800D02*
X451050D01*
G01X558030D02*
X561250Y-3325290D01*
X566080Y-3302000D01*
X572510Y-3280830D01*
X580550Y-3257550D01*
X593420Y-3225800D01*
X529080D01*
G01X86400Y-2706000D02*
X726400D01*
Y-1866000D01*
X86400D01*
Y-2706000D01*
G01X956100Y-2131400D02*
Y-1971380D01*
X906360D01*
X890440Y-1979380D01*
X880490Y-1990050D01*
X876520Y-2011390D01*
X880490Y-2032720D01*
X892430Y-2046050D01*
X906360Y-2054060D01*
X956100D01*
G01X906360D02*
X876520Y-2131400D01*
G01X800060Y-2099400D02*
X788130Y-2118070D01*
X772210Y-2128730D01*
X754300Y-2131400D01*
X738380Y-2128730D01*
X722460Y-2115400D01*
X712520Y-2099400D01*
X710530Y-2083390D01*
X714510Y-2064730D01*
X728440Y-2051390D01*
X742360Y-2046050D01*
X760270D01*
G01X742360D02*
X730420Y-2038060D01*
X720470Y-2024720D01*
X716500Y-2008720D01*
X720470Y-1992720D01*
X730420Y-1979380D01*
X748330Y-1971380D01*
X766240Y-1974050D01*
X784140Y-1984720D01*
G01X572390Y-2131400D02*
Y-1971380D01*
X646010Y-2086060D01*
X546530D01*
G01X489000Y-2386000D02*
Y-2186000D01*
X989000D01*
Y-2386000D01*
X489000D01*
G01X270300Y-2131400D02*
Y-1971380D01*
X220560D01*
X204640Y-1979380D01*
X194690Y-1990050D01*
X190720Y-2011390D01*
X194690Y-2032720D01*
X206630Y-2046050D01*
X220560Y-2054060D01*
X270300D01*
G01X220560D02*
X190720Y-2131400D01*
G01X114260Y-2099400D02*
X102330Y-2118070D01*
X86410Y-2128730D01*
X68500Y-2131400D01*
X52580Y-2128730D01*
X36660Y-2115400D01*
X26720Y-2099400D01*
X24730Y-2083390D01*
X28710Y-2064730D01*
X42640Y-2051390D01*
X56560Y-2046050D01*
X74470D01*
G01X56560D02*
X44620Y-2038060D01*
X34670Y-2024720D01*
X30700Y-2008720D01*
X34670Y-1992720D01*
X44620Y-1979380D01*
X62530Y-1971380D01*
X80440Y-1974050D01*
X98340Y-1984720D01*
G01X-45760Y-2107400D02*
X-57690Y-2120730D01*
X-71620Y-2128730D01*
X-89530Y-2131400D01*
X-107440Y-2126070D01*
X-121360Y-2115400D01*
X-131310Y-2096730D01*
X-133300Y-2075400D01*
X-129320Y-2054060D01*
X-119370Y-2040720D01*
X-105450Y-2030060D01*
X-91520Y-2027390D01*
X-77590Y-2030060D01*
X-59690Y-2040720D01*
X-65650Y-1971380D01*
X-119370D01*
G01X412120Y-1119460D02*
X404110Y-1107520D01*
X398780Y-1093600D01*
Y-1077680D01*
X406780Y-1059770D01*
X420120Y-1045850D01*
X436120Y-1035900D01*
X462790Y-1027940D01*
X486790Y-1025950D01*
X510790Y-1029930D01*
X526800Y-1035900D01*
X542800Y-1047840D01*
X553470Y-1061760D01*
X558800Y-1075690D01*
Y-1089620D01*
X553470Y-1103540D01*
X545470Y-1115480D01*
X534800Y-1125430D01*
G01X526800Y-1191940D02*
X545470Y-1203870D01*
X556130Y-1219790D01*
X558800Y-1237700D01*
X556130Y-1253620D01*
X542800Y-1269540D01*
X526800Y-1279480D01*
X510790Y-1281470D01*
X492130Y-1277490D01*
X478790Y-1263560D01*
X473450Y-1249640D01*
Y-1231730D01*
G01Y-1249640D02*
X465460Y-1261580D01*
X452120Y-1271530D01*
X436120Y-1275500D01*
X420120Y-1271530D01*
X406780Y-1261580D01*
X398780Y-1243670D01*
X401450Y-1225760D01*
X412120Y-1207860D01*
G01X540130Y-1361900D02*
X553470Y-1375830D01*
X558800Y-1391750D01*
X553470Y-1407670D01*
X537470Y-1421600D01*
X513460Y-1431550D01*
X489460Y-1435520D01*
X460120D01*
X436120Y-1431550D01*
X414780Y-1421600D01*
X404110Y-1409660D01*
X398780Y-1395730D01*
X404110Y-1379810D01*
X414780Y-1367880D01*
X430780Y-1359910D01*
X452120Y-1355940D01*
X470790Y-1359910D01*
X489460Y-1369860D01*
X500130Y-1381800D01*
X502800Y-1395730D01*
X497460Y-1411650D01*
X484130Y-1423580D01*
X460120Y-1435520D01*
G01X328600Y-1441400D02*
X128600D01*
Y-941400D01*
X328600D01*
Y-1441400D01*
G01X266870Y-1701800D02*
Y-1792820D01*
X273300Y-1811870D01*
X286170Y-1824570D01*
X302250Y-1828800D01*
X318330Y-1824570D01*
X331200Y-1811870D01*
X337630Y-1792820D01*
Y-1701800D01*
G01X431750Y-1828800D02*
Y-1701800D01*
X412450Y-1727200D01*
G01Y-1828800D02*
X451050D01*
G01X561250D02*
X572510Y-1826680D01*
X585370Y-1820340D01*
X593420Y-1809750D01*
X596630Y-1794930D01*
X593420Y-1780120D01*
X583770Y-1767420D01*
X569290Y-1761070D01*
X553210D01*
X543560Y-1756830D01*
X535510Y-1746250D01*
X532300Y-1731430D01*
X537130Y-1716620D01*
X548380Y-1706030D01*
X561250Y-1701800D01*
X574120Y-1706030D01*
X585370Y-1716620D01*
X590200Y-1731430D01*
X586980Y-1746250D01*
X578940Y-1756830D01*
X569290Y-1761070D01*
X553210D01*
X538730Y-1767420D01*
X529080Y-1780120D01*
X525870Y-1794930D01*
X529080Y-1809750D01*
X537130Y-1820340D01*
X549990Y-1826680D01*
X561250Y-1828800D01*
G01X111800Y-1055000D02*
X751800D01*
Y-215000D01*
X111800D01*
Y-1055000D01*
G01X539800Y-735000D02*
Y-535000D01*
X1039800D01*
Y-735000D01*
X539800D01*
G01X270300Y-480400D02*
Y-320380D01*
X220560D01*
X204640Y-328380D01*
X194690Y-339050D01*
X190720Y-360390D01*
X194690Y-381720D01*
X206630Y-395050D01*
X220560Y-403060D01*
X270300D01*
G01X220560D02*
X190720Y-480400D01*
G01X114260Y-448400D02*
X102330Y-467070D01*
X86410Y-477730D01*
X68500Y-480400D01*
X52580Y-477730D01*
X36660Y-464400D01*
X26720Y-448400D01*
X24730Y-432390D01*
X28710Y-413730D01*
X42640Y-400390D01*
X56560Y-395050D01*
X74470D01*
G01X56560D02*
X44620Y-387060D01*
X34670Y-373720D01*
X30700Y-357720D01*
X34670Y-341720D01*
X44620Y-328380D01*
X62530Y-320380D01*
X80440Y-323050D01*
X98340Y-333720D01*
G01X-85550Y-480400D02*
X-89530Y-445730D01*
X-95500Y-416400D01*
X-103460Y-389720D01*
X-113410Y-360390D01*
X-129320Y-320380D01*
X-49740D01*
G01X74600Y158800D02*
X-125400D01*
Y658800D01*
X74600D01*
Y158800D01*
G01X488320Y480740D02*
X480310Y492680D01*
X474980Y506600D01*
Y522520D01*
X482980Y540430D01*
X496320Y554350D01*
X512320Y564300D01*
X538990Y572260D01*
X562990Y574250D01*
X586990Y570270D01*
X603000Y564300D01*
X619000Y552360D01*
X629670Y538440D01*
X635000Y524510D01*
Y510580D01*
X629670Y496660D01*
X621670Y484720D01*
X611000Y474770D01*
G01X635000Y340610D02*
X474980D01*
X589660Y414230D01*
Y314750D01*
G01X635000Y204470D02*
X474980D01*
X506980Y228350D01*
G01X635000D02*
Y180600D01*
G01X404800Y158800D02*
X204800D01*
Y658800D01*
X404800D01*
Y158800D01*
G01X317670Y-25400D02*
Y-116420D01*
X324100Y-135470D01*
X336970Y-148170D01*
X353050Y-152400D01*
X369130Y-148170D01*
X382000Y-135470D01*
X388430Y-116420D01*
Y-25400D01*
G01X482550Y-152400D02*
Y-25400D01*
X463250Y-50800D01*
G01Y-152400D02*
X501850D01*
G01X584710Y-137590D02*
X595970Y-148170D01*
X608830Y-152400D01*
X621700Y-148170D01*
X632960Y-135470D01*
X641000Y-116420D01*
X644220Y-97370D01*
Y-74080D01*
X641000Y-55030D01*
X632960Y-38100D01*
X623310Y-29630D01*
X612050Y-25400D01*
X599180Y-29630D01*
X589530Y-38100D01*
X583100Y-50800D01*
X579880Y-67740D01*
X583100Y-82550D01*
X591140Y-97370D01*
X600790Y-105840D01*
X612050Y-107950D01*
X624920Y-103720D01*
X634570Y-93130D01*
X644220Y-74080D01*
G01X137200Y519800D02*
X777200D01*
Y1359800D01*
X137200D01*
Y519800D01*
G01X-120600Y839800D02*
Y1039800D01*
X379400D01*
Y839800D01*
X-120600D01*
G01X343070Y1549400D02*
Y1458380D01*
X349500Y1439330D01*
X362370Y1426630D01*
X378450Y1422400D01*
X394530Y1426630D01*
X407400Y1439330D01*
X413830Y1458380D01*
Y1549400D01*
G01X477390Y1528230D02*
X487040Y1540930D01*
X498300Y1547280D01*
X511170Y1549400D01*
X527250Y1545170D01*
X538510Y1534580D01*
X541730Y1521890D01*
X540120Y1509180D01*
X533680Y1498600D01*
X501520Y1477430D01*
X487040Y1462620D01*
X477390Y1441450D01*
X474170Y1422400D01*
X541730D01*
G01X637450Y1549400D02*
X624580Y1545170D01*
X614930Y1534580D01*
X608500Y1521890D01*
X603670Y1504950D01*
X602070Y1485900D01*
X603670Y1466850D01*
X608500Y1449910D01*
X614930Y1437210D01*
X624580Y1426630D01*
X637450Y1422400D01*
X650320Y1426630D01*
X659970Y1437210D01*
X666400Y1449910D01*
X671230Y1466850D01*
X672830Y1485900D01*
X671230Y1504950D01*
X666400Y1521890D01*
X659970Y1534580D01*
X650320Y1545170D01*
X637450Y1549400D01*
G01X321100Y1094400D02*
Y1254420D01*
X271360D01*
X255440Y1246420D01*
X245490Y1235750D01*
X241520Y1214410D01*
X245490Y1193080D01*
X257430Y1179750D01*
X271360Y1171740D01*
X321100D01*
G01X271360D02*
X241520Y1094400D01*
G01X165060Y1126400D02*
X153130Y1107730D01*
X137210Y1097070D01*
X119300Y1094400D01*
X103380Y1097070D01*
X87460Y1110400D01*
X77520Y1126400D01*
X75530Y1142410D01*
X79510Y1161070D01*
X93440Y1174410D01*
X107360Y1179750D01*
X125270D01*
G01X107360D02*
X95420Y1187740D01*
X85470Y1201080D01*
X81500Y1217080D01*
X85470Y1233080D01*
X95420Y1246420D01*
X113330Y1254420D01*
X131240Y1251750D01*
X149140Y1241080D01*
G01X-4900Y1113070D02*
X-18830Y1099730D01*
X-34750Y1094400D01*
X-50670Y1099730D01*
X-64600Y1115730D01*
X-74550Y1139740D01*
X-78520Y1163740D01*
Y1193080D01*
X-74550Y1217080D01*
X-64600Y1238420D01*
X-52660Y1249090D01*
X-38730Y1254420D01*
X-22810Y1249090D01*
X-10880Y1238420D01*
X-2910Y1222420D01*
X1060Y1201080D01*
X-2910Y1182410D01*
X-12860Y1163740D01*
X-24800Y1153070D01*
X-38730Y1150400D01*
X-54650Y1155740D01*
X-66580Y1169070D01*
X-78520Y1193080D01*
G01X1195400Y-5861000D02*
X1395400D01*
Y-5361000D01*
X1195400D01*
Y-5861000D01*
G01X1054100Y-5842000D02*
G03I-63500J0D01*
G01X1246460Y-5161920D02*
X1234520Y-5153910D01*
X1220600Y-5148580D01*
X1204680D01*
X1186770Y-5156580D01*
X1172850Y-5169920D01*
X1162900Y-5185920D01*
X1154940Y-5212590D01*
X1152950Y-5236590D01*
X1156930Y-5260590D01*
X1162900Y-5276600D01*
X1174840Y-5292600D01*
X1188760Y-5303270D01*
X1202690Y-5308600D01*
X1216620D01*
X1230540Y-5303270D01*
X1242480Y-5295270D01*
X1252430Y-5284600D01*
G01X1362710Y-5308600D02*
X1376640Y-5305930D01*
X1392550Y-5297930D01*
X1402500Y-5284600D01*
X1406480Y-5265930D01*
X1402500Y-5247260D01*
X1390560Y-5231260D01*
X1372660Y-5223250D01*
X1352760D01*
X1340820Y-5217920D01*
X1330870Y-5204590D01*
X1326890Y-5185920D01*
X1332870Y-5167250D01*
X1346790Y-5153910D01*
X1362710Y-5148580D01*
X1378630Y-5153910D01*
X1392550Y-5167250D01*
X1398530Y-5185920D01*
X1394540Y-5204590D01*
X1384600Y-5217920D01*
X1372660Y-5223250D01*
X1352760D01*
X1334860Y-5231260D01*
X1322920Y-5247260D01*
X1318940Y-5265930D01*
X1322920Y-5284600D01*
X1332870Y-5297930D01*
X1348780Y-5305930D01*
X1362710Y-5308600D01*
G01X793120Y-4319860D02*
X785110Y-4307920D01*
X779780Y-4294000D01*
Y-4278080D01*
X787780Y-4260170D01*
X801120Y-4246250D01*
X817120Y-4236300D01*
X843790Y-4228340D01*
X867790Y-4226350D01*
X891790Y-4230330D01*
X907800Y-4236300D01*
X923800Y-4248240D01*
X934470Y-4262160D01*
X939800Y-4276090D01*
Y-4290020D01*
X934470Y-4303940D01*
X926470Y-4315880D01*
X915800Y-4325830D01*
G01X806450Y-4398310D02*
X790450Y-4410240D01*
X782450Y-4424170D01*
X779780Y-4440090D01*
X785110Y-4459990D01*
X798450Y-4473910D01*
X814450Y-4477890D01*
X830460Y-4475900D01*
X843790Y-4467940D01*
X870460Y-4428150D01*
X889130Y-4410240D01*
X915800Y-4398310D01*
X939800Y-4394330D01*
Y-4477890D01*
G01X873130Y-4558330D02*
X854450Y-4572250D01*
X843790Y-4584190D01*
X838460Y-4600110D01*
X843790Y-4614040D01*
X854450Y-4623980D01*
X870460Y-4631950D01*
X889130Y-4633930D01*
X905130Y-4631950D01*
X921130Y-4623980D01*
X934470Y-4612050D01*
X939800Y-4598120D01*
X934470Y-4582200D01*
X918470Y-4568280D01*
X894460Y-4560310D01*
X867790Y-4558330D01*
X833120Y-4562300D01*
X814450Y-4568280D01*
X795780Y-4578220D01*
X782450Y-4592150D01*
X779780Y-4606080D01*
X785110Y-4620010D01*
X798450Y-4629960D01*
G01X1217600Y-4641800D02*
X1017600D01*
Y-4141800D01*
X1217600D01*
Y-4641800D01*
G01X1275720Y-2795860D02*
X1267710Y-2783920D01*
X1262380Y-2770000D01*
Y-2754080D01*
X1270380Y-2736170D01*
X1283720Y-2722250D01*
X1299720Y-2712300D01*
X1326390Y-2704340D01*
X1350390Y-2702350D01*
X1374390Y-2706330D01*
X1390400Y-2712300D01*
X1406400Y-2724240D01*
X1417070Y-2738160D01*
X1422400Y-2752090D01*
Y-2766020D01*
X1417070Y-2779940D01*
X1409070Y-2791880D01*
X1398400Y-2801830D01*
G01X1289050Y-2874310D02*
X1273050Y-2886240D01*
X1265050Y-2900170D01*
X1262380Y-2916090D01*
X1267710Y-2935990D01*
X1281050Y-2949910D01*
X1297050Y-2953890D01*
X1313060Y-2951900D01*
X1326390Y-2943940D01*
X1353060Y-2904150D01*
X1371730Y-2886240D01*
X1398400Y-2874310D01*
X1422400Y-2870330D01*
Y-2953890D01*
G01Y-3072130D02*
X1419730Y-3086060D01*
X1411730Y-3101970D01*
X1398400Y-3111920D01*
X1379730Y-3115900D01*
X1361060Y-3111920D01*
X1345060Y-3099980D01*
X1337050Y-3082080D01*
Y-3062180D01*
X1331720Y-3050240D01*
X1318390Y-3040290D01*
X1299720Y-3036310D01*
X1281050Y-3042290D01*
X1267710Y-3056210D01*
X1262380Y-3072130D01*
X1267710Y-3088050D01*
X1281050Y-3101970D01*
X1299720Y-3107950D01*
X1318390Y-3103960D01*
X1331720Y-3094020D01*
X1337050Y-3082080D01*
Y-3062180D01*
X1345060Y-3044280D01*
X1361060Y-3032340D01*
X1379730Y-3028360D01*
X1398400Y-3032340D01*
X1411730Y-3042290D01*
X1419730Y-3058200D01*
X1422400Y-3072130D01*
G01X1301120Y-1119460D02*
X1293110Y-1107520D01*
X1287780Y-1093600D01*
Y-1077680D01*
X1295780Y-1059770D01*
X1309120Y-1045850D01*
X1325120Y-1035900D01*
X1351790Y-1027940D01*
X1375790Y-1025950D01*
X1399790Y-1029930D01*
X1415800Y-1035900D01*
X1431800Y-1047840D01*
X1442470Y-1061760D01*
X1447800Y-1075690D01*
Y-1089620D01*
X1442470Y-1103540D01*
X1434470Y-1115480D01*
X1423800Y-1125430D01*
G01X1415800Y-1191940D02*
X1434470Y-1203870D01*
X1445130Y-1219790D01*
X1447800Y-1237700D01*
X1445130Y-1253620D01*
X1431800Y-1269540D01*
X1415800Y-1279480D01*
X1399790Y-1281470D01*
X1381130Y-1277490D01*
X1367790Y-1263560D01*
X1362450Y-1249640D01*
Y-1231730D01*
G01Y-1249640D02*
X1354460Y-1261580D01*
X1341120Y-1271530D01*
X1325120Y-1275500D01*
X1309120Y-1271530D01*
X1295780Y-1261580D01*
X1287780Y-1243670D01*
X1290450Y-1225760D01*
X1301120Y-1207860D01*
G01X1287780Y-1395730D02*
X1293110Y-1379810D01*
X1306450Y-1367880D01*
X1322450Y-1359910D01*
X1343790Y-1353950D01*
X1367790Y-1351960D01*
X1391800Y-1353950D01*
X1413130Y-1359910D01*
X1429130Y-1367880D01*
X1442470Y-1379810D01*
X1447800Y-1395730D01*
X1442470Y-1411650D01*
X1429130Y-1423580D01*
X1413130Y-1431550D01*
X1391800Y-1437510D01*
X1367790Y-1439500D01*
X1343790Y-1437510D01*
X1322450Y-1431550D01*
X1306450Y-1423580D01*
X1293110Y-1411650D01*
X1287780Y-1395730D01*
G01X1006900Y-480400D02*
Y-320380D01*
X957160D01*
X941240Y-328380D01*
X931290Y-339050D01*
X927320Y-360390D01*
X931290Y-381720D01*
X943230Y-395050D01*
X957160Y-403060D01*
X1006900D01*
G01X957160D02*
X927320Y-480400D01*
G01X850860Y-448400D02*
X838930Y-467070D01*
X823010Y-477730D01*
X805100Y-480400D01*
X789180Y-477730D01*
X773260Y-464400D01*
X763320Y-448400D01*
X761330Y-432390D01*
X765310Y-413730D01*
X779240Y-400390D01*
X793160Y-395050D01*
X811070D01*
G01X793160D02*
X781220Y-387060D01*
X771270Y-373720D01*
X767300Y-357720D01*
X771270Y-341720D01*
X781220Y-328380D01*
X799130Y-320380D01*
X817040Y-323050D01*
X834940Y-333720D01*
G01X684870Y-413730D02*
X670950Y-395050D01*
X659010Y-384390D01*
X643090Y-379060D01*
X629160Y-384390D01*
X619220Y-395050D01*
X611250Y-411060D01*
X609270Y-429730D01*
X611250Y-445730D01*
X619220Y-461730D01*
X631150Y-475070D01*
X645080Y-480400D01*
X661000Y-475070D01*
X674920Y-459070D01*
X682890Y-435060D01*
X684870Y-408390D01*
X680900Y-373720D01*
X674920Y-355050D01*
X664980Y-336380D01*
X651050Y-323050D01*
X637120Y-320380D01*
X623190Y-325710D01*
X613240Y-339050D01*
G01X1326520Y480740D02*
X1318510Y492680D01*
X1313180Y506600D01*
Y522520D01*
X1321180Y540430D01*
X1334520Y554350D01*
X1350520Y564300D01*
X1377190Y572260D01*
X1401190Y574250D01*
X1425190Y570270D01*
X1441200Y564300D01*
X1457200Y552360D01*
X1467870Y538440D01*
X1473200Y524510D01*
Y510580D01*
X1467870Y496660D01*
X1459870Y484720D01*
X1449200Y474770D01*
G01X1441200Y408260D02*
X1459870Y396330D01*
X1470530Y380410D01*
X1473200Y362500D01*
X1470530Y346580D01*
X1457200Y330660D01*
X1441200Y320720D01*
X1425190Y318730D01*
X1406530Y322710D01*
X1393190Y336640D01*
X1387850Y350560D01*
Y368470D01*
G01Y350560D02*
X1379860Y338620D01*
X1366520Y328670D01*
X1350520Y324700D01*
X1334520Y328670D01*
X1321180Y338620D01*
X1313180Y356530D01*
X1315850Y374440D01*
X1326520Y392340D01*
G01X1441200Y248240D02*
X1459870Y236310D01*
X1470530Y220390D01*
X1473200Y202480D01*
X1470530Y186560D01*
X1457200Y170640D01*
X1441200Y160700D01*
X1425190Y158710D01*
X1406530Y162690D01*
X1393190Y176620D01*
X1387850Y190540D01*
Y208450D01*
G01Y190540D02*
X1379860Y178600D01*
X1366520Y168650D01*
X1350520Y164680D01*
X1334520Y168650D01*
X1321180Y178600D01*
X1313180Y196510D01*
X1315850Y214420D01*
X1326520Y232320D01*
G01X590600Y839800D02*
Y1039800D01*
X1090600D01*
Y839800D01*
X590600D01*
G01X1032300Y1094400D02*
Y1254420D01*
X982560D01*
X966640Y1246420D01*
X956690Y1235750D01*
X952720Y1214410D01*
X956690Y1193080D01*
X968630Y1179750D01*
X982560Y1171740D01*
X1032300D01*
G01X982560D02*
X952720Y1094400D01*
G01X876260Y1126400D02*
X864330Y1107730D01*
X848410Y1097070D01*
X830500Y1094400D01*
X814580Y1097070D01*
X798660Y1110400D01*
X788720Y1126400D01*
X786730Y1142410D01*
X790710Y1161070D01*
X804640Y1174410D01*
X818560Y1179750D01*
X836470D01*
G01X818560D02*
X806620Y1187740D01*
X796670Y1201080D01*
X792700Y1217080D01*
X796670Y1233080D01*
X806620Y1246420D01*
X824530Y1254420D01*
X842440Y1251750D01*
X860340Y1241080D01*
G01X672470Y1094400D02*
X658540Y1097070D01*
X642630Y1105070D01*
X632680Y1118400D01*
X628700Y1137070D01*
X632680Y1155740D01*
X644620Y1171740D01*
X662520Y1179750D01*
X682420D01*
X694360Y1185080D01*
X704310Y1198410D01*
X708290Y1217080D01*
X702310Y1235750D01*
X688390Y1249090D01*
X672470Y1254420D01*
X656550Y1249090D01*
X642630Y1235750D01*
X636650Y1217080D01*
X640640Y1198410D01*
X650580Y1185080D01*
X662520Y1179750D01*
X682420D01*
X700320Y1171740D01*
X712260Y1155740D01*
X716240Y1137070D01*
X712260Y1118400D01*
X702310Y1105070D01*
X686400Y1097070D01*
X672470Y1094400D01*
G01X1605920Y-4319860D02*
X1597910Y-4307920D01*
X1592580Y-4294000D01*
Y-4278080D01*
X1600580Y-4260170D01*
X1613920Y-4246250D01*
X1629920Y-4236300D01*
X1656590Y-4228340D01*
X1680590Y-4226350D01*
X1704590Y-4230330D01*
X1720600Y-4236300D01*
X1736600Y-4248240D01*
X1747270Y-4262160D01*
X1752600Y-4276090D01*
Y-4290020D01*
X1747270Y-4303940D01*
X1739270Y-4315880D01*
X1728600Y-4325830D01*
G01X1619250Y-4398310D02*
X1603250Y-4410240D01*
X1595250Y-4424170D01*
X1592580Y-4440090D01*
X1597910Y-4459990D01*
X1611250Y-4473910D01*
X1627250Y-4477890D01*
X1643260Y-4475900D01*
X1656590Y-4467940D01*
X1683260Y-4428150D01*
X1701930Y-4410240D01*
X1728600Y-4398310D01*
X1752600Y-4394330D01*
Y-4477890D01*
G01Y-4592150D02*
X1717930Y-4596130D01*
X1688600Y-4602100D01*
X1661920Y-4610060D01*
X1632590Y-4620010D01*
X1592580Y-4635920D01*
Y-4556340D01*
G01X1547800Y-4641800D02*
X1347800D01*
Y-4141800D01*
X1547800D01*
Y-4641800D01*
G01X2001100Y-4413000D02*
X2011050Y-4429000D01*
X2022980Y-4439670D01*
X2036910Y-4445000D01*
X2052830Y-4439670D01*
X2064770Y-4429000D01*
X2076710Y-4413000D01*
X2080680Y-4391660D01*
Y-4284980D01*
G01X2157140Y-4413000D02*
X2169070Y-4431670D01*
X2184990Y-4442330D01*
X2202900Y-4445000D01*
X2218820Y-4442330D01*
X2234740Y-4429000D01*
X2244680Y-4413000D01*
X2246670Y-4396990D01*
X2242690Y-4378330D01*
X2228760Y-4364990D01*
X2214840Y-4359650D01*
X2196930D01*
G01X2214840D02*
X2226780Y-4351660D01*
X2236730Y-4338320D01*
X2240700Y-4322320D01*
X2236730Y-4306320D01*
X2226780Y-4292980D01*
X2208870Y-4284980D01*
X2190960Y-4287650D01*
X2173060Y-4298320D01*
G01X2384810Y-4445000D02*
Y-4284980D01*
X2311190Y-4399660D01*
X2410670D01*
G01X1866900Y-4876800D02*
G03I-63500J0D01*
G01X1788200Y-4255400D02*
X2428200D01*
Y-3415400D01*
X1788200D01*
Y-4255400D01*
G01X1972100Y-3655400D02*
Y-3495380D01*
X1922360D01*
X1906440Y-3503380D01*
X1896490Y-3514050D01*
X1892520Y-3535390D01*
X1896490Y-3556720D01*
X1908430Y-3570050D01*
X1922360Y-3578060D01*
X1972100D01*
G01X1922360D02*
X1892520Y-3655400D01*
G01X1810090Y-3522050D02*
X1798160Y-3506050D01*
X1784230Y-3498050D01*
X1768310Y-3495380D01*
X1748410Y-3500710D01*
X1734490Y-3514050D01*
X1730510Y-3530050D01*
X1732500Y-3546060D01*
X1740460Y-3559390D01*
X1780250Y-3586060D01*
X1798160Y-3604730D01*
X1810090Y-3631400D01*
X1814070Y-3655400D01*
X1730510D01*
G01X1656040Y-3631400D02*
X1644110Y-3644730D01*
X1630180Y-3652730D01*
X1612270Y-3655400D01*
X1594360Y-3650070D01*
X1580440Y-3639400D01*
X1570490Y-3620730D01*
X1568500Y-3599400D01*
X1572480Y-3578060D01*
X1582430Y-3564720D01*
X1596350Y-3554060D01*
X1610280Y-3551390D01*
X1624210Y-3554060D01*
X1642110Y-3564720D01*
X1636150Y-3495380D01*
X1582430D01*
G01X1530400Y-3935400D02*
Y-3735400D01*
X2030400D01*
Y-3935400D01*
X1530400D01*
G01X1700200Y-3143200D02*
X1500200D01*
Y-2643200D01*
X1700200D01*
Y-3143200D01*
G01X2088520Y-2795860D02*
X2080510Y-2783920D01*
X2075180Y-2770000D01*
Y-2754080D01*
X2083180Y-2736170D01*
X2096520Y-2722250D01*
X2112520Y-2712300D01*
X2139190Y-2704340D01*
X2163190Y-2702350D01*
X2187190Y-2706330D01*
X2203200Y-2712300D01*
X2219200Y-2724240D01*
X2229870Y-2738160D01*
X2235200Y-2752090D01*
Y-2766020D01*
X2229870Y-2779940D01*
X2221870Y-2791880D01*
X2211200Y-2801830D01*
G01X2101850Y-2874310D02*
X2085850Y-2886240D01*
X2077850Y-2900170D01*
X2075180Y-2916090D01*
X2080510Y-2935990D01*
X2093850Y-2949910D01*
X2109850Y-2953890D01*
X2125860Y-2951900D01*
X2139190Y-2943940D01*
X2165860Y-2904150D01*
X2184530Y-2886240D01*
X2211200Y-2874310D01*
X2235200Y-2870330D01*
Y-2953890D01*
G01X2216530Y-3038300D02*
X2229870Y-3052230D01*
X2235200Y-3068150D01*
X2229870Y-3084070D01*
X2213870Y-3098000D01*
X2189860Y-3107950D01*
X2165860Y-3111920D01*
X2136520D01*
X2112520Y-3107950D01*
X2091180Y-3098000D01*
X2080510Y-3086060D01*
X2075180Y-3072130D01*
X2080510Y-3056210D01*
X2091180Y-3044280D01*
X2107180Y-3036310D01*
X2128520Y-3032340D01*
X2147190Y-3036310D01*
X2165860Y-3046260D01*
X2176530Y-3058200D01*
X2179200Y-3072130D01*
X2173860Y-3088050D01*
X2160530Y-3099980D01*
X2136520Y-3111920D01*
G01X2030400Y-3143200D02*
X1830400D01*
Y-2643200D01*
X2030400D01*
Y-3143200D01*
G01X1994070Y-3251200D02*
Y-3342220D01*
X2000500Y-3361270D01*
X2013370Y-3373970D01*
X2029450Y-3378200D01*
X2045530Y-3373970D01*
X2058400Y-3361270D01*
X2064830Y-3342220D01*
Y-3251200D01*
G01X2158950Y-3378200D02*
Y-3251200D01*
X2139650Y-3276600D01*
G01Y-3378200D02*
X2178250D01*
G01X2253070Y-3352800D02*
X2262710Y-3367620D01*
X2275580Y-3376080D01*
X2290060Y-3378200D01*
X2302930Y-3376080D01*
X2315790Y-3365500D01*
X2323830Y-3352800D01*
X2325440Y-3340100D01*
X2322230Y-3325290D01*
X2310970Y-3314700D01*
X2299710Y-3310470D01*
X2285230D01*
G01X2299710D02*
X2309360Y-3304120D01*
X2317400Y-3293540D01*
X2320620Y-3280830D01*
X2317400Y-3268130D01*
X2309360Y-3257550D01*
X2294880Y-3251200D01*
X2280410Y-3253320D01*
X2265930Y-3261780D01*
G01X1788200Y-2655200D02*
X2428200D01*
Y-1815200D01*
X1788200D01*
Y-2655200D01*
G01X1972100Y-2080600D02*
Y-1920580D01*
X1922360D01*
X1906440Y-1928580D01*
X1896490Y-1939250D01*
X1892520Y-1960590D01*
X1896490Y-1981920D01*
X1908430Y-1995250D01*
X1922360Y-2003260D01*
X1972100D01*
G01X1922360D02*
X1892520Y-2080600D01*
G01X1810090Y-1947250D02*
X1798160Y-1931250D01*
X1784230Y-1923250D01*
X1768310Y-1920580D01*
X1748410Y-1925910D01*
X1734490Y-1939250D01*
X1730510Y-1955250D01*
X1732500Y-1971260D01*
X1740460Y-1984590D01*
X1780250Y-2011260D01*
X1798160Y-2029930D01*
X1810090Y-2056600D01*
X1814070Y-2080600D01*
X1730510D01*
G01X1616250D02*
X1612270Y-2045930D01*
X1606300Y-2016600D01*
X1598340Y-1989920D01*
X1588390Y-1960590D01*
X1572480Y-1920580D01*
X1652060D01*
G01X1505000Y-2335200D02*
Y-2135200D01*
X2005000D01*
Y-2335200D01*
X1505000D01*
G01X1700200Y-1441400D02*
X1500200D01*
Y-941400D01*
X1700200D01*
Y-1441400D01*
G01X2088520Y-1144860D02*
X2080510Y-1132920D01*
X2075180Y-1119000D01*
Y-1103080D01*
X2083180Y-1085170D01*
X2096520Y-1071250D01*
X2112520Y-1061300D01*
X2139190Y-1053340D01*
X2163190Y-1051350D01*
X2187190Y-1055330D01*
X2203200Y-1061300D01*
X2219200Y-1073240D01*
X2229870Y-1087160D01*
X2235200Y-1101090D01*
Y-1115020D01*
X2229870Y-1128940D01*
X2221870Y-1140880D01*
X2211200Y-1150830D01*
G01X2203200Y-1217340D02*
X2221870Y-1229270D01*
X2232530Y-1245190D01*
X2235200Y-1263100D01*
X2232530Y-1279020D01*
X2219200Y-1294940D01*
X2203200Y-1304880D01*
X2187190Y-1306870D01*
X2168530Y-1302890D01*
X2155190Y-1288960D01*
X2149850Y-1275040D01*
Y-1257130D01*
G01Y-1275040D02*
X2141860Y-1286980D01*
X2128520Y-1296930D01*
X2112520Y-1300900D01*
X2096520Y-1296930D01*
X2083180Y-1286980D01*
X2075180Y-1269070D01*
X2077850Y-1251160D01*
X2088520Y-1233260D01*
G01X2235200Y-1421130D02*
X2075180D01*
X2107180Y-1397250D01*
G01X2235200D02*
Y-1445000D01*
G01X2030400Y-1441400D02*
X1830400D01*
Y-941400D01*
X2030400D01*
Y-1441400D01*
G01X1994070Y-1625600D02*
Y-1716620D01*
X2000500Y-1735670D01*
X2013370Y-1748370D01*
X2029450Y-1752600D01*
X2045530Y-1748370D01*
X2058400Y-1735670D01*
X2064830Y-1716620D01*
Y-1625600D01*
G01X2158950Y-1752600D02*
Y-1625600D01*
X2139650Y-1651000D01*
G01Y-1752600D02*
X2178250D01*
G01X2307750D02*
Y-1625600D01*
X2248240Y-1716620D01*
X2328660D01*
G01X1788200Y-1055000D02*
X2428200D01*
Y-215000D01*
X1788200D01*
Y-1055000D01*
G01X1972100Y-480400D02*
Y-320380D01*
X1922360D01*
X1906440Y-328380D01*
X1896490Y-339050D01*
X1892520Y-360390D01*
X1896490Y-381720D01*
X1908430Y-395050D01*
X1922360Y-403060D01*
X1972100D01*
G01X1922360D02*
X1892520Y-480400D01*
G01X1810090Y-347050D02*
X1798160Y-331050D01*
X1784230Y-323050D01*
X1768310Y-320380D01*
X1748410Y-325710D01*
X1734490Y-339050D01*
X1730510Y-355050D01*
X1732500Y-371060D01*
X1740460Y-384390D01*
X1780250Y-411060D01*
X1798160Y-429730D01*
X1810090Y-456400D01*
X1814070Y-480400D01*
X1730510D01*
G01X1646100Y-461730D02*
X1632170Y-475070D01*
X1616250Y-480400D01*
X1600330Y-475070D01*
X1586400Y-459070D01*
X1576450Y-435060D01*
X1572480Y-411060D01*
Y-381720D01*
X1576450Y-357720D01*
X1586400Y-336380D01*
X1598340Y-325710D01*
X1612270Y-320380D01*
X1628190Y-325710D01*
X1640120Y-336380D01*
X1648090Y-352380D01*
X1652060Y-373720D01*
X1648090Y-392390D01*
X1638140Y-411060D01*
X1626200Y-421730D01*
X1612270Y-424400D01*
X1596350Y-419060D01*
X1584420Y-405730D01*
X1572480Y-381720D01*
G01X1505000Y-735000D02*
Y-535000D01*
X2005000D01*
Y-735000D01*
X1505000D01*
G01X2088520Y480740D02*
X2080510Y492680D01*
X2075180Y506600D01*
Y522520D01*
X2083180Y540430D01*
X2096520Y554350D01*
X2112520Y564300D01*
X2139190Y572260D01*
X2163190Y574250D01*
X2187190Y570270D01*
X2203200Y564300D01*
X2219200Y552360D01*
X2229870Y538440D01*
X2235200Y524510D01*
Y510580D01*
X2229870Y496660D01*
X2221870Y484720D01*
X2211200Y474770D01*
G01X2203200Y408260D02*
X2221870Y396330D01*
X2232530Y380410D01*
X2235200Y362500D01*
X2232530Y346580D01*
X2219200Y330660D01*
X2203200Y320720D01*
X2187190Y318730D01*
X2168530Y322710D01*
X2155190Y336640D01*
X2149850Y350560D01*
Y368470D01*
G01Y350560D02*
X2141860Y338620D01*
X2128520Y328670D01*
X2112520Y324700D01*
X2096520Y328670D01*
X2083180Y338620D01*
X2075180Y356530D01*
X2077850Y374440D01*
X2088520Y392340D01*
G01X2101850Y242270D02*
X2085850Y230340D01*
X2077850Y216410D01*
X2075180Y200490D01*
X2080510Y180590D01*
X2093850Y166670D01*
X2109850Y162690D01*
X2125860Y164680D01*
X2139190Y172640D01*
X2165860Y212430D01*
X2184530Y230340D01*
X2211200Y242270D01*
X2235200Y246250D01*
Y162690D01*
G01X2030400Y158800D02*
X1830400D01*
Y658800D01*
X2030400D01*
Y158800D01*
G01X1700200D02*
X1500200D01*
Y658800D01*
X1700200D01*
Y158800D01*
G01X1968670Y-50800D02*
Y-141820D01*
X1975100Y-160870D01*
X1987970Y-173570D01*
X2004050Y-177800D01*
X2020130Y-173570D01*
X2033000Y-160870D01*
X2039430Y-141820D01*
Y-50800D01*
G01X2133550Y-177800D02*
Y-50800D01*
X2114250Y-76200D01*
G01Y-177800D02*
X2152850D01*
G01X2227670Y-158750D02*
X2237310Y-169340D01*
X2248570Y-175680D01*
X2263050Y-177800D01*
X2277530Y-173570D01*
X2288780Y-165100D01*
X2296830Y-150290D01*
X2298430Y-133350D01*
X2295220Y-116420D01*
X2287170Y-105830D01*
X2275920Y-97370D01*
X2264660Y-95250D01*
X2253400Y-97370D01*
X2238930Y-105830D01*
X2243750Y-50800D01*
X2287170D01*
G01X1788200Y519800D02*
X2428200D01*
Y1359800D01*
X1788200D01*
Y519800D01*
G01X1505000Y839800D02*
Y1039800D01*
X2005000D01*
Y839800D01*
X1505000D01*
G01X1994070Y1549400D02*
Y1458380D01*
X2000500Y1439330D01*
X2013370Y1426630D01*
X2029450Y1422400D01*
X2045530Y1426630D01*
X2058400Y1439330D01*
X2064830Y1458380D01*
Y1549400D01*
G01X2158950Y1422400D02*
Y1549400D01*
X2139650Y1524000D01*
G01Y1422400D02*
X2178250D01*
G01X2257890Y1475310D02*
X2269150Y1490130D01*
X2278800Y1498600D01*
X2291670Y1502830D01*
X2302930Y1498600D01*
X2310970Y1490130D01*
X2317400Y1477430D01*
X2319010Y1462620D01*
X2317400Y1449910D01*
X2310970Y1437210D01*
X2301320Y1426630D01*
X2290060Y1422400D01*
X2277190Y1426630D01*
X2265930Y1439330D01*
X2259500Y1458380D01*
X2257890Y1479550D01*
X2261110Y1507060D01*
X2265930Y1521890D01*
X2273970Y1536700D01*
X2285230Y1547280D01*
X2296490Y1549400D01*
X2307750Y1545170D01*
X2315790Y1534580D01*
G01X1946700Y1094400D02*
Y1254420D01*
X1896960D01*
X1881040Y1246420D01*
X1871090Y1235750D01*
X1867120Y1214410D01*
X1871090Y1193080D01*
X1883030Y1179750D01*
X1896960Y1171740D01*
X1946700D01*
G01X1896960D02*
X1867120Y1094400D01*
G01X1790660Y1126400D02*
X1778730Y1107730D01*
X1762810Y1097070D01*
X1744900Y1094400D01*
X1728980Y1097070D01*
X1713060Y1110400D01*
X1703120Y1126400D01*
X1701130Y1142410D01*
X1705110Y1161070D01*
X1719040Y1174410D01*
X1732960Y1179750D01*
X1750870D01*
G01X1732960D02*
X1721020Y1187740D01*
X1711070Y1201080D01*
X1707100Y1217080D01*
X1711070Y1233080D01*
X1721020Y1246420D01*
X1738930Y1254420D01*
X1756840Y1251750D01*
X1774740Y1241080D01*
G01X1586870Y1094400D02*
Y1254420D01*
X1610750Y1222420D01*
G01Y1094400D02*
X1563000D01*
G01X2745060Y-6457320D02*
X2733120Y-6449310D01*
X2719200Y-6443980D01*
X2703280D01*
X2685370Y-6451980D01*
X2671450Y-6465320D01*
X2661500Y-6481320D01*
X2653540Y-6507990D01*
X2651550Y-6531990D01*
X2655530Y-6555990D01*
X2661500Y-6572000D01*
X2673440Y-6588000D01*
X2687360Y-6598670D01*
X2701290Y-6604000D01*
X2715220D01*
X2729140Y-6598670D01*
X2741080Y-6590670D01*
X2751030Y-6580000D01*
G01X2857330Y-6604000D02*
X2861310Y-6569330D01*
X2867280Y-6540000D01*
X2875240Y-6513320D01*
X2885190Y-6483990D01*
X2901100Y-6443980D01*
X2821520D01*
G01X2668600Y-6394400D02*
X2868600D01*
Y-5894400D01*
X2668600D01*
Y-6394400D01*
G01X2418420Y-5549900D02*
Y-5595410D01*
X2421130Y-5604940D01*
X2426550Y-5611280D01*
X2433320Y-5613400D01*
X2440090Y-5611280D01*
X2445510Y-5604940D01*
X2448220Y-5595410D01*
Y-5549900D01*
G01X2497330Y-5613400D02*
Y-5549900D01*
X2472270Y-5595410D01*
X2506130D01*
G01X2762000Y-5644300D02*
X2778000Y-5634350D01*
X2788670Y-5622420D01*
X2794000Y-5608490D01*
X2788670Y-5592570D01*
X2778000Y-5580630D01*
X2762000Y-5568690D01*
X2740660Y-5564720D01*
X2633980D01*
G01X2762000Y-5488260D02*
X2780670Y-5476330D01*
X2791330Y-5460410D01*
X2794000Y-5442500D01*
X2791330Y-5426580D01*
X2778000Y-5410660D01*
X2762000Y-5400720D01*
X2745990Y-5398730D01*
X2727330Y-5402710D01*
X2713990Y-5416640D01*
X2708650Y-5430560D01*
Y-5448470D01*
G01Y-5430560D02*
X2700660Y-5418620D01*
X2687320Y-5408670D01*
X2671320Y-5404700D01*
X2655320Y-5408670D01*
X2641980Y-5418620D01*
X2633980Y-5436530D01*
X2636650Y-5454440D01*
X2647320Y-5472340D01*
G01X2660650Y-5322270D02*
X2644650Y-5310340D01*
X2636650Y-5296410D01*
X2633980Y-5280490D01*
X2639310Y-5260590D01*
X2652650Y-5246670D01*
X2668650Y-5242690D01*
X2684660Y-5244680D01*
X2697990Y-5252640D01*
X2724660Y-5292430D01*
X2743330Y-5310340D01*
X2770000Y-5322270D01*
X2794000Y-5326250D01*
Y-5242690D01*
G01X2708700Y-3655400D02*
Y-3495380D01*
X2658960D01*
X2643040Y-3503380D01*
X2633090Y-3514050D01*
X2629120Y-3535390D01*
X2633090Y-3556720D01*
X2645030Y-3570050D01*
X2658960Y-3578060D01*
X2708700D01*
G01X2658960D02*
X2629120Y-3655400D01*
G01X2546690Y-3522050D02*
X2534760Y-3506050D01*
X2520830Y-3498050D01*
X2504910Y-3495380D01*
X2485010Y-3500710D01*
X2471090Y-3514050D01*
X2467110Y-3530050D01*
X2469100Y-3546060D01*
X2477060Y-3559390D01*
X2516850Y-3586060D01*
X2534760Y-3604730D01*
X2546690Y-3631400D01*
X2550670Y-3655400D01*
X2467110D01*
G01X2324990D02*
Y-3495380D01*
X2398610Y-3610060D01*
X2299130D01*
G01X2267000Y-3935400D02*
Y-3735400D01*
X2767000D01*
Y-3935400D01*
X2267000D01*
G01X2683300Y-2080600D02*
Y-1920580D01*
X2633560D01*
X2617640Y-1928580D01*
X2607690Y-1939250D01*
X2603720Y-1960590D01*
X2607690Y-1981920D01*
X2619630Y-1995250D01*
X2633560Y-2003260D01*
X2683300D01*
G01X2633560D02*
X2603720Y-2080600D01*
G01X2521290Y-1947250D02*
X2509360Y-1931250D01*
X2495430Y-1923250D01*
X2479510Y-1920580D01*
X2459610Y-1925910D01*
X2445690Y-1939250D01*
X2441710Y-1955250D01*
X2443700Y-1971260D01*
X2451660Y-1984590D01*
X2491450Y-2011260D01*
X2509360Y-2029930D01*
X2521290Y-2056600D01*
X2525270Y-2080600D01*
X2441710D01*
G01X2361270Y-2013930D02*
X2347350Y-1995250D01*
X2335410Y-1984590D01*
X2319490Y-1979260D01*
X2305560Y-1984590D01*
X2295620Y-1995250D01*
X2287650Y-2011260D01*
X2285670Y-2029930D01*
X2287650Y-2045930D01*
X2295620Y-2061930D01*
X2307550Y-2075270D01*
X2321480Y-2080600D01*
X2337400Y-2075270D01*
X2351320Y-2059270D01*
X2359290Y-2035260D01*
X2361270Y-2008590D01*
X2357300Y-1973920D01*
X2351320Y-1955250D01*
X2341380Y-1936580D01*
X2327450Y-1923250D01*
X2313520Y-1920580D01*
X2299590Y-1925910D01*
X2289640Y-1939250D01*
G01X2216200Y-2335200D02*
Y-2135200D01*
X2716200D01*
Y-2335200D01*
X2216200D01*
G01X2657900Y-480400D02*
Y-320380D01*
X2608160D01*
X2592240Y-328380D01*
X2582290Y-339050D01*
X2578320Y-360390D01*
X2582290Y-381720D01*
X2594230Y-395050D01*
X2608160Y-403060D01*
X2657900D01*
G01X2608160D02*
X2578320Y-480400D01*
G01X2495890Y-347050D02*
X2483960Y-331050D01*
X2470030Y-323050D01*
X2454110Y-320380D01*
X2434210Y-325710D01*
X2420290Y-339050D01*
X2416310Y-355050D01*
X2418300Y-371060D01*
X2426260Y-384390D01*
X2466050Y-411060D01*
X2483960Y-429730D01*
X2495890Y-456400D01*
X2499870Y-480400D01*
X2416310D01*
G01X2298070D02*
X2284140Y-477730D01*
X2268230Y-469730D01*
X2258280Y-456400D01*
X2254300Y-437730D01*
X2258280Y-419060D01*
X2270220Y-403060D01*
X2288120Y-395050D01*
X2308020D01*
X2319960Y-389720D01*
X2329910Y-376390D01*
X2333890Y-357720D01*
X2327910Y-339050D01*
X2313990Y-325710D01*
X2298070Y-320380D01*
X2282150Y-325710D01*
X2268230Y-339050D01*
X2262250Y-357720D01*
X2266240Y-376390D01*
X2276180Y-389720D01*
X2288120Y-395050D01*
X2308020D01*
X2325920Y-403060D01*
X2337860Y-419060D01*
X2341840Y-437730D01*
X2337860Y-456400D01*
X2327910Y-469730D01*
X2312000Y-477730D01*
X2298070Y-480400D01*
G01X2190800Y-735000D02*
Y-535000D01*
X2690800D01*
Y-735000D01*
X2190800D01*
G01X2216200Y839800D02*
Y1039800D01*
X2716200D01*
Y839800D01*
X2216200D01*
G01X2657900Y1094400D02*
Y1254420D01*
X2608160D01*
X2592240Y1246420D01*
X2582290Y1235750D01*
X2578320Y1214410D01*
X2582290Y1193080D01*
X2594230Y1179750D01*
X2608160Y1171740D01*
X2657900D01*
G01X2608160D02*
X2578320Y1094400D01*
G01X2501860Y1126400D02*
X2489930Y1107730D01*
X2474010Y1097070D01*
X2456100Y1094400D01*
X2440180Y1097070D01*
X2424260Y1110400D01*
X2414320Y1126400D01*
X2412330Y1142410D01*
X2416310Y1161070D01*
X2430240Y1174410D01*
X2444160Y1179750D01*
X2462070D01*
G01X2444160D02*
X2432220Y1187740D01*
X2422270Y1201080D01*
X2418300Y1217080D01*
X2422270Y1233080D01*
X2432220Y1246420D01*
X2450130Y1254420D01*
X2468040Y1251750D01*
X2485940Y1241080D01*
G01X2298070Y1254420D02*
X2313990Y1249090D01*
X2325920Y1235750D01*
X2333890Y1219750D01*
X2339850Y1198410D01*
X2341840Y1174410D01*
X2339850Y1150400D01*
X2333890Y1129070D01*
X2325920Y1113070D01*
X2313990Y1099730D01*
X2298070Y1094400D01*
X2282150Y1099730D01*
X2270220Y1113070D01*
X2262250Y1129070D01*
X2256290Y1150400D01*
X2254300Y1174410D01*
X2256290Y1198410D01*
X2262250Y1219750D01*
X2270220Y1235750D01*
X2282150Y1249090D01*
X2298070Y1254420D01*
G01X3230670Y-5991860D02*
X3255010Y-6070600D01*
X3279350Y-5991860D01*
G01X3322070D02*
X3345430D01*
G01X3333750D02*
Y-6070600D01*
G01X3322070D02*
X3345430D01*
G01X3390100D02*
Y-5991860D01*
X3434880Y-6070600D01*
Y-5991860D01*
G01X3478570Y-6044350D02*
X3503890D01*
G01X3429000Y-6578600D02*
Y-4800600D01*
X4699000D01*
Y-6578600D01*
X3429000D01*
G01X3111500Y-5689600D02*
G03I-63500J0D01*
G01X3205270Y-5204460D02*
X3229610Y-5283200D01*
X3253950Y-5204460D01*
G01X3296670D02*
X3320030D01*
G01X3308350D02*
Y-5283200D01*
G01X3296670D02*
X3320030D01*
G01X3364700D02*
Y-5204460D01*
X3409480Y-5283200D01*
Y-5204460D01*
G01X3455120Y-5256950D02*
X3478490D01*
G01X3465830Y-5239890D02*
Y-5274020D01*
G01X2875920Y-4269060D02*
X2867910Y-4257120D01*
X2862580Y-4243200D01*
Y-4227280D01*
X2870580Y-4209370D01*
X2883920Y-4195450D01*
X2899920Y-4185500D01*
X2926590Y-4177540D01*
X2950590Y-4175550D01*
X2974590Y-4179530D01*
X2990600Y-4185500D01*
X3006600Y-4197440D01*
X3017270Y-4211360D01*
X3022600Y-4225290D01*
Y-4239220D01*
X3017270Y-4253140D01*
X3009270Y-4265080D01*
X2998600Y-4275030D01*
G01X3022600Y-4385310D02*
X2862580D01*
X2894580Y-4361430D01*
G01X3022600D02*
Y-4409180D01*
G01Y-4545330D02*
X3019930Y-4559260D01*
X3011930Y-4575170D01*
X2998600Y-4585120D01*
X2979930Y-4589100D01*
X2961260Y-4585120D01*
X2945260Y-4573180D01*
X2937250Y-4555280D01*
Y-4535380D01*
X2931920Y-4523440D01*
X2918590Y-4513490D01*
X2899920Y-4509510D01*
X2881250Y-4515490D01*
X2867910Y-4529410D01*
X2862580Y-4545330D01*
X2867910Y-4561250D01*
X2881250Y-4575170D01*
X2899920Y-4581150D01*
X2918590Y-4577160D01*
X2931920Y-4567220D01*
X2937250Y-4555280D01*
Y-4535380D01*
X2945260Y-4517480D01*
X2961260Y-4505540D01*
X2979930Y-4501560D01*
X2998600Y-4505540D01*
X3011930Y-4515490D01*
X3019930Y-4531400D01*
X3022600Y-4545330D01*
G01X3300400Y-4616400D02*
X3100400D01*
Y-4116400D01*
X3300400D01*
Y-4616400D01*
G01X3656000D02*
X3456000D01*
Y-4116400D01*
X3656000D01*
Y-4616400D01*
G01X3439200Y-4230000D02*
X4079200D01*
Y-3390000D01*
X3439200D01*
Y-4230000D01*
G01X3546900Y-3630000D02*
Y-3469980D01*
X3497160D01*
X3481240Y-3477980D01*
X3471290Y-3488650D01*
X3467320Y-3509990D01*
X3471290Y-3531320D01*
X3483230Y-3544650D01*
X3497160Y-3552660D01*
X3546900D01*
G01X3497160D02*
X3467320Y-3630000D01*
G01X3347090D02*
Y-3469980D01*
X3370970Y-3501980D01*
G01Y-3630000D02*
X3323220D01*
G01X3191050D02*
X3187070Y-3595330D01*
X3181100Y-3566000D01*
X3173140Y-3539320D01*
X3163190Y-3509990D01*
X3147280Y-3469980D01*
X3226860D01*
G01X3105200Y-3910000D02*
Y-3710000D01*
X3605200D01*
Y-3910000D01*
X3105200D01*
G01X2952120Y-2821260D02*
X2944110Y-2809320D01*
X2938780Y-2795400D01*
Y-2779480D01*
X2946780Y-2761570D01*
X2960120Y-2747650D01*
X2976120Y-2737700D01*
X3002790Y-2729740D01*
X3026790Y-2727750D01*
X3050790Y-2731730D01*
X3066800Y-2737700D01*
X3082800Y-2749640D01*
X3093470Y-2763560D01*
X3098800Y-2777490D01*
Y-2791420D01*
X3093470Y-2805340D01*
X3085470Y-2817280D01*
X3074800Y-2827230D01*
G01X2965450Y-2899710D02*
X2949450Y-2911640D01*
X2941450Y-2925570D01*
X2938780Y-2941490D01*
X2944110Y-2961390D01*
X2957450Y-2975310D01*
X2973450Y-2979290D01*
X2989460Y-2977300D01*
X3002790Y-2969340D01*
X3029460Y-2929550D01*
X3048130Y-2911640D01*
X3074800Y-2899710D01*
X3098800Y-2895730D01*
Y-2979290D01*
G01X2938780Y-3097530D02*
X2944110Y-3081610D01*
X2957450Y-3069680D01*
X2973450Y-3061710D01*
X2994790Y-3055750D01*
X3018790Y-3053760D01*
X3042800Y-3055750D01*
X3064130Y-3061710D01*
X3080130Y-3069680D01*
X3093470Y-3081610D01*
X3098800Y-3097530D01*
X3093470Y-3113450D01*
X3080130Y-3125380D01*
X3064130Y-3133350D01*
X3042800Y-3139310D01*
X3018790Y-3141300D01*
X2994790Y-3139310D01*
X2973450Y-3133350D01*
X2957450Y-3125380D01*
X2944110Y-3113450D01*
X2938780Y-3097530D01*
G01X3376600Y-3143200D02*
X3176600D01*
Y-2643200D01*
X3376600D01*
Y-3143200D01*
G01X3706800D02*
X3506800D01*
Y-2643200D01*
X3706800D01*
Y-3143200D01*
G01X3439200Y-2680600D02*
X4079200D01*
Y-1840600D01*
X3439200D01*
Y-2680600D01*
G01X3648500Y-2106000D02*
Y-1945980D01*
X3598760D01*
X3582840Y-1953980D01*
X3572890Y-1964650D01*
X3568920Y-1985990D01*
X3572890Y-2007320D01*
X3584830Y-2020650D01*
X3598760Y-2028660D01*
X3648500D01*
G01X3598760D02*
X3568920Y-2106000D01*
G01X3448690D02*
Y-1945980D01*
X3472570Y-1977980D01*
G01Y-2106000D02*
X3424820D01*
G01X3322500Y-2087330D02*
X3308570Y-2100670D01*
X3292650Y-2106000D01*
X3276730Y-2100670D01*
X3262800Y-2084670D01*
X3252850Y-2060660D01*
X3248880Y-2036660D01*
Y-2007320D01*
X3252850Y-1983320D01*
X3262800Y-1961980D01*
X3274740Y-1951310D01*
X3288670Y-1945980D01*
X3304590Y-1951310D01*
X3316520Y-1961980D01*
X3324490Y-1977980D01*
X3328460Y-1999320D01*
X3324490Y-2017990D01*
X3314540Y-2036660D01*
X3302600Y-2047330D01*
X3288670Y-2050000D01*
X3272750Y-2044660D01*
X3260820Y-2031330D01*
X3248880Y-2007320D01*
G01X3181400Y-2360600D02*
Y-2160600D01*
X3681400D01*
Y-2360600D01*
X3181400D01*
G01X2901320Y-1144860D02*
X2893310Y-1132920D01*
X2887980Y-1119000D01*
Y-1103080D01*
X2895980Y-1085170D01*
X2909320Y-1071250D01*
X2925320Y-1061300D01*
X2951990Y-1053340D01*
X2975990Y-1051350D01*
X2999990Y-1055330D01*
X3016000Y-1061300D01*
X3032000Y-1073240D01*
X3042670Y-1087160D01*
X3048000Y-1101090D01*
Y-1115020D01*
X3042670Y-1128940D01*
X3034670Y-1140880D01*
X3024000Y-1150830D01*
G01X2914650Y-1223310D02*
X2898650Y-1235240D01*
X2890650Y-1249170D01*
X2887980Y-1265090D01*
X2893310Y-1284990D01*
X2906650Y-1298910D01*
X2922650Y-1302890D01*
X2938660Y-1300900D01*
X2951990Y-1292940D01*
X2978660Y-1253150D01*
X2997330Y-1235240D01*
X3024000Y-1223310D01*
X3048000Y-1219330D01*
Y-1302890D01*
G01X2914650Y-1383330D02*
X2898650Y-1395260D01*
X2890650Y-1409190D01*
X2887980Y-1425110D01*
X2893310Y-1445010D01*
X2906650Y-1458930D01*
X2922650Y-1462910D01*
X2938660Y-1460920D01*
X2951990Y-1452960D01*
X2978660Y-1413170D01*
X2997330Y-1395260D01*
X3024000Y-1383330D01*
X3048000Y-1379350D01*
Y-1462910D01*
G01X3325800Y-1441400D02*
X3125800D01*
Y-941400D01*
X3325800D01*
Y-1441400D01*
G01X3681400D02*
X3481400D01*
Y-941400D01*
X3681400D01*
Y-1441400D01*
G01X3619670Y-1651000D02*
Y-1742020D01*
X3626100Y-1761070D01*
X3638970Y-1773770D01*
X3655050Y-1778000D01*
X3671130Y-1773770D01*
X3684000Y-1761070D01*
X3690430Y-1742020D01*
Y-1651000D01*
G01X3784550Y-1778000D02*
Y-1651000D01*
X3765250Y-1676400D01*
G01Y-1778000D02*
X3803850D01*
G01X3914050Y-1651000D02*
X3901180Y-1655230D01*
X3891530Y-1665820D01*
X3885100Y-1678510D01*
X3880270Y-1695450D01*
X3878670Y-1714500D01*
X3880270Y-1733550D01*
X3885100Y-1750490D01*
X3891530Y-1763190D01*
X3901180Y-1773770D01*
X3914050Y-1778000D01*
X3926920Y-1773770D01*
X3936570Y-1763190D01*
X3943000Y-1750490D01*
X3947830Y-1733550D01*
X3949430Y-1714500D01*
X3947830Y-1695450D01*
X3943000Y-1678510D01*
X3936570Y-1665820D01*
X3926920Y-1655230D01*
X3914050Y-1651000D01*
G01X3439200Y-1055000D02*
X4079200D01*
Y-215000D01*
X3439200D01*
Y-1055000D01*
G01X3597700Y-480400D02*
Y-320380D01*
X3547960D01*
X3532040Y-328380D01*
X3522090Y-339050D01*
X3518120Y-360390D01*
X3522090Y-381720D01*
X3534030Y-395050D01*
X3547960Y-403060D01*
X3597700D01*
G01X3547960D02*
X3518120Y-480400D01*
G01X3435690Y-347050D02*
X3423760Y-331050D01*
X3409830Y-323050D01*
X3393910Y-320380D01*
X3374010Y-325710D01*
X3360090Y-339050D01*
X3356110Y-355050D01*
X3358100Y-371060D01*
X3366060Y-384390D01*
X3405850Y-411060D01*
X3423760Y-429730D01*
X3435690Y-456400D01*
X3439670Y-480400D01*
X3356110D01*
G01X3237870D02*
Y-320380D01*
X3261750Y-352380D01*
G01Y-480400D02*
X3214000D01*
G01X3130600Y-735000D02*
Y-535000D01*
X3630600D01*
Y-735000D01*
X3130600D01*
G01X2926720Y480740D02*
X2918710Y492680D01*
X2913380Y506600D01*
Y522520D01*
X2921380Y540430D01*
X2934720Y554350D01*
X2950720Y564300D01*
X2977390Y572260D01*
X3001390Y574250D01*
X3025390Y570270D01*
X3041400Y564300D01*
X3057400Y552360D01*
X3068070Y538440D01*
X3073400Y524510D01*
Y510580D01*
X3068070Y496660D01*
X3060070Y484720D01*
X3049400Y474770D01*
G01X2940050Y402290D02*
X2924050Y390360D01*
X2916050Y376430D01*
X2913380Y360510D01*
X2918710Y340610D01*
X2932050Y326690D01*
X2948050Y322710D01*
X2964060Y324700D01*
X2977390Y332660D01*
X3004060Y372450D01*
X3022730Y390360D01*
X3049400Y402290D01*
X3073400Y406270D01*
Y322710D01*
G01Y180590D02*
X2913380D01*
X3028060Y254210D01*
Y154730D01*
G01X3351200Y158800D02*
X3151200D01*
Y658800D01*
X3351200D01*
Y158800D01*
G01X3681400D02*
X3481400D01*
Y658800D01*
X3681400D01*
Y158800D01*
G01X3439200Y519800D02*
X4079200D01*
Y1359800D01*
X3439200D01*
Y519800D01*
G01X3156000Y839800D02*
Y1039800D01*
X3656000D01*
Y839800D01*
X3156000D01*
G01X3619670Y1549400D02*
Y1458380D01*
X3626100Y1439330D01*
X3638970Y1426630D01*
X3655050Y1422400D01*
X3671130Y1426630D01*
X3684000Y1439330D01*
X3690430Y1458380D01*
Y1549400D01*
G01X3784550Y1422400D02*
Y1549400D01*
X3765250Y1524000D01*
G01Y1422400D02*
X3803850D01*
G01X3883490Y1528230D02*
X3893140Y1540930D01*
X3904400Y1547280D01*
X3917270Y1549400D01*
X3933350Y1545170D01*
X3944610Y1534580D01*
X3947830Y1521890D01*
X3946220Y1509180D01*
X3939780Y1498600D01*
X3907620Y1477430D01*
X3893140Y1462620D01*
X3883490Y1441450D01*
X3880270Y1422400D01*
X3947830D01*
G01X3623100Y1094400D02*
Y1254420D01*
X3573360D01*
X3557440Y1246420D01*
X3547490Y1235750D01*
X3543520Y1214410D01*
X3547490Y1193080D01*
X3559430Y1179750D01*
X3573360Y1171740D01*
X3623100D01*
G01X3573360D02*
X3543520Y1094400D01*
G01X3461090Y1227750D02*
X3449160Y1243750D01*
X3435230Y1251750D01*
X3419310Y1254420D01*
X3399410Y1249090D01*
X3385490Y1235750D01*
X3381510Y1219750D01*
X3383500Y1203740D01*
X3391460Y1190410D01*
X3431250Y1163740D01*
X3449160Y1145070D01*
X3461090Y1118400D01*
X3465070Y1094400D01*
X3381510D01*
G01X3307040Y1126400D02*
X3295110Y1107730D01*
X3279190Y1097070D01*
X3261280Y1094400D01*
X3245360Y1097070D01*
X3229440Y1110400D01*
X3219500Y1126400D01*
X3217510Y1142410D01*
X3221490Y1161070D01*
X3235420Y1174410D01*
X3249340Y1179750D01*
X3267250D01*
G01X3249340D02*
X3237400Y1187740D01*
X3227450Y1201080D01*
X3223480Y1217080D01*
X3227450Y1233080D01*
X3237400Y1246420D01*
X3255310Y1254420D01*
X3273220Y1251750D01*
X3291120Y1241080D01*
G01X3952920Y-6621780D02*
Y-6736460D01*
X3960870Y-6760470D01*
X3976790Y-6776470D01*
X3996690Y-6781800D01*
X4016590Y-6776470D01*
X4032510Y-6760470D01*
X4040460Y-6736460D01*
Y-6621780D01*
G01X4112940Y-6757800D02*
X4124870Y-6771130D01*
X4138800Y-6779130D01*
X4156710Y-6781800D01*
X4174620Y-6776470D01*
X4188540Y-6765800D01*
X4198490Y-6747130D01*
X4200480Y-6725800D01*
X4196500Y-6704460D01*
X4186550Y-6691120D01*
X4172630Y-6680460D01*
X4158700Y-6677790D01*
X4144770Y-6680460D01*
X4126870Y-6691120D01*
X4132830Y-6621780D01*
X4186550D01*
G01X3739520Y-4294460D02*
X3731510Y-4282520D01*
X3726180Y-4268600D01*
Y-4252680D01*
X3734180Y-4234770D01*
X3747520Y-4220850D01*
X3763520Y-4210900D01*
X3790190Y-4202940D01*
X3814190Y-4200950D01*
X3838190Y-4204930D01*
X3854200Y-4210900D01*
X3870200Y-4222840D01*
X3880870Y-4236760D01*
X3886200Y-4250690D01*
Y-4264620D01*
X3880870Y-4278540D01*
X3872870Y-4290480D01*
X3862200Y-4300430D01*
G01X3886200Y-4410710D02*
X3726180D01*
X3758180Y-4386830D01*
G01X3886200D02*
Y-4434580D01*
G01X3867530Y-4536900D02*
X3880870Y-4550830D01*
X3886200Y-4566750D01*
X3880870Y-4582670D01*
X3864870Y-4596600D01*
X3840860Y-4606550D01*
X3816860Y-4610520D01*
X3787520D01*
X3763520Y-4606550D01*
X3742180Y-4596600D01*
X3731510Y-4584660D01*
X3726180Y-4570730D01*
X3731510Y-4554810D01*
X3742180Y-4542880D01*
X3758180Y-4534910D01*
X3779520Y-4530940D01*
X3798190Y-4534910D01*
X3816860Y-4544860D01*
X3827530Y-4556800D01*
X3830200Y-4570730D01*
X3824860Y-4586650D01*
X3811530Y-4598580D01*
X3787520Y-4610520D01*
G01X4523220Y57020D02*
X4490210Y17400D01*
X4470400Y-27180D01*
Y-66800D01*
X4490210Y-106430D01*
X4523220Y-136150D01*
X4569460Y-151000D01*
X4615680Y-141100D01*
X4655310Y-116330D01*
X4681730Y-71750D01*
X4694940Y-12320D01*
X4721350Y22350D01*
X4767580Y37220D01*
X4813810Y27300D01*
X4846820Y2540D01*
X4866640Y-32130D01*
Y-66800D01*
X4853430Y-101470D01*
X4820410Y-131200D01*
G01X4470400Y-372870D02*
X4866640D01*
X4536440Y-501650D01*
X4866640Y-630430D01*
X4470400D01*
G01Y-832480D02*
X4866640Y-956310D01*
X4470400Y-1080140D01*
G01X4609080Y-1035550D02*
Y-877060D01*
G01X4470400Y-1771520D02*
X4866640D01*
Y-1959740D01*
G01X4675130Y-1890390D02*
Y-1771520D01*
G01X4470400Y-2196460D02*
X4866640Y-2320290D01*
X4470400Y-2444120D01*
G01X4609080Y-2399530D02*
Y-2241040D01*
G01X4681730Y-2814570D02*
X4701540Y-2834390D01*
X4734550Y-2849240D01*
X4780790Y-2859160D01*
X4820410Y-2849240D01*
X4846820Y-2829430D01*
X4866640Y-2794760D01*
Y-2661030D01*
X4470400D01*
Y-2824480D01*
X4496810Y-2859160D01*
X4536440Y-2878960D01*
X4582670Y-2888870D01*
X4628890Y-2878960D01*
X4668510Y-2849240D01*
X4681730Y-2814570D01*
Y-2661030D01*
G01Y-3723890D02*
X4701540Y-3743710D01*
X4734550Y-3758560D01*
X4780790Y-3768480D01*
X4820410Y-3758560D01*
X4846820Y-3738750D01*
X4866640Y-3704080D01*
Y-3570350D01*
X4470400D01*
Y-3733800D01*
X4496810Y-3768480D01*
X4536440Y-3788280D01*
X4582670Y-3798190D01*
X4628890Y-3788280D01*
X4668510Y-3758560D01*
X4681730Y-3723890D01*
Y-3570350D01*
G01X4308900Y-3630000D02*
Y-3469980D01*
X4259160D01*
X4243240Y-3477980D01*
X4233290Y-3488650D01*
X4229320Y-3509990D01*
X4233290Y-3531320D01*
X4245230Y-3544650D01*
X4259160Y-3552660D01*
X4308900D01*
G01X4259160D02*
X4229320Y-3630000D01*
G01X4109090D02*
Y-3469980D01*
X4132970Y-3501980D01*
G01Y-3630000D02*
X4085220D01*
G01X3986870Y-3563330D02*
X3972950Y-3544650D01*
X3961010Y-3533990D01*
X3945090Y-3528660D01*
X3931160Y-3533990D01*
X3921220Y-3544650D01*
X3913250Y-3560660D01*
X3911270Y-3579330D01*
X3913250Y-3595330D01*
X3921220Y-3611330D01*
X3933150Y-3624670D01*
X3947080Y-3630000D01*
X3963000Y-3624670D01*
X3976920Y-3608670D01*
X3984890Y-3584660D01*
X3986870Y-3557990D01*
X3982900Y-3523320D01*
X3976920Y-3504650D01*
X3966980Y-3485980D01*
X3953050Y-3472650D01*
X3939120Y-3469980D01*
X3925190Y-3475310D01*
X3915240Y-3488650D01*
G01X3867200Y-3910000D02*
Y-3710000D01*
X4367200D01*
Y-3910000D01*
X3867200D01*
G01X3764920Y-2846660D02*
X3756910Y-2834720D01*
X3751580Y-2820800D01*
Y-2804880D01*
X3759580Y-2786970D01*
X3772920Y-2773050D01*
X3788920Y-2763100D01*
X3815590Y-2755140D01*
X3839590Y-2753150D01*
X3863590Y-2757130D01*
X3879600Y-2763100D01*
X3895600Y-2775040D01*
X3906270Y-2788960D01*
X3911600Y-2802890D01*
Y-2816820D01*
X3906270Y-2830740D01*
X3898270Y-2842680D01*
X3887600Y-2852630D01*
G01X3778250Y-2925110D02*
X3762250Y-2937040D01*
X3754250Y-2950970D01*
X3751580Y-2966890D01*
X3756910Y-2986790D01*
X3770250Y-3000710D01*
X3786250Y-3004690D01*
X3802260Y-3002700D01*
X3815590Y-2994740D01*
X3842260Y-2954950D01*
X3860930Y-2937040D01*
X3887600Y-2925110D01*
X3911600Y-2921130D01*
Y-3004690D01*
G01Y-3122930D02*
X3751580D01*
X3783580Y-3099050D01*
G01X3911600D02*
Y-3146800D01*
G01X3670470Y-3200400D02*
Y-3291420D01*
X3676900Y-3310470D01*
X3689770Y-3323170D01*
X3705850Y-3327400D01*
X3721930Y-3323170D01*
X3734800Y-3310470D01*
X3741230Y-3291420D01*
Y-3200400D01*
G01X3808010Y-3312590D02*
X3819270Y-3323170D01*
X3832130Y-3327400D01*
X3845000Y-3323170D01*
X3856260Y-3310470D01*
X3864300Y-3291420D01*
X3867520Y-3272370D01*
Y-3249080D01*
X3864300Y-3230030D01*
X3856260Y-3213100D01*
X3846610Y-3204630D01*
X3835350Y-3200400D01*
X3822480Y-3204630D01*
X3812830Y-3213100D01*
X3806400Y-3225800D01*
X3803180Y-3242740D01*
X3806400Y-3257550D01*
X3814440Y-3272370D01*
X3824090Y-3280840D01*
X3835350Y-3282950D01*
X3848220Y-3278720D01*
X3857870Y-3268130D01*
X3867520Y-3249080D01*
G01X4385100Y-2106000D02*
Y-1945980D01*
X4335360D01*
X4319440Y-1953980D01*
X4309490Y-1964650D01*
X4305520Y-1985990D01*
X4309490Y-2007320D01*
X4321430Y-2020650D01*
X4335360Y-2028660D01*
X4385100D01*
G01X4335360D02*
X4305520Y-2106000D01*
G01X4185290D02*
Y-1945980D01*
X4209170Y-1977980D01*
G01Y-2106000D02*
X4161420D01*
G01X4025270D02*
X4011340Y-2103330D01*
X3995430Y-2095330D01*
X3985480Y-2082000D01*
X3981500Y-2063330D01*
X3985480Y-2044660D01*
X3997420Y-2028660D01*
X4015320Y-2020650D01*
X4035220D01*
X4047160Y-2015320D01*
X4057110Y-2001990D01*
X4061090Y-1983320D01*
X4055110Y-1964650D01*
X4041190Y-1951310D01*
X4025270Y-1945980D01*
X4009350Y-1951310D01*
X3995430Y-1964650D01*
X3989450Y-1983320D01*
X3993440Y-2001990D01*
X4003380Y-2015320D01*
X4015320Y-2020650D01*
X4035220D01*
X4053120Y-2028660D01*
X4065060Y-2044660D01*
X4069040Y-2063330D01*
X4065060Y-2082000D01*
X4055110Y-2095330D01*
X4039200Y-2103330D01*
X4025270Y-2106000D01*
G01X3918000Y-2360600D02*
Y-2160600D01*
X4418000D01*
Y-2360600D01*
X3918000D01*
G01X3739520Y-1144860D02*
X3731510Y-1132920D01*
X3726180Y-1119000D01*
Y-1103080D01*
X3734180Y-1085170D01*
X3747520Y-1071250D01*
X3763520Y-1061300D01*
X3790190Y-1053340D01*
X3814190Y-1051350D01*
X3838190Y-1055330D01*
X3854200Y-1061300D01*
X3870200Y-1073240D01*
X3880870Y-1087160D01*
X3886200Y-1101090D01*
Y-1115020D01*
X3880870Y-1128940D01*
X3872870Y-1140880D01*
X3862200Y-1150830D01*
G01X3752850Y-1223310D02*
X3736850Y-1235240D01*
X3728850Y-1249170D01*
X3726180Y-1265090D01*
X3731510Y-1284990D01*
X3744850Y-1298910D01*
X3760850Y-1302890D01*
X3776860Y-1300900D01*
X3790190Y-1292940D01*
X3816860Y-1253150D01*
X3835530Y-1235240D01*
X3862200Y-1223310D01*
X3886200Y-1219330D01*
Y-1302890D01*
G01X3854200Y-1377360D02*
X3872870Y-1389290D01*
X3883530Y-1405210D01*
X3886200Y-1423120D01*
X3883530Y-1439040D01*
X3870200Y-1454960D01*
X3854200Y-1464900D01*
X3838190Y-1466890D01*
X3819530Y-1462910D01*
X3806190Y-1448980D01*
X3800850Y-1435060D01*
Y-1417150D01*
G01Y-1435060D02*
X3792860Y-1447000D01*
X3779520Y-1456950D01*
X3763520Y-1460920D01*
X3747520Y-1456950D01*
X3734180Y-1447000D01*
X3726180Y-1429090D01*
X3728850Y-1411180D01*
X3739520Y-1393280D01*
G01X4334300Y-480400D02*
Y-320380D01*
X4284560D01*
X4268640Y-328380D01*
X4258690Y-339050D01*
X4254720Y-360390D01*
X4258690Y-381720D01*
X4270630Y-395050D01*
X4284560Y-403060D01*
X4334300D01*
G01X4284560D02*
X4254720Y-480400D01*
G01X4172290Y-347050D02*
X4160360Y-331050D01*
X4146430Y-323050D01*
X4130510Y-320380D01*
X4110610Y-325710D01*
X4096690Y-339050D01*
X4092710Y-355050D01*
X4094700Y-371060D01*
X4102660Y-384390D01*
X4142450Y-411060D01*
X4160360Y-429730D01*
X4172290Y-456400D01*
X4176270Y-480400D01*
X4092710D01*
G01X3974470Y-320380D02*
X3990390Y-325710D01*
X4002320Y-339050D01*
X4010290Y-355050D01*
X4016250Y-376390D01*
X4018240Y-400390D01*
X4016250Y-424400D01*
X4010290Y-445730D01*
X4002320Y-461730D01*
X3990390Y-475070D01*
X3974470Y-480400D01*
X3958550Y-475070D01*
X3946620Y-461730D01*
X3938650Y-445730D01*
X3932690Y-424400D01*
X3930700Y-400390D01*
X3932690Y-376390D01*
X3938650Y-355050D01*
X3946620Y-339050D01*
X3958550Y-325710D01*
X3974470Y-320380D01*
G01X3867200Y-735000D02*
Y-535000D01*
X4367200D01*
Y-735000D01*
X3867200D01*
G01X3764920Y480740D02*
X3756910Y492680D01*
X3751580Y506600D01*
Y522520D01*
X3759580Y540430D01*
X3772920Y554350D01*
X3788920Y564300D01*
X3815590Y572260D01*
X3839590Y574250D01*
X3863590Y570270D01*
X3879600Y564300D01*
X3895600Y552360D01*
X3906270Y538440D01*
X3911600Y524510D01*
Y510580D01*
X3906270Y496660D01*
X3898270Y484720D01*
X3887600Y474770D01*
G01X3778250Y402290D02*
X3762250Y390360D01*
X3754250Y376430D01*
X3751580Y360510D01*
X3756910Y340610D01*
X3770250Y326690D01*
X3786250Y322710D01*
X3802260Y324700D01*
X3815590Y332660D01*
X3842260Y372450D01*
X3860930Y390360D01*
X3887600Y402290D01*
X3911600Y406270D01*
Y322710D01*
G01X3887600Y248240D02*
X3900930Y236310D01*
X3908930Y222380D01*
X3911600Y204470D01*
X3906270Y186560D01*
X3895600Y172640D01*
X3876930Y162690D01*
X3855600Y160700D01*
X3834260Y164680D01*
X3820920Y174630D01*
X3810260Y188550D01*
X3807590Y202480D01*
X3810260Y216410D01*
X3820920Y234310D01*
X3751580Y228350D01*
Y174630D01*
G01X3670470Y-25400D02*
Y-116420D01*
X3676900Y-135470D01*
X3689770Y-148170D01*
X3705850Y-152400D01*
X3721930Y-148170D01*
X3734800Y-135470D01*
X3741230Y-116420D01*
Y-25400D01*
G01X3835350Y-152400D02*
Y-25400D01*
X3816050Y-50800D01*
G01Y-152400D02*
X3854650D01*
G01X3964850D02*
Y-25400D01*
X3945550Y-50800D01*
G01Y-152400D02*
X3984150D01*
G01X3867200Y839800D02*
Y1039800D01*
X4367200D01*
Y839800D01*
X3867200D01*
G01X4334300Y1094400D02*
Y1254420D01*
X4284560D01*
X4268640Y1246420D01*
X4258690Y1235750D01*
X4254720Y1214410D01*
X4258690Y1193080D01*
X4270630Y1179750D01*
X4284560Y1171740D01*
X4334300D01*
G01X4284560D02*
X4254720Y1094400D01*
G01X4172290Y1227750D02*
X4160360Y1243750D01*
X4146430Y1251750D01*
X4130510Y1254420D01*
X4110610Y1249090D01*
X4096690Y1235750D01*
X4092710Y1219750D01*
X4094700Y1203740D01*
X4102660Y1190410D01*
X4142450Y1163740D01*
X4160360Y1145070D01*
X4172290Y1118400D01*
X4176270Y1094400D01*
X4092710D01*
G01X4012270Y1227750D02*
X4000340Y1243750D01*
X3986410Y1251750D01*
X3970490Y1254420D01*
X3950590Y1249090D01*
X3936670Y1235750D01*
X3932690Y1219750D01*
X3934680Y1203740D01*
X3942640Y1190410D01*
X3982430Y1163740D01*
X4000340Y1145070D01*
X4012270Y1118400D01*
X4016250Y1094400D01*
X3932690D01*
G01X4754670Y-5991860D02*
X4779010Y-6070600D01*
X4803350Y-5991860D01*
G01X4857750Y-6070600D02*
X4849960Y-6069290D01*
X4843150Y-6064040D01*
X4837300Y-6056170D01*
X4833410Y-6046980D01*
X4831460Y-6036480D01*
Y-6025980D01*
X4833410Y-6015480D01*
X4837300Y-6006290D01*
X4843150Y-5998420D01*
X4849960Y-5993170D01*
X4857750Y-5991860D01*
X4865540Y-5993170D01*
X4872350Y-5998420D01*
X4878200Y-6006290D01*
X4882090Y-6015480D01*
X4884040Y-6025980D01*
Y-6036480D01*
X4882090Y-6046980D01*
X4878200Y-6056170D01*
X4872350Y-6064040D01*
X4865540Y-6069290D01*
X4857750Y-6070600D01*
G01X4915070Y-5991860D02*
Y-6048290D01*
X4918960Y-6060100D01*
X4926750Y-6067980D01*
X4936490Y-6070600D01*
X4946230Y-6067980D01*
X4954020Y-6060100D01*
X4957910Y-6048290D01*
Y-5991860D01*
G01X5015230D02*
Y-6070600D01*
G01X4992840Y-5991860D02*
X5037620D01*
G01X5081310Y-6044350D02*
X5106630D01*
G01X4754670Y-5204460D02*
X4779010Y-5283200D01*
X4803350Y-5204460D01*
G01X4857750Y-5283200D02*
X4849960Y-5281890D01*
X4843150Y-5276640D01*
X4837300Y-5268770D01*
X4833410Y-5259580D01*
X4831460Y-5249080D01*
Y-5238580D01*
X4833410Y-5228080D01*
X4837300Y-5218890D01*
X4843150Y-5211020D01*
X4849960Y-5205770D01*
X4857750Y-5204460D01*
X4865540Y-5205770D01*
X4872350Y-5211020D01*
X4878200Y-5218890D01*
X4882090Y-5228080D01*
X4884040Y-5238580D01*
Y-5249080D01*
X4882090Y-5259580D01*
X4878200Y-5268770D01*
X4872350Y-5276640D01*
X4865540Y-5281890D01*
X4857750Y-5283200D01*
G01X4915070Y-5204460D02*
Y-5260890D01*
X4918960Y-5272700D01*
X4926750Y-5280580D01*
X4936490Y-5283200D01*
X4946230Y-5280580D01*
X4954020Y-5272700D01*
X4957910Y-5260890D01*
Y-5204460D01*
G01X5015230D02*
Y-5283200D01*
G01X4992840Y-5204460D02*
X5037620D01*
G01X5083260Y-5256950D02*
X5106630D01*
G01X5093970Y-5239890D02*
Y-5274020D01*
M02*
