G04 ================== begin FILE IDENTIFICATION RECORD ==================*
G04 Layout Name:  SMA_fabB_v1_auto.brd*
G04 Film Name:    SMA_BOTTOM_faba*
G04 File Format:  Gerber RS274X*
G04 File Origin:  Cadence Allegro 17.2-P019*
G04 Origin Date:  Sun Apr 01 22:41:11 2018*
G04 *
G04 Layer:  ETCH/BOTTOM*
G04 Layer:  PIN/BOTTOM*
G04 Layer:  VIA CLASS/BOTTOM*
G04 *
G04 Offset:    (0.0000 0.0000)*
G04 Mirror:    No*
G04 Mode:      Positive*
G04 Rotation:  0*
G04 FullContactRelief:  No*
G04 UndefLineWidth:     0.2540*
G04 ================== end FILE IDENTIFICATION RECORD ====================*
%FSLAX25Y25*MOMM*%
%IR0*IPPOS*OFA0.00000B0.00000*MIA0B0*SFA1.00000B1.00000*%
%ADD14C,.4*%
%ADD11C,.5*%
%ADD10C,.635*%
%ADD16R,3.8X1.51*%
%ADD15R,1.51X3.8*%
%ADD18C,1.53*%
%ADD19R,1.524X1.524*%
%ADD20R,1.524X1.524*%
%ADD17C,1.524*%
%ADD21C,2.85*%
%ADD22C,.254*%
%ADD23C,1.016*%
G75*
%LPD*%
G75*
G36*
G01X1625600Y-4394200D02*
Y-4699000D01*
X-1930400D01*
Y-4394200D01*
X1625600D01*
G37*
G36*
G01X-1905000Y-3175000D02*
Y-2946400D01*
X-1823760D01*
G02X-1814720Y-2961200I2J-10160D01*
G03X-1816120Y-2967000I11314J-5800D01*
G01Y-3119400D01*
G03X-1803400Y-3132120I12720J0D01*
G01X-1651000D01*
G03X-1638280Y-3119400I0J12720D01*
G01Y-2967000D01*
G03X-1639680Y-2961200I-12714J0D01*
G02X-1630640Y-2946400I9038J4640D01*
G01X-1493560D01*
G02X-1484520Y-2961200I2J-10160D01*
G03X-1485920Y-2967000I11314J-5800D01*
G01Y-3119400D01*
G03X-1473200Y-3132120I12720J0D01*
G01X-1320800D01*
G03X-1308080Y-3119400I0J12720D01*
G01Y-2967000D01*
G03X-1309480Y-2961200I-12714J0D01*
G02X-1300440Y-2946400I9038J4640D01*
G01X-198160D01*
G02X-189120Y-2961200I2J-10160D01*
G03X-190520Y-2967000I11314J-5800D01*
G01Y-3119400D01*
G03X-177800Y-3132120I12720J0D01*
G01X-25400D01*
G03X-12680Y-3119400I0J12720D01*
G01Y-2967000D01*
G03X-14080Y-2961200I-12714J0D01*
G02X-5040Y-2946400I9038J4640D01*
G01X106640D01*
G02X115680Y-2961200I2J-10160D01*
G03X114280Y-2967000I11314J-5800D01*
G01Y-3119400D01*
G03X127000Y-3132120I12720J0D01*
G01X279400D01*
G03X292120Y-3119400I0J12720D01*
G01Y-2967000D01*
G03X290720Y-2961200I-12714J0D01*
G02X299760Y-2946400I9038J4640D01*
G01X1503640D01*
G02X1512680Y-2961200I2J-10160D01*
G03X1511280Y-2967000I11314J-5800D01*
G01Y-3119400D01*
G03X1524000Y-3132120I12720J0D01*
G01X1676400D01*
G03X1689120Y-3119400I0J12720D01*
G01Y-2967000D01*
G03X1687720Y-2961200I-12714J0D01*
G02X1696760Y-2946400I9038J4640D01*
G01X1833840D01*
G02X1842880Y-2961200I2J-10160D01*
G03X1841480Y-2967000I11314J-5800D01*
G01Y-3119400D01*
G03X1854200Y-3132120I12720J0D01*
G01X2006600D01*
G03X2019320Y-3119400I0J12720D01*
G01Y-2967000D01*
G03X2017920Y-2961200I-12714J0D01*
G02X2026960Y-2946400I9038J4640D01*
G01X3180040D01*
G02X3189080Y-2961200I2J-10160D01*
G03X3187680Y-2967000I11314J-5800D01*
G01Y-3119400D01*
G03X3200400Y-3132120I12720J0D01*
G01X3352800D01*
G03X3365520Y-3119400I0J12720D01*
G01Y-2967000D01*
G03X3364120Y-2961200I-12714J0D01*
G02X3373160Y-2946400I9038J4640D01*
G01X3510240D01*
G02X3519280Y-2961200I2J-10160D01*
G03X3517880Y-2967000I11314J-5800D01*
G01Y-3119400D01*
G03X3530600Y-3132120I12720J0D01*
G01X3683000D01*
G03X3695720Y-3119400I0J12720D01*
G01Y-2967000D01*
G03X3694320Y-2961200I-12714J0D01*
G02X3703360Y-2946400I9038J4640D01*
G01X4343400D01*
Y-3175000D01*
X-1905000D01*
G37*
G36*
G01X3137110Y-1262780D02*
G03X3136880Y-1265180I12491J-2408D01*
G01Y-1417600D01*
G03X3149600Y-1430320I12720J0D01*
G01X3302000D01*
G03X3314720Y-1417600I0J12720D01*
G01Y-1265180D01*
G03X3314490Y-1262780I-12721J-8D01*
G02X3324460Y-1250680I9972J1941D01*
G01X3482740D01*
G02X3492710Y-1262780I-2J-10159D01*
G03X3492480Y-1265180I12491J-2408D01*
G01Y-1417600D01*
G03X3505200Y-1430320I12720J0D01*
G01X3657600D01*
G03X3670320Y-1417600I0J12720D01*
G01Y-1265180D01*
G03X3670090Y-1262780I-12721J-8D01*
G02X3680060Y-1250680I9972J1941D01*
G01X4190980D01*
Y-1479280D01*
X-1914260D01*
Y-1250680D01*
X-1851260D01*
G02X-1841290Y-1262780I-2J-10159D01*
G03X-1841520Y-1265180I12491J-2408D01*
G01Y-1417600D01*
G03X-1828800Y-1430320I12720J0D01*
G01X-1676400D01*
G03X-1663680Y-1417600I0J12720D01*
G01Y-1265180D01*
G03X-1663910Y-1262780I-12721J-8D01*
G02X-1653940Y-1250680I9972J1941D01*
G01X-1546460D01*
G02X-1536490Y-1262780I-2J-10159D01*
G03X-1536720Y-1265180I12491J-2408D01*
G01Y-1417600D01*
G03X-1524000Y-1430320I12720J0D01*
G01X-1371600D01*
G03X-1358880Y-1417600I0J12720D01*
G01Y-1265180D01*
G03X-1359110Y-1262780I-12721J-8D01*
G02X-1349140Y-1250680I9972J1941D01*
G01X-200260D01*
G02X-190290Y-1262780I-2J-10159D01*
G03X-190520Y-1265180I12491J-2408D01*
G01Y-1417600D01*
G03X-177800Y-1430320I12720J0D01*
G01X-25400D01*
G03X-12680Y-1417600I0J12720D01*
G01Y-1265180D01*
G03X-12910Y-1262780I-12721J-8D01*
G02X-2940Y-1250680I9972J1941D01*
G01X129940D01*
G02X139910Y-1262780I-2J-10159D01*
G03X139680Y-1265180I12491J-2408D01*
G01Y-1417600D01*
G03X152400Y-1430320I12720J0D01*
G01X304800D01*
G03X317520Y-1417600I0J12720D01*
G01Y-1265180D01*
G03X317290Y-1262780I-12721J-8D01*
G02X327260Y-1250680I9972J1941D01*
G01X1501540D01*
G02X1511510Y-1262780I-2J-10159D01*
G03X1511280Y-1265180I12491J-2408D01*
G01Y-1417600D01*
G03X1524000Y-1430320I12720J0D01*
G01X1676400D01*
G03X1689120Y-1417600I0J12720D01*
G01Y-1265180D01*
G03X1688890Y-1262780I-12721J-8D01*
G02X1698860Y-1250680I9972J1941D01*
G01X1831740D01*
G02X1841710Y-1262780I-2J-10159D01*
G03X1841480Y-1265180I12491J-2408D01*
G01Y-1417600D01*
G03X1854200Y-1430320I12720J0D01*
G01X2006600D01*
G03X2019320Y-1417600I0J12720D01*
G01Y-1265180D01*
G03X2019090Y-1262780I-12721J-8D01*
G02X2029060Y-1250680I9972J1941D01*
G01X3127140D01*
G02X3137110Y-1262780I-2J-10159D01*
G37*
G36*
G01X-1965060Y120920D02*
Y349520D01*
X-1927460D01*
G02X-1917490Y337420I-2J-10159D01*
G03X-1917720Y335000I12491J-2408D01*
G01Y182600D01*
G03X-1905000Y169880I12720J0D01*
G01X-1752600D01*
G03X-1739880Y182600I0J12720D01*
G01Y335000D01*
G03X-1740110Y337420I-12721J12D01*
G02X-1730140Y349520I9972J1941D01*
G01X-1571860D01*
G02X-1561890Y337420I-2J-10159D01*
G03X-1562120Y335000I12491J-2408D01*
G01Y182600D01*
G03X-1549400Y169880I12720J0D01*
G01X-1397000D01*
G03X-1384280Y182600I0J12720D01*
G01Y335000D01*
G03X-1384510Y337420I-12721J12D01*
G02X-1374540Y349520I9972J1941D01*
G01X-124060D01*
G02X-114090Y337420I-2J-10159D01*
G03X-114320Y335000I12491J-2408D01*
G01Y182600D01*
G03X-101600Y169880I12720J0D01*
G01X50800D01*
G03X63520Y182600I0J12720D01*
G01Y335000D01*
G03X63290Y337420I-12721J12D01*
G02X73260Y349520I9972J1941D01*
G01X206140D01*
G02X216110Y337420I-2J-10159D01*
G03X215880Y335000I12491J-2408D01*
G01Y182600D01*
G03X228600Y169880I12720J0D01*
G01X381000D01*
G03X393720Y182600I0J12720D01*
G01Y335000D01*
G03X393490Y337420I-12721J12D01*
G02X403460Y349520I9972J1941D01*
G01X1501540D01*
G02X1511510Y337420I-2J-10159D01*
G03X1511280Y335000I12491J-2408D01*
G01Y182600D01*
G03X1524000Y169880I12720J0D01*
G01X1676400D01*
G03X1689120Y182600I0J12720D01*
G01Y335000D01*
G03X1688890Y337420I-12721J12D01*
G02X1698860Y349520I9972J1941D01*
G01X1831740D01*
G02X1841710Y337420I-2J-10159D01*
G03X1841480Y335000I12491J-2408D01*
G01Y182600D01*
G03X1854200Y169880I12720J0D01*
G01X2006600D01*
G03X2019320Y182600I0J12720D01*
G01Y335000D01*
G03X2019090Y337420I-12721J12D01*
G02X2029060Y349520I9972J1941D01*
G01X3152540D01*
G02X3162510Y337420I-2J-10159D01*
G03X3162280Y335000I12491J-2408D01*
G01Y182600D01*
G03X3175000Y169880I12720J0D01*
G01X3327400D01*
G03X3340120Y182600I0J12720D01*
G01Y335000D01*
G03X3339890Y337420I-12721J12D01*
G02X3349860Y349520I9972J1941D01*
G01X3482740D01*
G02X3492710Y337420I-2J-10159D01*
G03X3492480Y335000I12491J-2408D01*
G01Y182600D01*
G03X3505200Y169880I12720J0D01*
G01X3657600D01*
G03X3670320Y182600I0J12720D01*
G01Y335000D01*
G03X3670090Y337420I-12721J12D01*
G02X3680060Y349520I9972J1941D01*
G01X4283340D01*
Y120920D01*
X-1965060D01*
G37*
G36*
G01X3860800Y-4394200D02*
Y-4673600D01*
X2971800D01*
Y-4394200D01*
X3860800D01*
G37*
%LPC*%
G75*
G36*
G01X1358880Y-4618000D02*
Y-4465600D01*
G02X1371600Y-4452880I12720J0D01*
G01X1524000D01*
G02X1536720Y-4465600I0J-12720D01*
G01Y-4618000D01*
G02X1524000Y-4630720I-12720J0D01*
G01X1371600D01*
G02X1358880Y-4618000I0J12720D01*
G37*
G36*
G01X1028680D02*
Y-4465600D01*
G02X1041400Y-4452880I12720J0D01*
G01X1193800D01*
G02X1206520Y-4465600I0J-12720D01*
G01Y-4618000D01*
G02X1193800Y-4630720I-12720J0D01*
G01X1041400D01*
G02X1028680Y-4618000I0J12720D01*
G37*
G36*
G01X-165120Y-4592600D02*
Y-4440200D01*
G02X-152400Y-4427480I12720J0D01*
G01X0D01*
G02X12720Y-4440200I0J-12720D01*
G01Y-4592600D01*
G02X0Y-4605320I-12720J0D01*
G01X-152400D01*
G02X-165120Y-4592600I0J12720D01*
G37*
G36*
G01X165080D02*
Y-4440200D01*
G02X177800Y-4427480I12720J0D01*
G01X330200D01*
G02X342920Y-4440200I0J-12720D01*
G01Y-4592600D01*
G02X330200Y-4605320I-12720J0D01*
G01X177800D01*
G02X165080Y-4592600I0J12720D01*
G37*
G36*
G01X-1485920D02*
Y-4440200D01*
G02X-1473200Y-4427480I12720J0D01*
G01X-1320800D01*
G02X-1308080Y-4440200I0J-12720D01*
G01Y-4592600D01*
G02X-1320800Y-4605320I-12720J0D01*
G01X-1473200D01*
G02X-1485920Y-4592600I0J12720D01*
G37*
G36*
G01X-1816120D02*
Y-4440200D01*
G02X-1803400Y-4427480I12720J0D01*
G01X-1651000D01*
G02X-1638280Y-4440200I0J-12720D01*
G01Y-4592600D01*
G02X-1651000Y-4605320I-12720J0D01*
G01X-1803400D01*
G02X-1816120Y-4592600I0J12720D01*
G37*
G36*
G01X3111480D02*
Y-4440200D01*
G02X3124200Y-4427480I12720J0D01*
G01X3276600D01*
G02X3289320Y-4440200I0J-12720D01*
G01Y-4592600D01*
G02X3276600Y-4605320I-12720J0D01*
G01X3124200D01*
G02X3111480Y-4592600I0J12720D01*
G37*
G36*
G01X3467080D02*
Y-4440200D01*
G02X3479800Y-4427480I12720J0D01*
G01X3632200D01*
G02X3644920Y-4440200I0J-12720D01*
G01Y-4592600D01*
G02X3632200Y-4605320I-12720J0D01*
G01X3479800D01*
G02X3467080Y-4592600I0J12720D01*
G37*
%LPD*%
G75*
G54D10*
X-4470400Y-6273800D03*
X-4368800Y1701800D03*
X4445000Y-1422400D03*
G54D20*
X-1722400Y-3810000D03*
Y-2286000D03*
X-1747800Y-635000D03*
X-1824000Y939800D03*
X-1087400Y-3810000D03*
X-1422400D03*
X-1087400Y-2286000D03*
X-1422400D03*
X-1087400Y-635000D03*
X-1447800D03*
X-1087400Y939800D03*
X-1524000D03*
X-787400Y-3810000D03*
Y-2286000D03*
Y-635000D03*
Y939800D03*
X563600Y-3810000D03*
X-71400D03*
X228600D03*
X589000Y-2286000D03*
X-96800D03*
X203200D03*
X639800Y-635000D03*
X-96800D03*
X203200D03*
X-20600Y939800D03*
X279400D03*
X863600Y-3810000D03*
X889000Y-2286000D03*
X939800Y-635000D03*
X690600Y939800D03*
X990600D03*
X1630400Y-3835400D03*
X1930400D03*
X1605000Y-2235200D03*
X1905000D03*
X1605000Y-635000D03*
X1905000D03*
X1605000Y939800D03*
X1905000D03*
X2367000Y-3835400D03*
X2667000D03*
X2316200Y-2235200D03*
X2616200D03*
X2290800Y-635000D03*
X2590800D03*
X2316200Y939800D03*
X2616200D03*
X3205200Y-3810000D03*
X3505200D03*
X3281400Y-2260600D03*
X3581400D03*
X3230600Y-635000D03*
X3530600D03*
X3256000Y939800D03*
X3556000D03*
X3967200Y-3810000D03*
X4267200D03*
X4018000Y-2260600D03*
X4318000D03*
X3967200Y-635000D03*
X4267200D03*
X3967200Y939800D03*
X4267200D03*
G54D11*
X-4140200Y-3149600D03*
Y-2006600D03*
X-4110000Y-1198600D03*
X-3657600Y-5867400D03*
X-3708400Y-4470400D03*
X-3733800Y-4114800D03*
X-2895600Y-6375400D03*
X-2844800Y-2133600D03*
X-2819400Y-1752600D03*
X-2048000Y-6384800D03*
X-1828800Y-5867400D03*
X-1498600Y-3976400D03*
Y-2452400D03*
X-1473200Y-826800D03*
X-1422400Y755100D03*
X-355600Y-6375400D03*
X-787400Y-4521200D03*
X-812800Y-3048000D03*
X-838200Y-1346200D03*
X-812800Y254000D03*
X609600Y-6375400D03*
X304800Y-5511800D03*
X101600D03*
X177800Y-3976400D03*
X279400Y-2489200D03*
Y-819700D03*
X304800Y755100D03*
X660400Y-4546600D03*
X990600Y-3073400D03*
Y-1346200D03*
X965200Y228600D03*
X1905000Y-4027200D03*
X1955800Y-2419900D03*
X2006600Y-838200D03*
X1955800Y755100D03*
X2616200Y-5765800D03*
X2641600Y-3048000D03*
X2565400Y-1346200D03*
X2590800Y228600D03*
X2971800Y-5765800D03*
X3632200Y-4013200D03*
X3606800Y-2445300D03*
Y-819700D03*
Y762000D03*
X3759200Y-4521200D03*
X4064000Y-3048000D03*
X4013200Y-1346200D03*
Y254000D03*
X4648200Y-3810000D03*
G54D21*
X-1473200Y-6324800D03*
Y-5854800D03*
Y-5384800D03*
G36*
G01X-4476750Y-1443010D02*
X-4451370D01*
X-4451360D01*
X-4451350Y-1443000D01*
Y-1409730D01*
G03X-4463260Y-1397040I-12817J-95D01*
G01X-4525140D01*
G02X-4525170Y-1320810I-15J38115D01*
G01X-4352290D01*
G03X-4352450Y-1295410I9J12701D01*
G01X-4524900D01*
G02X-4524970Y-1219210I-266J38100D01*
G01X-4352200D01*
G03X-4352170Y-1193810I-81J12700D01*
G01X-4524900D01*
G02X-4563250Y-1156350I118J38482D01*
G03X-4588650I-12700J632D01*
G01Y-1409860D01*
G03X-4575850Y-1422410I12963J419D01*
G01X-4489060D01*
G02X-4476750Y-1435370I-462J-12765D01*
G01Y-1443010D01*
G37*
G36*
G01Y-843010D02*
X-4451370D01*
X-4451360D01*
X-4451350Y-843000D01*
Y-809730D01*
G03X-4463260Y-797040I-12817J-95D01*
G01X-4525140D01*
G02X-4525170Y-720810I-15J38115D01*
G01X-4352290D01*
G03X-4352450Y-695410I9J12701D01*
G01X-4524900D01*
G02X-4524970Y-619210I-266J38100D01*
G01X-4352200D01*
G03X-4352170Y-593810I-81J12700D01*
G01X-4524900D01*
G02X-4563250Y-556350I118J38482D01*
G03X-4588650I-12700J632D01*
G01Y-809860D01*
G03X-4575850Y-822410I12963J419D01*
G01X-4489060D01*
G02X-4476750Y-835370I-462J-12765D01*
G01Y-843010D01*
G37*
G36*
G01Y-243010D02*
X-4451370D01*
X-4451360D01*
X-4451350Y-243000D01*
Y-209730D01*
G03X-4463260Y-197040I-12817J-95D01*
G01X-4525140D01*
G02X-4525170Y-120810I-15J38115D01*
G01X-4352290D01*
G03X-4352450Y-95410I9J12701D01*
G01X-4524900D01*
G02X-4524970Y-19210I-266J38100D01*
G01X-4352200D01*
G03X-4352170Y6190I-81J12700D01*
G01X-4524900D01*
G02X-4563250Y43650I118J38482D01*
G03X-4588650I-12700J632D01*
G01Y-209860D01*
G03X-4575850Y-222410I12963J419D01*
G01X-4489060D01*
G02X-4476750Y-235370I-462J-12765D01*
G01Y-243010D01*
G37*
G36*
G01Y356990D02*
X-4451370D01*
X-4451360D01*
X-4451350Y357000D01*
Y390270D01*
G03X-4463260Y402960I-12817J-95D01*
G01X-4525140D01*
G02X-4525170Y479190I-15J38115D01*
G01X-4352290D01*
G03X-4352450Y504590I9J12701D01*
G01X-4524900D01*
G02X-4524970Y580790I-266J38100D01*
G01X-4352200D01*
G03X-4352170Y606190I-81J12700D01*
G01X-4524900D01*
G02X-4563250Y643650I118J38482D01*
G03X-4588650I-12700J632D01*
G01Y390140D01*
G03X-4575850Y377590I12963J419D01*
G01X-4489060D01*
G02X-4476750Y364630I-462J-12765D01*
G01Y356990D01*
G37*
G36*
G01X-3276750Y-1443010D02*
X-3251370D01*
X-3251360D01*
X-3251350Y-1443000D01*
Y-1409730D01*
G03X-3263260Y-1397040I-12817J-95D01*
G01X-3325140D01*
G02X-3325170Y-1320810I-15J38115D01*
G01X-3152290D01*
G03X-3152450Y-1295410I9J12701D01*
G01X-3324900D01*
G02X-3324970Y-1219210I-266J38100D01*
G01X-3152200D01*
G03X-3152170Y-1193810I-81J12700D01*
G01X-3324900D01*
G02X-3363250Y-1156350I118J38482D01*
G03X-3388650I-12700J632D01*
G01Y-1409860D01*
G03X-3375850Y-1422410I12963J419D01*
G01X-3289060D01*
G02X-3276750Y-1435370I-462J-12765D01*
G01Y-1443010D01*
G37*
G36*
G01X-3876750D02*
X-3851370D01*
X-3851360D01*
X-3851350Y-1443000D01*
Y-1409730D01*
G03X-3863260Y-1397040I-12817J-95D01*
G01X-3925140D01*
G02X-3925170Y-1320810I-15J38115D01*
G01X-3752290D01*
G03X-3752450Y-1295410I9J12701D01*
G01X-3924900D01*
G02X-3924970Y-1219210I-266J38100D01*
G01X-3752200D01*
G03X-3752170Y-1193810I-81J12700D01*
G01X-3924900D01*
G02X-3963250Y-1156350I118J38482D01*
G03X-3988650I-12700J632D01*
G01Y-1409860D01*
G03X-3975850Y-1422410I12963J419D01*
G01X-3889060D01*
G02X-3876750Y-1435370I-462J-12765D01*
G01Y-1443010D01*
G37*
G36*
G01X-3276750Y-843010D02*
X-3251370D01*
X-3251360D01*
X-3251350Y-843000D01*
Y-809730D01*
G03X-3263260Y-797040I-12817J-95D01*
G01X-3325140D01*
G02X-3325170Y-720810I-15J38115D01*
G01X-3152290D01*
G03X-3152450Y-695410I9J12701D01*
G01X-3324900D01*
G02X-3324970Y-619210I-266J38100D01*
G01X-3152200D01*
G03X-3152170Y-593810I-81J12700D01*
G01X-3324900D01*
G02X-3363250Y-556350I118J38482D01*
G03X-3388650I-12700J632D01*
G01Y-809860D01*
G03X-3375850Y-822410I12963J419D01*
G01X-3289060D01*
G02X-3276750Y-835370I-462J-12765D01*
G01Y-843010D01*
G37*
G36*
G01X-3876750D02*
X-3851370D01*
X-3851360D01*
X-3851350Y-843000D01*
Y-809730D01*
G03X-3863260Y-797040I-12817J-95D01*
G01X-3925140D01*
G02X-3925170Y-720810I-15J38115D01*
G01X-3752290D01*
G03X-3752450Y-695410I9J12701D01*
G01X-3924900D01*
G02X-3924970Y-619210I-266J38100D01*
G01X-3752200D01*
G03X-3752170Y-593810I-81J12700D01*
G01X-3924900D01*
G02X-3963250Y-556350I118J38482D01*
G03X-3988650I-12700J632D01*
G01Y-809860D01*
G03X-3975850Y-822410I12963J419D01*
G01X-3889060D01*
G02X-3876750Y-835370I-462J-12765D01*
G01Y-843010D01*
G37*
G36*
G01X-3276750Y-243010D02*
X-3251370D01*
X-3251360D01*
X-3251350Y-243000D01*
Y-209730D01*
G03X-3263260Y-197040I-12817J-95D01*
G01X-3325140D01*
G02X-3325170Y-120810I-15J38115D01*
G01X-3152290D01*
G03X-3152450Y-95410I9J12701D01*
G01X-3324900D01*
G02X-3324970Y-19210I-266J38100D01*
G01X-3152200D01*
G03X-3152170Y6190I-81J12700D01*
G01X-3324900D01*
G02X-3363250Y43650I118J38482D01*
G03X-3388650I-12700J632D01*
G01Y-209860D01*
G03X-3375850Y-222410I12963J419D01*
G01X-3289060D01*
G02X-3276750Y-235370I-462J-12765D01*
G01Y-243010D01*
G37*
G36*
G01X-3876750D02*
X-3851370D01*
X-3851360D01*
X-3851350Y-243000D01*
Y-209730D01*
G03X-3863260Y-197040I-12817J-95D01*
G01X-3925140D01*
G02X-3925170Y-120810I-15J38115D01*
G01X-3752290D01*
G03X-3752450Y-95410I9J12701D01*
G01X-3924900D01*
G02X-3924970Y-19210I-266J38100D01*
G01X-3752200D01*
G03X-3752170Y6190I-81J12700D01*
G01X-3924900D01*
G02X-3963250Y43650I118J38482D01*
G03X-3988650I-12700J632D01*
G01Y-209860D01*
G03X-3975850Y-222410I12963J419D01*
G01X-3889060D01*
G02X-3876750Y-235370I-462J-12765D01*
G01Y-243010D01*
G37*
G36*
G01X-3276750Y356990D02*
X-3251370D01*
X-3251360D01*
X-3251350Y357000D01*
Y390270D01*
G03X-3263260Y402960I-12817J-95D01*
G01X-3325140D01*
G02X-3325170Y479190I-15J38115D01*
G01X-3152290D01*
G03X-3152450Y504590I9J12701D01*
G01X-3324900D01*
G02X-3324970Y580790I-266J38100D01*
G01X-3152200D01*
G03X-3152170Y606190I-81J12700D01*
G01X-3324900D01*
G02X-3363250Y643650I118J38482D01*
G03X-3388650I-12700J632D01*
G01Y390140D01*
G03X-3375850Y377590I12963J419D01*
G01X-3289060D01*
G02X-3276750Y364630I-462J-12765D01*
G01Y356990D01*
G37*
G36*
G01X-3876750D02*
X-3851370D01*
X-3851360D01*
X-3851350Y357000D01*
Y390270D01*
G03X-3863260Y402960I-12817J-95D01*
G01X-3925140D01*
G02X-3925170Y479190I-15J38115D01*
G01X-3752290D01*
G03X-3752450Y504590I9J12701D01*
G01X-3924900D01*
G02X-3924970Y580790I-266J38100D01*
G01X-3752200D01*
G03X-3752170Y606190I-81J12700D01*
G01X-3924900D01*
G02X-3963250Y643650I118J38482D01*
G03X-3988650I-12700J632D01*
G01Y390140D01*
G03X-3975850Y377590I12963J419D01*
G01X-3889060D01*
G02X-3876750Y364630I-462J-12765D01*
G01Y356990D01*
G37*
G36*
G01X-2676750Y-1443010D02*
X-2651370D01*
X-2651360D01*
X-2651350Y-1443000D01*
Y-1409730D01*
G03X-2663260Y-1397040I-12817J-95D01*
G01X-2725140D01*
G02X-2725170Y-1320810I-15J38115D01*
G01X-2552290D01*
G03X-2552450Y-1295410I9J12701D01*
G01X-2724900D01*
G02X-2724970Y-1219210I-266J38100D01*
G01X-2552200D01*
G03X-2552170Y-1193810I-81J12700D01*
G01X-2724900D01*
G02X-2763250Y-1156350I118J38482D01*
G03X-2788650I-12700J632D01*
G01Y-1409860D01*
G03X-2775850Y-1422410I12963J419D01*
G01X-2689060D01*
G02X-2676750Y-1435370I-462J-12765D01*
G01Y-1443010D01*
G37*
G36*
G01Y-843010D02*
X-2651370D01*
X-2651360D01*
X-2651350Y-843000D01*
Y-809730D01*
G03X-2663260Y-797040I-12817J-95D01*
G01X-2725140D01*
G02X-2725170Y-720810I-15J38115D01*
G01X-2552290D01*
G03X-2552450Y-695410I9J12701D01*
G01X-2724900D01*
G02X-2724970Y-619210I-266J38100D01*
G01X-2552200D01*
G03X-2552170Y-593810I-81J12700D01*
G01X-2724900D01*
G02X-2763250Y-556350I118J38482D01*
G03X-2788650I-12700J632D01*
G01Y-809860D01*
G03X-2775850Y-822410I12963J419D01*
G01X-2689060D01*
G02X-2676750Y-835370I-462J-12765D01*
G01Y-843010D01*
G37*
G36*
G01Y-243010D02*
X-2651370D01*
X-2651360D01*
X-2651350Y-243000D01*
Y-209730D01*
G03X-2663260Y-197040I-12817J-95D01*
G01X-2725140D01*
G02X-2725170Y-120810I-15J38115D01*
G01X-2552290D01*
G03X-2552450Y-95410I9J12701D01*
G01X-2724900D01*
G02X-2724970Y-19210I-266J38100D01*
G01X-2552200D01*
G03X-2552170Y6190I-81J12700D01*
G01X-2724900D01*
G02X-2763250Y43650I118J38482D01*
G03X-2788650I-12700J632D01*
G01Y-209860D01*
G03X-2775850Y-222410I12963J419D01*
G01X-2689060D01*
G02X-2676750Y-235370I-462J-12765D01*
G01Y-243010D01*
G37*
G36*
G01Y356990D02*
X-2651370D01*
X-2651360D01*
X-2651350Y357000D01*
Y390270D01*
G03X-2663260Y402960I-12817J-95D01*
G01X-2725140D01*
G02X-2725170Y479190I-15J38115D01*
G01X-2552290D01*
G03X-2552450Y504590I9J12701D01*
G01X-2724900D01*
G02X-2724970Y580790I-266J38100D01*
G01X-2552200D01*
G03X-2552170Y606190I-81J12700D01*
G01X-2724900D01*
G02X-2763250Y643650I118J38482D01*
G03X-2788650I-12700J632D01*
G01Y390140D01*
G03X-2775850Y377590I12963J419D01*
G01X-2689060D01*
G02X-2676750Y364630I-462J-12765D01*
G01Y356990D01*
G37*
G54D22*
G01X-4467000Y-1422400D02*
X-4464120Y-1425280D01*
Y-1468420D01*
X-4467000Y-1471300D01*
Y-3737200D01*
X-4394200Y-3810000D01*
X-1722400D01*
G01X-4416200Y-1422400D02*
X-4416060Y-1422540D01*
Y-1471710D01*
X-4416200Y-1471850D01*
Y-1502000D01*
X-4343400Y-1574800D01*
G01X-4416200Y-822400D02*
X-4315360D01*
X-4273480Y-864280D01*
X-4242480D01*
X-4191000Y-812800D01*
G01X-4467000Y-822400D02*
X-4464120Y-825280D01*
Y-868420D01*
X-4467000Y-871300D01*
Y-1044800D01*
X-4445000Y-1066800D01*
X-2463800D01*
X-2362200Y-1168400D01*
Y-1646200D01*
X-1722400Y-2286000D01*
G01X-4416200Y-222400D02*
X-4315360D01*
X-4273480Y-264280D01*
X-4213680D01*
X-4171800Y-222400D01*
G01X-4467000D02*
X-4464120Y-225280D01*
Y-268420D01*
X-4467000Y-271300D01*
Y-359000D01*
X-4368800Y-457200D01*
X-1925600D01*
X-1747800Y-635000D01*
G01X-4467000Y377600D02*
X-4464120Y374720D01*
Y331580D01*
X-4467000Y328700D01*
Y174400D01*
X-4419600Y127000D01*
X-2260600D01*
X-1828800Y558800D01*
G01X-4416200Y377600D02*
X-4315360D01*
X-4273480Y335720D01*
X-4210880D01*
X-4169000Y377600D01*
G01X-71400Y-3810000D02*
X-325400Y-3556000D01*
X-1873630D01*
X-1931730Y-3497900D01*
X-1979870D01*
X-2037970Y-3556000D01*
X-3810000D01*
X-3867000Y-3499000D01*
Y-1471300D01*
X-3864120Y-1468420D01*
Y-1425280D01*
X-3867000Y-1422400D01*
G01X-3267000D02*
X-3264120Y-1425280D01*
Y-3238280D01*
X-3098800Y-3403600D01*
X1198600D01*
X1630400Y-3835400D01*
G01X-3816200Y-1422400D02*
X-3816060Y-1422540D01*
Y-1471710D01*
X-3712970Y-1574800D01*
G01X-3816200Y-822400D02*
X-3715360D01*
X-3673480Y-864280D01*
X-3632880D01*
X-3581400Y-812800D01*
G01X-3867000Y-822400D02*
X-3864120Y-825280D01*
Y-868420D01*
X-3867000Y-871300D01*
Y-984400D01*
X-3835400Y-1016000D01*
X-2438400D01*
X-2286000Y-1168400D01*
Y-1625600D01*
X-1778000Y-2133600D01*
X-249200D01*
X-96800Y-2286000D01*
G01X-3267000Y-822400D02*
X-3264120Y-825280D01*
Y-868420D01*
X-3267000Y-871300D01*
Y-924000D01*
X-3225800Y-965200D01*
X-2413000D01*
X-2209800Y-1168400D01*
Y-1600200D01*
X-1727200Y-2082800D01*
X-1301370D01*
X-1294070Y-2090100D01*
X-1245930D01*
X-1238630Y-2082800D01*
X375030D01*
X382330Y-2090100D01*
X430470D01*
X437770Y-2082800D01*
X1452600D01*
X1605000Y-2235200D01*
G01X-3816200Y-222400D02*
X-3715360D01*
X-3673480Y-264280D01*
X-3578680D01*
X-3536800Y-222400D01*
G01X-96800Y-635000D02*
X-325400Y-406400D01*
X-1213230D01*
X-1245930Y-439100D01*
X-1294070D01*
X-1326770Y-406400D01*
X-3835400D01*
X-3867000Y-374800D01*
Y-271300D01*
X-3864120Y-268420D01*
Y-225280D01*
X-3867000Y-222400D01*
G01Y377600D02*
X-3864120Y374720D01*
Y331580D01*
X-3867000Y328700D01*
Y209400D01*
X-3835400Y177800D01*
X-2311400D01*
X-2006600Y482600D01*
Y1397000D01*
X-1955800Y1447800D01*
X-482600D01*
X-304800Y1270000D01*
Y838200D01*
X-25400Y558800D01*
G01X-3267000Y-222400D02*
X-3264120Y-225280D01*
Y-268420D01*
X-3267000Y-271300D01*
Y-314400D01*
X-3225800Y-355600D01*
X-1326770D01*
X-1294070Y-322900D01*
X-1245930D01*
X-1213230Y-355600D01*
X346980D01*
X348300Y-356920D01*
Y-405070D01*
X382330Y-439100D01*
X430470D01*
X464500Y-405070D01*
Y-356920D01*
X465820Y-355600D01*
X1325600D01*
X1605000Y-635000D01*
G01X-3267000Y377600D02*
X-3264120Y374720D01*
Y331580D01*
X-3267000Y328700D01*
Y269800D01*
X-3225800Y228600D01*
X-2362200D01*
X-2082800Y508000D01*
Y1422400D01*
X-1981200Y1524000D01*
X1117600D01*
X1371600Y1270000D01*
Y787400D01*
X1600200Y558800D01*
G01X-3816200Y377600D02*
X-3715360D01*
X-3673480Y335720D01*
X-3575880D01*
X-3534000Y377600D01*
G01X-2667000Y-1422400D02*
X-2664120Y-1425280D01*
Y-1468420D01*
X-2667000Y-1471300D01*
Y-3149600D01*
X-2565400Y-3251200D01*
X2646400D01*
X3205200Y-3810000D01*
G01X-3216200Y-1422400D02*
X-3216060Y-1422540D01*
Y-1471710D01*
X-3112970Y-1574800D01*
G01X-2616200Y-1422400D02*
X-2616060Y-1422540D01*
Y-1473340D01*
X-2514600Y-1574800D01*
G01X-3216200Y-822400D02*
X-3115360D01*
X-3073480Y-864280D01*
X-3023280D01*
X-2971800Y-812800D01*
G01X-2616200Y-822400D02*
X-2515360D01*
X-2473480Y-864280D01*
X-2388280D01*
X-2336800Y-812800D01*
G01X3281400Y-2260600D02*
X3052800Y-2032000D01*
X2139570D01*
X2132270Y-2039300D01*
X2084130D01*
X2076830Y-2032000D01*
X488570D01*
X430470Y-1973900D01*
X382330D01*
X324230Y-2032000D01*
X-1187830D01*
X-1245930Y-1973900D01*
X-1294070D01*
X-1352170Y-2032000D01*
X-1676400D01*
X-2133600Y-1574800D01*
Y-1168400D01*
X-2387600Y-914400D01*
X-2618140D01*
X-2664120Y-868420D01*
Y-825280D01*
X-2667000Y-822400D01*
G01X-3216200Y-222400D02*
X-3115360D01*
X-3073480Y-264280D01*
X-2994480D01*
X-2952600Y-222400D01*
G01X-2616200D02*
X-2515360D01*
X-2473480Y-264280D01*
X-2359480D01*
X-2317600Y-222400D01*
G01X3230600Y-635000D02*
X3225800Y-630200D01*
Y-533400D01*
X2997200Y-304800D01*
X-1210140D01*
X-1230140Y-284800D01*
X-1309860D01*
X-1329860Y-304800D01*
X-2627740D01*
X-2664120Y-268420D01*
Y-225280D01*
X-2667000Y-222400D01*
G01X-3216200Y377600D02*
X-3115360D01*
X-3073480Y335720D01*
X-2991680D01*
X-2949800Y377600D01*
G01X-2616200D02*
X-2467200D01*
X-2413000Y431800D01*
G01X-2667000Y377600D02*
X-2664120Y374720D01*
Y331580D01*
X-2637340Y304800D01*
X-2387600D01*
X-2159000Y533400D01*
Y1473200D01*
X-2006600Y1625600D01*
X2794000D01*
X3048000Y1371600D01*
Y762000D01*
X3251200Y558800D01*
G01X-1727200Y-4610400D02*
Y-4516400D01*
G01D02*
Y-4422400D01*
G01X-1821200Y-4516400D02*
X-1727200D01*
G01D02*
X-1633200D01*
G01X-1727200Y-3137200D02*
Y-3043200D01*
G01X-1821200D02*
X-1727200D01*
G01D02*
X-1633200D01*
G01X-1752600Y-1435400D02*
Y-1341400D01*
G01X-1846600D02*
X-1752600D01*
G01D02*
X-1658600D01*
G01X-1828800Y164800D02*
Y258800D01*
G01X-1922800D02*
X-1828800D01*
G01D02*
X-1734800D01*
G01X-1397000Y-4610400D02*
Y-4516400D01*
G01D02*
Y-4422400D01*
G01X-1491000Y-4516400D02*
X-1397000D01*
G01D02*
X-1303000D01*
G01X-1397000Y-3137200D02*
Y-3043200D01*
G01X-1491000D02*
X-1397000D01*
G01D02*
X-1303000D01*
G01X-1447800Y-1435400D02*
Y-1341400D01*
G01X-1541800D02*
X-1447800D01*
G01D02*
X-1353800D01*
G01X-1473200Y164800D02*
Y258800D01*
G01X-1567200D02*
X-1473200D01*
G01D02*
X-1379200D01*
G01X-195600Y-3043200D02*
X-101600D01*
G01X-195600Y-1341400D02*
X-101600D01*
G01X-76200Y-4610400D02*
Y-4516400D01*
G01D02*
Y-4422400D01*
G01X-170200Y-4516400D02*
X-76200D01*
G01D02*
X17800D01*
G01X254000Y-4610400D02*
Y-4516400D01*
G01D02*
Y-4422400D01*
G01X160000Y-4516400D02*
X254000D01*
G01D02*
X348000D01*
G01X-101600Y-3137200D02*
Y-3043200D01*
G01D02*
X-7600D01*
G01X203200Y-3137200D02*
Y-3043200D01*
G01X109200D02*
X203200D01*
G01D02*
X297200D01*
G01X-101600Y-1435400D02*
Y-1341400D01*
G01D02*
X-7600D01*
G01X228600Y-1435400D02*
Y-1341400D01*
G01X134600D02*
X228600D01*
G01D02*
X322600D01*
G01X-25400Y164800D02*
Y258800D01*
G01X304800Y164800D02*
Y258800D01*
G01X-119400D02*
X-25400D01*
G01D02*
X68600D01*
G01X210800D02*
X304800D01*
G01D02*
X398800D01*
G01X1117600Y-4635800D02*
Y-4541800D01*
G01D02*
Y-4447800D01*
G01X1023600Y-4541800D02*
X1117600D01*
G01D02*
X1211600D01*
G01X1447800Y-4635800D02*
Y-4541800D01*
G01D02*
Y-4447800D01*
G01X1353800Y-4541800D02*
X1447800D01*
G01D02*
X1541800D01*
G01X1600200Y-3137200D02*
Y-3043200D01*
G01X1506200D02*
X1600200D01*
G01D02*
X1694200D01*
G01X1930400Y-3137200D02*
Y-3043200D01*
G01X1836400D02*
X1930400D01*
G01D02*
X2024400D01*
G01X1600200Y-1435400D02*
Y-1341400D01*
G01X1506200D02*
X1600200D01*
G01D02*
X1694200D01*
G01X1930400Y-1435400D02*
Y-1341400D01*
G01X1836400D02*
X1930400D01*
G01D02*
X2024400D01*
G01X1930400Y164800D02*
Y258800D01*
G01X1600200Y164800D02*
Y258800D01*
G01X1836400D02*
X1930400D01*
G01D02*
X2024400D01*
G01X1506200D02*
X1600200D01*
G01D02*
X1694200D01*
G01X3200400Y-4610400D02*
Y-4516400D01*
G01D02*
Y-4422400D01*
G01X3106400Y-4516400D02*
X3200400D01*
G01D02*
X3294400D01*
G01X3556000Y-4610400D02*
Y-4516400D01*
G01D02*
Y-4422400D01*
G01X3462000Y-4516400D02*
X3556000D01*
G01D02*
X3650000D01*
G01X3276600Y-3137200D02*
Y-3043200D01*
G01X3182600D02*
X3276600D01*
G01D02*
X3370600D01*
G01X3606800Y-3137200D02*
Y-3043200D01*
G01X3512800D02*
X3606800D01*
G01D02*
X3700800D01*
G01X3225800Y-1435400D02*
Y-1341400D01*
G01X3131800D02*
X3225800D01*
G01D02*
X3319800D01*
G01X3581400Y-1435400D02*
Y-1341400D01*
G01X3487400D02*
X3581400D01*
G01D02*
X3675400D01*
G01X3251200Y164800D02*
Y258800D01*
G01X3581400Y164800D02*
Y258800D01*
G01X3157200D02*
X3251200D01*
G01D02*
X3345200D01*
G01X3487400D02*
X3581400D01*
G01D02*
X3675400D01*
G36*
G01X-4528130Y-1146320D02*
G03X-4527900Y-1171710I160J-12695D01*
G01X-4354510Y-1171720D01*
G02X-4355020Y-1247910I-469J-38094D01*
G01X-4528180Y-1247920D01*
G03X-4527970Y-1273310I220J-12694D01*
G01X-4353740Y-1273330D01*
G02X-4355120Y-1349510I-1213J-38081D01*
G01X-4528180Y-1349520D01*
G03X-4527920Y-1374910I220J-12694D01*
G01X-4465800Y-1374930D01*
G02X-4428750Y-1413470I-1107J-38143D01*
G01Y-1446290D01*
X-4403350Y-1446310D01*
Y-1438200D01*
G02X-4390690Y-1425710I12755J-267D01*
G01X-4304180D01*
G03X-4291450Y-1412880I98J12633D01*
G01Y-1159060D01*
G03X-4303610Y-1146330I-12878J-129D01*
G01X-4528130Y-1146320D01*
G37*
G36*
G01Y-546320D02*
G03X-4527900Y-571710I160J-12695D01*
G01X-4354510Y-571720D01*
G02X-4355020Y-647910I-469J-38094D01*
G01X-4528180Y-647920D01*
G03X-4527970Y-673310I220J-12694D01*
G01X-4353740Y-673330D01*
G02X-4355120Y-749510I-1213J-38081D01*
G01X-4528180Y-749520D01*
G03X-4527920Y-774910I220J-12694D01*
G01X-4465800Y-774930D01*
G02X-4428750Y-813470I-1107J-38143D01*
G01Y-846290D01*
X-4403350Y-846310D01*
Y-838200D01*
G02X-4390690Y-825710I12755J-267D01*
G01X-4304180D01*
G03X-4291450Y-812880I98J12633D01*
G01Y-559060D01*
G03X-4303610Y-546330I-12878J-129D01*
G01X-4528130Y-546320D01*
G37*
G36*
G01Y53680D02*
G03X-4527900Y28290I160J-12695D01*
G01X-4354510Y28280D01*
G02X-4355020Y-47910I-469J-38094D01*
G01X-4528180Y-47920D01*
G03X-4527970Y-73310I220J-12694D01*
G01X-4353740Y-73330D01*
G02X-4355120Y-149510I-1213J-38081D01*
G01X-4528180Y-149520D01*
G03X-4527920Y-174910I220J-12694D01*
G01X-4465800Y-174930D01*
G02X-4428750Y-213470I-1107J-38143D01*
G01Y-246290D01*
X-4403350Y-246310D01*
Y-238200D01*
G02X-4390690Y-225710I12755J-267D01*
G01X-4304180D01*
G03X-4291450Y-212880I98J12633D01*
G01Y40940D01*
G03X-4303610Y53670I-12878J-129D01*
G01X-4528130Y53680D01*
G37*
G36*
G01Y653680D02*
G03X-4527900Y628290I160J-12695D01*
G01X-4354510Y628280D01*
G02X-4355020Y552090I-469J-38094D01*
G01X-4528180Y552080D01*
G03X-4527970Y526690I220J-12694D01*
G01X-4353740Y526670D01*
G02X-4355120Y450490I-1213J-38081D01*
G01X-4528180Y450480D01*
G03X-4527920Y425090I220J-12694D01*
G01X-4465800Y425070D01*
G02X-4428750Y386530I-1107J-38143D01*
G01Y353710D01*
X-4403350Y353690D01*
Y361800D01*
G02X-4390690Y374290I12755J-267D01*
G01X-4304180D01*
G03X-4291450Y387120I98J12633D01*
G01Y640940D01*
G03X-4303610Y653670I-12878J-129D01*
G01X-4528130Y653680D01*
G37*
G36*
G01X-3328130Y-1146320D02*
G03X-3327900Y-1171710I160J-12695D01*
G01X-3154510Y-1171720D01*
G02X-3155020Y-1247910I-469J-38094D01*
G01X-3328180Y-1247920D01*
G03X-3327970Y-1273310I220J-12694D01*
G01X-3153740Y-1273330D01*
G02X-3155120Y-1349510I-1213J-38081D01*
G01X-3328180Y-1349520D01*
G03X-3327920Y-1374910I220J-12694D01*
G01X-3265800Y-1374930D01*
G02X-3228750Y-1413470I-1107J-38143D01*
G01Y-1446290D01*
X-3203350Y-1446310D01*
Y-1438200D01*
G02X-3190690Y-1425710I12755J-267D01*
G01X-3104180D01*
G03X-3091450Y-1412880I98J12633D01*
G01Y-1159060D01*
G03X-3103610Y-1146330I-12878J-129D01*
G01X-3328130Y-1146320D01*
G37*
G36*
G01X-3928130D02*
G03X-3927900Y-1171710I160J-12695D01*
G01X-3754510Y-1171720D01*
G02X-3755020Y-1247910I-469J-38094D01*
G01X-3928180Y-1247920D01*
G03X-3927970Y-1273310I220J-12694D01*
G01X-3753740Y-1273330D01*
G02X-3755120Y-1349510I-1213J-38081D01*
G01X-3928180Y-1349520D01*
G03X-3927920Y-1374910I220J-12694D01*
G01X-3865800Y-1374930D01*
G02X-3828750Y-1413470I-1107J-38143D01*
G01Y-1446290D01*
X-3803350Y-1446310D01*
Y-1438200D01*
G02X-3790690Y-1425710I12755J-267D01*
G01X-3704180D01*
G03X-3691450Y-1412880I98J12633D01*
G01Y-1159060D01*
G03X-3703610Y-1146330I-12878J-129D01*
G01X-3928130Y-1146320D01*
G37*
G36*
G01X-3328130Y-546320D02*
G03X-3327900Y-571710I160J-12695D01*
G01X-3154510Y-571720D01*
G02X-3155020Y-647910I-469J-38094D01*
G01X-3328180Y-647920D01*
G03X-3327970Y-673310I220J-12694D01*
G01X-3153740Y-673330D01*
G02X-3155120Y-749510I-1213J-38081D01*
G01X-3328180Y-749520D01*
G03X-3327920Y-774910I220J-12694D01*
G01X-3265800Y-774930D01*
G02X-3228750Y-813470I-1107J-38143D01*
G01Y-846290D01*
X-3203350Y-846310D01*
Y-838200D01*
G02X-3190690Y-825710I12755J-267D01*
G01X-3104180D01*
G03X-3091450Y-812880I98J12633D01*
G01Y-559060D01*
G03X-3103610Y-546330I-12878J-129D01*
G01X-3328130Y-546320D01*
G37*
G36*
G01X-3928130D02*
G03X-3927900Y-571710I160J-12695D01*
G01X-3754510Y-571720D01*
G02X-3755020Y-647910I-469J-38094D01*
G01X-3928180Y-647920D01*
G03X-3927970Y-673310I220J-12694D01*
G01X-3753740Y-673330D01*
G02X-3755120Y-749510I-1213J-38081D01*
G01X-3928180Y-749520D01*
G03X-3927920Y-774910I220J-12694D01*
G01X-3865800Y-774930D01*
G02X-3828750Y-813470I-1107J-38143D01*
G01Y-846290D01*
X-3803350Y-846310D01*
Y-838200D01*
G02X-3790690Y-825710I12755J-267D01*
G01X-3704180D01*
G03X-3691450Y-812880I98J12633D01*
G01Y-559060D01*
G03X-3703610Y-546330I-12878J-129D01*
G01X-3928130Y-546320D01*
G37*
G36*
G01X-3328130Y53680D02*
G03X-3327900Y28290I160J-12695D01*
G01X-3154510Y28280D01*
G02X-3155020Y-47910I-469J-38094D01*
G01X-3328180Y-47920D01*
G03X-3327970Y-73310I220J-12694D01*
G01X-3153740Y-73330D01*
G02X-3155120Y-149510I-1213J-38081D01*
G01X-3328180Y-149520D01*
G03X-3327920Y-174910I220J-12694D01*
G01X-3265800Y-174930D01*
G02X-3228750Y-213470I-1107J-38143D01*
G01Y-246290D01*
X-3203350Y-246310D01*
Y-238200D01*
G02X-3190690Y-225710I12755J-267D01*
G01X-3104180D01*
G03X-3091450Y-212880I98J12633D01*
G01Y40940D01*
G03X-3103610Y53670I-12878J-129D01*
G01X-3328130Y53680D01*
G37*
G36*
G01X-3928130D02*
G03X-3927900Y28290I160J-12695D01*
G01X-3754510Y28280D01*
G02X-3755020Y-47910I-469J-38094D01*
G01X-3928180Y-47920D01*
G03X-3927970Y-73310I220J-12694D01*
G01X-3753740Y-73330D01*
G02X-3755120Y-149510I-1213J-38081D01*
G01X-3928180Y-149520D01*
G03X-3927920Y-174910I220J-12694D01*
G01X-3865800Y-174930D01*
G02X-3828750Y-213470I-1107J-38143D01*
G01Y-246290D01*
X-3803350Y-246310D01*
Y-238200D01*
G02X-3790690Y-225710I12755J-267D01*
G01X-3704180D01*
G03X-3691450Y-212880I98J12633D01*
G01Y40940D01*
G03X-3703610Y53670I-12878J-129D01*
G01X-3928130Y53680D01*
G37*
G36*
G01X-3328130Y653680D02*
G03X-3327900Y628290I160J-12695D01*
G01X-3154510Y628280D01*
G02X-3155020Y552090I-469J-38094D01*
G01X-3328180Y552080D01*
G03X-3327970Y526690I220J-12694D01*
G01X-3153740Y526670D01*
G02X-3155120Y450490I-1213J-38081D01*
G01X-3328180Y450480D01*
G03X-3327920Y425090I220J-12694D01*
G01X-3265800Y425070D01*
G02X-3228750Y386530I-1107J-38143D01*
G01Y353710D01*
X-3203350Y353690D01*
Y361800D01*
G02X-3190690Y374290I12755J-267D01*
G01X-3104180D01*
G03X-3091450Y387120I98J12633D01*
G01Y640940D01*
G03X-3103610Y653670I-12878J-129D01*
G01X-3328130Y653680D01*
G37*
G36*
G01X-3928130D02*
G03X-3927900Y628290I160J-12695D01*
G01X-3754510Y628280D01*
G02X-3755020Y552090I-469J-38094D01*
G01X-3928180Y552080D01*
G03X-3927970Y526690I220J-12694D01*
G01X-3753740Y526670D01*
G02X-3755120Y450490I-1213J-38081D01*
G01X-3928180Y450480D01*
G03X-3927920Y425090I220J-12694D01*
G01X-3865800Y425070D01*
G02X-3828750Y386530I-1107J-38143D01*
G01Y353710D01*
X-3803350Y353690D01*
Y361800D01*
G02X-3790690Y374290I12755J-267D01*
G01X-3704180D01*
G03X-3691450Y387120I98J12633D01*
G01Y640940D01*
G03X-3703610Y653670I-12878J-129D01*
G01X-3928130Y653680D01*
G37*
G36*
G01X-2728130Y-1146320D02*
G03X-2727900Y-1171710I160J-12695D01*
G01X-2554510Y-1171720D01*
G02X-2555020Y-1247910I-469J-38094D01*
G01X-2728180Y-1247920D01*
G03X-2727970Y-1273310I220J-12694D01*
G01X-2553740Y-1273330D01*
G02X-2555120Y-1349510I-1213J-38081D01*
G01X-2728180Y-1349520D01*
G03X-2727920Y-1374910I220J-12694D01*
G01X-2665800Y-1374930D01*
G02X-2628750Y-1413470I-1107J-38143D01*
G01Y-1446290D01*
X-2603350Y-1446310D01*
Y-1438200D01*
G02X-2590690Y-1425710I12755J-267D01*
G01X-2504180D01*
G03X-2491450Y-1412880I98J12633D01*
G01Y-1159060D01*
G03X-2503610Y-1146330I-12878J-129D01*
G01X-2728130Y-1146320D01*
G37*
G36*
G01Y-546320D02*
G03X-2727900Y-571710I160J-12695D01*
G01X-2554510Y-571720D01*
G02X-2555020Y-647910I-469J-38094D01*
G01X-2728180Y-647920D01*
G03X-2727970Y-673310I220J-12694D01*
G01X-2553740Y-673330D01*
G02X-2555120Y-749510I-1213J-38081D01*
G01X-2728180Y-749520D01*
G03X-2727920Y-774910I220J-12694D01*
G01X-2665800Y-774930D01*
G02X-2628750Y-813470I-1107J-38143D01*
G01Y-846290D01*
X-2603350Y-846310D01*
Y-838200D01*
G02X-2590690Y-825710I12755J-267D01*
G01X-2504180D01*
G03X-2491450Y-812880I98J12633D01*
G01Y-559060D01*
G03X-2503610Y-546330I-12878J-129D01*
G01X-2728130Y-546320D01*
G37*
G36*
G01Y53680D02*
G03X-2727900Y28290I160J-12695D01*
G01X-2554510Y28280D01*
G02X-2555020Y-47910I-469J-38094D01*
G01X-2728180Y-47920D01*
G03X-2727970Y-73310I220J-12694D01*
G01X-2553740Y-73330D01*
G02X-2555120Y-149510I-1213J-38081D01*
G01X-2728180Y-149520D01*
G03X-2727920Y-174910I220J-12694D01*
G01X-2665800Y-174930D01*
G02X-2628750Y-213470I-1107J-38143D01*
G01Y-246290D01*
X-2603350Y-246310D01*
Y-238200D01*
G02X-2590690Y-225710I12755J-267D01*
G01X-2504180D01*
G03X-2491450Y-212880I98J12633D01*
G01Y40940D01*
G03X-2503610Y53670I-12878J-129D01*
G01X-2728130Y53680D01*
G37*
G36*
G01Y653680D02*
G03X-2727900Y628290I160J-12695D01*
G01X-2554510Y628280D01*
G02X-2555020Y552090I-469J-38094D01*
G01X-2728180Y552080D01*
G03X-2727970Y526690I220J-12694D01*
G01X-2553740Y526670D01*
G02X-2555120Y450490I-1213J-38081D01*
G01X-2728180Y450480D01*
G03X-2727920Y425090I220J-12694D01*
G01X-2665800Y425070D01*
G02X-2628750Y386530I-1107J-38143D01*
G01Y353710D01*
X-2603350Y353690D01*
Y361800D01*
G02X-2590690Y374290I12755J-267D01*
G01X-2504180D01*
G03X-2491450Y387120I98J12633D01*
G01Y640940D01*
G03X-2503610Y653670I-12878J-129D01*
G01X-2728130Y653680D01*
G37*
G54D23*
G01X-1727200Y-4216400D02*
X-1397000D01*
G01X-1722400Y-3810000D02*
Y-4071900D01*
X-1727200Y-4076700D01*
Y-4216400D01*
G01Y-2743200D02*
X-1397000D01*
G01X-1722400Y-2286000D02*
Y-2598700D01*
X-1727200Y-2603500D01*
Y-2743200D01*
G01X-1752600Y-1041400D02*
X-1447800D01*
G01X-1747800Y-635000D02*
Y-896900D01*
X-1752600Y-901700D01*
Y-1041400D01*
G01X-1473200Y558800D02*
X-1828800D01*
G01X-1824000Y939800D02*
Y800100D01*
X-1828800Y795300D01*
Y558800D01*
G01X-1087400Y-3810000D02*
X-1422400D01*
G01X-1087400Y-2286000D02*
X-1422400D01*
G01X-1087400Y-635000D02*
X-1447800D01*
G01X-1087400Y939800D02*
X-1524000D01*
G01X-787400Y-3810000D02*
X-457200D01*
G01X-482600Y-2286000D02*
X-787400D01*
G01X-482600Y-635000D02*
X-787400D01*
G01Y939800D02*
X-457200D01*
G01X228600Y-3810000D02*
X563600D01*
G01X-76200Y-4216400D02*
X254000D01*
G01X-71400Y-3810000D02*
Y-4071900D01*
X-76200Y-4076700D01*
Y-4216400D01*
G01X589000Y-2286000D02*
X203200D01*
G01X-101600Y-2743200D02*
X203200D01*
G01X-96800Y-2286000D02*
Y-2598700D01*
X-101600Y-2603500D01*
Y-2743200D01*
G01X639800Y-635000D02*
X203200D01*
G01X-101600Y-1041400D02*
X228600D01*
G01X-96800Y-635000D02*
Y-896900D01*
X-101600Y-901700D01*
Y-1041400D01*
G01X690600Y939800D02*
X279400D01*
G01X304800Y558800D02*
X-25400D01*
G01X-20600Y939800D02*
Y703300D01*
X-25400Y698500D01*
Y558800D01*
G01X863600Y-3810000D02*
X1193800D01*
G01X1447800Y-4241800D02*
X1117600D01*
G01X889000Y-2286000D02*
X1244600D01*
G01X939800Y-635000D02*
X1219200D01*
G01X1270000Y939800D02*
X990600D01*
G01X1930400Y-3835400D02*
X2367000D01*
G01X1447800Y-4241800D02*
X1587500D01*
X1630400Y-4198900D01*
Y-3835400D01*
G01X2316200Y-2235200D02*
X1905000D01*
G01X1600200Y-2743200D02*
X1930400D01*
G01X1605000Y-2235200D02*
Y-2598700D01*
X1600200Y-2603500D01*
Y-2743200D01*
G01X2290800Y-635000D02*
X1905000D01*
G01X1600200Y-1041400D02*
X1930400D01*
G01X1600200D02*
Y-779500D01*
X1605000Y-774700D01*
Y-635000D01*
G01X2316200Y939800D02*
X1905000D01*
G01X1930400Y558800D02*
X1600200D01*
G01X1605000Y939800D02*
Y800100D01*
X1600200Y795300D01*
Y558800D01*
G01X2667000Y-3835400D02*
X2895600D01*
G01Y-2235200D02*
X2616200D01*
G01X2870200Y-635000D02*
X2590800D01*
G01X2921000Y939800D02*
X2616200D01*
G01X3505200Y-3810000D02*
X3967200D01*
G01X3200400Y-4216400D02*
X3556000D01*
G01X3200400D02*
Y-3954500D01*
X3205200Y-3949700D01*
Y-3810000D01*
G01X4018000Y-2260600D02*
X3581400D01*
G01X3276600Y-2743200D02*
X3606800D01*
G01X3281400Y-2260600D02*
Y-2598700D01*
X3276600Y-2603500D01*
Y-2743200D01*
G01X3530600Y-635000D02*
X3967200D01*
G01X3225800Y-1041400D02*
X3581400D01*
G01X3230600Y-635000D02*
Y-896900D01*
X3225800Y-901700D01*
Y-1041400D01*
G01X3967200Y939800D02*
X3556000D01*
G01X3581400Y558800D02*
X3251200D01*
G01X3256000Y939800D02*
Y703300D01*
X3251200Y698500D01*
Y558800D01*
G01X4267200Y-3810000D02*
X4648200D01*
G01Y-2260600D02*
X4318000D01*
G01X4267200Y-635000D02*
X4648200D01*
G01X4622800Y939800D02*
X4267200D01*
G54D14*
X-4343400Y-1574800D03*
X-4191000Y-812800D03*
X-4171800Y-222400D03*
X-4169000Y377600D03*
X-3759200Y-3022600D03*
Y-2895600D03*
Y-2387600D03*
Y-2133600D03*
Y-2260600D03*
Y-2768600D03*
Y-2514600D03*
Y-2641600D03*
X-3712970Y-1574800D03*
X-3581400Y-812800D03*
X-3536800Y-222400D03*
X-3534000Y377600D03*
X-2844800Y-2895600D03*
Y-3149600D03*
Y-3022600D03*
Y-2260600D03*
Y-2387600D03*
Y-2641600D03*
Y-2768600D03*
Y-2514600D03*
X-3112970Y-1574800D03*
X-2514600D03*
X-2971800Y-812800D03*
X-2952600Y-222400D03*
X-2949800Y377600D03*
X-1955800Y-3556000D03*
X-2336800Y-812800D03*
X-2317600Y-222400D03*
X-2413000Y431800D03*
X-1270000Y-2032000D03*
Y-381000D03*
X-1295400Y1193800D03*
X-457200Y-3810000D03*
X-482600Y-2286000D03*
Y-635000D03*
X-457200Y939800D03*
X330200Y-3556000D03*
X406400Y-2032000D03*
Y-381000D03*
X457200Y1193800D03*
X1193800Y-3810000D03*
X1244600Y-2286000D03*
X1219200Y-635000D03*
X1270000Y939800D03*
X2082800Y-3581400D03*
X2108200Y-1981200D03*
Y-381000D03*
Y1193800D03*
X2870200Y-635000D03*
X2895600Y-3835400D03*
Y-2235200D03*
X2921000Y939800D03*
X3759200Y-3556000D03*
X3784600Y-2006600D03*
Y-381000D03*
X3771900Y1206500D03*
X4648200Y-2260600D03*
Y-635000D03*
X4622800Y939800D03*
G54D15*
X-3192600Y-5872650D03*
G54D16*
X-3657600Y-6197650D03*
Y-5547650D03*
G54D17*
X-3378200Y1574800D03*
Y1828800D03*
X-2438400Y-5308600D03*
X-2692400D03*
X-2438400Y-5054600D03*
X-2692400D03*
X-2438400Y-4800600D03*
X-2692400D03*
X-2438400Y-4546600D03*
Y-4292600D03*
X-2692400Y-4546600D03*
Y-4292600D03*
X-2438400Y-4038600D03*
Y-3784600D03*
Y-3530600D03*
X-2692400Y-4038600D03*
Y-3784600D03*
Y-3530600D03*
X-3124200Y1574800D03*
X-2870200D03*
X-2616200D03*
X-3124200Y1828800D03*
X-2870200D03*
X-2616200D03*
X-2362200Y1574800D03*
Y1828800D03*
X736600Y-5207000D03*
Y-5461000D03*
Y-5715000D03*
X2184400Y-4622800D03*
X1930400D03*
X2794000Y-5054600D03*
Y-5308600D03*
Y-5562600D03*
X2438400Y-4622800D03*
G54D18*
X-2489200Y-6689600D03*
Y-5689600D03*
G54D19*
X-1727200Y-4516400D03*
Y-4216400D03*
Y-3043200D03*
Y-2743200D03*
X-1752600Y-1341400D03*
Y-1041400D03*
X-1828800Y258800D03*
Y558800D03*
X-1397000Y-4516400D03*
Y-4216400D03*
Y-3043200D03*
Y-2743200D03*
X-1447800Y-1341400D03*
Y-1041400D03*
X-1473200Y258800D03*
Y558800D03*
X-76200Y-4516400D03*
X254000D03*
X-76200Y-4216400D03*
X254000D03*
X-101600Y-3043200D03*
Y-2743200D03*
X203200Y-3043200D03*
Y-2743200D03*
X-101600Y-1341400D03*
X228600D03*
X-101600Y-1041400D03*
X228600D03*
X-25400Y258800D03*
X304800D03*
X-25400Y558800D03*
X304800D03*
X1117600Y-4541800D03*
Y-4241800D03*
X1447800Y-4541800D03*
Y-4241800D03*
X1600200Y-3043200D03*
Y-2743200D03*
X1930400Y-3043200D03*
Y-2743200D03*
X1600200Y-1341400D03*
X1930400D03*
X1600200Y-1041400D03*
X1930400D03*
Y258800D03*
X1600200D03*
X1930400Y558800D03*
X1600200D03*
X3200400Y-4516400D03*
X3556000D03*
X3200400Y-4216400D03*
X3556000D03*
X3276600Y-3043200D03*
Y-2743200D03*
X3606800Y-3043200D03*
Y-2743200D03*
X3225800Y-1341400D03*
X3581400D03*
X3225800Y-1041400D03*
X3581400D03*
X3251200Y258800D03*
X3581400D03*
X3251200Y558800D03*
X3581400D03*
M02*
