G04 ================== begin FILE IDENTIFICATION RECORD ==================*
G04 Layout Name:  SMA_fabB_v1_040418.brd*
G04 Film Name:    SMA_FAB_NOTES_fabB_040418*
G04 File Format:  Gerber RS274X*
G04 File Origin:  Cadence Allegro 17.2-P019*
G04 Origin Date:  Wed Apr 04 13:45:06 2018*
G04 *
G04 Layer:  BOARD GEOMETRY/ASSEMBLY_NOTES*
G04 Layer:  DRAWING FORMAT/REVISION_DATA*
G04 Layer:  DRAWING FORMAT/OUTLINE*
G04 Layer:  DRAWING FORMAT/DRAWING_ORIGIN*
G04 Layer:  MANUFACTURING/XSECTION_CHART*
G04 Layer:  DRAWING FORMAT/TITLE_DATA*
G04 Layer:  DRAWING FORMAT/TITLE_BLOCK*
G04 Layer:  DRAWING FORMAT/REVISION_BLOCK*
G04 *
G04 Offset:    (0.0000 0.0000)*
G04 Mirror:    No*
G04 Mode:      Positive*
G04 Rotation:  0*
G04 FullContactRelief:  No*
G04 UndefLineWidth:     0.2540*
G04 ================== end FILE IDENTIFICATION RECORD ====================*
%FSLAX25Y25*MOMM*%
%IR0*IPPOS*OFA0.00000B0.00000*MIA0B0*SFA1.00000B1.00000*%
%AMMACRO10*
1,1,.254,.2,0.0*
20,1,.254,.2,0.0,-.2,0.0,0.0*
1,1,.254,-.2,0.0*
1,1,.254,0.0,.2*
20,1,.254,0.0,.2,0.0,-.2,0.0*
1,1,.254,0.0,-.2*
%
%ADD10MACRO10*%
%ADD11C,.254*%
G75*
%LPD*%
G75*
G36*
G01X6908800Y513560D02*
Y303250D01*
X6972300D01*
Y-4323610D01*
X6908800D01*
Y-4533920D01*
X7289800D01*
Y-4323610D01*
X7226300D01*
Y303250D01*
X7289800D01*
Y513560D01*
X6908800D01*
G37*
G36*
G01X6400800Y-4533920D02*
Y-4323610D01*
X7924800D01*
Y-4533920D01*
X6400800D01*
G37*
G36*
G01Y-2921530D02*
Y-2711220D01*
X7924800D01*
Y-2921530D01*
X6400800D01*
G37*
G36*
G01Y-1309140D02*
Y-1098830D01*
X7924800D01*
Y-1309140D01*
X6400800D01*
G37*
G36*
G01Y303250D02*
Y513560D01*
X7924800D01*
Y303250D01*
X6400800D01*
G37*
G54D10*
X0Y0D03*
G54D11*
G01X9462800Y-7241850D02*
Y2758150D01*
X-5537200D01*
Y-7241850D01*
X9462800D01*
G01X5722450Y-6716180D02*
X5712800Y-6709830D01*
X5701540Y-6705600D01*
X5688670D01*
X5674190Y-6711950D01*
X5662930Y-6722530D01*
X5654890Y-6735230D01*
X5648450Y-6756400D01*
X5646840Y-6775450D01*
X5650060Y-6794500D01*
X5654890Y-6807200D01*
X5664540Y-6819900D01*
X5675800Y-6828370D01*
X5687060Y-6832600D01*
X5698320D01*
X5709580Y-6828370D01*
X5719230Y-6822020D01*
X5727280Y-6813550D01*
G01X5816600Y-6832600D02*
X5803730Y-6830480D01*
X5792470Y-6822020D01*
X5782820Y-6809320D01*
X5776380Y-6794500D01*
X5773160Y-6777570D01*
Y-6760630D01*
X5776380Y-6743700D01*
X5782820Y-6728880D01*
X5792470Y-6716180D01*
X5803730Y-6707720D01*
X5816600Y-6705600D01*
X5829470Y-6707720D01*
X5840730Y-6716180D01*
X5850380Y-6728880D01*
X5856820Y-6743700D01*
X5860040Y-6760630D01*
Y-6777570D01*
X5856820Y-6794500D01*
X5850380Y-6809320D01*
X5840730Y-6822020D01*
X5829470Y-6830480D01*
X5816600Y-6832600D01*
G01X5909140D02*
Y-6705600D01*
X5983140Y-6832600D01*
Y-6705600D01*
G01X6045110Y-6832600D02*
Y-6705600D01*
X6106250D01*
G01X6083720Y-6766980D02*
X6045110D01*
G01X6185920Y-6705600D02*
X6224520D01*
G01X6205220D02*
Y-6832600D01*
G01X6185920D02*
X6224520D01*
G01X6299370D02*
Y-6705600D01*
X6331540D01*
X6344410Y-6711950D01*
X6354060Y-6720420D01*
X6362110Y-6733110D01*
X6368540Y-6747940D01*
X6370150Y-6769100D01*
X6368540Y-6790270D01*
X6362110Y-6805090D01*
X6354060Y-6817790D01*
X6344410Y-6826250D01*
X6331540Y-6832600D01*
X6299370D01*
G01X6496470D02*
X6432130D01*
Y-6705600D01*
X6496470D01*
G01X6470730Y-6766980D02*
X6432130D01*
G01X6556840Y-6832600D02*
Y-6705600D01*
X6630840Y-6832600D01*
Y-6705600D01*
G01X6723380D02*
Y-6832600D01*
G01X6686380Y-6705600D02*
X6760380D01*
G01X6833620D02*
X6872220D01*
G01X6852920D02*
Y-6832600D01*
G01X6833620D02*
X6872220D01*
G01X6942240D02*
X6982460Y-6705600D01*
X7022680Y-6832600D01*
G01X7008200Y-6788150D02*
X6956720D01*
G01X7079830Y-6705600D02*
Y-6832600D01*
X7144170D01*
G01X7222240Y-6705600D02*
X7260840D01*
G01X7241540D02*
Y-6832600D01*
G01X7222240D02*
X7260840D01*
G01X7371080Y-6705600D02*
Y-6832600D01*
G01X7334080Y-6705600D02*
X7408080D01*
G01X7500620Y-6832600D02*
Y-6775450D01*
X7468450Y-6705600D01*
G01X7532790D02*
X7500620Y-6775450D01*
G01X7727530Y-6832600D02*
Y-6705600D01*
X7767740D01*
X7780610Y-6711950D01*
X7788660Y-6720420D01*
X7791870Y-6737350D01*
X7788660Y-6754280D01*
X7779000Y-6764870D01*
X7767740Y-6771220D01*
X7727530D01*
G01X7767740D02*
X7791870Y-6832600D01*
G01X7921410D02*
X7857070D01*
Y-6705600D01*
X7921410D01*
G01X7895670Y-6766980D02*
X7857070D01*
G01X7976950Y-6832600D02*
Y-6705600D01*
X8018780Y-6811430D01*
X8060610Y-6705600D01*
Y-6832600D01*
G01X8129020Y-6705600D02*
X8167620D01*
G01X8148320D02*
Y-6832600D01*
G01X8129020D02*
X8167620D01*
G01X8240860D02*
Y-6705600D01*
X8314860Y-6832600D01*
Y-6705600D01*
G01X8372010Y-6832600D02*
Y-6705600D01*
X8404180D01*
X8417050Y-6711950D01*
X8426700Y-6720420D01*
X8434750Y-6733110D01*
X8441180Y-6747940D01*
X8442790Y-6769100D01*
X8441180Y-6790270D01*
X8434750Y-6805090D01*
X8426700Y-6817790D01*
X8417050Y-6826250D01*
X8404180Y-6832600D01*
X8372010D01*
G01X8569110D02*
X8504770D01*
Y-6705600D01*
X8569110D01*
G01X8543370Y-6766980D02*
X8504770D01*
G01X8634310Y-6832600D02*
Y-6705600D01*
X8674520D01*
X8687390Y-6711950D01*
X8695440Y-6720420D01*
X8698650Y-6737350D01*
X8695440Y-6754280D01*
X8685780Y-6764870D01*
X8674520Y-6771220D01*
X8634310D01*
G01X8674520D02*
X8698650Y-6832600D01*
G01X8796020Y-6836830D02*
X8792800Y-6834720D01*
Y-6830480D01*
X8796020Y-6828370D01*
X8799240Y-6830480D01*
Y-6834720D01*
X8796020Y-6836830D01*
G01Y-6779690D02*
X8792800Y-6777570D01*
Y-6773330D01*
X8796020Y-6771220D01*
X8799240Y-6773330D01*
Y-6777570D01*
X8796020Y-6779690D01*
G01X5666910Y-6959600D02*
Y-6896100D01*
X5684520Y-6949020D01*
X5702130Y-6896100D01*
Y-6959600D01*
G01X5752590D02*
Y-6917270D01*
G01Y-6924670D02*
X5749880Y-6920440D01*
X5745820Y-6918330D01*
X5741080Y-6917270D01*
X5736340Y-6919380D01*
X5732270Y-6923620D01*
X5729560Y-6929970D01*
X5728210Y-6938430D01*
X5729560Y-6946900D01*
X5732270Y-6953250D01*
X5736340Y-6957480D01*
X5741080Y-6959600D01*
X5745820Y-6958540D01*
X5749880Y-6955370D01*
X5752590Y-6951140D01*
G01X5796280Y-6896100D02*
Y-6959600D01*
G01X5786800Y-6917270D02*
X5805760D01*
G01X5842000Y-6931030D02*
X5863680D01*
X5861640Y-6923620D01*
X5858260Y-6919380D01*
X5853510Y-6917270D01*
X5848770Y-6918330D01*
X5844710Y-6921500D01*
X5842000Y-6928910D01*
X5840640Y-6935260D01*
Y-6941610D01*
X5842000Y-6947960D01*
X5845390Y-6954310D01*
X5849450Y-6958540D01*
X5854190Y-6959600D01*
X5858930Y-6957480D01*
X5863680Y-6951140D01*
G01X5898560Y-6959600D02*
Y-6917270D01*
G01Y-6925730D02*
X5901940Y-6921500D01*
X5905330Y-6918330D01*
X5910070Y-6917270D01*
X5913460Y-6918330D01*
X5917520Y-6921500D01*
G01X5963920Y-6917270D02*
Y-6959600D01*
G01Y-6900330D02*
X5962570Y-6899280D01*
Y-6897160D01*
X5963920Y-6896100D01*
X5965270Y-6897160D01*
Y-6899280D01*
X5963920Y-6900330D01*
G01X6031990Y-6959600D02*
Y-6917270D01*
G01Y-6924670D02*
X6029280Y-6920440D01*
X6025220Y-6918330D01*
X6020480Y-6917270D01*
X6015740Y-6919380D01*
X6011670Y-6923620D01*
X6008960Y-6929970D01*
X6007610Y-6938430D01*
X6008960Y-6946900D01*
X6011670Y-6953250D01*
X6015740Y-6957480D01*
X6020480Y-6959600D01*
X6025220Y-6958540D01*
X6029280Y-6955370D01*
X6031990Y-6951140D01*
G01X6075680Y-6959600D02*
Y-6896100D01*
G01X6121400Y-6952190D02*
X6124790Y-6956430D01*
X6129530Y-6959600D01*
X6133590D01*
X6137660Y-6957480D01*
X6140370Y-6954310D01*
X6141720Y-6950080D01*
X6141040Y-6943720D01*
X6138330Y-6940550D01*
X6126140Y-6934200D01*
X6123430Y-6926790D01*
X6124790Y-6921500D01*
X6127500Y-6918330D01*
X6131560Y-6917270D01*
X6135620Y-6918330D01*
X6139690Y-6921500D01*
G01X6231130Y-6980770D02*
Y-6917270D01*
G01Y-6926790D02*
X6234510Y-6921500D01*
X6237900Y-6918330D01*
X6243320Y-6917270D01*
X6248060Y-6918330D01*
X6252800Y-6923620D01*
X6254840Y-6931030D01*
X6255510Y-6938430D01*
X6254840Y-6945840D01*
X6252800Y-6953250D01*
X6248740Y-6957480D01*
X6243320Y-6959600D01*
X6238580Y-6958540D01*
X6233840Y-6955370D01*
X6231130Y-6951140D01*
G01X6289720Y-6959600D02*
Y-6917270D01*
G01Y-6925730D02*
X6293100Y-6921500D01*
X6296490Y-6918330D01*
X6301230Y-6917270D01*
X6304620Y-6918330D01*
X6308680Y-6921500D01*
G01X6355080Y-6959600D02*
X6351020Y-6958540D01*
X6346950Y-6954310D01*
X6344240Y-6946900D01*
X6342890Y-6938430D01*
X6344240Y-6929970D01*
X6346950Y-6922560D01*
X6351020Y-6918330D01*
X6355080Y-6917270D01*
X6359140Y-6918330D01*
X6363210Y-6922560D01*
X6365920Y-6929970D01*
X6366600Y-6938430D01*
X6365920Y-6946900D01*
X6363210Y-6954310D01*
X6359140Y-6958540D01*
X6355080Y-6959600D01*
G01X6398770Y-6917270D02*
X6410960Y-6959600D01*
X6423150Y-6917270D01*
G01X6466840D02*
Y-6959600D01*
G01Y-6900330D02*
X6465490Y-6899280D01*
Y-6897160D01*
X6466840Y-6896100D01*
X6468190Y-6897160D01*
Y-6899280D01*
X6466840Y-6900330D01*
G01X6534910Y-6896100D02*
Y-6959600D01*
G01Y-6950080D02*
X6532200Y-6955370D01*
X6528140Y-6958540D01*
X6523400Y-6959600D01*
X6517980Y-6957480D01*
X6513910Y-6952190D01*
X6511200Y-6945840D01*
X6510530Y-6938430D01*
X6511200Y-6931030D01*
X6513910Y-6924670D01*
X6517980Y-6919380D01*
X6523400Y-6917270D01*
X6528140Y-6918330D01*
X6531530Y-6920440D01*
X6534910Y-6924670D01*
G01X6568440Y-6931030D02*
X6590120D01*
X6588080Y-6923620D01*
X6584700Y-6919380D01*
X6579950Y-6917270D01*
X6575210Y-6918330D01*
X6571150Y-6921500D01*
X6568440Y-6928910D01*
X6567080Y-6935260D01*
Y-6941610D01*
X6568440Y-6947960D01*
X6571830Y-6954310D01*
X6575890Y-6958540D01*
X6580630Y-6959600D01*
X6585370Y-6957480D01*
X6590120Y-6951140D01*
G01X6646670Y-6896100D02*
Y-6959600D01*
G01Y-6950080D02*
X6643960Y-6955370D01*
X6639900Y-6958540D01*
X6635160Y-6959600D01*
X6629740Y-6957480D01*
X6625670Y-6952190D01*
X6622960Y-6945840D01*
X6622290Y-6938430D01*
X6622960Y-6931030D01*
X6625670Y-6924670D01*
X6629740Y-6919380D01*
X6635160Y-6917270D01*
X6639900Y-6918330D01*
X6643290Y-6920440D01*
X6646670Y-6924670D01*
G01X6746240Y-6896100D02*
Y-6959600D01*
G01X6736760Y-6917270D02*
X6755720D01*
G01X6802120Y-6959600D02*
X6798060Y-6958540D01*
X6793990Y-6954310D01*
X6791280Y-6946900D01*
X6789930Y-6938430D01*
X6791280Y-6929970D01*
X6793990Y-6922560D01*
X6798060Y-6918330D01*
X6802120Y-6917270D01*
X6806180Y-6918330D01*
X6810250Y-6922560D01*
X6812960Y-6929970D01*
X6813640Y-6938430D01*
X6812960Y-6946900D01*
X6810250Y-6954310D01*
X6806180Y-6958540D01*
X6802120Y-6959600D01*
G01X6899660Y-6978650D02*
X6903720Y-6980770D01*
X6909140Y-6978650D01*
X6912530Y-6974420D01*
X6915230Y-6969120D01*
X6919300Y-6952190D01*
X6928100Y-6917270D01*
G01X6906430D02*
X6919300Y-6952190D01*
G01X6969760Y-6959600D02*
X6965700Y-6958540D01*
X6961630Y-6954310D01*
X6958920Y-6946900D01*
X6957570Y-6938430D01*
X6958920Y-6929970D01*
X6961630Y-6922560D01*
X6965700Y-6918330D01*
X6969760Y-6917270D01*
X6973820Y-6918330D01*
X6977890Y-6922560D01*
X6980600Y-6929970D01*
X6981280Y-6938430D01*
X6980600Y-6946900D01*
X6977890Y-6954310D01*
X6973820Y-6958540D01*
X6969760Y-6959600D01*
G01X7014120Y-6917270D02*
Y-6946900D01*
X7016830Y-6954310D01*
X7020900Y-6958540D01*
X7025640Y-6959600D01*
X7030380Y-6958540D01*
X7034450Y-6954310D01*
X7037160Y-6946900D01*
G01Y-6959600D02*
Y-6917270D01*
G01X7127920Y-6959600D02*
Y-6917270D01*
G01Y-6925730D02*
X7131300Y-6921500D01*
X7134690Y-6918330D01*
X7139430Y-6917270D01*
X7142820Y-6918330D01*
X7146880Y-6921500D01*
G01X7183120Y-6931030D02*
X7204800D01*
X7202760Y-6923620D01*
X7199380Y-6919380D01*
X7194630Y-6917270D01*
X7189890Y-6918330D01*
X7185830Y-6921500D01*
X7183120Y-6928910D01*
X7181760Y-6935260D01*
Y-6941610D01*
X7183120Y-6947960D01*
X7186510Y-6954310D01*
X7190570Y-6958540D01*
X7195310Y-6959600D01*
X7200050Y-6957480D01*
X7204800Y-6951140D01*
G01X7239680Y-6975480D02*
X7244420Y-6979710D01*
X7249840Y-6980770D01*
X7254580Y-6979710D01*
X7258640Y-6974420D01*
X7261350Y-6967010D01*
Y-6917270D01*
G01Y-6925730D02*
X7258640Y-6921500D01*
X7254580Y-6918330D01*
X7249840Y-6917270D01*
X7244420Y-6919380D01*
X7241030Y-6923620D01*
X7238320Y-6931030D01*
X7236970Y-6938430D01*
X7237640Y-6944780D01*
X7240350Y-6952190D01*
X7244420Y-6957480D01*
X7249840Y-6959600D01*
X7253900Y-6958540D01*
X7258640Y-6954310D01*
X7261350Y-6950080D01*
G01X7317230Y-6959600D02*
Y-6917270D01*
G01Y-6924670D02*
X7314520Y-6920440D01*
X7310460Y-6918330D01*
X7305720Y-6917270D01*
X7300980Y-6919380D01*
X7296910Y-6923620D01*
X7294200Y-6929970D01*
X7292850Y-6938430D01*
X7294200Y-6946900D01*
X7296910Y-6953250D01*
X7300980Y-6957480D01*
X7305720Y-6959600D01*
X7310460Y-6958540D01*
X7314520Y-6955370D01*
X7317230Y-6951140D01*
G01X7351440Y-6959600D02*
Y-6917270D01*
G01Y-6925730D02*
X7354820Y-6921500D01*
X7358210Y-6918330D01*
X7362950Y-6917270D01*
X7366340Y-6918330D01*
X7370400Y-6921500D01*
G01X7428990Y-6896100D02*
Y-6959600D01*
G01Y-6950080D02*
X7426280Y-6955370D01*
X7422220Y-6958540D01*
X7417480Y-6959600D01*
X7412060Y-6957480D01*
X7407990Y-6952190D01*
X7405280Y-6945840D01*
X7404610Y-6938430D01*
X7405280Y-6931030D01*
X7407990Y-6924670D01*
X7412060Y-6919380D01*
X7417480Y-6917270D01*
X7422220Y-6918330D01*
X7425610Y-6920440D01*
X7428990Y-6924670D01*
G01X7472680Y-6917270D02*
Y-6959600D01*
G01Y-6900330D02*
X7471330Y-6899280D01*
Y-6897160D01*
X7472680Y-6896100D01*
X7474030Y-6897160D01*
Y-6899280D01*
X7472680Y-6900330D01*
G01X7517040Y-6959600D02*
Y-6917270D01*
G01Y-6927850D02*
X7519750Y-6922560D01*
X7523820Y-6918330D01*
X7529240Y-6917270D01*
X7533980Y-6918330D01*
X7538040Y-6922560D01*
X7540080Y-6929970D01*
Y-6959600D01*
G01X7574960Y-6975480D02*
X7579700Y-6979710D01*
X7585120Y-6980770D01*
X7589860Y-6979710D01*
X7593920Y-6974420D01*
X7596630Y-6967010D01*
Y-6917270D01*
G01Y-6925730D02*
X7593920Y-6921500D01*
X7589860Y-6918330D01*
X7585120Y-6917270D01*
X7579700Y-6919380D01*
X7576310Y-6923620D01*
X7573600Y-6931030D01*
X7572250Y-6938430D01*
X7572920Y-6944780D01*
X7575630Y-6952190D01*
X7579700Y-6957480D01*
X7585120Y-6959600D01*
X7589180Y-6958540D01*
X7593920Y-6954310D01*
X7596630Y-6950080D01*
G01X7711100Y-6901390D02*
X7707040Y-6898220D01*
X7702300Y-6896100D01*
X7696880D01*
X7690780Y-6899280D01*
X7686040Y-6904570D01*
X7682650Y-6910920D01*
X7679940Y-6921500D01*
X7679270Y-6931030D01*
X7680620Y-6940550D01*
X7682650Y-6946900D01*
X7686720Y-6953250D01*
X7691460Y-6957480D01*
X7696200Y-6959600D01*
X7700940D01*
X7705680Y-6957480D01*
X7709750Y-6954310D01*
X7713130Y-6950080D01*
G01X7742600Y-6959600D02*
Y-6917270D01*
G01Y-6925730D02*
X7745980Y-6921500D01*
X7749370Y-6918330D01*
X7754110Y-6917270D01*
X7757500Y-6918330D01*
X7761560Y-6921500D01*
G01X7797800Y-6931030D02*
X7819480D01*
X7817440Y-6923620D01*
X7814060Y-6919380D01*
X7809310Y-6917270D01*
X7804570Y-6918330D01*
X7800510Y-6921500D01*
X7797800Y-6928910D01*
X7796440Y-6935260D01*
Y-6941610D01*
X7797800Y-6947960D01*
X7801190Y-6954310D01*
X7805250Y-6958540D01*
X7809990Y-6959600D01*
X7814730Y-6957480D01*
X7819480Y-6951140D01*
G01X7876030Y-6959600D02*
Y-6917270D01*
G01Y-6924670D02*
X7873320Y-6920440D01*
X7869260Y-6918330D01*
X7864520Y-6917270D01*
X7859780Y-6919380D01*
X7855710Y-6923620D01*
X7853000Y-6929970D01*
X7851650Y-6938430D01*
X7853000Y-6946900D01*
X7855710Y-6953250D01*
X7859780Y-6957480D01*
X7864520Y-6959600D01*
X7869260Y-6958540D01*
X7873320Y-6955370D01*
X7876030Y-6951140D01*
G01X7919720Y-6896100D02*
Y-6959600D01*
G01X7910240Y-6917270D02*
X7929200D01*
G01X7975600D02*
Y-6959600D01*
G01Y-6900330D02*
X7974250Y-6899280D01*
Y-6897160D01*
X7975600Y-6896100D01*
X7976950Y-6897160D01*
Y-6899280D01*
X7975600Y-6900330D01*
G01X8019290Y-6917270D02*
X8031480Y-6959600D01*
X8043670Y-6917270D01*
G01X8077200Y-6931030D02*
X8098880D01*
X8096840Y-6923620D01*
X8093460Y-6919380D01*
X8088710Y-6917270D01*
X8083970Y-6918330D01*
X8079910Y-6921500D01*
X8077200Y-6928910D01*
X8075840Y-6935260D01*
Y-6941610D01*
X8077200Y-6947960D01*
X8080590Y-6954310D01*
X8084650Y-6958540D01*
X8089390Y-6959600D01*
X8094130Y-6957480D01*
X8098880Y-6951140D01*
G01X8181510Y-6959600D02*
Y-6896100D01*
X8199120Y-6949020D01*
X8216730Y-6896100D01*
Y-6959600D01*
G01X8267190D02*
Y-6917270D01*
G01Y-6924670D02*
X8264480Y-6920440D01*
X8260420Y-6918330D01*
X8255680Y-6917270D01*
X8250940Y-6919380D01*
X8246870Y-6923620D01*
X8244160Y-6929970D01*
X8242810Y-6938430D01*
X8244160Y-6946900D01*
X8246870Y-6953250D01*
X8250940Y-6957480D01*
X8255680Y-6959600D01*
X8260420Y-6958540D01*
X8264480Y-6955370D01*
X8267190Y-6951140D01*
G01X8321720Y-6922560D02*
X8316980Y-6918330D01*
X8312910Y-6917270D01*
X8307490Y-6919380D01*
X8303430Y-6923620D01*
X8300720Y-6931030D01*
X8300040Y-6938430D01*
X8300720Y-6945840D01*
X8303430Y-6952190D01*
X8307490Y-6957480D01*
X8312910Y-6959600D01*
X8317650Y-6957480D01*
X8321720Y-6953250D01*
G01X8355240Y-6959600D02*
Y-6896100D01*
G01Y-6926790D02*
X8358630Y-6921500D01*
X8362020Y-6918330D01*
X8367440Y-6917270D01*
X8371500Y-6918330D01*
X8376240Y-6922560D01*
X8378280Y-6928910D01*
Y-6959600D01*
G01X8422640Y-6917270D02*
Y-6959600D01*
G01Y-6900330D02*
X8421290Y-6899280D01*
Y-6897160D01*
X8422640Y-6896100D01*
X8423990Y-6897160D01*
Y-6899280D01*
X8422640Y-6900330D01*
G01X8467000Y-6959600D02*
Y-6917270D01*
G01Y-6927850D02*
X8469710Y-6922560D01*
X8473780Y-6918330D01*
X8479200Y-6917270D01*
X8483940Y-6918330D01*
X8488000Y-6922560D01*
X8490040Y-6929970D01*
Y-6959600D01*
G01X8524240Y-6931030D02*
X8545920D01*
X8543880Y-6923620D01*
X8540500Y-6919380D01*
X8535750Y-6917270D01*
X8531010Y-6918330D01*
X8526950Y-6921500D01*
X8524240Y-6928910D01*
X8522880Y-6935260D01*
Y-6941610D01*
X8524240Y-6947960D01*
X8527630Y-6954310D01*
X8531690Y-6958540D01*
X8536430Y-6959600D01*
X8541170Y-6957480D01*
X8545920Y-6951140D01*
G01X8580120Y-6952190D02*
X8583510Y-6956430D01*
X8588250Y-6959600D01*
X8592310D01*
X8596380Y-6957480D01*
X8599090Y-6954310D01*
X8600440Y-6950080D01*
X8599760Y-6943720D01*
X8597050Y-6940550D01*
X8584860Y-6934200D01*
X8582150Y-6926790D01*
X8583510Y-6921500D01*
X8586220Y-6918330D01*
X8590280Y-6917270D01*
X8594340Y-6918330D01*
X8598410Y-6921500D01*
G01X8688490Y-6896100D02*
Y-6959600D01*
X8715590D01*
G01X8770110D02*
Y-6917270D01*
G01Y-6924670D02*
X8767400Y-6920440D01*
X8763340Y-6918330D01*
X8758600Y-6917270D01*
X8753860Y-6919380D01*
X8749790Y-6923620D01*
X8747080Y-6929970D01*
X8745730Y-6938430D01*
X8747080Y-6946900D01*
X8749790Y-6953250D01*
X8753860Y-6957480D01*
X8758600Y-6959600D01*
X8763340Y-6958540D01*
X8767400Y-6955370D01*
X8770110Y-6951140D01*
G01X8801610Y-6959600D02*
Y-6896100D01*
G01Y-6927850D02*
X8804990Y-6921500D01*
X8809060Y-6918330D01*
X8813120Y-6917270D01*
X8819220Y-6919380D01*
X8823280Y-6923620D01*
X8825990Y-6931030D01*
Y-6939490D01*
X8824640Y-6947960D01*
X8821930Y-6954310D01*
X8817190Y-6958540D01*
X8813120Y-6959600D01*
X8809060Y-6958540D01*
X8804990Y-6955370D01*
X8801610Y-6950080D01*
G01X8869680Y-6917270D02*
X8876450Y-6904040D01*
Y-6896100D01*
X8871370D01*
Y-6904040D01*
X8876450D01*
G01X8915400Y-6952190D02*
X8918790Y-6956430D01*
X8923530Y-6959600D01*
X8927590D01*
X8931660Y-6957480D01*
X8934370Y-6954310D01*
X8935720Y-6950080D01*
X8935040Y-6943720D01*
X8932330Y-6940550D01*
X8920140Y-6934200D01*
X8917430Y-6926790D01*
X8918790Y-6921500D01*
X8921500Y-6918330D01*
X8925560Y-6917270D01*
X8929620Y-6918330D01*
X8933690Y-6921500D01*
G01X5672330Y-7082370D02*
Y-7018870D01*
G01Y-7028390D02*
X5675710Y-7023100D01*
X5679100Y-7019930D01*
X5684520Y-7018870D01*
X5689260Y-7019930D01*
X5694000Y-7025220D01*
X5696040Y-7032630D01*
X5696710Y-7040030D01*
X5696040Y-7047440D01*
X5694000Y-7054850D01*
X5689940Y-7059080D01*
X5684520Y-7061200D01*
X5679780Y-7060140D01*
X5675040Y-7056970D01*
X5672330Y-7052740D01*
G01X5730920Y-7061200D02*
Y-7018870D01*
G01Y-7027330D02*
X5734300Y-7023100D01*
X5737690Y-7019930D01*
X5742430Y-7018870D01*
X5745820Y-7019930D01*
X5749880Y-7023100D01*
G01X5796280Y-7061200D02*
X5792220Y-7060140D01*
X5788150Y-7055910D01*
X5785440Y-7048500D01*
X5784090Y-7040030D01*
X5785440Y-7031570D01*
X5788150Y-7024160D01*
X5792220Y-7019930D01*
X5796280Y-7018870D01*
X5800340Y-7019930D01*
X5804410Y-7024160D01*
X5807120Y-7031570D01*
X5807800Y-7040030D01*
X5807120Y-7048500D01*
X5804410Y-7055910D01*
X5800340Y-7060140D01*
X5796280Y-7061200D01*
G01X5864350Y-6997700D02*
Y-7061200D01*
G01Y-7051680D02*
X5861640Y-7056970D01*
X5857580Y-7060140D01*
X5852840Y-7061200D01*
X5847420Y-7059080D01*
X5843350Y-7053790D01*
X5840640Y-7047440D01*
X5839970Y-7040030D01*
X5840640Y-7032630D01*
X5843350Y-7026270D01*
X5847420Y-7020980D01*
X5852840Y-7018870D01*
X5857580Y-7019930D01*
X5860970Y-7022040D01*
X5864350Y-7026270D01*
G01X5896520Y-7018870D02*
Y-7048500D01*
X5899230Y-7055910D01*
X5903300Y-7060140D01*
X5908040Y-7061200D01*
X5912780Y-7060140D01*
X5916850Y-7055910D01*
X5919560Y-7048500D01*
G01Y-7061200D02*
Y-7018870D01*
G01X5974760Y-7024160D02*
X5970020Y-7019930D01*
X5965950Y-7018870D01*
X5960530Y-7020980D01*
X5956470Y-7025220D01*
X5953760Y-7032630D01*
X5953080Y-7040030D01*
X5953760Y-7047440D01*
X5956470Y-7053790D01*
X5960530Y-7059080D01*
X5965950Y-7061200D01*
X5970690Y-7059080D01*
X5974760Y-7054850D01*
G01X6019800Y-6997700D02*
Y-7061200D01*
G01X6010320Y-7018870D02*
X6029280D01*
G01X6143750Y-6997700D02*
Y-7061200D01*
G01Y-7051680D02*
X6141040Y-7056970D01*
X6136980Y-7060140D01*
X6132240Y-7061200D01*
X6126820Y-7059080D01*
X6122750Y-7053790D01*
X6120040Y-7047440D01*
X6119370Y-7040030D01*
X6120040Y-7032630D01*
X6122750Y-7026270D01*
X6126820Y-7020980D01*
X6132240Y-7018870D01*
X6136980Y-7019930D01*
X6140370Y-7022040D01*
X6143750Y-7026270D01*
G01X6177280Y-7032630D02*
X6198960D01*
X6196920Y-7025220D01*
X6193540Y-7020980D01*
X6188790Y-7018870D01*
X6184050Y-7019930D01*
X6179990Y-7023100D01*
X6177280Y-7030510D01*
X6175920Y-7036860D01*
Y-7043210D01*
X6177280Y-7049560D01*
X6180670Y-7055910D01*
X6184730Y-7060140D01*
X6189470Y-7061200D01*
X6194210Y-7059080D01*
X6198960Y-7052740D01*
G01X6233160Y-7053790D02*
X6236550Y-7058030D01*
X6241290Y-7061200D01*
X6245350D01*
X6249420Y-7059080D01*
X6252130Y-7055910D01*
X6253480Y-7051680D01*
X6252800Y-7045320D01*
X6250090Y-7042150D01*
X6237900Y-7035800D01*
X6235190Y-7028390D01*
X6236550Y-7023100D01*
X6239260Y-7019930D01*
X6243320Y-7018870D01*
X6247380Y-7019930D01*
X6251450Y-7023100D01*
G01X6299200Y-7018870D02*
Y-7061200D01*
G01Y-7001930D02*
X6297850Y-7000880D01*
Y-6998760D01*
X6299200Y-6997700D01*
X6300550Y-6998760D01*
Y-7000880D01*
X6299200Y-7001930D01*
G01X6345600Y-7077080D02*
X6350340Y-7081310D01*
X6355760Y-7082370D01*
X6360500Y-7081310D01*
X6364560Y-7076020D01*
X6367270Y-7068610D01*
Y-7018870D01*
G01Y-7027330D02*
X6364560Y-7023100D01*
X6360500Y-7019930D01*
X6355760Y-7018870D01*
X6350340Y-7020980D01*
X6346950Y-7025220D01*
X6344240Y-7032630D01*
X6342890Y-7040030D01*
X6343560Y-7046380D01*
X6346270Y-7053790D01*
X6350340Y-7059080D01*
X6355760Y-7061200D01*
X6359820Y-7060140D01*
X6364560Y-7055910D01*
X6367270Y-7051680D01*
G01X6399440Y-7061200D02*
Y-7018870D01*
G01Y-7029450D02*
X6402150Y-7024160D01*
X6406220Y-7019930D01*
X6411640Y-7018870D01*
X6416380Y-7019930D01*
X6420440Y-7024160D01*
X6422480Y-7031570D01*
Y-7061200D01*
G01X6456680Y-7053790D02*
X6460070Y-7058030D01*
X6464810Y-7061200D01*
X6468870D01*
X6472940Y-7059080D01*
X6475650Y-7055910D01*
X6477000Y-7051680D01*
X6476320Y-7045320D01*
X6473610Y-7042150D01*
X6461420Y-7035800D01*
X6458710Y-7028390D01*
X6460070Y-7023100D01*
X6462780Y-7019930D01*
X6466840Y-7018870D01*
X6470900Y-7019930D01*
X6474970Y-7023100D01*
G01X6590790Y-7061200D02*
Y-7018870D01*
G01Y-7026270D02*
X6588080Y-7022040D01*
X6584020Y-7019930D01*
X6579280Y-7018870D01*
X6574540Y-7020980D01*
X6570470Y-7025220D01*
X6567760Y-7031570D01*
X6566410Y-7040030D01*
X6567760Y-7048500D01*
X6570470Y-7054850D01*
X6574540Y-7059080D01*
X6579280Y-7061200D01*
X6584020Y-7060140D01*
X6588080Y-7056970D01*
X6590790Y-7052740D01*
G01X6625000Y-7061200D02*
Y-7018870D01*
G01Y-7027330D02*
X6628380Y-7023100D01*
X6631770Y-7019930D01*
X6636510Y-7018870D01*
X6639900Y-7019930D01*
X6643960Y-7023100D01*
G01X6680200Y-7032630D02*
X6701880D01*
X6699840Y-7025220D01*
X6696460Y-7020980D01*
X6691710Y-7018870D01*
X6686970Y-7019930D01*
X6682910Y-7023100D01*
X6680200Y-7030510D01*
X6678840Y-7036860D01*
Y-7043210D01*
X6680200Y-7049560D01*
X6683590Y-7055910D01*
X6687650Y-7060140D01*
X6692390Y-7061200D01*
X6697130Y-7059080D01*
X6701880Y-7052740D01*
G01X6812960Y-7024160D02*
X6808220Y-7019930D01*
X6804150Y-7018870D01*
X6798730Y-7020980D01*
X6794670Y-7025220D01*
X6791960Y-7032630D01*
X6791280Y-7040030D01*
X6791960Y-7047440D01*
X6794670Y-7053790D01*
X6798730Y-7059080D01*
X6804150Y-7061200D01*
X6808890Y-7059080D01*
X6812960Y-7054850D01*
G01X6858000Y-7061200D02*
X6853940Y-7060140D01*
X6849870Y-7055910D01*
X6847160Y-7048500D01*
X6845810Y-7040030D01*
X6847160Y-7031570D01*
X6849870Y-7024160D01*
X6853940Y-7019930D01*
X6858000Y-7018870D01*
X6862060Y-7019930D01*
X6866130Y-7024160D01*
X6868840Y-7031570D01*
X6869520Y-7040030D01*
X6868840Y-7048500D01*
X6866130Y-7055910D01*
X6862060Y-7060140D01*
X6858000Y-7061200D01*
G01X6902360D02*
Y-7018870D01*
G01Y-7029450D02*
X6905070Y-7024160D01*
X6909140Y-7019930D01*
X6914560Y-7018870D01*
X6919300Y-7019930D01*
X6923360Y-7024160D01*
X6925400Y-7031570D01*
Y-7061200D01*
G01X6965700D02*
Y-7007220D01*
X6967050Y-7001930D01*
X6969760Y-6998760D01*
X6973820Y-6997700D01*
X6977890Y-6999820D01*
X6979920Y-7005110D01*
G01X6971790Y-7023100D02*
X6958240D01*
G01X7025640Y-7018870D02*
Y-7061200D01*
G01Y-7001930D02*
X7024290Y-7000880D01*
Y-6998760D01*
X7025640Y-6997700D01*
X7026990Y-6998760D01*
Y-7000880D01*
X7025640Y-7001930D01*
G01X7093710Y-6997700D02*
Y-7061200D01*
G01Y-7051680D02*
X7091000Y-7056970D01*
X7086940Y-7060140D01*
X7082200Y-7061200D01*
X7076780Y-7059080D01*
X7072710Y-7053790D01*
X7070000Y-7047440D01*
X7069330Y-7040030D01*
X7070000Y-7032630D01*
X7072710Y-7026270D01*
X7076780Y-7020980D01*
X7082200Y-7018870D01*
X7086940Y-7019930D01*
X7090330Y-7022040D01*
X7093710Y-7026270D01*
G01X7127240Y-7032630D02*
X7148920D01*
X7146880Y-7025220D01*
X7143500Y-7020980D01*
X7138750Y-7018870D01*
X7134010Y-7019930D01*
X7129950Y-7023100D01*
X7127240Y-7030510D01*
X7125880Y-7036860D01*
Y-7043210D01*
X7127240Y-7049560D01*
X7130630Y-7055910D01*
X7134690Y-7060140D01*
X7139430Y-7061200D01*
X7144170Y-7059080D01*
X7148920Y-7052740D01*
G01X7181760Y-7061200D02*
Y-7018870D01*
G01Y-7029450D02*
X7184470Y-7024160D01*
X7188540Y-7019930D01*
X7193960Y-7018870D01*
X7198700Y-7019930D01*
X7202760Y-7024160D01*
X7204800Y-7031570D01*
Y-7061200D01*
G01X7249160Y-6997700D02*
Y-7061200D01*
G01X7239680Y-7018870D02*
X7258640D01*
G01X7305040D02*
Y-7061200D01*
G01Y-7001930D02*
X7303690Y-7000880D01*
Y-6998760D01*
X7305040Y-6997700D01*
X7306390Y-6998760D01*
Y-7000880D01*
X7305040Y-7001930D01*
G01X7373110Y-7061200D02*
Y-7018870D01*
G01Y-7026270D02*
X7370400Y-7022040D01*
X7366340Y-7019930D01*
X7361600Y-7018870D01*
X7356860Y-7020980D01*
X7352790Y-7025220D01*
X7350080Y-7031570D01*
X7348730Y-7040030D01*
X7350080Y-7048500D01*
X7352790Y-7054850D01*
X7356860Y-7059080D01*
X7361600Y-7061200D01*
X7366340Y-7060140D01*
X7370400Y-7056970D01*
X7373110Y-7052740D01*
G01X7416800Y-7061200D02*
Y-6997700D01*
G01X7540750Y-7061200D02*
Y-7018870D01*
G01Y-7026270D02*
X7538040Y-7022040D01*
X7533980Y-7019930D01*
X7529240Y-7018870D01*
X7524500Y-7020980D01*
X7520430Y-7025220D01*
X7517720Y-7031570D01*
X7516370Y-7040030D01*
X7517720Y-7048500D01*
X7520430Y-7054850D01*
X7524500Y-7059080D01*
X7529240Y-7061200D01*
X7533980Y-7060140D01*
X7538040Y-7056970D01*
X7540750Y-7052740D01*
G01X7572920Y-7061200D02*
Y-7018870D01*
G01Y-7029450D02*
X7575630Y-7024160D01*
X7579700Y-7019930D01*
X7585120Y-7018870D01*
X7589860Y-7019930D01*
X7593920Y-7024160D01*
X7595960Y-7031570D01*
Y-7061200D01*
G01X7652510Y-6997700D02*
Y-7061200D01*
G01Y-7051680D02*
X7649800Y-7056970D01*
X7645740Y-7060140D01*
X7641000Y-7061200D01*
X7635580Y-7059080D01*
X7631510Y-7053790D01*
X7628800Y-7047440D01*
X7628130Y-7040030D01*
X7628800Y-7032630D01*
X7631510Y-7026270D01*
X7635580Y-7020980D01*
X7641000Y-7018870D01*
X7645740Y-7019930D01*
X7649130Y-7022040D01*
X7652510Y-7026270D01*
G01X7762920Y-7024160D02*
X7758180Y-7019930D01*
X7754110Y-7018870D01*
X7748690Y-7020980D01*
X7744630Y-7025220D01*
X7741920Y-7032630D01*
X7741240Y-7040030D01*
X7741920Y-7047440D01*
X7744630Y-7053790D01*
X7748690Y-7059080D01*
X7754110Y-7061200D01*
X7758850Y-7059080D01*
X7762920Y-7054850D01*
G01X7807960Y-7061200D02*
X7803900Y-7060140D01*
X7799830Y-7055910D01*
X7797120Y-7048500D01*
X7795770Y-7040030D01*
X7797120Y-7031570D01*
X7799830Y-7024160D01*
X7803900Y-7019930D01*
X7807960Y-7018870D01*
X7812020Y-7019930D01*
X7816090Y-7024160D01*
X7818800Y-7031570D01*
X7819480Y-7040030D01*
X7818800Y-7048500D01*
X7816090Y-7055910D01*
X7812020Y-7060140D01*
X7807960Y-7061200D01*
G01X7852320D02*
Y-7018870D01*
G01Y-7029450D02*
X7855030Y-7024160D01*
X7859100Y-7019930D01*
X7864520Y-7018870D01*
X7869260Y-7019930D01*
X7873320Y-7024160D01*
X7875360Y-7031570D01*
Y-7061200D01*
G01X7909560Y-7053790D02*
X7912950Y-7058030D01*
X7917690Y-7061200D01*
X7921750D01*
X7925820Y-7059080D01*
X7928530Y-7055910D01*
X7929880Y-7051680D01*
X7929200Y-7045320D01*
X7926490Y-7042150D01*
X7914300Y-7035800D01*
X7911590Y-7028390D01*
X7912950Y-7023100D01*
X7915660Y-7019930D01*
X7919720Y-7018870D01*
X7923780Y-7019930D01*
X7927850Y-7023100D01*
G01X7975600Y-7018870D02*
Y-7061200D01*
G01Y-7001930D02*
X7974250Y-7000880D01*
Y-6998760D01*
X7975600Y-6997700D01*
X7976950Y-6998760D01*
Y-7000880D01*
X7975600Y-7001930D01*
G01X8043670Y-6997700D02*
Y-7061200D01*
G01Y-7051680D02*
X8040960Y-7056970D01*
X8036900Y-7060140D01*
X8032160Y-7061200D01*
X8026740Y-7059080D01*
X8022670Y-7053790D01*
X8019960Y-7047440D01*
X8019290Y-7040030D01*
X8019960Y-7032630D01*
X8022670Y-7026270D01*
X8026740Y-7020980D01*
X8032160Y-7018870D01*
X8036900Y-7019930D01*
X8040290Y-7022040D01*
X8043670Y-7026270D01*
G01X8077200Y-7032630D02*
X8098880D01*
X8096840Y-7025220D01*
X8093460Y-7020980D01*
X8088710Y-7018870D01*
X8083970Y-7019930D01*
X8079910Y-7023100D01*
X8077200Y-7030510D01*
X8075840Y-7036860D01*
Y-7043210D01*
X8077200Y-7049560D01*
X8080590Y-7055910D01*
X8084650Y-7060140D01*
X8089390Y-7061200D01*
X8094130Y-7059080D01*
X8098880Y-7052740D01*
G01X8133760Y-7061200D02*
Y-7018870D01*
G01Y-7027330D02*
X8137140Y-7023100D01*
X8140530Y-7019930D01*
X8145270Y-7018870D01*
X8148660Y-7019930D01*
X8152720Y-7023100D01*
G01X8188960Y-7032630D02*
X8210640D01*
X8208600Y-7025220D01*
X8205220Y-7020980D01*
X8200470Y-7018870D01*
X8195730Y-7019930D01*
X8191670Y-7023100D01*
X8188960Y-7030510D01*
X8187600Y-7036860D01*
Y-7043210D01*
X8188960Y-7049560D01*
X8192350Y-7055910D01*
X8196410Y-7060140D01*
X8201150Y-7061200D01*
X8205890Y-7059080D01*
X8210640Y-7052740D01*
G01X8267190Y-6997700D02*
Y-7061200D01*
G01Y-7051680D02*
X8264480Y-7056970D01*
X8260420Y-7060140D01*
X8255680Y-7061200D01*
X8250260Y-7059080D01*
X8246190Y-7053790D01*
X8243480Y-7047440D01*
X8242810Y-7040030D01*
X8243480Y-7032630D01*
X8246190Y-7026270D01*
X8250260Y-7020980D01*
X8255680Y-7018870D01*
X8260420Y-7019930D01*
X8263810Y-7022040D01*
X8267190Y-7026270D01*
G01X8366760Y-7018870D02*
Y-7061200D01*
G01Y-7001930D02*
X8365410Y-7000880D01*
Y-6998760D01*
X8366760Y-6997700D01*
X8368110Y-6998760D01*
Y-7000880D01*
X8366760Y-7001930D01*
G01X8411120Y-7061200D02*
Y-7018870D01*
G01Y-7029450D02*
X8413830Y-7024160D01*
X8417900Y-7019930D01*
X8423320Y-7018870D01*
X8428060Y-7019930D01*
X8432120Y-7024160D01*
X8434160Y-7031570D01*
Y-7061200D01*
G01X8478520Y-6997700D02*
Y-7061200D01*
G01X8469040Y-7018870D02*
X8488000D01*
G01X8524240Y-7032630D02*
X8545920D01*
X8543880Y-7025220D01*
X8540500Y-7020980D01*
X8535750Y-7018870D01*
X8531010Y-7019930D01*
X8526950Y-7023100D01*
X8524240Y-7030510D01*
X8522880Y-7036860D01*
Y-7043210D01*
X8524240Y-7049560D01*
X8527630Y-7055910D01*
X8531690Y-7060140D01*
X8536430Y-7061200D01*
X8541170Y-7059080D01*
X8545920Y-7052740D01*
G01X8590280Y-7061200D02*
Y-6997700D01*
G01X8646160Y-7061200D02*
Y-6997700D01*
G01X8691880Y-7032630D02*
X8713560D01*
X8711520Y-7025220D01*
X8708140Y-7020980D01*
X8703390Y-7018870D01*
X8698650Y-7019930D01*
X8694590Y-7023100D01*
X8691880Y-7030510D01*
X8690520Y-7036860D01*
Y-7043210D01*
X8691880Y-7049560D01*
X8695270Y-7055910D01*
X8699330Y-7060140D01*
X8704070Y-7061200D01*
X8708810Y-7059080D01*
X8713560Y-7052740D01*
G01X8768760Y-7024160D02*
X8764020Y-7019930D01*
X8759950Y-7018870D01*
X8754530Y-7020980D01*
X8750470Y-7025220D01*
X8747760Y-7032630D01*
X8747080Y-7040030D01*
X8747760Y-7047440D01*
X8750470Y-7053790D01*
X8754530Y-7059080D01*
X8759950Y-7061200D01*
X8764690Y-7059080D01*
X8768760Y-7054850D01*
G01X8813800Y-6997700D02*
Y-7061200D01*
G01X8804320Y-7018870D02*
X8823280D01*
G01X8858160D02*
Y-7048500D01*
X8860870Y-7055910D01*
X8864940Y-7060140D01*
X8869680Y-7061200D01*
X8874420Y-7060140D01*
X8878490Y-7055910D01*
X8881200Y-7048500D01*
G01Y-7061200D02*
Y-7018870D01*
G01X8937750Y-7061200D02*
Y-7018870D01*
G01Y-7026270D02*
X8935040Y-7022040D01*
X8930980Y-7019930D01*
X8926240Y-7018870D01*
X8921500Y-7020980D01*
X8917430Y-7025220D01*
X8914720Y-7031570D01*
X8913370Y-7040030D01*
X8914720Y-7048500D01*
X8917430Y-7054850D01*
X8921500Y-7059080D01*
X8926240Y-7061200D01*
X8930980Y-7060140D01*
X8935040Y-7056970D01*
X8937750Y-7052740D01*
G01X8981440Y-7061200D02*
Y-6997700D01*
G01X5672330Y-7183970D02*
Y-7120470D01*
G01Y-7129990D02*
X5675710Y-7124700D01*
X5679100Y-7121530D01*
X5684520Y-7120470D01*
X5689260Y-7121530D01*
X5694000Y-7126820D01*
X5696040Y-7134230D01*
X5696710Y-7141630D01*
X5696040Y-7149040D01*
X5694000Y-7156450D01*
X5689940Y-7160680D01*
X5684520Y-7162800D01*
X5679780Y-7161740D01*
X5675040Y-7158570D01*
X5672330Y-7154340D01*
G01X5730920Y-7162800D02*
Y-7120470D01*
G01Y-7128930D02*
X5734300Y-7124700D01*
X5737690Y-7121530D01*
X5742430Y-7120470D01*
X5745820Y-7121530D01*
X5749880Y-7124700D01*
G01X5796280Y-7162800D02*
X5792220Y-7161740D01*
X5788150Y-7157510D01*
X5785440Y-7150100D01*
X5784090Y-7141630D01*
X5785440Y-7133170D01*
X5788150Y-7125760D01*
X5792220Y-7121530D01*
X5796280Y-7120470D01*
X5800340Y-7121530D01*
X5804410Y-7125760D01*
X5807120Y-7133170D01*
X5807800Y-7141630D01*
X5807120Y-7150100D01*
X5804410Y-7157510D01*
X5800340Y-7161740D01*
X5796280Y-7162800D01*
G01X5839970Y-7183970D02*
Y-7120470D01*
G01Y-7129990D02*
X5843350Y-7124700D01*
X5846740Y-7121530D01*
X5852160Y-7120470D01*
X5856900Y-7121530D01*
X5861640Y-7126820D01*
X5863680Y-7134230D01*
X5864350Y-7141630D01*
X5863680Y-7149040D01*
X5861640Y-7156450D01*
X5857580Y-7160680D01*
X5852160Y-7162800D01*
X5847420Y-7161740D01*
X5842680Y-7158570D01*
X5839970Y-7154340D01*
G01X5897880Y-7134230D02*
X5919560D01*
X5917520Y-7126820D01*
X5914140Y-7122580D01*
X5909390Y-7120470D01*
X5904650Y-7121530D01*
X5900590Y-7124700D01*
X5897880Y-7132110D01*
X5896520Y-7138460D01*
Y-7144810D01*
X5897880Y-7151160D01*
X5901270Y-7157510D01*
X5905330Y-7161740D01*
X5910070Y-7162800D01*
X5914810Y-7160680D01*
X5919560Y-7154340D01*
G01X5954440Y-7162800D02*
Y-7120470D01*
G01Y-7128930D02*
X5957820Y-7124700D01*
X5961210Y-7121530D01*
X5965950Y-7120470D01*
X5969340Y-7121530D01*
X5973400Y-7124700D01*
G01X6019800Y-7099300D02*
Y-7162800D01*
G01X6010320Y-7120470D02*
X6029280D01*
G01X6061460Y-7181850D02*
X6065520Y-7183970D01*
X6070940Y-7181850D01*
X6074330Y-7177620D01*
X6077030Y-7172320D01*
X6081100Y-7155390D01*
X6089900Y-7120470D01*
G01X6068230D02*
X6081100Y-7155390D01*
G01X6131560Y-7164920D02*
X6130210Y-7163860D01*
Y-7161740D01*
X6131560Y-7160680D01*
X6132910Y-7161740D01*
Y-7163860D01*
X6131560Y-7164920D01*
G01X6243320Y-7099300D02*
Y-7162800D01*
G01X6227740Y-7099300D02*
X6258900D01*
G01X6287680Y-7162800D02*
Y-7099300D01*
G01Y-7129990D02*
X6291070Y-7124700D01*
X6294460Y-7121530D01*
X6299880Y-7120470D01*
X6303940Y-7121530D01*
X6308680Y-7125760D01*
X6310720Y-7132110D01*
Y-7162800D01*
G01X6344920Y-7134230D02*
X6366600D01*
X6364560Y-7126820D01*
X6361180Y-7122580D01*
X6356430Y-7120470D01*
X6351690Y-7121530D01*
X6347630Y-7124700D01*
X6344920Y-7132110D01*
X6343560Y-7138460D01*
Y-7144810D01*
X6344920Y-7151160D01*
X6348310Y-7157510D01*
X6352370Y-7161740D01*
X6357110Y-7162800D01*
X6361850Y-7160680D01*
X6366600Y-7154340D01*
G01X6396740Y-7181850D02*
X6400800Y-7183970D01*
X6406220Y-7181850D01*
X6409610Y-7177620D01*
X6412310Y-7172320D01*
X6416380Y-7155390D01*
X6425180Y-7120470D01*
G01X6403510D02*
X6416380Y-7155390D01*
G01X6502400Y-7162800D02*
Y-7120470D01*
G01Y-7132110D02*
X6504430Y-7126820D01*
X6507820Y-7122580D01*
X6512560Y-7120470D01*
X6517300Y-7122580D01*
X6520690Y-7126820D01*
X6522720Y-7132110D01*
Y-7162800D01*
G01Y-7132110D02*
X6524750Y-7126820D01*
X6528140Y-7122580D01*
X6532880Y-7120470D01*
X6537620Y-7122580D01*
X6541010Y-7126820D01*
X6543040Y-7133170D01*
Y-7162800D01*
G01X6590790D02*
Y-7120470D01*
G01Y-7127870D02*
X6588080Y-7123640D01*
X6584020Y-7121530D01*
X6579280Y-7120470D01*
X6574540Y-7122580D01*
X6570470Y-7126820D01*
X6567760Y-7133170D01*
X6566410Y-7141630D01*
X6567760Y-7150100D01*
X6570470Y-7156450D01*
X6574540Y-7160680D01*
X6579280Y-7162800D01*
X6584020Y-7161740D01*
X6588080Y-7158570D01*
X6590790Y-7154340D01*
G01X6620260Y-7181850D02*
X6624320Y-7183970D01*
X6629740Y-7181850D01*
X6633130Y-7177620D01*
X6635830Y-7172320D01*
X6639900Y-7155390D01*
X6648700Y-7120470D01*
G01X6627030D02*
X6639900Y-7155390D01*
G01X6734720Y-7162800D02*
Y-7120470D01*
G01Y-7131050D02*
X6737430Y-7125760D01*
X6741500Y-7121530D01*
X6746920Y-7120470D01*
X6751660Y-7121530D01*
X6755720Y-7125760D01*
X6757760Y-7133170D01*
Y-7162800D01*
G01X6802120D02*
X6798060Y-7161740D01*
X6793990Y-7157510D01*
X6791280Y-7150100D01*
X6789930Y-7141630D01*
X6791280Y-7133170D01*
X6793990Y-7125760D01*
X6798060Y-7121530D01*
X6802120Y-7120470D01*
X6806180Y-7121530D01*
X6810250Y-7125760D01*
X6812960Y-7133170D01*
X6813640Y-7141630D01*
X6812960Y-7150100D01*
X6810250Y-7157510D01*
X6806180Y-7161740D01*
X6802120Y-7162800D01*
G01X6858000Y-7099300D02*
Y-7162800D01*
G01X6848520Y-7120470D02*
X6867480D01*
G01X6957570Y-7162800D02*
Y-7099300D01*
G01Y-7131050D02*
X6960950Y-7124700D01*
X6965020Y-7121530D01*
X6969080Y-7120470D01*
X6975180Y-7122580D01*
X6979240Y-7126820D01*
X6981950Y-7134230D01*
Y-7142690D01*
X6980600Y-7151160D01*
X6977890Y-7157510D01*
X6973150Y-7161740D01*
X6969080Y-7162800D01*
X6965020Y-7161740D01*
X6960950Y-7158570D01*
X6957570Y-7153280D01*
G01X7015480Y-7134230D02*
X7037160D01*
X7035120Y-7126820D01*
X7031740Y-7122580D01*
X7026990Y-7120470D01*
X7022250Y-7121530D01*
X7018190Y-7124700D01*
X7015480Y-7132110D01*
X7014120Y-7138460D01*
Y-7144810D01*
X7015480Y-7151160D01*
X7018870Y-7157510D01*
X7022930Y-7161740D01*
X7027670Y-7162800D01*
X7032410Y-7160680D01*
X7037160Y-7154340D01*
G01X7127240Y-7155390D02*
X7130630Y-7159630D01*
X7135370Y-7162800D01*
X7139430D01*
X7143500Y-7160680D01*
X7146210Y-7157510D01*
X7147560Y-7153280D01*
X7146880Y-7146920D01*
X7144170Y-7143750D01*
X7131980Y-7137400D01*
X7129270Y-7129990D01*
X7130630Y-7124700D01*
X7133340Y-7121530D01*
X7137400Y-7120470D01*
X7141460Y-7121530D01*
X7145530Y-7124700D01*
G01X7181760Y-7162800D02*
Y-7099300D01*
G01Y-7129990D02*
X7185150Y-7124700D01*
X7188540Y-7121530D01*
X7193960Y-7120470D01*
X7198020Y-7121530D01*
X7202760Y-7125760D01*
X7204800Y-7132110D01*
Y-7162800D01*
G01X7261350D02*
Y-7120470D01*
G01Y-7127870D02*
X7258640Y-7123640D01*
X7254580Y-7121530D01*
X7249840Y-7120470D01*
X7245100Y-7122580D01*
X7241030Y-7126820D01*
X7238320Y-7133170D01*
X7236970Y-7141630D01*
X7238320Y-7150100D01*
X7241030Y-7156450D01*
X7245100Y-7160680D01*
X7249840Y-7162800D01*
X7254580Y-7161740D01*
X7258640Y-7158570D01*
X7261350Y-7154340D01*
G01X7295560Y-7162800D02*
Y-7120470D01*
G01Y-7128930D02*
X7298940Y-7124700D01*
X7302330Y-7121530D01*
X7307070Y-7120470D01*
X7310460Y-7121530D01*
X7314520Y-7124700D01*
G01X7350760Y-7134230D02*
X7372440D01*
X7370400Y-7126820D01*
X7367020Y-7122580D01*
X7362270Y-7120470D01*
X7357530Y-7121530D01*
X7353470Y-7124700D01*
X7350760Y-7132110D01*
X7349400Y-7138460D01*
Y-7144810D01*
X7350760Y-7151160D01*
X7354150Y-7157510D01*
X7358210Y-7161740D01*
X7362950Y-7162800D01*
X7367690Y-7160680D01*
X7372440Y-7154340D01*
G01X7428990Y-7099300D02*
Y-7162800D01*
G01Y-7153280D02*
X7426280Y-7158570D01*
X7422220Y-7161740D01*
X7417480Y-7162800D01*
X7412060Y-7160680D01*
X7407990Y-7155390D01*
X7405280Y-7149040D01*
X7404610Y-7141630D01*
X7405280Y-7134230D01*
X7407990Y-7127870D01*
X7412060Y-7122580D01*
X7417480Y-7120470D01*
X7422220Y-7121530D01*
X7425610Y-7123640D01*
X7428990Y-7127870D01*
G01X7511630Y-7120470D02*
X7519750Y-7162800D01*
X7528560Y-7120470D01*
X7537370Y-7162800D01*
X7545490Y-7120470D01*
G01X7584440D02*
Y-7162800D01*
G01Y-7103530D02*
X7583090Y-7102480D01*
Y-7100360D01*
X7584440Y-7099300D01*
X7585790Y-7100360D01*
Y-7102480D01*
X7584440Y-7103530D01*
G01X7640320Y-7099300D02*
Y-7162800D01*
G01X7630840Y-7120470D02*
X7649800D01*
G01X7684680Y-7162800D02*
Y-7099300D01*
G01Y-7129990D02*
X7688070Y-7124700D01*
X7691460Y-7121530D01*
X7696880Y-7120470D01*
X7700940Y-7121530D01*
X7705680Y-7125760D01*
X7707720Y-7132110D01*
Y-7162800D01*
G01X7752080D02*
X7748020Y-7161740D01*
X7743950Y-7157510D01*
X7741240Y-7150100D01*
X7739890Y-7141630D01*
X7741240Y-7133170D01*
X7743950Y-7125760D01*
X7748020Y-7121530D01*
X7752080Y-7120470D01*
X7756140Y-7121530D01*
X7760210Y-7125760D01*
X7762920Y-7133170D01*
X7763600Y-7141630D01*
X7762920Y-7150100D01*
X7760210Y-7157510D01*
X7756140Y-7161740D01*
X7752080Y-7162800D01*
G01X7796440Y-7120470D02*
Y-7150100D01*
X7799150Y-7157510D01*
X7803220Y-7161740D01*
X7807960Y-7162800D01*
X7812700Y-7161740D01*
X7816770Y-7157510D01*
X7819480Y-7150100D01*
G01Y-7162800D02*
Y-7120470D01*
G01X7863840Y-7099300D02*
Y-7162800D01*
G01X7854360Y-7120470D02*
X7873320D01*
G01X7975600Y-7162800D02*
X7971540Y-7161740D01*
X7967470Y-7157510D01*
X7964760Y-7150100D01*
X7963410Y-7141630D01*
X7964760Y-7133170D01*
X7967470Y-7125760D01*
X7971540Y-7121530D01*
X7975600Y-7120470D01*
X7979660Y-7121530D01*
X7983730Y-7125760D01*
X7986440Y-7133170D01*
X7987120Y-7141630D01*
X7986440Y-7150100D01*
X7983730Y-7157510D01*
X7979660Y-7161740D01*
X7975600Y-7162800D01*
G01X8019960Y-7120470D02*
Y-7150100D01*
X8022670Y-7157510D01*
X8026740Y-7161740D01*
X8031480Y-7162800D01*
X8036220Y-7161740D01*
X8040290Y-7157510D01*
X8043000Y-7150100D01*
G01Y-7162800D02*
Y-7120470D01*
G01X8077880Y-7162800D02*
Y-7120470D01*
G01Y-7128930D02*
X8081260Y-7124700D01*
X8084650Y-7121530D01*
X8089390Y-7120470D01*
X8092780Y-7121530D01*
X8096840Y-7124700D01*
G01X8186930Y-7183970D02*
Y-7120470D01*
G01Y-7129990D02*
X8190310Y-7124700D01*
X8193700Y-7121530D01*
X8199120Y-7120470D01*
X8203860Y-7121530D01*
X8208600Y-7126820D01*
X8210640Y-7134230D01*
X8211310Y-7141630D01*
X8210640Y-7149040D01*
X8208600Y-7156450D01*
X8204540Y-7160680D01*
X8199120Y-7162800D01*
X8194380Y-7161740D01*
X8189640Y-7158570D01*
X8186930Y-7154340D01*
G01X8244840Y-7134230D02*
X8266520D01*
X8264480Y-7126820D01*
X8261100Y-7122580D01*
X8256350Y-7120470D01*
X8251610Y-7121530D01*
X8247550Y-7124700D01*
X8244840Y-7132110D01*
X8243480Y-7138460D01*
Y-7144810D01*
X8244840Y-7151160D01*
X8248230Y-7157510D01*
X8252290Y-7161740D01*
X8257030Y-7162800D01*
X8261770Y-7160680D01*
X8266520Y-7154340D01*
G01X8301400Y-7162800D02*
Y-7120470D01*
G01Y-7128930D02*
X8304780Y-7124700D01*
X8308170Y-7121530D01*
X8312910Y-7120470D01*
X8316300Y-7121530D01*
X8320360Y-7124700D01*
G01X8346440Y-7162800D02*
Y-7120470D01*
G01Y-7132110D02*
X8348470Y-7126820D01*
X8351860Y-7122580D01*
X8356600Y-7120470D01*
X8361340Y-7122580D01*
X8364730Y-7126820D01*
X8366760Y-7132110D01*
Y-7162800D01*
G01Y-7132110D02*
X8368790Y-7126820D01*
X8372180Y-7122580D01*
X8376920Y-7120470D01*
X8381660Y-7122580D01*
X8385050Y-7126820D01*
X8387080Y-7133170D01*
Y-7162800D01*
G01X8422640Y-7120470D02*
Y-7162800D01*
G01Y-7103530D02*
X8421290Y-7102480D01*
Y-7100360D01*
X8422640Y-7099300D01*
X8423990Y-7100360D01*
Y-7102480D01*
X8422640Y-7103530D01*
G01X8468360Y-7155390D02*
X8471750Y-7159630D01*
X8476490Y-7162800D01*
X8480550D01*
X8484620Y-7160680D01*
X8487330Y-7157510D01*
X8488680Y-7153280D01*
X8488000Y-7146920D01*
X8485290Y-7143750D01*
X8473100Y-7137400D01*
X8470390Y-7129990D01*
X8471750Y-7124700D01*
X8474460Y-7121530D01*
X8478520Y-7120470D01*
X8482580Y-7121530D01*
X8486650Y-7124700D01*
G01X8524240Y-7155390D02*
X8527630Y-7159630D01*
X8532370Y-7162800D01*
X8536430D01*
X8540500Y-7160680D01*
X8543210Y-7157510D01*
X8544560Y-7153280D01*
X8543880Y-7146920D01*
X8541170Y-7143750D01*
X8528980Y-7137400D01*
X8526270Y-7129990D01*
X8527630Y-7124700D01*
X8530340Y-7121530D01*
X8534400Y-7120470D01*
X8538460Y-7121530D01*
X8542530Y-7124700D01*
G01X8590280Y-7120470D02*
Y-7162800D01*
G01Y-7103530D02*
X8588930Y-7102480D01*
Y-7100360D01*
X8590280Y-7099300D01*
X8591630Y-7100360D01*
Y-7102480D01*
X8590280Y-7103530D01*
G01X8646160Y-7162800D02*
X8642100Y-7161740D01*
X8638030Y-7157510D01*
X8635320Y-7150100D01*
X8633970Y-7141630D01*
X8635320Y-7133170D01*
X8638030Y-7125760D01*
X8642100Y-7121530D01*
X8646160Y-7120470D01*
X8650220Y-7121530D01*
X8654290Y-7125760D01*
X8657000Y-7133170D01*
X8657680Y-7141630D01*
X8657000Y-7150100D01*
X8654290Y-7157510D01*
X8650220Y-7161740D01*
X8646160Y-7162800D01*
G01X8690520D02*
Y-7120470D01*
G01Y-7131050D02*
X8693230Y-7125760D01*
X8697300Y-7121530D01*
X8702720Y-7120470D01*
X8707460Y-7121530D01*
X8711520Y-7125760D01*
X8713560Y-7133170D01*
Y-7162800D01*
G01X8757920Y-7164920D02*
X8756570Y-7163860D01*
Y-7161740D01*
X8757920Y-7160680D01*
X8759270Y-7161740D01*
Y-7163860D01*
X8757920Y-7164920D01*
G01X9462800Y-7241850D02*
Y-5750850D01*
X5562600D01*
Y-7241850D01*
X9462800D01*
G01X8204200Y-6639850D02*
Y-6233450D01*
X5562600D01*
Y-6639850D01*
X8204200D01*
G01X5687060Y-6375400D02*
Y-6502400D01*
G01X5650060Y-6375400D02*
X5724060D01*
G01X5797300D02*
X5835900D01*
G01X5816600D02*
Y-6502400D01*
G01X5797300D02*
X5835900D01*
G01X5946140Y-6375400D02*
Y-6502400D01*
G01X5909140Y-6375400D02*
X5983140D01*
G01X6043510D02*
Y-6502400D01*
X6107850D01*
G01X6237390D02*
X6173050D01*
Y-6375400D01*
X6237390D01*
G01X6211650Y-6436780D02*
X6173050D01*
G01X6334760Y-6506630D02*
X6331540Y-6504520D01*
Y-6500280D01*
X6334760Y-6498170D01*
X6337980Y-6500280D01*
Y-6504520D01*
X6334760Y-6506630D01*
G01Y-6449490D02*
X6331540Y-6447370D01*
Y-6443130D01*
X6334760Y-6441020D01*
X6337980Y-6443130D01*
Y-6447370D01*
X6334760Y-6449490D01*
G01X5722450Y-5928780D02*
X5712800Y-5922430D01*
X5701540Y-5918200D01*
X5688670D01*
X5674190Y-5924550D01*
X5662930Y-5935130D01*
X5654890Y-5947830D01*
X5648450Y-5969000D01*
X5646840Y-5988050D01*
X5650060Y-6007100D01*
X5654890Y-6019800D01*
X5664540Y-6032500D01*
X5675800Y-6040970D01*
X5687060Y-6045200D01*
X5698320D01*
X5709580Y-6040970D01*
X5719230Y-6034620D01*
X5727280Y-6026150D01*
G01X5816600Y-6045200D02*
X5803730Y-6043080D01*
X5792470Y-6034620D01*
X5782820Y-6021920D01*
X5776380Y-6007100D01*
X5773160Y-5990170D01*
Y-5973230D01*
X5776380Y-5956300D01*
X5782820Y-5941480D01*
X5792470Y-5928780D01*
X5803730Y-5920320D01*
X5816600Y-5918200D01*
X5829470Y-5920320D01*
X5840730Y-5928780D01*
X5850380Y-5941480D01*
X5856820Y-5956300D01*
X5860040Y-5973230D01*
Y-5990170D01*
X5856820Y-6007100D01*
X5850380Y-6021920D01*
X5840730Y-6034620D01*
X5829470Y-6043080D01*
X5816600Y-6045200D01*
G01X5904310D02*
Y-5918200D01*
X5946140Y-6024030D01*
X5987970Y-5918200D01*
Y-6045200D01*
G01X6043510D02*
Y-5918200D01*
X6082110D01*
X6094980Y-5924550D01*
X6104640Y-5939370D01*
X6107850Y-5956300D01*
X6104640Y-5973230D01*
X6096590Y-5985930D01*
X6082110Y-5992290D01*
X6043510D01*
G01X6165000Y-6045200D02*
X6205220Y-5918200D01*
X6245440Y-6045200D01*
G01X6230960Y-6000750D02*
X6179480D01*
G01X6297760Y-6045200D02*
Y-5918200D01*
X6371760Y-6045200D01*
Y-5918200D01*
G01X6464300Y-6045200D02*
Y-5988050D01*
X6432130Y-5918200D01*
G01X6496470D02*
X6464300Y-5988050D01*
G01X6593840Y-6049430D02*
X6590620Y-6047320D01*
Y-6043080D01*
X6593840Y-6040970D01*
X6597060Y-6043080D01*
Y-6047320D01*
X6593840Y-6049430D01*
G01Y-5992290D02*
X6590620Y-5990170D01*
Y-5985930D01*
X6593840Y-5983820D01*
X6597060Y-5985930D01*
Y-5990170D01*
X6593840Y-5992290D01*
G01X9462800Y-5750850D02*
Y-6233450D01*
X5562600D01*
Y-5750850D01*
X9462800D01*
G01X5820410Y2328890D02*
X5812620Y2326270D01*
X5806780Y2319700D01*
X5802880Y2311830D01*
X5799960Y2301330D01*
X5798990Y2289520D01*
X5799960Y2277710D01*
X5802880Y2267210D01*
X5806780Y2259330D01*
X5812620Y2252770D01*
X5820410Y2250150D01*
X5828200Y2252770D01*
X5834040Y2259330D01*
X5837940Y2267210D01*
X5840860Y2277710D01*
X5841830Y2289520D01*
X5840860Y2301330D01*
X5837940Y2311830D01*
X5834040Y2319700D01*
X5828200Y2326270D01*
X5820410Y2328890D01*
G01X5910830Y2250150D02*
Y2328890D01*
X5874810Y2272460D01*
X5923490D01*
G01X5960360Y2247530D02*
X5995420Y2328890D01*
G01X6056630D02*
X6048840Y2326270D01*
X6043000Y2319700D01*
X6039100Y2311830D01*
X6036180Y2301330D01*
X6035210Y2289520D01*
X6036180Y2277710D01*
X6039100Y2267210D01*
X6043000Y2259330D01*
X6048840Y2252770D01*
X6056630Y2250150D01*
X6064420Y2252770D01*
X6070260Y2259330D01*
X6074160Y2267210D01*
X6077080Y2277710D01*
X6078050Y2289520D01*
X6077080Y2301330D01*
X6074160Y2311830D01*
X6070260Y2319700D01*
X6064420Y2326270D01*
X6056630Y2328890D01*
G01X6135370Y2250150D02*
Y2328890D01*
X6123690Y2313140D01*
G01Y2250150D02*
X6147050D01*
G01X6196580Y2247530D02*
X6231640Y2328890D01*
G01X6292850Y2250150D02*
Y2328890D01*
X6281170Y2313140D01*
G01Y2250150D02*
X6304530D01*
G01X6371590D02*
X6378410Y2251460D01*
X6386190Y2255400D01*
X6391060Y2261960D01*
X6393010Y2271150D01*
X6391060Y2280330D01*
X6385220Y2288210D01*
X6376460Y2292150D01*
X6366720D01*
X6360880Y2294770D01*
X6356010Y2301330D01*
X6354060Y2310520D01*
X6356990Y2319700D01*
X6363800Y2326270D01*
X6371590Y2328890D01*
X6379380Y2326270D01*
X6386190Y2319700D01*
X6389120Y2310520D01*
X6387170Y2301330D01*
X6382300Y2294770D01*
X6376460Y2292150D01*
X6366720D01*
X6357960Y2288210D01*
X6352120Y2280330D01*
X6350170Y2271150D01*
X6352120Y2261960D01*
X6356990Y2255400D01*
X6364770Y2251460D01*
X6371590Y2250150D01*
G01X9462800Y2758150D02*
Y1818350D01*
X5740400D01*
Y2758150D01*
X9462800D01*
G01D02*
Y2453350D01*
X5740400D01*
Y2758150D01*
X9462800D01*
G01X5740400Y2453350D02*
Y2136600D01*
X9462800D01*
Y2453350D01*
X5740400D01*
G01Y2758150D02*
Y1818350D01*
X6477000D01*
Y2758150D01*
X5740400D01*
G01X6466080Y-6485470D02*
X6478950Y-6496050D01*
X6493430Y-6502400D01*
X6506290D01*
X6519160Y-6496050D01*
X6528820Y-6485470D01*
X6533640Y-6470650D01*
X6530430Y-6455840D01*
X6522380Y-6443130D01*
X6507900Y-6434670D01*
X6488600Y-6430430D01*
X6477340Y-6421970D01*
X6472510Y-6407150D01*
X6475730Y-6392330D01*
X6483770Y-6381750D01*
X6495030Y-6375400D01*
X6506290D01*
X6517560Y-6379630D01*
X6527210Y-6390220D01*
G01X6587570Y-6502400D02*
Y-6375400D01*
X6629400Y-6481230D01*
X6671230Y-6375400D01*
Y-6502400D01*
G01X6718720D02*
X6758940Y-6375400D01*
X6799160Y-6502400D01*
G01X6784680Y-6457950D02*
X6733200D01*
G01X6449400Y-4766740D02*
Y-4703240D01*
X6462950D01*
X6468360Y-4706420D01*
X6472430Y-4710650D01*
X6475820Y-4717000D01*
X6478520Y-4724410D01*
X6479200Y-4734990D01*
X6478520Y-4745570D01*
X6475820Y-4752980D01*
X6472430Y-4759330D01*
X6468360Y-4763570D01*
X6462950Y-4766740D01*
X6449400D01*
G01X6533730D02*
X6506630D01*
Y-4703240D01*
X6533730D01*
G01X6522890Y-4733930D02*
X6506630D01*
G01X6561840Y-4758280D02*
X6567250Y-4763570D01*
X6573350Y-4766740D01*
X6578770D01*
X6584190Y-4763570D01*
X6588250Y-4758280D01*
X6590280Y-4750860D01*
X6588930Y-4743460D01*
X6585540Y-4737110D01*
X6579450Y-4732870D01*
X6571320Y-4730760D01*
X6566580Y-4726520D01*
X6564540Y-4719120D01*
X6565900Y-4711710D01*
X6569290Y-4706420D01*
X6574030Y-4703240D01*
X6578770D01*
X6583510Y-4705360D01*
X6587580Y-4710650D01*
G01X6623810Y-4703240D02*
X6640070D01*
G01X6631940D02*
Y-4766740D01*
G01X6623810D02*
X6640070D01*
G01X6691880Y-4734990D02*
X6705430D01*
Y-4754040D01*
X6701370Y-4760390D01*
X6696630Y-4764620D01*
X6689850Y-4766740D01*
X6683080Y-4764620D01*
X6678340Y-4760390D01*
X6674270Y-4754040D01*
X6671560Y-4746630D01*
X6670210Y-4738170D01*
Y-4730760D01*
X6671560Y-4724410D01*
X6674270Y-4717000D01*
X6678340Y-4710650D01*
X6682400Y-4706420D01*
X6687820Y-4703240D01*
X6692560D01*
X6697980Y-4705360D01*
X6702040Y-4709590D01*
G01X6728120Y-4766740D02*
Y-4703240D01*
X6759280Y-4766740D01*
Y-4703240D01*
G01X6870360Y-4708530D02*
X6866300Y-4705360D01*
X6861560Y-4703240D01*
X6856140D01*
X6850040Y-4706420D01*
X6845300Y-4711710D01*
X6841910Y-4718060D01*
X6839200Y-4728640D01*
X6838530Y-4738170D01*
X6839880Y-4747690D01*
X6841910Y-4754040D01*
X6845980Y-4760390D01*
X6850720Y-4764620D01*
X6855460Y-4766740D01*
X6860200D01*
X6864940Y-4764620D01*
X6869010Y-4761450D01*
X6872390Y-4757220D01*
G01X6897790Y-4766740D02*
Y-4703240D01*
X6914730D01*
X6920150Y-4706420D01*
X6923530Y-4710650D01*
X6924890Y-4719120D01*
X6923530Y-4727580D01*
X6919470Y-4732870D01*
X6914730Y-4736050D01*
X6897790D01*
G01X6914730D02*
X6924890Y-4766740D01*
G01X6967220D02*
X6961800Y-4765680D01*
X6957060Y-4761450D01*
X6953000Y-4755100D01*
X6950290Y-4747690D01*
X6948930Y-4739220D01*
Y-4730760D01*
X6950290Y-4722290D01*
X6953000Y-4714880D01*
X6957060Y-4708530D01*
X6961800Y-4704300D01*
X6967220Y-4703240D01*
X6972640Y-4704300D01*
X6977380Y-4708530D01*
X6981440Y-4714880D01*
X6984150Y-4722290D01*
X6985510Y-4730760D01*
Y-4739220D01*
X6984150Y-4747690D01*
X6981440Y-4755100D01*
X6977380Y-4761450D01*
X6972640Y-4765680D01*
X6967220Y-4766740D01*
G01X7008880Y-4758280D02*
X7014290Y-4763570D01*
X7020390Y-4766740D01*
X7025810D01*
X7031230Y-4763570D01*
X7035290Y-4758280D01*
X7037320Y-4750860D01*
X7035970Y-4743460D01*
X7032580Y-4737110D01*
X7026490Y-4732870D01*
X7018360Y-4730760D01*
X7013620Y-4726520D01*
X7011580Y-4719120D01*
X7012940Y-4711710D01*
X7016330Y-4706420D01*
X7021070Y-4703240D01*
X7025810D01*
X7030550Y-4705360D01*
X7034620Y-4710650D01*
G01X7064760Y-4758280D02*
X7070170Y-4763570D01*
X7076270Y-4766740D01*
X7081690D01*
X7087110Y-4763570D01*
X7091170Y-4758280D01*
X7093200Y-4750860D01*
X7091850Y-4743460D01*
X7088460Y-4737110D01*
X7082370Y-4732870D01*
X7074240Y-4730760D01*
X7069500Y-4726520D01*
X7067460Y-4719120D01*
X7068820Y-4711710D01*
X7072210Y-4706420D01*
X7076950Y-4703240D01*
X7081690D01*
X7086430Y-4705360D01*
X7090500Y-4710650D01*
G01X7176520Y-4758280D02*
X7181930Y-4763570D01*
X7188030Y-4766740D01*
X7193450D01*
X7198870Y-4763570D01*
X7202930Y-4758280D01*
X7204960Y-4750860D01*
X7203610Y-4743460D01*
X7200220Y-4737110D01*
X7194130Y-4732870D01*
X7186000Y-4730760D01*
X7181260Y-4726520D01*
X7179220Y-4719120D01*
X7180580Y-4711710D01*
X7183970Y-4706420D01*
X7188710Y-4703240D01*
X7193450D01*
X7198190Y-4705360D01*
X7202260Y-4710650D01*
G01X7260170Y-4766740D02*
X7233070D01*
Y-4703240D01*
X7260170D01*
G01X7249330Y-4733930D02*
X7233070D01*
G01X7317400Y-4708530D02*
X7313340Y-4705360D01*
X7308600Y-4703240D01*
X7303180D01*
X7297080Y-4706420D01*
X7292340Y-4711710D01*
X7288950Y-4718060D01*
X7286240Y-4728640D01*
X7285570Y-4738170D01*
X7286920Y-4747690D01*
X7288950Y-4754040D01*
X7293020Y-4760390D01*
X7297760Y-4764620D01*
X7302500Y-4766740D01*
X7307240D01*
X7311980Y-4764620D01*
X7316050Y-4761450D01*
X7319430Y-4757220D01*
G01X7358380Y-4703240D02*
Y-4766740D01*
G01X7342800Y-4703240D02*
X7373960D01*
G01X7406130D02*
X7422390D01*
G01X7414260D02*
Y-4766740D01*
G01X7406130D02*
X7422390D01*
G01X7470140D02*
X7464720Y-4765680D01*
X7459980Y-4761450D01*
X7455920Y-4755100D01*
X7453210Y-4747690D01*
X7451850Y-4739220D01*
Y-4730760D01*
X7453210Y-4722290D01*
X7455920Y-4714880D01*
X7459980Y-4708530D01*
X7464720Y-4704300D01*
X7470140Y-4703240D01*
X7475560Y-4704300D01*
X7480300Y-4708530D01*
X7484360Y-4714880D01*
X7487070Y-4722290D01*
X7488430Y-4730760D01*
Y-4739220D01*
X7487070Y-4747690D01*
X7484360Y-4755100D01*
X7480300Y-4761450D01*
X7475560Y-4765680D01*
X7470140Y-4766740D01*
G01X7510440D02*
Y-4703240D01*
X7541600Y-4766740D01*
Y-4703240D01*
G01X7652680Y-4708530D02*
X7648620Y-4705360D01*
X7643880Y-4703240D01*
X7638460D01*
X7632360Y-4706420D01*
X7627620Y-4711710D01*
X7624230Y-4718060D01*
X7621520Y-4728640D01*
X7620850Y-4738170D01*
X7622200Y-4747690D01*
X7624230Y-4754040D01*
X7628300Y-4760390D01*
X7633040Y-4764620D01*
X7637780Y-4766740D01*
X7642520D01*
X7647260Y-4764620D01*
X7651330Y-4761450D01*
X7654710Y-4757220D01*
G01X7679440Y-4766740D02*
Y-4703240D01*
G01X7707880D02*
Y-4766740D01*
G01Y-4734990D02*
X7679440D01*
G01X7732610Y-4766740D02*
X7749540Y-4703240D01*
X7766470Y-4766740D01*
G01X7760380Y-4744520D02*
X7738700D01*
G01X7791870Y-4766740D02*
Y-4703240D01*
X7808810D01*
X7814230Y-4706420D01*
X7817610Y-4710650D01*
X7818970Y-4719120D01*
X7817610Y-4727580D01*
X7813550Y-4732870D01*
X7808810Y-4736050D01*
X7791870D01*
G01X7808810D02*
X7818970Y-4766740D01*
G01X7861300Y-4703240D02*
Y-4766740D01*
G01X7845720Y-4703240D02*
X7876880D01*
G01X6416040Y-4787910D02*
X6456680D01*
G01X6471920D02*
X6512560D01*
G01X6527800D02*
X6568440D01*
G01X6583680D02*
X6624320D01*
G01X6639560D02*
X6680200D01*
G01X6695440D02*
X6736080D01*
G01X6751320D02*
X6791960D01*
G01X6807200D02*
X6847840D01*
G01X6863080D02*
X6903720D01*
G01X6918960D02*
X6959600D01*
G01X6974840D02*
X7015480D01*
G01X7030720D02*
X7071360D01*
G01X7086600D02*
X7127240D01*
G01X7142480D02*
X7183120D01*
G01X7198360D02*
X7239000D01*
G01X7254240D02*
X7294880D01*
G01X7310120D02*
X7350760D01*
G01X7366000D02*
X7406640D01*
G01X7421880D02*
X7462520D01*
G01X7477760D02*
X7518400D01*
G01X7533640D02*
X7574280D01*
G01X7589520D02*
X7630160D01*
G01X7645400D02*
X7686040D01*
G01X7701280D02*
X7741920D01*
G01X7757160D02*
X7797800D01*
G01X7813040D02*
X7853680D01*
G01X7868920D02*
X7909560D01*
G01X6464300Y-4817540D02*
Y-4881040D01*
G01X6448720Y-4817540D02*
X6479880D01*
G01X6520180Y-4881040D02*
X6514760Y-4879980D01*
X6510020Y-4875750D01*
X6505960Y-4869400D01*
X6503250Y-4861990D01*
X6501890Y-4853520D01*
Y-4845060D01*
X6503250Y-4836590D01*
X6505960Y-4829180D01*
X6510020Y-4822830D01*
X6514760Y-4818600D01*
X6520180Y-4817540D01*
X6525600Y-4818600D01*
X6530340Y-4822830D01*
X6534400Y-4829180D01*
X6537110Y-4836590D01*
X6538470Y-4845060D01*
Y-4853520D01*
X6537110Y-4861990D01*
X6534400Y-4869400D01*
X6530340Y-4875750D01*
X6525600Y-4879980D01*
X6520180Y-4881040D01*
G01X6576060Y-4817540D02*
Y-4881040D01*
G01X6560480Y-4817540D02*
X6591640D01*
G01X6615010Y-4881040D02*
X6631940Y-4817540D01*
X6648870Y-4881040D01*
G01X6642780Y-4858820D02*
X6621100D01*
G01X6674270Y-4817540D02*
Y-4881040D01*
X6701370D01*
G01X6799580Y-4817540D02*
Y-4881040D01*
G01X6784000Y-4817540D02*
X6815160D01*
G01X6841240Y-4881040D02*
Y-4817540D01*
G01X6869680D02*
Y-4881040D01*
G01Y-4849290D02*
X6841240D01*
G01X6903210Y-4817540D02*
X6919470D01*
G01X6911340D02*
Y-4881040D01*
G01X6903210D02*
X6919470D01*
G01X6982120Y-4822830D02*
X6978060Y-4819660D01*
X6973320Y-4817540D01*
X6967900D01*
X6961800Y-4820720D01*
X6957060Y-4826010D01*
X6953670Y-4832360D01*
X6950960Y-4842940D01*
X6950290Y-4852470D01*
X6951640Y-4861990D01*
X6953670Y-4868340D01*
X6957740Y-4874690D01*
X6962480Y-4878920D01*
X6967220Y-4881040D01*
X6971960D01*
X6976700Y-4878920D01*
X6980770Y-4875750D01*
X6984150Y-4871520D01*
G01X7008200Y-4881040D02*
Y-4817540D01*
G01X7033940D02*
X7008200Y-4856700D01*
G01X7038000Y-4881040D02*
X7019710Y-4838710D01*
G01X7063400Y-4881040D02*
Y-4817540D01*
X7094560Y-4881040D01*
Y-4817540D01*
G01X7148410Y-4881040D02*
X7121310D01*
Y-4817540D01*
X7148410D01*
G01X7137570Y-4848230D02*
X7121310D01*
G01X7176520Y-4872580D02*
X7181930Y-4877870D01*
X7188030Y-4881040D01*
X7193450D01*
X7198870Y-4877870D01*
X7202930Y-4872580D01*
X7204960Y-4865160D01*
X7203610Y-4857760D01*
X7200220Y-4851410D01*
X7194130Y-4847170D01*
X7186000Y-4845060D01*
X7181260Y-4840820D01*
X7179220Y-4833420D01*
X7180580Y-4826010D01*
X7183970Y-4820720D01*
X7188710Y-4817540D01*
X7193450D01*
X7198190Y-4819660D01*
X7202260Y-4824950D01*
G01X7232400Y-4872580D02*
X7237810Y-4877870D01*
X7243910Y-4881040D01*
X7249330D01*
X7254750Y-4877870D01*
X7258810Y-4872580D01*
X7260840Y-4865160D01*
X7259490Y-4857760D01*
X7256100Y-4851410D01*
X7250010Y-4847170D01*
X7241880Y-4845060D01*
X7237140Y-4840820D01*
X7235100Y-4833420D01*
X7236460Y-4826010D01*
X7239850Y-4820720D01*
X7244590Y-4817540D01*
X7249330D01*
X7254070Y-4819660D01*
X7258140Y-4824950D01*
G01X7358380Y-4817540D02*
X7352960Y-4819660D01*
X7348900Y-4824950D01*
X7346190Y-4831300D01*
X7344160Y-4839770D01*
X7343480Y-4849290D01*
X7344160Y-4858820D01*
X7346190Y-4867280D01*
X7348900Y-4873630D01*
X7352960Y-4878920D01*
X7358380Y-4881040D01*
X7363800Y-4878920D01*
X7367860Y-4873630D01*
X7370570Y-4867280D01*
X7372600Y-4858820D01*
X7373280Y-4849290D01*
X7372600Y-4839770D01*
X7370570Y-4831300D01*
X7367860Y-4824950D01*
X7363800Y-4819660D01*
X7358380Y-4817540D01*
G01X7414260Y-4883160D02*
X7412910Y-4882100D01*
Y-4879980D01*
X7414260Y-4878920D01*
X7415610Y-4879980D01*
Y-4882100D01*
X7414260Y-4883160D01*
G01X7468790Y-4881040D02*
X7470140Y-4867280D01*
X7472170Y-4855640D01*
X7474880Y-4845060D01*
X7478270Y-4833420D01*
X7483690Y-4817540D01*
X7456590D01*
G01X7511120Y-4868340D02*
X7515180Y-4875750D01*
X7520600Y-4879980D01*
X7526700Y-4881040D01*
X7532120Y-4879980D01*
X7537540Y-4874690D01*
X7540920Y-4868340D01*
X7541600Y-4861990D01*
X7540240Y-4854580D01*
X7535500Y-4849290D01*
X7530760Y-4847170D01*
X7524670D01*
G01X7530760D02*
X7534830Y-4844000D01*
X7538210Y-4838710D01*
X7539570Y-4832360D01*
X7538210Y-4826010D01*
X7534830Y-4820720D01*
X7528730Y-4817540D01*
X7522630Y-4818600D01*
X7516540Y-4822830D01*
G01X7581900Y-4881040D02*
Y-4817540D01*
X7573770Y-4830240D01*
G01Y-4881040D02*
X7590030D01*
G01X7622880Y-4871520D02*
X7626940Y-4876810D01*
X7631680Y-4879980D01*
X7637780Y-4881040D01*
X7643880Y-4878920D01*
X7648620Y-4874690D01*
X7652000Y-4867280D01*
X7652680Y-4858820D01*
X7651330Y-4850350D01*
X7647940Y-4845060D01*
X7643200Y-4840820D01*
X7638460Y-4839770D01*
X7633720Y-4840820D01*
X7627620Y-4845060D01*
X7629650Y-4817540D01*
X7647940D01*
G01X7680790Y-4828120D02*
X7684850Y-4821770D01*
X7689600Y-4818600D01*
X7695010Y-4817540D01*
X7701790Y-4819660D01*
X7706530Y-4824950D01*
X7707880Y-4831300D01*
X7707210Y-4837650D01*
X7704500Y-4842940D01*
X7690950Y-4853520D01*
X7684850Y-4860930D01*
X7680790Y-4871520D01*
X7679440Y-4881040D01*
X7707880D01*
G01X7787810D02*
Y-4817540D01*
X7805420Y-4870460D01*
X7823030Y-4817540D01*
Y-4881040D01*
G01X7843690D02*
Y-4817540D01*
X7861300Y-4870460D01*
X7878910Y-4817540D01*
Y-4881040D01*
G01X6400800Y-4323610D02*
Y-2921530D01*
X7924800D01*
Y-4323610D01*
X6400800D01*
G01Y-2711220D02*
Y-1309140D01*
X7924800D01*
Y-2711220D01*
X6400800D01*
G01Y-1098830D02*
Y303250D01*
X7924800D01*
Y-1098830D01*
X6400800D01*
G01X6607810Y2328890D02*
X6600020Y2326270D01*
X6594180Y2319700D01*
X6590280Y2311830D01*
X6587360Y2301330D01*
X6586390Y2289520D01*
X6587360Y2277710D01*
X6590280Y2267210D01*
X6594180Y2259330D01*
X6600020Y2252770D01*
X6607810Y2250150D01*
X6615600Y2252770D01*
X6621440Y2259330D01*
X6625340Y2267210D01*
X6628260Y2277710D01*
X6629230Y2289520D01*
X6628260Y2301330D01*
X6625340Y2311830D01*
X6621440Y2319700D01*
X6615600Y2326270D01*
X6607810Y2328890D01*
G01X6686550Y2247530D02*
X6684600Y2248840D01*
Y2251460D01*
X6686550Y2252770D01*
X6688500Y2251460D01*
Y2248840D01*
X6686550Y2247530D01*
G01X6765290Y2250150D02*
Y2328890D01*
X6753610Y2313140D01*
G01Y2250150D02*
X6776970D01*
G01X6477000Y2758150D02*
Y1818350D01*
X6908800D01*
Y2758150D01*
X6477000D01*
G01X5976790Y2580350D02*
Y2659090D01*
X5996260D01*
X6004050Y2655150D01*
X6009890Y2649900D01*
X6014760Y2642030D01*
X6018660Y2632840D01*
X6019630Y2619720D01*
X6018660Y2606600D01*
X6014760Y2597410D01*
X6009890Y2589530D01*
X6004050Y2584290D01*
X5996260Y2580350D01*
X5976790D01*
G01X6052610D02*
X6076950Y2659090D01*
X6101290Y2580350D01*
G01X6092530Y2607910D02*
X6061370D01*
G01X6155690Y2659090D02*
Y2580350D01*
G01X6133300Y2659090D02*
X6178080D01*
G01X6253900Y2580350D02*
X6214960D01*
Y2659090D01*
X6253900D01*
G01X6238320Y2621030D02*
X6214960D01*
G01X6613740Y2580350D02*
Y2659090D01*
X6638080D01*
X6645870Y2655150D01*
X6650740Y2649900D01*
X6652680Y2639400D01*
X6650740Y2628910D01*
X6644890Y2622350D01*
X6638080Y2618410D01*
X6613740D01*
G01X6638080D02*
X6652680Y2580350D01*
G01X6731420D02*
X6692480D01*
Y2659090D01*
X6731420D01*
G01X6715840Y2621030D02*
X6692480D01*
G01X6766350Y2659090D02*
X6790690Y2580350D01*
X6815030Y2659090D01*
G01X6814650Y-5939230D02*
X6805000Y-5932880D01*
X6793740Y-5928650D01*
X6780870D01*
X6766390Y-5935000D01*
X6755130Y-5945580D01*
X6747090Y-5958280D01*
X6740650Y-5979450D01*
X6739040Y-5998500D01*
X6742260Y-6017550D01*
X6747090Y-6030250D01*
X6756740Y-6042950D01*
X6768000Y-6051420D01*
X6779260Y-6055650D01*
X6790520D01*
X6801780Y-6051420D01*
X6811430Y-6045070D01*
X6819480Y-6036600D01*
G01X6876630Y-6055650D02*
Y-5928650D01*
X6916840D01*
X6929710Y-5935000D01*
X6937760Y-5943470D01*
X6940970Y-5960400D01*
X6937760Y-5977330D01*
X6928100Y-5987920D01*
X6916840Y-5994270D01*
X6876630D01*
G01X6916840D02*
X6940970Y-6055650D01*
G01X7070510D02*
X7006170D01*
Y-5928650D01*
X7070510D01*
G01X7044770Y-5990030D02*
X7006170D01*
G01X7127660Y-6055650D02*
X7167880Y-5928650D01*
X7208100Y-6055650D01*
G01X7193620Y-6011200D02*
X7142140D01*
G01X7297420Y-5928650D02*
Y-6055650D01*
G01X7260420Y-5928650D02*
X7334420D01*
G01X7407660D02*
X7446260D01*
G01X7426960D02*
Y-6055650D01*
G01X7407660D02*
X7446260D01*
G01X7516280Y-5928650D02*
X7556500Y-6055650D01*
X7596720Y-5928650D01*
G01X7718210Y-6055650D02*
X7653870D01*
Y-5928650D01*
X7718210D01*
G01X7692470Y-5990030D02*
X7653870D01*
G01X7903290Y-6055650D02*
Y-5928650D01*
X7945120Y-6034480D01*
X7986950Y-5928650D01*
Y-6055650D01*
G01X8034440D02*
X8074660Y-5928650D01*
X8114880Y-6055650D01*
G01X8100400Y-6011200D02*
X8048920D01*
G01X8239590Y-5939230D02*
X8229940Y-5932880D01*
X8218680Y-5928650D01*
X8205810D01*
X8191330Y-5935000D01*
X8180070Y-5945580D01*
X8172030Y-5958280D01*
X8165590Y-5979450D01*
X8163980Y-5998500D01*
X8167200Y-6017550D01*
X8172030Y-6030250D01*
X8181680Y-6042950D01*
X8192940Y-6051420D01*
X8204200Y-6055650D01*
X8215460D01*
X8226720Y-6051420D01*
X8236370Y-6045070D01*
X8244420Y-6036600D01*
G01X8299960Y-6055650D02*
Y-5928650D01*
G01X8367520D02*
Y-6055650D01*
G01Y-5992150D02*
X8299960D01*
G01X8443980Y-5928650D02*
X8482580D01*
G01X8463280D02*
Y-6055650D01*
G01X8443980D02*
X8482580D01*
G01X8555820D02*
Y-5928650D01*
X8629820Y-6055650D01*
Y-5928650D01*
G01X8754530Y-6055650D02*
X8690190D01*
Y-5928650D01*
X8754530D01*
G01X8728790Y-5990030D02*
X8690190D01*
G01X8818120Y-6038720D02*
X8830990Y-6049300D01*
X8845470Y-6055650D01*
X8858330D01*
X8871200Y-6049300D01*
X8880860Y-6038720D01*
X8885680Y-6023900D01*
X8882470Y-6009090D01*
X8874420Y-5996380D01*
X8859940Y-5987920D01*
X8840640Y-5983680D01*
X8829380Y-5975220D01*
X8824550Y-5960400D01*
X8827770Y-5945580D01*
X8835810Y-5935000D01*
X8847070Y-5928650D01*
X8858330D01*
X8869600Y-5932880D01*
X8879250Y-5943470D01*
G01X9078810Y-5928650D02*
Y-6055650D01*
X9143150D01*
G01X9200300D02*
X9240520Y-5928650D01*
X9280740Y-6055650D01*
G01X9266260Y-6011200D02*
X9214780D01*
G01X9382930Y-5987920D02*
X9389360Y-5981570D01*
X9394190Y-5970990D01*
X9397410Y-5956160D01*
X9394190Y-5943470D01*
X9387760Y-5935000D01*
X9376490Y-5928650D01*
X9333060D01*
Y-6055650D01*
X9386150D01*
X9397410Y-6047190D01*
X9403840Y-6034480D01*
X9407060Y-6019670D01*
X9403840Y-6004850D01*
X9394190Y-5992150D01*
X9382930Y-5987920D01*
X9333060D01*
G01X7099300Y597380D02*
X7035800D01*
X7048500Y589250D01*
G01X7099300D02*
Y605510D01*
G01X7078130Y644450D02*
Y662070D01*
G01X7099300Y717270D02*
X7035800D01*
X7081310Y692210D01*
Y726070D01*
G01X6970310Y2250150D02*
Y2328890D01*
X7007310D01*
G01X6993680Y2290830D02*
X6970310D01*
G01X7043210Y2250150D02*
X7067550Y2328890D01*
X7091890Y2250150D01*
G01X7083130Y2277710D02*
X7051970D01*
G01X7154080Y2292150D02*
X7157970Y2296080D01*
X7160890Y2302640D01*
X7162840Y2311830D01*
X7160890Y2319700D01*
X7157000Y2324950D01*
X7150180Y2328890D01*
X7123900D01*
Y2250150D01*
X7156030D01*
X7162840Y2255400D01*
X7166740Y2263270D01*
X7168680Y2272460D01*
X7166740Y2281640D01*
X7160890Y2289520D01*
X7154080Y2292150D01*
X7123900D01*
G01X7311560D02*
X7315450Y2296080D01*
X7318370Y2302640D01*
X7320320Y2311830D01*
X7318370Y2319700D01*
X7314480Y2324950D01*
X7307660Y2328890D01*
X7281380D01*
Y2250150D01*
X7313510D01*
X7320320Y2255400D01*
X7324220Y2263270D01*
X7326160Y2272460D01*
X7324220Y2281640D01*
X7318370Y2289520D01*
X7311560Y2292150D01*
X7281380D01*
G01X7441780Y2250150D02*
Y2328890D01*
X7466120D01*
X7473910Y2324950D01*
X7478780Y2319700D01*
X7480720Y2309200D01*
X7478780Y2298710D01*
X7472930Y2292150D01*
X7466120Y2288210D01*
X7441780D01*
G01X7466120D02*
X7480720Y2250150D01*
G01X7559460D02*
X7520520D01*
Y2328890D01*
X7559460D01*
G01X7543880Y2290830D02*
X7520520D01*
G01X7599260Y2328890D02*
Y2250150D01*
X7638200D01*
G01X7716940D02*
X7678000D01*
Y2328890D01*
X7716940D01*
G01X7701360Y2290830D02*
X7678000D01*
G01X7751870Y2250150D02*
X7776210Y2328890D01*
X7800550Y2250150D01*
G01X7791790Y2277710D02*
X7760630D01*
G01X7834500Y2260650D02*
X7842290Y2254090D01*
X7851060Y2250150D01*
X7858840D01*
X7866630Y2254090D01*
X7872480Y2260650D01*
X7875400Y2269840D01*
X7873450Y2279020D01*
X7868580Y2286890D01*
X7859820Y2292150D01*
X7848130Y2294770D01*
X7841320Y2300020D01*
X7838400Y2309200D01*
X7840350Y2318390D01*
X7845210Y2324950D01*
X7852030Y2328890D01*
X7858840D01*
X7865660Y2326270D01*
X7871500Y2319700D01*
G01X7953160Y2250150D02*
X7914220D01*
Y2328890D01*
X7953160D01*
G01X7937580Y2290830D02*
X7914220D01*
G01X7399190Y2580350D02*
Y2659090D01*
X7418660D01*
X7426450Y2655150D01*
X7432290Y2649900D01*
X7437160Y2642030D01*
X7441060Y2632840D01*
X7442030Y2619720D01*
X7441060Y2606600D01*
X7437160Y2597410D01*
X7432290Y2589530D01*
X7426450Y2584290D01*
X7418660Y2580350D01*
X7399190D01*
G01X7518820D02*
X7479880D01*
Y2659090D01*
X7518820D01*
G01X7503240Y2621030D02*
X7479880D01*
G01X7557640Y2590850D02*
X7565430Y2584290D01*
X7574200Y2580350D01*
X7581980D01*
X7589770Y2584290D01*
X7595620Y2590850D01*
X7598540Y2600040D01*
X7596590Y2609220D01*
X7591720Y2617090D01*
X7582960Y2622350D01*
X7571270Y2624970D01*
X7564460Y2630220D01*
X7561540Y2639400D01*
X7563490Y2648590D01*
X7568350Y2655150D01*
X7575170Y2659090D01*
X7581980D01*
X7588800Y2656470D01*
X7594640Y2649900D01*
G01X7678250Y2652530D02*
X7672410Y2656470D01*
X7665590Y2659090D01*
X7657800D01*
X7649040Y2655150D01*
X7642230Y2648590D01*
X7637360Y2640720D01*
X7633460Y2627590D01*
X7632490Y2615780D01*
X7634440Y2603970D01*
X7637360Y2596100D01*
X7643200Y2588220D01*
X7650010Y2582970D01*
X7656830Y2580350D01*
X7663650D01*
X7670460Y2582970D01*
X7676300Y2586910D01*
X7681170Y2592160D01*
G01X7716100Y2580350D02*
Y2659090D01*
X7740440D01*
X7748230Y2655150D01*
X7753100Y2649900D01*
X7755040Y2639400D01*
X7753100Y2628910D01*
X7747250Y2622350D01*
X7740440Y2618410D01*
X7716100D01*
G01X7740440D02*
X7755040Y2580350D01*
G01X7802630Y2659090D02*
X7825990D01*
G01X7814310D02*
Y2580350D01*
G01X7802630D02*
X7825990D01*
G01X7873580D02*
Y2659090D01*
X7896940D01*
X7904730Y2655150D01*
X7910580Y2645970D01*
X7912520Y2635470D01*
X7910580Y2624970D01*
X7905710Y2617090D01*
X7896940Y2613160D01*
X7873580D01*
G01X7971790Y2659090D02*
Y2580350D01*
G01X7949400Y2659090D02*
X7994180D01*
G01X8038850D02*
X8062210D01*
G01X8050530D02*
Y2580350D01*
G01X8038850D02*
X8062210D01*
G01X8129270D02*
X8121480Y2581660D01*
X8114670Y2586910D01*
X8108820Y2594780D01*
X8104930Y2603970D01*
X8102980Y2614470D01*
Y2624970D01*
X8104930Y2635470D01*
X8108820Y2644660D01*
X8114670Y2652530D01*
X8121480Y2657780D01*
X8129270Y2659090D01*
X8137060Y2657780D01*
X8143870Y2652530D01*
X8149720Y2644660D01*
X8153610Y2635470D01*
X8155560Y2624970D01*
Y2614470D01*
X8153610Y2603970D01*
X8149720Y2594780D01*
X8143870Y2586910D01*
X8137060Y2581660D01*
X8129270Y2580350D01*
G01X8185620D02*
Y2659090D01*
X8230400Y2580350D01*
Y2659090D01*
G01X7987450Y-4365260D02*
Y-4428760D01*
X8014550D01*
G01X8065010D02*
Y-4365260D01*
X8039950Y-4410770D01*
X8073810D01*
G01X8174060Y-4394890D02*
X8176770Y-4391720D01*
X8178800Y-4386430D01*
X8180160Y-4379020D01*
X8178800Y-4372670D01*
X8176090Y-4368440D01*
X8171350Y-4365260D01*
X8153060D01*
Y-4428760D01*
X8175410D01*
X8180160Y-4424530D01*
X8182860Y-4418180D01*
X8184220Y-4410770D01*
X8182860Y-4403360D01*
X8178800Y-4397010D01*
X8174060Y-4394890D01*
X8153060D01*
G01X8224520Y-4428760D02*
X8219100Y-4427700D01*
X8214360Y-4423470D01*
X8210300Y-4417120D01*
X8207590Y-4409710D01*
X8206230Y-4401240D01*
Y-4392780D01*
X8207590Y-4384310D01*
X8210300Y-4376900D01*
X8214360Y-4370550D01*
X8219100Y-4366320D01*
X8224520Y-4365260D01*
X8229940Y-4366320D01*
X8234680Y-4370550D01*
X8238740Y-4376900D01*
X8241450Y-4384310D01*
X8242810Y-4392780D01*
Y-4401240D01*
X8241450Y-4409710D01*
X8238740Y-4417120D01*
X8234680Y-4423470D01*
X8229940Y-4427700D01*
X8224520Y-4428760D01*
G01X8280400Y-4365260D02*
Y-4428760D01*
G01X8264820Y-4365260D02*
X8295980D01*
G01X8336280D02*
Y-4428760D01*
G01X8320700Y-4365260D02*
X8351860D01*
G01X8392160Y-4428760D02*
X8386740Y-4427700D01*
X8382000Y-4423470D01*
X8377940Y-4417120D01*
X8375230Y-4409710D01*
X8373870Y-4401240D01*
Y-4392780D01*
X8375230Y-4384310D01*
X8377940Y-4376900D01*
X8382000Y-4370550D01*
X8386740Y-4366320D01*
X8392160Y-4365260D01*
X8397580Y-4366320D01*
X8402320Y-4370550D01*
X8406380Y-4376900D01*
X8409090Y-4384310D01*
X8410450Y-4392780D01*
Y-4401240D01*
X8409090Y-4409710D01*
X8406380Y-4417120D01*
X8402320Y-4423470D01*
X8397580Y-4427700D01*
X8392160Y-4428760D01*
G01X8430430D02*
Y-4365260D01*
X8448040Y-4418180D01*
X8465650Y-4365260D01*
Y-4428760D01*
G01X8574700Y-4370550D02*
X8570640Y-4367380D01*
X8565900Y-4365260D01*
X8560480D01*
X8554380Y-4368440D01*
X8549640Y-4373730D01*
X8546250Y-4380080D01*
X8543540Y-4390660D01*
X8542870Y-4400190D01*
X8544220Y-4409710D01*
X8546250Y-4416060D01*
X8550320Y-4422410D01*
X8555060Y-4426640D01*
X8559800Y-4428760D01*
X8564540D01*
X8569280Y-4426640D01*
X8573350Y-4423470D01*
X8576730Y-4419240D01*
G01X8615680Y-4428760D02*
X8610260Y-4427700D01*
X8605520Y-4423470D01*
X8601460Y-4417120D01*
X8598750Y-4409710D01*
X8597390Y-4401240D01*
Y-4392780D01*
X8598750Y-4384310D01*
X8601460Y-4376900D01*
X8605520Y-4370550D01*
X8610260Y-4366320D01*
X8615680Y-4365260D01*
X8621100Y-4366320D01*
X8625840Y-4370550D01*
X8629900Y-4376900D01*
X8632610Y-4384310D01*
X8633970Y-4392780D01*
Y-4401240D01*
X8632610Y-4409710D01*
X8629900Y-4417120D01*
X8625840Y-4423470D01*
X8621100Y-4427700D01*
X8615680Y-4428760D01*
G01X8655980D02*
Y-4365260D01*
X8687140Y-4428760D01*
Y-4365260D01*
G01X8712540Y-4428760D02*
Y-4365260D01*
X8726090D01*
X8731500Y-4368440D01*
X8735570Y-4372670D01*
X8738960Y-4379020D01*
X8741660Y-4386430D01*
X8742340Y-4397010D01*
X8741660Y-4407590D01*
X8738960Y-4415000D01*
X8735570Y-4421350D01*
X8731500Y-4425590D01*
X8726090Y-4428760D01*
X8712540D01*
G01X8768420Y-4365260D02*
Y-4410770D01*
X8771130Y-4420300D01*
X8776550Y-4426640D01*
X8783320Y-4428760D01*
X8790090Y-4426640D01*
X8795510Y-4420300D01*
X8798220Y-4410770D01*
Y-4365260D01*
G01X8854100Y-4370550D02*
X8850040Y-4367380D01*
X8845300Y-4365260D01*
X8839880D01*
X8833780Y-4368440D01*
X8829040Y-4373730D01*
X8825650Y-4380080D01*
X8822940Y-4390660D01*
X8822270Y-4400190D01*
X8823620Y-4409710D01*
X8825650Y-4416060D01*
X8829720Y-4422410D01*
X8834460Y-4426640D01*
X8839200Y-4428760D01*
X8843940D01*
X8848680Y-4426640D01*
X8852750Y-4423470D01*
X8856130Y-4419240D01*
G01X8895080Y-4365260D02*
Y-4428760D01*
G01X8879500Y-4365260D02*
X8910660D01*
G01X8950960Y-4428760D02*
X8945540Y-4427700D01*
X8940800Y-4423470D01*
X8936740Y-4417120D01*
X8934030Y-4409710D01*
X8932670Y-4401240D01*
Y-4392780D01*
X8934030Y-4384310D01*
X8936740Y-4376900D01*
X8940800Y-4370550D01*
X8945540Y-4366320D01*
X8950960Y-4365260D01*
X8956380Y-4366320D01*
X8961120Y-4370550D01*
X8965180Y-4376900D01*
X8967890Y-4384310D01*
X8969250Y-4392780D01*
Y-4401240D01*
X8967890Y-4409710D01*
X8965180Y-4417120D01*
X8961120Y-4423470D01*
X8956380Y-4427700D01*
X8950960Y-4428760D01*
G01X8993290D02*
Y-4365260D01*
X9010230D01*
X9015650Y-4368440D01*
X9019030Y-4372670D01*
X9020390Y-4381140D01*
X9019030Y-4389600D01*
X9014970Y-4394890D01*
X9010230Y-4398070D01*
X8993290D01*
G01X9010230D02*
X9020390Y-4428760D01*
G01X8097860Y-4620700D02*
X8127660Y-4574130D01*
G01X8112760Y-4565660D02*
Y-4629160D01*
G01X8127660Y-4620700D02*
X8097860Y-4574130D01*
G01X8092440Y-4597410D02*
X8133080D01*
G01X8266180Y-4610120D02*
X8271590Y-4615410D01*
X8277690Y-4618580D01*
X8283110D01*
X8288530Y-4615410D01*
X8292590Y-4610120D01*
X8294620Y-4602700D01*
X8293270Y-4595300D01*
X8289880Y-4588950D01*
X8283790Y-4584710D01*
X8275660Y-4582600D01*
X8270920Y-4578360D01*
X8268880Y-4570960D01*
X8270240Y-4563550D01*
X8273630Y-4558260D01*
X8278370Y-4555080D01*
X8283110D01*
X8287850Y-4557200D01*
X8291920Y-4562490D01*
G01X8321380Y-4555080D02*
Y-4600590D01*
X8324090Y-4610120D01*
X8329510Y-4616460D01*
X8336280Y-4618580D01*
X8343050Y-4616460D01*
X8348470Y-4610120D01*
X8351180Y-4600590D01*
Y-4555080D01*
G01X8378610Y-4618580D02*
Y-4555080D01*
X8395550D01*
X8400970Y-4558260D01*
X8404350Y-4562490D01*
X8405710Y-4570960D01*
X8404350Y-4579420D01*
X8400290Y-4584710D01*
X8395550Y-4587890D01*
X8378610D01*
G01X8395550D02*
X8405710Y-4618580D01*
G01X8435170D02*
Y-4555080D01*
X8460910D01*
G01X8451430Y-4585770D02*
X8435170D01*
G01X8486990Y-4618580D02*
X8503920Y-4555080D01*
X8520850Y-4618580D01*
G01X8514760Y-4596360D02*
X8493080D01*
G01X8574700Y-4560370D02*
X8570640Y-4557200D01*
X8565900Y-4555080D01*
X8560480D01*
X8554380Y-4558260D01*
X8549640Y-4563550D01*
X8546250Y-4569900D01*
X8543540Y-4580480D01*
X8542870Y-4590010D01*
X8544220Y-4599530D01*
X8546250Y-4605880D01*
X8550320Y-4612230D01*
X8555060Y-4616460D01*
X8559800Y-4618580D01*
X8564540D01*
X8569280Y-4616460D01*
X8573350Y-4613290D01*
X8576730Y-4609060D01*
G01X8629230Y-4618580D02*
X8602130D01*
Y-4555080D01*
X8629230D01*
G01X8618390Y-4585770D02*
X8602130D01*
G01X8097860Y-3624690D02*
X8127660Y-3578120D01*
G01X8112760Y-3569650D02*
Y-3633150D01*
G01X8127660Y-3624690D02*
X8097860Y-3578120D01*
G01X8092440Y-3601400D02*
X8133080D01*
G01X8265500Y-3622570D02*
Y-3559070D01*
X8279050D01*
X8284460Y-3562250D01*
X8288530Y-3566480D01*
X8291920Y-3572830D01*
X8294620Y-3580240D01*
X8295300Y-3590820D01*
X8294620Y-3601400D01*
X8291920Y-3608810D01*
X8288530Y-3615160D01*
X8284460Y-3619400D01*
X8279050Y-3622570D01*
X8265500D01*
G01X8328150Y-3559070D02*
X8344410D01*
G01X8336280D02*
Y-3622570D01*
G01X8328150D02*
X8344410D01*
G01X8405710D02*
X8378610D01*
Y-3559070D01*
X8405710D01*
G01X8394870Y-3589760D02*
X8378610D01*
G01X8434490Y-3559070D02*
Y-3622570D01*
X8461590D01*
G01X8517470D02*
X8490370D01*
Y-3559070D01*
X8517470D01*
G01X8506630Y-3589760D02*
X8490370D01*
G01X8574700Y-3564360D02*
X8570640Y-3561190D01*
X8565900Y-3559070D01*
X8560480D01*
X8554380Y-3562250D01*
X8549640Y-3567540D01*
X8546250Y-3573890D01*
X8543540Y-3584470D01*
X8542870Y-3594000D01*
X8544220Y-3603520D01*
X8546250Y-3609870D01*
X8550320Y-3616220D01*
X8555060Y-3620450D01*
X8559800Y-3622570D01*
X8564540D01*
X8569280Y-3620450D01*
X8573350Y-3617280D01*
X8576730Y-3613050D01*
G01X8615680Y-3559070D02*
Y-3622570D01*
G01X8600100Y-3559070D02*
X8631260D01*
G01X8658010Y-3622570D02*
Y-3559070D01*
X8674950D01*
X8680370Y-3562250D01*
X8683750Y-3566480D01*
X8685110Y-3574950D01*
X8683750Y-3583410D01*
X8679690Y-3588700D01*
X8674950Y-3591880D01*
X8658010D01*
G01X8674950D02*
X8685110Y-3622570D01*
G01X8719310Y-3559070D02*
X8735570D01*
G01X8727440D02*
Y-3622570D01*
G01X8719310D02*
X8735570D01*
G01X8798220Y-3564360D02*
X8794160Y-3561190D01*
X8789420Y-3559070D01*
X8784000D01*
X8777900Y-3562250D01*
X8773160Y-3567540D01*
X8769770Y-3573890D01*
X8767060Y-3584470D01*
X8766390Y-3594000D01*
X8767740Y-3603520D01*
X8769770Y-3609870D01*
X8773840Y-3616220D01*
X8778580Y-3620450D01*
X8783320Y-3622570D01*
X8788060D01*
X8792800Y-3620450D01*
X8796870Y-3617280D01*
X8800250Y-3613050D01*
G01X7987450Y-2752870D02*
Y-2816370D01*
X8014550D01*
G01X8041980Y-2803670D02*
X8046040Y-2811080D01*
X8051460Y-2815310D01*
X8057560Y-2816370D01*
X8062980Y-2815310D01*
X8068400Y-2810020D01*
X8071780Y-2803670D01*
X8072460Y-2797320D01*
X8071100Y-2789910D01*
X8066360Y-2784620D01*
X8061620Y-2782500D01*
X8055530D01*
G01X8061620D02*
X8065690Y-2779330D01*
X8069070Y-2774040D01*
X8070430Y-2767690D01*
X8069070Y-2761340D01*
X8065690Y-2756050D01*
X8059590Y-2752870D01*
X8053490Y-2753930D01*
X8047400Y-2758160D01*
G01X8151710Y-2752870D02*
X8168640Y-2816370D01*
X8185570Y-2752870D01*
G01X8209620Y-2816370D02*
Y-2752870D01*
X8223170D01*
X8228580Y-2756050D01*
X8232650Y-2760280D01*
X8236040Y-2766630D01*
X8238740Y-2774040D01*
X8239420Y-2784620D01*
X8238740Y-2795200D01*
X8236040Y-2802610D01*
X8232650Y-2808960D01*
X8228580Y-2813200D01*
X8223170Y-2816370D01*
X8209620D01*
G01X8265500D02*
Y-2752870D01*
X8279050D01*
X8284460Y-2756050D01*
X8288530Y-2760280D01*
X8291920Y-2766630D01*
X8294620Y-2774040D01*
X8295300Y-2784620D01*
X8294620Y-2795200D01*
X8291920Y-2802610D01*
X8288530Y-2808960D01*
X8284460Y-2813200D01*
X8279050Y-2816370D01*
X8265500D01*
G01X8407060Y-2758160D02*
X8403000Y-2754990D01*
X8398260Y-2752870D01*
X8392840D01*
X8386740Y-2756050D01*
X8382000Y-2761340D01*
X8378610Y-2767690D01*
X8375900Y-2778270D01*
X8375230Y-2787800D01*
X8376580Y-2797320D01*
X8378610Y-2803670D01*
X8382680Y-2810020D01*
X8387420Y-2814250D01*
X8392160Y-2816370D01*
X8396900D01*
X8401640Y-2814250D01*
X8405710Y-2811080D01*
X8409090Y-2806850D01*
G01X8448040Y-2816370D02*
X8442620Y-2815310D01*
X8437880Y-2811080D01*
X8433820Y-2804730D01*
X8431110Y-2797320D01*
X8429750Y-2788850D01*
Y-2780390D01*
X8431110Y-2771920D01*
X8433820Y-2764510D01*
X8437880Y-2758160D01*
X8442620Y-2753930D01*
X8448040Y-2752870D01*
X8453460Y-2753930D01*
X8458200Y-2758160D01*
X8462260Y-2764510D01*
X8464970Y-2771920D01*
X8466330Y-2780390D01*
Y-2788850D01*
X8464970Y-2797320D01*
X8462260Y-2804730D01*
X8458200Y-2811080D01*
X8453460Y-2815310D01*
X8448040Y-2816370D01*
G01X8488340D02*
Y-2752870D01*
X8519500Y-2816370D01*
Y-2752870D01*
G01X8544900Y-2816370D02*
Y-2752870D01*
X8558450D01*
X8563860Y-2756050D01*
X8567930Y-2760280D01*
X8571320Y-2766630D01*
X8574020Y-2774040D01*
X8574700Y-2784620D01*
X8574020Y-2795200D01*
X8571320Y-2802610D01*
X8567930Y-2808960D01*
X8563860Y-2813200D01*
X8558450Y-2816370D01*
X8544900D01*
G01X8600780Y-2752870D02*
Y-2798380D01*
X8603490Y-2807910D01*
X8608910Y-2814250D01*
X8615680Y-2816370D01*
X8622450Y-2814250D01*
X8627870Y-2807910D01*
X8630580Y-2798380D01*
Y-2752870D01*
G01X8686460Y-2758160D02*
X8682400Y-2754990D01*
X8677660Y-2752870D01*
X8672240D01*
X8666140Y-2756050D01*
X8661400Y-2761340D01*
X8658010Y-2767690D01*
X8655300Y-2778270D01*
X8654630Y-2787800D01*
X8655980Y-2797320D01*
X8658010Y-2803670D01*
X8662080Y-2810020D01*
X8666820Y-2814250D01*
X8671560Y-2816370D01*
X8676300D01*
X8681040Y-2814250D01*
X8685110Y-2811080D01*
X8688490Y-2806850D01*
G01X8727440Y-2752870D02*
Y-2816370D01*
G01X8711860Y-2752870D02*
X8743020D01*
G01X8783320Y-2816370D02*
X8777900Y-2815310D01*
X8773160Y-2811080D01*
X8769100Y-2804730D01*
X8766390Y-2797320D01*
X8765030Y-2788850D01*
Y-2780390D01*
X8766390Y-2771920D01*
X8769100Y-2764510D01*
X8773160Y-2758160D01*
X8777900Y-2753930D01*
X8783320Y-2752870D01*
X8788740Y-2753930D01*
X8793480Y-2758160D01*
X8797540Y-2764510D01*
X8800250Y-2771920D01*
X8801610Y-2780390D01*
Y-2788850D01*
X8800250Y-2797320D01*
X8797540Y-2804730D01*
X8793480Y-2811080D01*
X8788740Y-2815310D01*
X8783320Y-2816370D01*
G01X8825650D02*
Y-2752870D01*
X8842590D01*
X8848010Y-2756050D01*
X8851390Y-2760280D01*
X8852750Y-2768750D01*
X8851390Y-2777210D01*
X8847330Y-2782500D01*
X8842590Y-2785680D01*
X8825650D01*
G01X8842590D02*
X8852750Y-2816370D01*
G01X8097860Y-2012300D02*
X8127660Y-1965730D01*
G01X8112760Y-1957260D02*
Y-2020760D01*
G01X8127660Y-2012300D02*
X8097860Y-1965730D01*
G01X8092440Y-1989010D02*
X8133080D01*
G01X8265500Y-2010180D02*
Y-1946680D01*
X8279050D01*
X8284460Y-1949860D01*
X8288530Y-1954090D01*
X8291920Y-1960440D01*
X8294620Y-1967850D01*
X8295300Y-1978430D01*
X8294620Y-1989010D01*
X8291920Y-1996420D01*
X8288530Y-2002770D01*
X8284460Y-2007010D01*
X8279050Y-2010180D01*
X8265500D01*
G01X8328150Y-1946680D02*
X8344410D01*
G01X8336280D02*
Y-2010180D01*
G01X8328150D02*
X8344410D01*
G01X8405710D02*
X8378610D01*
Y-1946680D01*
X8405710D01*
G01X8394870Y-1977370D02*
X8378610D01*
G01X8434490Y-1946680D02*
Y-2010180D01*
X8461590D01*
G01X8517470D02*
X8490370D01*
Y-1946680D01*
X8517470D01*
G01X8506630Y-1977370D02*
X8490370D01*
G01X8574700Y-1951970D02*
X8570640Y-1948800D01*
X8565900Y-1946680D01*
X8560480D01*
X8554380Y-1949860D01*
X8549640Y-1955150D01*
X8546250Y-1961500D01*
X8543540Y-1972080D01*
X8542870Y-1981610D01*
X8544220Y-1991130D01*
X8546250Y-1997480D01*
X8550320Y-2003830D01*
X8555060Y-2008060D01*
X8559800Y-2010180D01*
X8564540D01*
X8569280Y-2008060D01*
X8573350Y-2004890D01*
X8576730Y-2000660D01*
G01X8615680Y-1946680D02*
Y-2010180D01*
G01X8600100Y-1946680D02*
X8631260D01*
G01X8658010Y-2010180D02*
Y-1946680D01*
X8674950D01*
X8680370Y-1949860D01*
X8683750Y-1954090D01*
X8685110Y-1962560D01*
X8683750Y-1971020D01*
X8679690Y-1976310D01*
X8674950Y-1979490D01*
X8658010D01*
G01X8674950D02*
X8685110Y-2010180D01*
G01X8719310Y-1946680D02*
X8735570D01*
G01X8727440D02*
Y-2010180D01*
G01X8719310D02*
X8735570D01*
G01X8798220Y-1951970D02*
X8794160Y-1948800D01*
X8789420Y-1946680D01*
X8784000D01*
X8777900Y-1949860D01*
X8773160Y-1955150D01*
X8769770Y-1961500D01*
X8767060Y-1972080D01*
X8766390Y-1981610D01*
X8767740Y-1991130D01*
X8769770Y-1997480D01*
X8773840Y-2003830D01*
X8778580Y-2008060D01*
X8783320Y-2010180D01*
X8788060D01*
X8792800Y-2008060D01*
X8796870Y-2004890D01*
X8800250Y-2000660D01*
G01X7987450Y-1140480D02*
Y-1203980D01*
X8014550D01*
G01X8044010Y-1151060D02*
X8048070Y-1144710D01*
X8052820Y-1141540D01*
X8058230Y-1140480D01*
X8065010Y-1142600D01*
X8069750Y-1147890D01*
X8071100Y-1154240D01*
X8070430Y-1160590D01*
X8067720Y-1165880D01*
X8054170Y-1176460D01*
X8048070Y-1183870D01*
X8044010Y-1194460D01*
X8042660Y-1203980D01*
X8071100D01*
G01X8172700Y-1172230D02*
X8186250D01*
Y-1191280D01*
X8182190Y-1197630D01*
X8177450Y-1201860D01*
X8170670Y-1203980D01*
X8163900Y-1201860D01*
X8159160Y-1197630D01*
X8155090Y-1191280D01*
X8152380Y-1183870D01*
X8151030Y-1175410D01*
Y-1168000D01*
X8152380Y-1161650D01*
X8155090Y-1154240D01*
X8159160Y-1147890D01*
X8163220Y-1143660D01*
X8168640Y-1140480D01*
X8173380D01*
X8178800Y-1142600D01*
X8182860Y-1146830D01*
G01X8208940Y-1203980D02*
Y-1140480D01*
X8240100Y-1203980D01*
Y-1140480D01*
G01X8265500Y-1203980D02*
Y-1140480D01*
X8279050D01*
X8284460Y-1143660D01*
X8288530Y-1147890D01*
X8291920Y-1154240D01*
X8294620Y-1161650D01*
X8295300Y-1172230D01*
X8294620Y-1182810D01*
X8291920Y-1190220D01*
X8288530Y-1196570D01*
X8284460Y-1200810D01*
X8279050Y-1203980D01*
X8265500D01*
G01X8407060Y-1145770D02*
X8403000Y-1142600D01*
X8398260Y-1140480D01*
X8392840D01*
X8386740Y-1143660D01*
X8382000Y-1148950D01*
X8378610Y-1155300D01*
X8375900Y-1165880D01*
X8375230Y-1175410D01*
X8376580Y-1184930D01*
X8378610Y-1191280D01*
X8382680Y-1197630D01*
X8387420Y-1201860D01*
X8392160Y-1203980D01*
X8396900D01*
X8401640Y-1201860D01*
X8405710Y-1198690D01*
X8409090Y-1194460D01*
G01X8448040Y-1203980D02*
X8442620Y-1202920D01*
X8437880Y-1198690D01*
X8433820Y-1192340D01*
X8431110Y-1184930D01*
X8429750Y-1176460D01*
Y-1168000D01*
X8431110Y-1159530D01*
X8433820Y-1152120D01*
X8437880Y-1145770D01*
X8442620Y-1141540D01*
X8448040Y-1140480D01*
X8453460Y-1141540D01*
X8458200Y-1145770D01*
X8462260Y-1152120D01*
X8464970Y-1159530D01*
X8466330Y-1168000D01*
Y-1176460D01*
X8464970Y-1184930D01*
X8462260Y-1192340D01*
X8458200Y-1198690D01*
X8453460Y-1202920D01*
X8448040Y-1203980D01*
G01X8488340D02*
Y-1140480D01*
X8519500Y-1203980D01*
Y-1140480D01*
G01X8544900Y-1203980D02*
Y-1140480D01*
X8558450D01*
X8563860Y-1143660D01*
X8567930Y-1147890D01*
X8571320Y-1154240D01*
X8574020Y-1161650D01*
X8574700Y-1172230D01*
X8574020Y-1182810D01*
X8571320Y-1190220D01*
X8567930Y-1196570D01*
X8563860Y-1200810D01*
X8558450Y-1203980D01*
X8544900D01*
G01X8600780Y-1140480D02*
Y-1185990D01*
X8603490Y-1195520D01*
X8608910Y-1201860D01*
X8615680Y-1203980D01*
X8622450Y-1201860D01*
X8627870Y-1195520D01*
X8630580Y-1185990D01*
Y-1140480D01*
G01X8686460Y-1145770D02*
X8682400Y-1142600D01*
X8677660Y-1140480D01*
X8672240D01*
X8666140Y-1143660D01*
X8661400Y-1148950D01*
X8658010Y-1155300D01*
X8655300Y-1165880D01*
X8654630Y-1175410D01*
X8655980Y-1184930D01*
X8658010Y-1191280D01*
X8662080Y-1197630D01*
X8666820Y-1201860D01*
X8671560Y-1203980D01*
X8676300D01*
X8681040Y-1201860D01*
X8685110Y-1198690D01*
X8688490Y-1194460D01*
G01X8727440Y-1140480D02*
Y-1203980D01*
G01X8711860Y-1140480D02*
X8743020D01*
G01X8783320Y-1203980D02*
X8777900Y-1202920D01*
X8773160Y-1198690D01*
X8769100Y-1192340D01*
X8766390Y-1184930D01*
X8765030Y-1176460D01*
Y-1168000D01*
X8766390Y-1159530D01*
X8769100Y-1152120D01*
X8773160Y-1145770D01*
X8777900Y-1141540D01*
X8783320Y-1140480D01*
X8788740Y-1141540D01*
X8793480Y-1145770D01*
X8797540Y-1152120D01*
X8800250Y-1159530D01*
X8801610Y-1168000D01*
Y-1176460D01*
X8800250Y-1184930D01*
X8797540Y-1192340D01*
X8793480Y-1198690D01*
X8788740Y-1202920D01*
X8783320Y-1203980D01*
G01X8825650D02*
Y-1140480D01*
X8842590D01*
X8848010Y-1143660D01*
X8851390Y-1147890D01*
X8852750Y-1156360D01*
X8851390Y-1164820D01*
X8847330Y-1170110D01*
X8842590Y-1173290D01*
X8825650D01*
G01X8842590D02*
X8852750Y-1203980D01*
G01X8097860Y-399910D02*
X8127660Y-353340D01*
G01X8112760Y-344870D02*
Y-408370D01*
G01X8127660Y-399910D02*
X8097860Y-353340D01*
G01X8092440Y-376620D02*
X8133080D01*
G01X8265500Y-397790D02*
Y-334290D01*
X8279050D01*
X8284460Y-337470D01*
X8288530Y-341700D01*
X8291920Y-348050D01*
X8294620Y-355460D01*
X8295300Y-366040D01*
X8294620Y-376620D01*
X8291920Y-384030D01*
X8288530Y-390380D01*
X8284460Y-394620D01*
X8279050Y-397790D01*
X8265500D01*
G01X8328150Y-334290D02*
X8344410D01*
G01X8336280D02*
Y-397790D01*
G01X8328150D02*
X8344410D01*
G01X8405710D02*
X8378610D01*
Y-334290D01*
X8405710D01*
G01X8394870Y-364980D02*
X8378610D01*
G01X8434490Y-334290D02*
Y-397790D01*
X8461590D01*
G01X8517470D02*
X8490370D01*
Y-334290D01*
X8517470D01*
G01X8506630Y-364980D02*
X8490370D01*
G01X8574700Y-339580D02*
X8570640Y-336410D01*
X8565900Y-334290D01*
X8560480D01*
X8554380Y-337470D01*
X8549640Y-342760D01*
X8546250Y-349110D01*
X8543540Y-359690D01*
X8542870Y-369220D01*
X8544220Y-378740D01*
X8546250Y-385090D01*
X8550320Y-391440D01*
X8555060Y-395670D01*
X8559800Y-397790D01*
X8564540D01*
X8569280Y-395670D01*
X8573350Y-392500D01*
X8576730Y-388270D01*
G01X8615680Y-334290D02*
Y-397790D01*
G01X8600100Y-334290D02*
X8631260D01*
G01X8658010Y-397790D02*
Y-334290D01*
X8674950D01*
X8680370Y-337470D01*
X8683750Y-341700D01*
X8685110Y-350170D01*
X8683750Y-358630D01*
X8679690Y-363920D01*
X8674950Y-367100D01*
X8658010D01*
G01X8674950D02*
X8685110Y-397790D01*
G01X8719310Y-334290D02*
X8735570D01*
G01X8727440D02*
Y-397790D01*
G01X8719310D02*
X8735570D01*
G01X8798220Y-339580D02*
X8794160Y-336410D01*
X8789420Y-334290D01*
X8784000D01*
X8777900Y-337470D01*
X8773160Y-342760D01*
X8769770Y-349110D01*
X8767060Y-359690D01*
X8766390Y-369220D01*
X8767740Y-378740D01*
X8769770Y-385090D01*
X8773840Y-391440D01*
X8778580Y-395670D01*
X8783320Y-397790D01*
X8788060D01*
X8792800Y-395670D01*
X8796870Y-392500D01*
X8800250Y-388270D01*
G01X8097860Y532600D02*
X8127660Y579170D01*
G01X8112760Y587640D02*
Y524140D01*
G01X8127660Y532600D02*
X8097860Y579170D01*
G01X8092440Y555890D02*
X8133080D01*
G01X8266180Y543180D02*
X8271590Y537890D01*
X8277690Y534720D01*
X8283110D01*
X8288530Y537890D01*
X8292590Y543180D01*
X8294620Y550600D01*
X8293270Y558000D01*
X8289880Y564350D01*
X8283790Y568590D01*
X8275660Y570700D01*
X8270920Y574940D01*
X8268880Y582340D01*
X8270240Y589750D01*
X8273630Y595040D01*
X8278370Y598220D01*
X8283110D01*
X8287850Y596100D01*
X8291920Y590810D01*
G01X8321380Y598220D02*
Y552710D01*
X8324090Y543180D01*
X8329510Y536840D01*
X8336280Y534720D01*
X8343050Y536840D01*
X8348470Y543180D01*
X8351180Y552710D01*
Y598220D01*
G01X8378610Y534720D02*
Y598220D01*
X8395550D01*
X8400970Y595040D01*
X8404350Y590810D01*
X8405710Y582340D01*
X8404350Y573880D01*
X8400290Y568590D01*
X8395550Y565410D01*
X8378610D01*
G01X8395550D02*
X8405710Y534720D01*
G01X8435170D02*
Y598220D01*
X8460910D01*
G01X8451430Y567530D02*
X8435170D01*
G01X8486990Y534720D02*
X8503920Y598220D01*
X8520850Y534720D01*
G01X8514760Y556940D02*
X8493080D01*
G01X8574700Y592930D02*
X8570640Y596100D01*
X8565900Y598220D01*
X8560480D01*
X8554380Y595040D01*
X8549640Y589750D01*
X8546250Y583400D01*
X8543540Y572820D01*
X8542870Y563290D01*
X8544220Y553770D01*
X8546250Y547420D01*
X8550320Y541070D01*
X8555060Y536840D01*
X8559800Y534720D01*
X8564540D01*
X8569280Y536840D01*
X8573350Y540010D01*
X8576730Y544240D01*
G01X8629230Y534720D02*
X8602130D01*
Y598220D01*
X8629230D01*
G01X8618390Y567530D02*
X8602130D01*
G01X7987450Y471910D02*
Y408410D01*
X8014550D01*
G01X8056880D02*
Y471910D01*
X8048750Y459210D01*
G01Y408410D02*
X8065010D01*
G01X8168640Y471910D02*
Y408410D01*
G01X8153060Y471910D02*
X8184220D01*
G01X8224520Y408410D02*
X8219100Y409470D01*
X8214360Y413700D01*
X8210300Y420050D01*
X8207590Y427460D01*
X8206230Y435930D01*
Y444390D01*
X8207590Y452860D01*
X8210300Y460270D01*
X8214360Y466620D01*
X8219100Y470850D01*
X8224520Y471910D01*
X8229940Y470850D01*
X8234680Y466620D01*
X8238740Y460270D01*
X8241450Y452860D01*
X8242810Y444390D01*
Y435930D01*
X8241450Y427460D01*
X8238740Y420050D01*
X8234680Y413700D01*
X8229940Y409470D01*
X8224520Y408410D01*
G01X8266850D02*
Y471910D01*
X8283110D01*
X8288530Y468730D01*
X8292590Y461330D01*
X8293950Y452860D01*
X8292590Y444390D01*
X8289210Y438040D01*
X8283110Y434870D01*
X8266850D01*
G01X8407060Y466620D02*
X8403000Y469790D01*
X8398260Y471910D01*
X8392840D01*
X8386740Y468730D01*
X8382000Y463440D01*
X8378610Y457090D01*
X8375900Y446510D01*
X8375230Y436980D01*
X8376580Y427460D01*
X8378610Y421110D01*
X8382680Y414760D01*
X8387420Y410530D01*
X8392160Y408410D01*
X8396900D01*
X8401640Y410530D01*
X8405710Y413700D01*
X8409090Y417930D01*
G01X8448040Y408410D02*
X8442620Y409470D01*
X8437880Y413700D01*
X8433820Y420050D01*
X8431110Y427460D01*
X8429750Y435930D01*
Y444390D01*
X8431110Y452860D01*
X8433820Y460270D01*
X8437880Y466620D01*
X8442620Y470850D01*
X8448040Y471910D01*
X8453460Y470850D01*
X8458200Y466620D01*
X8462260Y460270D01*
X8464970Y452860D01*
X8466330Y444390D01*
Y435930D01*
X8464970Y427460D01*
X8462260Y420050D01*
X8458200Y413700D01*
X8453460Y409470D01*
X8448040Y408410D01*
G01X8488340D02*
Y471910D01*
X8519500Y408410D01*
Y471910D01*
G01X8544900Y408410D02*
Y471910D01*
X8558450D01*
X8563860Y468730D01*
X8567930Y464500D01*
X8571320Y458150D01*
X8574020Y450740D01*
X8574700Y440160D01*
X8574020Y429580D01*
X8571320Y422170D01*
X8567930Y415820D01*
X8563860Y411580D01*
X8558450Y408410D01*
X8544900D01*
G01X8600780Y471910D02*
Y426400D01*
X8603490Y416870D01*
X8608910Y410530D01*
X8615680Y408410D01*
X8622450Y410530D01*
X8627870Y416870D01*
X8630580Y426400D01*
Y471910D01*
G01X8686460Y466620D02*
X8682400Y469790D01*
X8677660Y471910D01*
X8672240D01*
X8666140Y468730D01*
X8661400Y463440D01*
X8658010Y457090D01*
X8655300Y446510D01*
X8654630Y436980D01*
X8655980Y427460D01*
X8658010Y421110D01*
X8662080Y414760D01*
X8666820Y410530D01*
X8671560Y408410D01*
X8676300D01*
X8681040Y410530D01*
X8685110Y413700D01*
X8688490Y417930D01*
G01X8727440Y471910D02*
Y408410D01*
G01X8711860Y471910D02*
X8743020D01*
G01X8783320Y408410D02*
X8777900Y409470D01*
X8773160Y413700D01*
X8769100Y420050D01*
X8766390Y427460D01*
X8765030Y435930D01*
Y444390D01*
X8766390Y452860D01*
X8769100Y460270D01*
X8773160Y466620D01*
X8777900Y470850D01*
X8783320Y471910D01*
X8788740Y470850D01*
X8793480Y466620D01*
X8797540Y460270D01*
X8800250Y452860D01*
X8801610Y444390D01*
Y435930D01*
X8800250Y427460D01*
X8797540Y420050D01*
X8793480Y413700D01*
X8788740Y409470D01*
X8783320Y408410D01*
G01X8825650D02*
Y471910D01*
X8842590D01*
X8848010Y468730D01*
X8851390Y464500D01*
X8852750Y456030D01*
X8851390Y447570D01*
X8847330Y442280D01*
X8842590Y439100D01*
X8825650D01*
G01X8842590D02*
X8852750Y408410D01*
G01X9462800Y-6233450D02*
Y-6639850D01*
X8204200D01*
Y-6233450D01*
X9462800D01*
G01X8272690Y-6502400D02*
Y-6375400D01*
X8333830D01*
G01X8311300Y-6436780D02*
X8272690D01*
G01X8392580Y-6502400D02*
X8432800Y-6375400D01*
X8473020Y-6502400D01*
G01X8458540Y-6457950D02*
X8407060D01*
G01X8575210Y-6434670D02*
X8581640Y-6428320D01*
X8586470Y-6417740D01*
X8589690Y-6402910D01*
X8586470Y-6390220D01*
X8580040Y-6381750D01*
X8568770Y-6375400D01*
X8525340D01*
Y-6502400D01*
X8578430D01*
X8589690Y-6493940D01*
X8596120Y-6481230D01*
X8599340Y-6466420D01*
X8596120Y-6451600D01*
X8586470Y-6438900D01*
X8575210Y-6434670D01*
X8525340D01*
G01X8691880Y-6506630D02*
X8688660Y-6504520D01*
Y-6500280D01*
X8691880Y-6498170D01*
X8695100Y-6500280D01*
Y-6504520D01*
X8691880Y-6506630D01*
G01Y-6449490D02*
X8688660Y-6447370D01*
Y-6443130D01*
X8691880Y-6441020D01*
X8695100Y-6443130D01*
Y-6447370D01*
X8691880Y-6449490D01*
G01X8874930Y-6434670D02*
X8881360Y-6428320D01*
X8886190Y-6417740D01*
X8889410Y-6402910D01*
X8886190Y-6390220D01*
X8879760Y-6381750D01*
X8868490Y-6375400D01*
X8825060D01*
Y-6502400D01*
X8878150D01*
X8889410Y-6493940D01*
X8895840Y-6481230D01*
X8899060Y-6466420D01*
X8895840Y-6451600D01*
X8886190Y-6438900D01*
X8874930Y-6434670D01*
X8825060D01*
G01X8955410Y2302640D02*
X8984610D01*
X8955410Y2250150D01*
X8984610D01*
G01X9066280Y2223900D02*
Y2302640D01*
G01Y2290830D02*
X9061410Y2297390D01*
X9055570Y2301330D01*
X9048750Y2302640D01*
X9042910Y2301330D01*
X9036090Y2294770D01*
X9032200Y2285580D01*
X9031220Y2276400D01*
X9032200Y2267210D01*
X9036090Y2258020D01*
X9042910Y2251460D01*
X9048750Y2250150D01*
X9055570Y2251460D01*
X9061410Y2255400D01*
X9066280Y2261960D01*
G01X9108990Y2315770D02*
X9114830Y2323640D01*
X9121650Y2327580D01*
X9129440Y2328890D01*
X9139170Y2326270D01*
X9145990Y2319700D01*
X9147940Y2311830D01*
X9146960Y2303950D01*
X9143070Y2297390D01*
X9123600Y2284270D01*
X9114830Y2275080D01*
X9108990Y2261960D01*
X9107040Y2250150D01*
X9147940D01*
G01X9206230D02*
Y2328890D01*
X9194550Y2313140D01*
G01Y2250150D02*
X9217910D01*
G01X9263550Y2261960D02*
X9269390Y2255400D01*
X9276210Y2251460D01*
X9284970Y2250150D01*
X9293730Y2252770D01*
X9300550Y2258020D01*
X9305420Y2267210D01*
X9306390Y2277710D01*
X9304440Y2288210D01*
X9299570Y2294770D01*
X9292760Y2300020D01*
X9285940Y2301330D01*
X9279130Y2300020D01*
X9270370Y2294770D01*
X9273290Y2328890D01*
X9299570D01*
G01X9375390Y2250150D02*
Y2328890D01*
X9339370Y2272460D01*
X9388050D01*
G01X9462800Y2758150D02*
Y1818350D01*
X8839200D01*
Y2758150D01*
X9462800D01*
G01X8945670Y2580350D02*
X8970010Y2659090D01*
X8994350Y2580350D01*
G01X8985590Y2607910D02*
X8954430D01*
G01X9027330Y2659090D02*
Y2602660D01*
X9031220Y2590850D01*
X9039010Y2582970D01*
X9048750Y2580350D01*
X9058490Y2582970D01*
X9066280Y2590850D01*
X9070170Y2602660D01*
Y2659090D01*
G01X9127490D02*
Y2580350D01*
G01X9105100Y2659090D02*
X9149880D01*
G01X9185780Y2580350D02*
Y2659090D01*
G01X9226680D02*
Y2580350D01*
G01Y2619720D02*
X9185780D01*
G01X9284970Y2580350D02*
X9277180Y2581660D01*
X9270370Y2586910D01*
X9264520Y2594780D01*
X9260630Y2603970D01*
X9258680Y2614470D01*
Y2624970D01*
X9260630Y2635470D01*
X9264520Y2644660D01*
X9270370Y2652530D01*
X9277180Y2657780D01*
X9284970Y2659090D01*
X9292760Y2657780D01*
X9299570Y2652530D01*
X9305420Y2644660D01*
X9309310Y2635470D01*
X9311260Y2624970D01*
Y2614470D01*
X9309310Y2603970D01*
X9305420Y2594780D01*
X9299570Y2586910D01*
X9292760Y2581660D01*
X9284970Y2580350D01*
G01X9344240D02*
Y2659090D01*
X9368580D01*
X9376370Y2655150D01*
X9381240Y2649900D01*
X9383180Y2639400D01*
X9381240Y2628910D01*
X9375390Y2622350D01*
X9368580Y2618410D01*
X9344240D01*
G01X9368580D02*
X9383180Y2580350D01*
M02*
