G04 ================== begin FILE IDENTIFICATION RECORD ==================*
G04 Layout Name:  SMA_fabB_v1_040418.brd*
G04 Film Name:    SMA_ASSM_TOP_fabB_040418*
G04 File Format:  Gerber RS274X*
G04 File Origin:  Cadence Allegro 17.2-P019*
G04 Origin Date:  Wed Apr 04 13:45:20 2018*
G04 *
G04 Layer:  BOARD GEOMETRY/CUTOUT*
G04 Layer:  PACKAGE GEOMETRY/PIN_NUMBER*
G04 Layer:  REF DES/ASSEMBLY_TOP*
G04 Layer:  PACKAGE GEOMETRY/BODY_CENTER*
G04 Layer:  PACKAGE GEOMETRY/ASSEMBLY_TOP*
G04 *
G04 Offset:    (0.0000 0.0000)*
G04 Mirror:    No*
G04 Mode:      Positive*
G04 Rotation:  0*
G04 FullContactRelief:  No*
G04 UndefLineWidth:     0.2540*
G04 ================== end FILE IDENTIFICATION RECORD ====================*
%FSLAX25Y25*MOMM*%
%IR0*IPPOS*OFA0.00000B0.00000*MIA0B0*SFA1.00000B1.00000*%
%ADD10C,.254*%
G75*
%LPD*%
G75*
G36*
G01X-3089400Y-6795250D02*
Y-5395250D01*
X-4089400D01*
Y-6795250D01*
X-3089400D01*
G37*
G36*
G01X-4341800Y-5251400D02*
X-4141800D01*
Y-4751400D01*
X-4341800D01*
Y-5251400D01*
G37*
G36*
G01X-4672000D02*
X-4472000D01*
Y-4751400D01*
X-4672000D01*
Y-5251400D01*
G37*
G36*
G01X-4337000Y-4370400D02*
Y-4570400D01*
X-3837000D01*
Y-4370400D01*
X-4337000D01*
G37*
G36*
G01X-4667200Y-4014800D02*
Y-4214800D01*
X-4167200D01*
Y-4014800D01*
X-4667200D01*
G37*
G36*
G01X-3867200Y-3605200D02*
Y-3405200D01*
X-4367200D01*
Y-3605200D01*
X-3867200D01*
G37*
G36*
G01X-4057600Y-3710000D02*
Y-3910000D01*
X-3557600D01*
Y-3710000D01*
X-4057600D01*
G37*
G36*
G01X-4167200Y-2343200D02*
X-4367200D01*
Y-2843200D01*
X-4167200D01*
Y-2343200D01*
G37*
G36*
G01X-3176600Y-1098600D02*
X-3376600D01*
Y-1598600D01*
X-3176600D01*
Y-1098600D01*
G37*
G36*
G01X-3456000D02*
X-3656000D01*
Y-1598600D01*
X-3456000D01*
Y-1098600D01*
G37*
G36*
G01X-1039800Y-6394400D02*
X-839800D01*
Y-5894400D01*
X-1039800D01*
Y-6394400D01*
G37*
G36*
G01X154000D02*
X354000D01*
Y-5894400D01*
X154000D01*
Y-6394400D01*
G37*
G36*
G01X1195400Y-5861000D02*
X1395400D01*
Y-5361000D01*
X1195400D01*
Y-5861000D01*
G37*
G36*
G01X2668600Y-6394400D02*
X2868600D01*
Y-5894400D01*
X2668600D01*
Y-6394400D01*
G37*
G54D10*
G01X5384800Y-6806200D02*
Y2260600D01*
X-5257800D01*
Y-6806200D01*
X5384800D01*
G01X-4318000Y-4795100D02*
X-4157980D01*
Y-4844840D01*
X-4165980Y-4860760D01*
X-4176650Y-4870710D01*
X-4197990Y-4874680D01*
X-4219320Y-4870710D01*
X-4232650Y-4858770D01*
X-4240660Y-4844840D01*
Y-4795100D01*
G01Y-4844840D02*
X-4318000Y-4874680D01*
G01Y-4994910D02*
X-4157980D01*
X-4189980Y-4971030D01*
G01X-4318000D02*
Y-5018780D01*
G01Y-5178810D02*
X-4157980D01*
X-4272660Y-5105190D01*
Y-5204670D01*
G01X-4648200Y-4820500D02*
X-4488180D01*
Y-4870240D01*
X-4496180Y-4886160D01*
X-4506850Y-4896110D01*
X-4528190Y-4900080D01*
X-4549520Y-4896110D01*
X-4562850Y-4884170D01*
X-4570860Y-4870240D01*
Y-4820500D01*
G01Y-4870240D02*
X-4648200Y-4900080D01*
G01Y-5020310D02*
X-4488180D01*
X-4520180Y-4996430D01*
G01X-4648200D02*
Y-5044180D01*
G01X-4624200Y-5136560D02*
X-4637530Y-5148490D01*
X-4645530Y-5162420D01*
X-4648200Y-5180330D01*
X-4642870Y-5198240D01*
X-4632200Y-5212160D01*
X-4613530Y-5222110D01*
X-4592200Y-5224100D01*
X-4570860Y-5220120D01*
X-4557520Y-5210170D01*
X-4546860Y-5196250D01*
X-4544190Y-5182320D01*
X-4546860Y-5168390D01*
X-4557520Y-5150490D01*
X-4488180Y-5156450D01*
Y-5210170D01*
G01X-4003720Y-4394200D02*
Y-4554220D01*
X-4043510D01*
X-4059430Y-4546220D01*
X-4071370Y-4535550D01*
X-4081320Y-4519550D01*
X-4089270Y-4500880D01*
X-4091260Y-4474210D01*
X-4089270Y-4447540D01*
X-4081320Y-4428870D01*
X-4071370Y-4412870D01*
X-4059430Y-4402200D01*
X-4043510Y-4394200D01*
X-4003720D01*
G01X-4169710Y-4460870D02*
X-4183630Y-4479550D01*
X-4195570Y-4490210D01*
X-4211490Y-4495540D01*
X-4225420Y-4490210D01*
X-4235360Y-4479550D01*
X-4243330Y-4463540D01*
X-4245310Y-4444870D01*
X-4243330Y-4428870D01*
X-4235360Y-4412870D01*
X-4223430Y-4399530D01*
X-4209500Y-4394200D01*
X-4193580Y-4399530D01*
X-4179660Y-4415530D01*
X-4171690Y-4439540D01*
X-4169710Y-4466210D01*
X-4173680Y-4500880D01*
X-4179660Y-4519550D01*
X-4189600Y-4538220D01*
X-4203530Y-4551550D01*
X-4217460Y-4554220D01*
X-4231390Y-4548890D01*
X-4241340Y-4535550D01*
G01X-4308520Y-4038600D02*
Y-4198620D01*
X-4348310D01*
X-4364230Y-4190620D01*
X-4376170Y-4179950D01*
X-4386120Y-4163950D01*
X-4394070Y-4145280D01*
X-4396060Y-4118610D01*
X-4394070Y-4091940D01*
X-4386120Y-4073270D01*
X-4376170Y-4057270D01*
X-4364230Y-4046600D01*
X-4348310Y-4038600D01*
X-4308520D01*
G01X-4508330D02*
X-4512310Y-4073270D01*
X-4518280Y-4102600D01*
X-4526240Y-4129280D01*
X-4536190Y-4158610D01*
X-4552100Y-4198620D01*
X-4472520D01*
G01X-4225880Y-3581400D02*
Y-3421380D01*
X-4186090D01*
X-4170170Y-3429380D01*
X-4158230Y-3440050D01*
X-4148280Y-3456050D01*
X-4140330Y-3474720D01*
X-4138340Y-3501390D01*
X-4140330Y-3528060D01*
X-4148280Y-3546730D01*
X-4158230Y-3562730D01*
X-4170170Y-3573400D01*
X-4186090Y-3581400D01*
X-4225880D01*
G01X-3998210D02*
Y-3421380D01*
X-4071830Y-3536060D01*
X-3972350D01*
G01X-3601300Y-3733800D02*
Y-3893820D01*
X-3651040D01*
X-3666960Y-3885820D01*
X-3676910Y-3875150D01*
X-3680880Y-3853810D01*
X-3676910Y-3832480D01*
X-3664970Y-3819150D01*
X-3651040Y-3811140D01*
X-3601300D01*
G01X-3651040D02*
X-3680880Y-3733800D01*
G01X-3801110D02*
Y-3893820D01*
X-3777230Y-3861820D01*
G01Y-3733800D02*
X-3824980D01*
G01X-3917360Y-3765800D02*
X-3929290Y-3747130D01*
X-3945210Y-3736470D01*
X-3963120Y-3733800D01*
X-3979040Y-3736470D01*
X-3994960Y-3749800D01*
X-4004900Y-3765800D01*
X-4006890Y-3781810D01*
X-4002910Y-3800470D01*
X-3988980Y-3813810D01*
X-3975060Y-3819150D01*
X-3957150D01*
G01X-3975060D02*
X-3987000Y-3827140D01*
X-3996950Y-3840480D01*
X-4000920Y-3856480D01*
X-3996950Y-3872480D01*
X-3987000Y-3885820D01*
X-3969090Y-3893820D01*
X-3951180Y-3891150D01*
X-3933280Y-3880480D01*
G01X-4191000Y-2774100D02*
X-4351020D01*
Y-2724360D01*
X-4343020Y-2708440D01*
X-4332350Y-2698490D01*
X-4311010Y-2694520D01*
X-4289680Y-2698490D01*
X-4276350Y-2710430D01*
X-4268340Y-2724360D01*
Y-2774100D01*
G01Y-2724360D02*
X-4191000Y-2694520D01*
G01Y-2574290D02*
X-4351020D01*
X-4319020Y-2598170D01*
G01X-4191000D02*
Y-2550420D01*
G01X-4324350Y-2452070D02*
X-4340350Y-2440140D01*
X-4348350Y-2426210D01*
X-4351020Y-2410290D01*
X-4345690Y-2390390D01*
X-4332350Y-2376470D01*
X-4316350Y-2372490D01*
X-4300340Y-2374480D01*
X-4287010Y-2382440D01*
X-4260340Y-2422230D01*
X-4241670Y-2440140D01*
X-4215000Y-2452070D01*
X-4191000Y-2456050D01*
Y-2372490D01*
G01X-3713900Y-6191000D02*
X-3703950Y-6207000D01*
X-3692020Y-6217670D01*
X-3678090Y-6223000D01*
X-3662170Y-6217670D01*
X-3650230Y-6207000D01*
X-3638290Y-6191000D01*
X-3634320Y-6169660D01*
Y-6062980D01*
G01X-3557860Y-6191000D02*
X-3545930Y-6209670D01*
X-3530010Y-6220330D01*
X-3512100Y-6223000D01*
X-3496180Y-6220330D01*
X-3480260Y-6207000D01*
X-3470320Y-6191000D01*
X-3468330Y-6174990D01*
X-3472310Y-6156330D01*
X-3486240Y-6142990D01*
X-3500160Y-6137650D01*
X-3518070D01*
G01X-3500160D02*
X-3488220Y-6129660D01*
X-3478270Y-6116320D01*
X-3474300Y-6100320D01*
X-3478270Y-6084320D01*
X-3488220Y-6070980D01*
X-3506130Y-6062980D01*
X-3524040Y-6065650D01*
X-3541940Y-6076320D01*
G01X-3867000Y-3221100D02*
X-3117000D01*
Y-1681100D01*
X-3867000D01*
Y-3221100D01*
G01X-3592130Y-2324100D02*
Y-2415120D01*
X-3585700Y-2434170D01*
X-3572830Y-2446870D01*
X-3556750Y-2451100D01*
X-3540670Y-2446870D01*
X-3527800Y-2434170D01*
X-3521370Y-2415120D01*
Y-2324100D01*
G01X-3427250Y-2451100D02*
X-3415990Y-2448980D01*
X-3403130Y-2442640D01*
X-3395080Y-2432050D01*
X-3391870Y-2417230D01*
X-3395080Y-2402420D01*
X-3404730Y-2389720D01*
X-3419210Y-2383370D01*
X-3435290D01*
X-3444940Y-2379130D01*
X-3452990Y-2368550D01*
X-3456200Y-2353730D01*
X-3451370Y-2338920D01*
X-3440120Y-2328330D01*
X-3427250Y-2324100D01*
X-3414380Y-2328330D01*
X-3403130Y-2338920D01*
X-3398300Y-2353730D01*
X-3401520Y-2368550D01*
X-3409560Y-2379130D01*
X-3419210Y-2383370D01*
X-3435290D01*
X-3449770Y-2389720D01*
X-3459420Y-2402420D01*
X-3462630Y-2417230D01*
X-3459420Y-2432050D01*
X-3451370Y-2442640D01*
X-3438510Y-2448980D01*
X-3427250Y-2451100D01*
G01X-3347080Y-1445940D02*
X-3355090Y-1457880D01*
X-3360420Y-1471800D01*
Y-1487720D01*
X-3352420Y-1505630D01*
X-3339080Y-1519550D01*
X-3323080Y-1529500D01*
X-3296410Y-1537460D01*
X-3272410Y-1539450D01*
X-3248410Y-1535470D01*
X-3232400Y-1529500D01*
X-3216400Y-1517560D01*
X-3205730Y-1503640D01*
X-3200400Y-1489710D01*
Y-1475780D01*
X-3205730Y-1461860D01*
X-3213730Y-1449920D01*
X-3224400Y-1439970D01*
G01X-3200400Y-1329690D02*
X-3360420D01*
X-3328420Y-1353570D01*
G01X-3200400D02*
Y-1305820D01*
G01X-3267070Y-1207470D02*
X-3285750Y-1193550D01*
X-3296410Y-1181610D01*
X-3301740Y-1165690D01*
X-3296410Y-1151760D01*
X-3285750Y-1141820D01*
X-3269740Y-1133850D01*
X-3251070Y-1131870D01*
X-3235070Y-1133850D01*
X-3219070Y-1141820D01*
X-3205730Y-1153750D01*
X-3200400Y-1167680D01*
X-3205730Y-1183600D01*
X-3221730Y-1197520D01*
X-3245740Y-1205490D01*
X-3272410Y-1207470D01*
X-3307080Y-1203500D01*
X-3325750Y-1197520D01*
X-3344420Y-1187580D01*
X-3357750Y-1173650D01*
X-3360420Y-1159720D01*
X-3355090Y-1145790D01*
X-3341750Y-1135840D01*
G01X-3626480Y-1445940D02*
X-3634490Y-1457880D01*
X-3639820Y-1471800D01*
Y-1487720D01*
X-3631820Y-1505630D01*
X-3618480Y-1519550D01*
X-3602480Y-1529500D01*
X-3575810Y-1537460D01*
X-3551810Y-1539450D01*
X-3527810Y-1535470D01*
X-3511800Y-1529500D01*
X-3495800Y-1517560D01*
X-3485130Y-1503640D01*
X-3479800Y-1489710D01*
Y-1475780D01*
X-3485130Y-1461860D01*
X-3493130Y-1449920D01*
X-3503800Y-1439970D01*
G01X-3479800Y-1329690D02*
X-3639820D01*
X-3607820Y-1353570D01*
G01X-3479800D02*
Y-1305820D01*
G01Y-1173650D02*
X-3514470Y-1169670D01*
X-3543800Y-1163700D01*
X-3570480Y-1155740D01*
X-3599810Y-1145790D01*
X-3639820Y-1129880D01*
Y-1209460D01*
G01X-2235200Y1955800D02*
Y1447800D01*
X-3505200D01*
Y1955800D01*
X-2235200D01*
G01X-2489200Y-6152220D02*
X-2425700D01*
Y-6165770D01*
X-2428880Y-6171180D01*
X-2433110Y-6175250D01*
X-2439460Y-6178640D01*
X-2446870Y-6181340D01*
X-2457450Y-6182020D01*
X-2468030Y-6181340D01*
X-2475440Y-6178640D01*
X-2481790Y-6175250D01*
X-2486030Y-6171180D01*
X-2489200Y-6165770D01*
Y-6152220D01*
G01X-2479680Y-6208100D02*
X-2484970Y-6212160D01*
X-2488140Y-6216900D01*
X-2489200Y-6223000D01*
X-2487080Y-6229100D01*
X-2482850Y-6233840D01*
X-2475440Y-6237220D01*
X-2466980Y-6237900D01*
X-2458510Y-6236550D01*
X-2453220Y-6233160D01*
X-2448980Y-6228420D01*
X-2447930Y-6223680D01*
X-2448980Y-6218940D01*
X-2453220Y-6212840D01*
X-2425700Y-6214870D01*
Y-6233160D01*
G01X-2621400Y-6512000D02*
X-2311400D01*
Y-5842000D01*
X-2621400D01*
Y-6512000D01*
G01X-2819400Y-3403600D02*
X-2311400D01*
Y-5435600D01*
X-2819400D01*
Y-3403600D01*
G01X-2609600Y-4236300D02*
X-2625600Y-4246250D01*
X-2636270Y-4258180D01*
X-2641600Y-4272110D01*
X-2636270Y-4288030D01*
X-2625600Y-4299970D01*
X-2609600Y-4311910D01*
X-2588260Y-4315880D01*
X-2481580D01*
G01X-2609600Y-4392340D02*
X-2628270Y-4404270D01*
X-2638930Y-4420190D01*
X-2641600Y-4438100D01*
X-2638930Y-4454020D01*
X-2625600Y-4469940D01*
X-2609600Y-4479880D01*
X-2593590Y-4481870D01*
X-2574930Y-4477890D01*
X-2561590Y-4463960D01*
X-2556250Y-4450040D01*
Y-4432130D01*
G01Y-4450040D02*
X-2548260Y-4461980D01*
X-2534920Y-4471930D01*
X-2518920Y-4475900D01*
X-2502920Y-4471930D01*
X-2489580Y-4461980D01*
X-2481580Y-4444070D01*
X-2484250Y-4426160D01*
X-2494920Y-4408260D01*
G01X-2617600Y-4552360D02*
X-2630930Y-4564290D01*
X-2638930Y-4578220D01*
X-2641600Y-4596130D01*
X-2636270Y-4614040D01*
X-2625600Y-4627960D01*
X-2606930Y-4637910D01*
X-2585600Y-4639900D01*
X-2564260Y-4635920D01*
X-2550920Y-4625970D01*
X-2540260Y-4612050D01*
X-2537590Y-4598120D01*
X-2540260Y-4584190D01*
X-2550920Y-4566290D01*
X-2481580Y-4572250D01*
Y-4625970D01*
G01X-2708490Y1727200D02*
X-2716530Y1739900D01*
X-2726180Y1748370D01*
X-2737440Y1752600D01*
X-2750310Y1748370D01*
X-2759960Y1739900D01*
X-2769620Y1727200D01*
X-2772830Y1710270D01*
Y1625600D01*
G01X-2834810Y1727200D02*
X-2844460Y1742020D01*
X-2857330Y1750480D01*
X-2871810Y1752600D01*
X-2884680Y1750480D01*
X-2897550Y1739900D01*
X-2905590Y1727200D01*
X-2907200Y1714500D01*
X-2903980Y1699690D01*
X-2892720Y1689100D01*
X-2881460Y1684870D01*
X-2866980D01*
G01X-2881460D02*
X-2891110Y1678520D01*
X-2899160Y1667940D01*
X-2902370Y1655230D01*
X-2899160Y1642530D01*
X-2891110Y1631950D01*
X-2876630Y1625600D01*
X-2862160Y1627720D01*
X-2847680Y1636180D01*
G01X-2999740Y1752600D02*
Y1625600D01*
X-2980440Y1651000D01*
G01Y1752600D02*
X-3019040D01*
G01X-1227200Y-6630800D02*
Y-5130800D01*
X-1727200D01*
Y-6630800D01*
X-1227200D01*
G01X-1681900Y-5886200D02*
X-1671950Y-5902200D01*
X-1660020Y-5912870D01*
X-1646090Y-5918200D01*
X-1630170Y-5912870D01*
X-1618230Y-5902200D01*
X-1606290Y-5886200D01*
X-1602320Y-5864860D01*
Y-5758180D01*
G01X-1482090Y-5918200D02*
Y-5758180D01*
X-1505970Y-5790180D01*
G01Y-5918200D02*
X-1458220D01*
G01X-1298190D02*
Y-5758180D01*
X-1371810Y-5872860D01*
X-1272330D01*
G01X-869320Y-6123260D02*
X-861310Y-6111320D01*
X-855980Y-6097400D01*
Y-6081480D01*
X-863980Y-6063570D01*
X-877320Y-6049650D01*
X-893320Y-6039700D01*
X-919990Y-6031740D01*
X-943990Y-6029750D01*
X-967990Y-6033730D01*
X-984000Y-6039700D01*
X-1000000Y-6051640D01*
X-1010670Y-6065560D01*
X-1016000Y-6079490D01*
Y-6093420D01*
X-1010670Y-6107340D01*
X-1002670Y-6119280D01*
X-992000Y-6129230D01*
G01Y-6195740D02*
X-1005330Y-6207670D01*
X-1013330Y-6221600D01*
X-1016000Y-6239510D01*
X-1010670Y-6257420D01*
X-1000000Y-6271340D01*
X-981330Y-6281290D01*
X-960000Y-6283280D01*
X-938660Y-6279300D01*
X-925320Y-6269350D01*
X-914660Y-6255430D01*
X-911990Y-6241500D01*
X-914660Y-6227570D01*
X-925320Y-6209670D01*
X-855980Y-6215630D01*
Y-6269350D01*
G01X-1434880Y-3683000D02*
Y-3774020D01*
X-1428450Y-3793070D01*
X-1415580Y-3805770D01*
X-1399500Y-3810000D01*
X-1383420Y-3805770D01*
X-1370550Y-3793070D01*
X-1364120Y-3774020D01*
Y-3683000D01*
G01X-1300560Y-3704170D02*
X-1290910Y-3691470D01*
X-1279650Y-3685120D01*
X-1266780Y-3683000D01*
X-1250700Y-3687230D01*
X-1239440Y-3697820D01*
X-1236220Y-3710510D01*
X-1237830Y-3723220D01*
X-1244270Y-3733800D01*
X-1276430Y-3754970D01*
X-1290910Y-3769780D01*
X-1300560Y-3790950D01*
X-1303780Y-3810000D01*
X-1236220D01*
G01X-1140500D02*
Y-3683000D01*
X-1159800Y-3708400D01*
G01Y-3810000D02*
X-1121200D01*
G01X-1590000Y-4230000D02*
X-950000D01*
Y-3390000D01*
X-1590000D01*
Y-4230000D01*
G01X-1434880Y-2159000D02*
Y-2250020D01*
X-1428450Y-2269070D01*
X-1415580Y-2281770D01*
X-1399500Y-2286000D01*
X-1383420Y-2281770D01*
X-1370550Y-2269070D01*
X-1364120Y-2250020D01*
Y-2159000D01*
G01X-1300560Y-2180170D02*
X-1290910Y-2167470D01*
X-1279650Y-2161120D01*
X-1266780Y-2159000D01*
X-1250700Y-2163230D01*
X-1239440Y-2173820D01*
X-1236220Y-2186510D01*
X-1237830Y-2199220D01*
X-1244270Y-2209800D01*
X-1276430Y-2230970D01*
X-1290910Y-2245780D01*
X-1300560Y-2266950D01*
X-1303780Y-2286000D01*
X-1236220D01*
G01X-1171060Y-2180170D02*
X-1161410Y-2167470D01*
X-1150150Y-2161120D01*
X-1137280Y-2159000D01*
X-1121200Y-2163230D01*
X-1109940Y-2173820D01*
X-1106720Y-2186510D01*
X-1108330Y-2199220D01*
X-1114770Y-2209800D01*
X-1146930Y-2230970D01*
X-1161410Y-2245780D01*
X-1171060Y-2266950D01*
X-1174280Y-2286000D01*
X-1106720D01*
G01X-1590000Y-2706000D02*
X-950000D01*
Y-1866000D01*
X-1590000D01*
Y-2706000D01*
G01X-1434880Y-508000D02*
Y-599020D01*
X-1428450Y-618070D01*
X-1415580Y-630770D01*
X-1399500Y-635000D01*
X-1383420Y-630770D01*
X-1370550Y-618070D01*
X-1364120Y-599020D01*
Y-508000D01*
G01X-1300560Y-529170D02*
X-1290910Y-516470D01*
X-1279650Y-510120D01*
X-1266780Y-508000D01*
X-1250700Y-512230D01*
X-1239440Y-522820D01*
X-1236220Y-535510D01*
X-1237830Y-548220D01*
X-1244270Y-558800D01*
X-1276430Y-579970D01*
X-1290910Y-594780D01*
X-1300560Y-615950D01*
X-1303780Y-635000D01*
X-1236220D01*
G01X-1175880Y-609600D02*
X-1166240Y-624420D01*
X-1153370Y-632880D01*
X-1138890Y-635000D01*
X-1126020Y-632880D01*
X-1113160Y-622300D01*
X-1105120Y-609600D01*
X-1103510Y-596900D01*
X-1106720Y-582090D01*
X-1117980Y-571500D01*
X-1129240Y-567270D01*
X-1143720D01*
G01X-1129240D02*
X-1119590Y-560920D01*
X-1111550Y-550340D01*
X-1108330Y-537630D01*
X-1111550Y-524930D01*
X-1119590Y-514350D01*
X-1134070Y-508000D01*
X-1148540Y-510120D01*
X-1163020Y-518580D01*
G01X-1590000Y-1055000D02*
X-950000D01*
Y-215000D01*
X-1590000D01*
Y-1055000D01*
G01X-1434880Y1066800D02*
Y975780D01*
X-1428450Y956730D01*
X-1415580Y944030D01*
X-1399500Y939800D01*
X-1383420Y944030D01*
X-1370550Y956730D01*
X-1364120Y975780D01*
Y1066800D01*
G01X-1300560Y1045630D02*
X-1290910Y1058330D01*
X-1279650Y1064680D01*
X-1266780Y1066800D01*
X-1250700Y1062570D01*
X-1239440Y1051980D01*
X-1236220Y1039290D01*
X-1237830Y1026580D01*
X-1244270Y1016000D01*
X-1276430Y994830D01*
X-1290910Y980020D01*
X-1300560Y958850D01*
X-1303780Y939800D01*
X-1236220D01*
G01X-1121200D02*
Y1066800D01*
X-1180710Y975780D01*
X-1100290D01*
G01X-1590000Y519800D02*
X-950000D01*
Y1359800D01*
X-1590000D01*
Y519800D01*
G01X-400980Y-5549900D02*
Y-5595410D01*
X-398270Y-5604940D01*
X-392850Y-5611280D01*
X-386080Y-5613400D01*
X-379310Y-5611280D01*
X-373890Y-5604940D01*
X-371180Y-5595410D01*
Y-5549900D01*
G01X-345100Y-5600700D02*
X-341040Y-5608110D01*
X-335620Y-5612340D01*
X-329520Y-5613400D01*
X-324100Y-5612340D01*
X-318680Y-5607050D01*
X-315300Y-5600700D01*
X-314620Y-5594350D01*
X-315980Y-5586940D01*
X-320720Y-5581650D01*
X-325460Y-5579530D01*
X-331550D01*
G01X-325460D02*
X-321390Y-5576360D01*
X-318010Y-5571070D01*
X-316650Y-5564720D01*
X-318010Y-5558370D01*
X-321390Y-5553080D01*
X-327490Y-5549900D01*
X-333590Y-5550960D01*
X-339680Y-5555190D01*
G01X-35800Y-5764800D02*
Y-5384800D01*
X-685800D01*
Y-5764800D01*
X-35800D01*
G01X324480Y-6123260D02*
X332490Y-6111320D01*
X337820Y-6097400D01*
Y-6081480D01*
X329820Y-6063570D01*
X316480Y-6049650D01*
X300480Y-6039700D01*
X273810Y-6031740D01*
X249810Y-6029750D01*
X225810Y-6033730D01*
X209800Y-6039700D01*
X193800Y-6051640D01*
X183130Y-6065560D01*
X177800Y-6079490D01*
Y-6093420D01*
X183130Y-6107340D01*
X191130Y-6119280D01*
X201800Y-6129230D01*
G01X244470Y-6201710D02*
X263150Y-6215630D01*
X273810Y-6227570D01*
X279140Y-6243490D01*
X273810Y-6257420D01*
X263150Y-6267360D01*
X247140Y-6275330D01*
X228470Y-6277310D01*
X212470Y-6275330D01*
X196470Y-6267360D01*
X183130Y-6255430D01*
X177800Y-6241500D01*
X183130Y-6225580D01*
X199130Y-6211660D01*
X223140Y-6203690D01*
X249810Y-6201710D01*
X284480Y-6205680D01*
X303150Y-6211660D01*
X321820Y-6221600D01*
X335150Y-6235530D01*
X337820Y-6249460D01*
X332490Y-6263390D01*
X319150Y-6273340D01*
G01X241520Y-3683000D02*
Y-3774020D01*
X247950Y-3793070D01*
X260820Y-3805770D01*
X276900Y-3810000D01*
X292980Y-3805770D01*
X305850Y-3793070D01*
X312280Y-3774020D01*
Y-3683000D01*
G01X406400Y-3810000D02*
Y-3683000D01*
X387100Y-3708400D01*
G01Y-3810000D02*
X425700D01*
G01X532680D02*
X535900Y-3782490D01*
X540730Y-3759200D01*
X547160Y-3738030D01*
X555200Y-3714750D01*
X568070Y-3683000D01*
X503730D01*
G01X86400Y-4230000D02*
X726400D01*
Y-3390000D01*
X86400D01*
Y-4230000D01*
G01X241520Y-2159000D02*
Y-2250020D01*
X247950Y-2269070D01*
X260820Y-2281770D01*
X276900Y-2286000D01*
X292980Y-2281770D01*
X305850Y-2269070D01*
X312280Y-2250020D01*
Y-2159000D01*
G01X406400Y-2286000D02*
Y-2159000D01*
X387100Y-2184400D01*
G01Y-2286000D02*
X425700D01*
G01X535900D02*
X547160Y-2283880D01*
X560020Y-2277540D01*
X568070Y-2266950D01*
X571280Y-2252130D01*
X568070Y-2237320D01*
X558420Y-2224620D01*
X543940Y-2218270D01*
X527860D01*
X518210Y-2214030D01*
X510160Y-2203450D01*
X506950Y-2188630D01*
X511780Y-2173820D01*
X523030Y-2163230D01*
X535900Y-2159000D01*
X548770Y-2163230D01*
X560020Y-2173820D01*
X564850Y-2188630D01*
X561630Y-2203450D01*
X553590Y-2214030D01*
X543940Y-2218270D01*
X527860D01*
X513380Y-2224620D01*
X503730Y-2237320D01*
X500520Y-2252130D01*
X503730Y-2266950D01*
X511780Y-2277540D01*
X524640Y-2283880D01*
X535900Y-2286000D01*
G01X86400Y-2706000D02*
X726400D01*
Y-1866000D01*
X86400D01*
Y-2706000D01*
G01X266920Y-508000D02*
Y-599020D01*
X273350Y-618070D01*
X286220Y-630770D01*
X302300Y-635000D01*
X318380Y-630770D01*
X331250Y-618070D01*
X337680Y-599020D01*
Y-508000D01*
G01X431800Y-635000D02*
Y-508000D01*
X412500Y-533400D01*
G01Y-635000D02*
X451100D01*
G01X533960Y-620190D02*
X545220Y-630770D01*
X558080Y-635000D01*
X570950Y-630770D01*
X582210Y-618070D01*
X590250Y-599020D01*
X593470Y-579970D01*
Y-556680D01*
X590250Y-537630D01*
X582210Y-520700D01*
X572560Y-512230D01*
X561300Y-508000D01*
X548430Y-512230D01*
X538780Y-520700D01*
X532350Y-533400D01*
X529130Y-550340D01*
X532350Y-565150D01*
X540390Y-579970D01*
X550040Y-588440D01*
X561300Y-590550D01*
X574170Y-586320D01*
X583820Y-575730D01*
X593470Y-556680D01*
G01X111800Y-1055000D02*
X751800D01*
Y-215000D01*
X111800D01*
Y-1055000D01*
G01X292320Y1066800D02*
Y975780D01*
X298750Y956730D01*
X311620Y944030D01*
X327700Y939800D01*
X343780Y944030D01*
X356650Y956730D01*
X363080Y975780D01*
Y1066800D01*
G01X426640Y1045630D02*
X436290Y1058330D01*
X447550Y1064680D01*
X460420Y1066800D01*
X476500Y1062570D01*
X487760Y1051980D01*
X490980Y1039290D01*
X489370Y1026580D01*
X482930Y1016000D01*
X450770Y994830D01*
X436290Y980020D01*
X426640Y958850D01*
X423420Y939800D01*
X490980D01*
G01X586700Y1066800D02*
X573830Y1062570D01*
X564180Y1051980D01*
X557750Y1039290D01*
X552920Y1022350D01*
X551320Y1003300D01*
X552920Y984250D01*
X557750Y967310D01*
X564180Y954610D01*
X573830Y944030D01*
X586700Y939800D01*
X599570Y944030D01*
X609220Y954610D01*
X615650Y967310D01*
X620480Y984250D01*
X622080Y1003300D01*
X620480Y1022350D01*
X615650Y1039290D01*
X609220Y1051980D01*
X599570Y1062570D01*
X586700Y1066800D01*
G01X137200Y519800D02*
X777200D01*
Y1359800D01*
X137200D01*
Y519800D01*
G01X863600Y-5905500D02*
X609600D01*
Y-5016500D01*
X863600D01*
Y-5905500D01*
G01X1365880Y-5615260D02*
X1373890Y-5603320D01*
X1379220Y-5589400D01*
Y-5573480D01*
X1371220Y-5555570D01*
X1357880Y-5541650D01*
X1341880Y-5531700D01*
X1315210Y-5523740D01*
X1291210Y-5521750D01*
X1267210Y-5525730D01*
X1251200Y-5531700D01*
X1235200Y-5543640D01*
X1224530Y-5557560D01*
X1219200Y-5571490D01*
Y-5585420D01*
X1224530Y-5599340D01*
X1232530Y-5611280D01*
X1243200Y-5621230D01*
G01X1219200Y-5731510D02*
X1221870Y-5745440D01*
X1229870Y-5761350D01*
X1243200Y-5771300D01*
X1261870Y-5775280D01*
X1280540Y-5771300D01*
X1296540Y-5759360D01*
X1304550Y-5741460D01*
Y-5721560D01*
X1309880Y-5709620D01*
X1323210Y-5699670D01*
X1341880Y-5695690D01*
X1360550Y-5701670D01*
X1373890Y-5715590D01*
X1379220Y-5731510D01*
X1373890Y-5747430D01*
X1360550Y-5761350D01*
X1341880Y-5767330D01*
X1323210Y-5763340D01*
X1309880Y-5753400D01*
X1304550Y-5741460D01*
Y-5721560D01*
X1296540Y-5703660D01*
X1280540Y-5691720D01*
X1261870Y-5687740D01*
X1243200Y-5691720D01*
X1229870Y-5701670D01*
X1221870Y-5717580D01*
X1219200Y-5731510D01*
G01X755400Y-5644300D02*
X771400Y-5634350D01*
X782070Y-5622420D01*
X787400Y-5608490D01*
X782070Y-5592570D01*
X771400Y-5580630D01*
X755400Y-5568690D01*
X734060Y-5564720D01*
X627380D01*
G01X755400Y-5488260D02*
X774070Y-5476330D01*
X784730Y-5460410D01*
X787400Y-5442500D01*
X784730Y-5426580D01*
X771400Y-5410660D01*
X755400Y-5400720D01*
X739390Y-5398730D01*
X720730Y-5402710D01*
X707390Y-5416640D01*
X702050Y-5430560D01*
Y-5448470D01*
G01Y-5430560D02*
X694060Y-5418620D01*
X680720Y-5408670D01*
X664720Y-5404700D01*
X648720Y-5408670D01*
X635380Y-5418620D01*
X627380Y-5436530D01*
X630050Y-5454440D01*
X640720Y-5472340D01*
G01X755400Y-5328240D02*
X774070Y-5316310D01*
X784730Y-5300390D01*
X787400Y-5282480D01*
X784730Y-5266560D01*
X771400Y-5250640D01*
X755400Y-5240700D01*
X739390Y-5238710D01*
X720730Y-5242690D01*
X707390Y-5256620D01*
X702050Y-5270540D01*
Y-5288450D01*
G01Y-5270540D02*
X694060Y-5258600D01*
X680720Y-5248650D01*
X664720Y-5244680D01*
X648720Y-5248650D01*
X635380Y-5258600D01*
X627380Y-5276510D01*
X630050Y-5294420D01*
X640720Y-5312320D01*
G01X1986620Y-5524500D02*
Y-5570010D01*
X1989330Y-5579540D01*
X1994750Y-5585880D01*
X2001520Y-5588000D01*
X2008290Y-5585880D01*
X2013710Y-5579540D01*
X2016420Y-5570010D01*
Y-5524500D01*
G01X2065530Y-5588000D02*
Y-5524500D01*
X2040470Y-5570010D01*
X2074330D01*
G01X2377200Y-5764800D02*
Y-5384800D01*
X1727200D01*
Y-5764800D01*
X2377200D01*
G01X2026500Y-4667000D02*
X2036450Y-4683000D01*
X2048380Y-4693670D01*
X2062310Y-4699000D01*
X2078230Y-4693670D01*
X2090170Y-4683000D01*
X2102110Y-4667000D01*
X2106080Y-4645660D01*
Y-4538980D01*
G01X2182540Y-4667000D02*
X2194470Y-4685670D01*
X2210390Y-4696330D01*
X2228300Y-4699000D01*
X2244220Y-4696330D01*
X2260140Y-4683000D01*
X2270080Y-4667000D01*
X2272070Y-4650990D01*
X2268090Y-4632330D01*
X2254160Y-4618990D01*
X2240240Y-4613650D01*
X2222330D01*
G01X2240240D02*
X2252180Y-4605660D01*
X2262130Y-4592320D01*
X2266100Y-4576320D01*
X2262130Y-4560320D01*
X2252180Y-4546980D01*
X2234270Y-4538980D01*
X2216360Y-4541650D01*
X2198460Y-4552320D01*
G01X2410210Y-4699000D02*
Y-4538980D01*
X2336590Y-4653660D01*
X2436070D01*
G01X1739900Y-4749800D02*
Y-4495800D01*
X2628900D01*
Y-4749800D01*
X1739900D01*
G01X1943320Y-3708400D02*
Y-3799420D01*
X1949750Y-3818470D01*
X1962620Y-3831170D01*
X1978700Y-3835400D01*
X1994780Y-3831170D01*
X2007650Y-3818470D01*
X2014080Y-3799420D01*
Y-3708400D01*
G01X2108200Y-3835400D02*
Y-3708400D01*
X2088900Y-3733800D01*
G01Y-3835400D02*
X2127500D01*
G01X2202320Y-3810000D02*
X2211960Y-3824820D01*
X2224830Y-3833280D01*
X2239310Y-3835400D01*
X2252180Y-3833280D01*
X2265040Y-3822700D01*
X2273080Y-3810000D01*
X2274690Y-3797300D01*
X2271480Y-3782490D01*
X2260220Y-3771900D01*
X2248960Y-3767670D01*
X2234480D01*
G01X2248960D02*
X2258610Y-3761320D01*
X2266650Y-3750740D01*
X2269870Y-3738030D01*
X2266650Y-3725330D01*
X2258610Y-3714750D01*
X2244130Y-3708400D01*
X2229660Y-3710520D01*
X2215180Y-3718980D01*
G01X1788200Y-4255400D02*
X2428200D01*
Y-3415400D01*
X1788200D01*
Y-4255400D01*
G01X1943320Y-2108200D02*
Y-2199220D01*
X1949750Y-2218270D01*
X1962620Y-2230970D01*
X1978700Y-2235200D01*
X1994780Y-2230970D01*
X2007650Y-2218270D01*
X2014080Y-2199220D01*
Y-2108200D01*
G01X2108200Y-2235200D02*
Y-2108200D01*
X2088900Y-2133600D01*
G01Y-2235200D02*
X2127500D01*
G01X2257000D02*
Y-2108200D01*
X2197490Y-2199220D01*
X2277910D01*
G01X1788200Y-2655200D02*
X2428200D01*
Y-1815200D01*
X1788200D01*
Y-2655200D01*
G01X1943320Y-508000D02*
Y-599020D01*
X1949750Y-618070D01*
X1962620Y-630770D01*
X1978700Y-635000D01*
X1994780Y-630770D01*
X2007650Y-618070D01*
X2014080Y-599020D01*
Y-508000D01*
G01X2108200Y-635000D02*
Y-508000D01*
X2088900Y-533400D01*
G01Y-635000D02*
X2127500D01*
G01X2202320Y-615950D02*
X2211960Y-626540D01*
X2223220Y-632880D01*
X2237700Y-635000D01*
X2252180Y-630770D01*
X2263430Y-622300D01*
X2271480Y-607490D01*
X2273080Y-590550D01*
X2269870Y-573620D01*
X2261820Y-563030D01*
X2250570Y-554570D01*
X2239310Y-552450D01*
X2228050Y-554570D01*
X2213580Y-563030D01*
X2218400Y-508000D01*
X2261820D01*
G01X1788200Y-1055000D02*
X2428200D01*
Y-215000D01*
X1788200D01*
Y-1055000D01*
G01X1943320Y1066800D02*
Y975780D01*
X1949750Y956730D01*
X1962620Y944030D01*
X1978700Y939800D01*
X1994780Y944030D01*
X2007650Y956730D01*
X2014080Y975780D01*
Y1066800D01*
G01X2108200Y939800D02*
Y1066800D01*
X2088900Y1041400D01*
G01Y939800D02*
X2127500D01*
G01X2207140Y992710D02*
X2218400Y1007530D01*
X2228050Y1016000D01*
X2240920Y1020230D01*
X2252180Y1016000D01*
X2260220Y1007530D01*
X2266650Y994830D01*
X2268260Y980020D01*
X2266650Y967310D01*
X2260220Y954610D01*
X2250570Y944030D01*
X2239310Y939800D01*
X2226440Y944030D01*
X2215180Y956730D01*
X2208750Y975780D01*
X2207140Y996950D01*
X2210360Y1024460D01*
X2215180Y1039290D01*
X2223220Y1054100D01*
X2234480Y1064680D01*
X2245740Y1066800D01*
X2257000Y1062570D01*
X2265040Y1051980D01*
G01X1788200Y519800D02*
X2428200D01*
Y1359800D01*
X1788200D01*
Y519800D01*
G01X2839080Y-6123260D02*
X2847090Y-6111320D01*
X2852420Y-6097400D01*
Y-6081480D01*
X2844420Y-6063570D01*
X2831080Y-6049650D01*
X2815080Y-6039700D01*
X2788410Y-6031740D01*
X2764410Y-6029750D01*
X2740410Y-6033730D01*
X2724400Y-6039700D01*
X2708400Y-6051640D01*
X2697730Y-6065560D01*
X2692400Y-6079490D01*
Y-6093420D01*
X2697730Y-6107340D01*
X2705730Y-6119280D01*
X2716400Y-6129230D01*
G01X2692400Y-6235530D02*
X2727070Y-6239510D01*
X2756400Y-6245480D01*
X2783080Y-6253440D01*
X2812410Y-6263390D01*
X2852420Y-6279300D01*
Y-6199720D01*
G01X2838200Y-5517300D02*
X2854200Y-5507350D01*
X2864870Y-5495420D01*
X2870200Y-5481490D01*
X2864870Y-5465570D01*
X2854200Y-5453630D01*
X2838200Y-5441690D01*
X2816860Y-5437720D01*
X2710180D01*
G01X2838200Y-5361260D02*
X2856870Y-5349330D01*
X2867530Y-5333410D01*
X2870200Y-5315500D01*
X2867530Y-5299580D01*
X2854200Y-5283660D01*
X2838200Y-5273720D01*
X2822190Y-5271730D01*
X2803530Y-5275710D01*
X2790190Y-5289640D01*
X2784850Y-5303560D01*
Y-5321470D01*
G01Y-5303560D02*
X2776860Y-5291620D01*
X2763520Y-5281670D01*
X2747520Y-5277700D01*
X2731520Y-5281670D01*
X2718180Y-5291620D01*
X2710180Y-5309530D01*
X2712850Y-5327440D01*
X2723520Y-5345340D01*
G01X2736850Y-5195270D02*
X2720850Y-5183340D01*
X2712850Y-5169410D01*
X2710180Y-5153490D01*
X2715510Y-5133590D01*
X2728850Y-5119670D01*
X2744850Y-5115690D01*
X2760860Y-5117680D01*
X2774190Y-5125640D01*
X2800860Y-5165430D01*
X2819530Y-5183340D01*
X2846200Y-5195270D01*
X2870200Y-5199250D01*
Y-5115690D01*
G01X2921000Y-5753100D02*
X2667000D01*
Y-4864100D01*
X2921000D01*
Y-5753100D01*
G01X3429000Y-6578600D02*
Y-4800600D01*
X4699000D01*
Y-6578600D01*
X3429000D01*
G01X3439200Y-4230000D02*
X4079200D01*
Y-3390000D01*
X3439200D01*
Y-4230000D01*
G01X3594320Y-2133600D02*
Y-2224620D01*
X3600750Y-2243670D01*
X3613620Y-2256370D01*
X3629700Y-2260600D01*
X3645780Y-2256370D01*
X3658650Y-2243670D01*
X3665080Y-2224620D01*
Y-2133600D01*
G01X3759200Y-2260600D02*
Y-2133600D01*
X3739900Y-2159000D01*
G01Y-2260600D02*
X3778500D01*
G01X3888700Y-2133600D02*
X3875830Y-2137830D01*
X3866180Y-2148420D01*
X3859750Y-2161110D01*
X3854920Y-2178050D01*
X3853320Y-2197100D01*
X3854920Y-2216150D01*
X3859750Y-2233090D01*
X3866180Y-2245790D01*
X3875830Y-2256370D01*
X3888700Y-2260600D01*
X3901570Y-2256370D01*
X3911220Y-2245790D01*
X3917650Y-2233090D01*
X3922480Y-2216150D01*
X3924080Y-2197100D01*
X3922480Y-2178050D01*
X3917650Y-2161110D01*
X3911220Y-2148420D01*
X3901570Y-2137830D01*
X3888700Y-2133600D01*
G01X3439200Y-2680600D02*
X4079200D01*
Y-1840600D01*
X3439200D01*
Y-2680600D01*
G01X3594320Y-508000D02*
Y-599020D01*
X3600750Y-618070D01*
X3613620Y-630770D01*
X3629700Y-635000D01*
X3645780Y-630770D01*
X3658650Y-618070D01*
X3665080Y-599020D01*
Y-508000D01*
G01X3759200Y-635000D02*
Y-508000D01*
X3739900Y-533400D01*
G01Y-635000D02*
X3778500D01*
G01X3888700D02*
Y-508000D01*
X3869400Y-533400D01*
G01Y-635000D02*
X3908000D01*
G01X3439200Y-1055000D02*
X4079200D01*
Y-215000D01*
X3439200D01*
Y-1055000D01*
G01X3594320Y1066800D02*
Y975780D01*
X3600750Y956730D01*
X3613620Y944030D01*
X3629700Y939800D01*
X3645780Y944030D01*
X3658650Y956730D01*
X3665080Y975780D01*
Y1066800D01*
G01X3759200Y939800D02*
Y1066800D01*
X3739900Y1041400D01*
G01Y939800D02*
X3778500D01*
G01X3858140Y1045630D02*
X3867790Y1058330D01*
X3879050Y1064680D01*
X3891920Y1066800D01*
X3908000Y1062570D01*
X3919260Y1051980D01*
X3922480Y1039290D01*
X3920870Y1026580D01*
X3914430Y1016000D01*
X3882270Y994830D01*
X3867790Y980020D01*
X3858140Y958850D01*
X3854920Y939800D01*
X3922480D01*
G01X3439200Y519800D02*
X4079200D01*
Y1359800D01*
X3439200D01*
Y519800D01*
G01X3952920Y-5605780D02*
Y-5720460D01*
X3960870Y-5744470D01*
X3976790Y-5760470D01*
X3996690Y-5765800D01*
X4016590Y-5760470D01*
X4032510Y-5744470D01*
X4040460Y-5720460D01*
Y-5605780D01*
G01X4112940Y-5741800D02*
X4124870Y-5755130D01*
X4138800Y-5763130D01*
X4156710Y-5765800D01*
X4174620Y-5760470D01*
X4188540Y-5749800D01*
X4198490Y-5731130D01*
X4200480Y-5709800D01*
X4196500Y-5688460D01*
X4186550Y-5675120D01*
X4172630Y-5664460D01*
X4158700Y-5661790D01*
X4144770Y-5664460D01*
X4126870Y-5675120D01*
X4132830Y-5605780D01*
X4186550D01*
G01X3659070Y-3683000D02*
Y-3774020D01*
X3665500Y-3793070D01*
X3678370Y-3805770D01*
X3694450Y-3810000D01*
X3710530Y-3805770D01*
X3723400Y-3793070D01*
X3729830Y-3774020D01*
Y-3683000D01*
G01X3796610Y-3795190D02*
X3807870Y-3805770D01*
X3820730Y-3810000D01*
X3833600Y-3805770D01*
X3844860Y-3793070D01*
X3852900Y-3774020D01*
X3856120Y-3754970D01*
Y-3731680D01*
X3852900Y-3712630D01*
X3844860Y-3695700D01*
X3835210Y-3687230D01*
X3823950Y-3683000D01*
X3811080Y-3687230D01*
X3801430Y-3695700D01*
X3795000Y-3708400D01*
X3791780Y-3725340D01*
X3795000Y-3740150D01*
X3803040Y-3754970D01*
X3812690Y-3763440D01*
X3823950Y-3765550D01*
X3836820Y-3761320D01*
X3846470Y-3750730D01*
X3856120Y-3731680D01*
M02*
