G04 ================== begin FILE IDENTIFICATION RECORD ==================*
G04 Layout Name:  SMA_fabB_v1_040718.brd*
G04 Film Name:    SMA_SOLDERMASK_TOP_fabB_040418*
G04 File Format:  Gerber RS274X*
G04 File Origin:  Cadence Allegro 17.2-P019*
G04 Origin Date:  Sat Apr 07 20:27:05 2018*
G04 *
G04 Layer:  PIN/SOLDERMASK_TOP*
G04 Layer:  VIA CLASS/SOLDERMASK_TOP*
G04 *
G04 Offset:    (0.0000 0.0000)*
G04 Mirror:    No*
G04 Mode:      Positive*
G04 Rotation:  0*
G04 FullContactRelief:  No*
G04 UndefLineWidth:     0.2540*
G04 ================== end FILE IDENTIFICATION RECORD ====================*
%FSLAX25Y25*MOMM*%
%IR0*IPPOS*OFA0.00000B0.00000*MIA0B0*SFA1.00000B1.00000*%
%ADD13R,1.4X.41*%
%ADD15C,.5*%
%ADD14C,.8*%
%ADD18R,.95X2.15*%
%ADD17R,2.X1.*%
%ADD19R,3.25X2.15*%
%ADD11R,1.524X1.524*%
%ADD12R,1.524X1.524*%
%ADD20R,2.54X5.334*%
%ADD16C,1.905*%
%ADD10C,3.683*%
%LPD*%
G75*
G54D10*
X-4470400Y-6273800D03*
X-4368800Y1701800D03*
X4445000Y-1422400D03*
G54D20*
X3683000Y-6070600D03*
Y-5308600D03*
X4445000Y-6070600D03*
Y-5308600D03*
G54D11*
X-4572000Y-5151400D03*
X-4241800D03*
X-4572000Y-4851400D03*
X-4241800D03*
X-4267200Y-2743200D03*
Y-2443200D03*
X-3276600Y-1498600D03*
X-3556000D03*
X-3276600Y-1198600D03*
X-3556000D03*
X-939800Y-6294400D03*
Y-5994400D03*
X254000Y-6294400D03*
Y-5994400D03*
X1295400Y-5761000D03*
Y-5461000D03*
X2768600Y-6294400D03*
Y-5994400D03*
G54D12*
X-4237000Y-4470400D03*
X-3937000D03*
X-3957600Y-3810000D03*
X-3967200Y-3505200D03*
X-4267200D03*
X-4567200Y-4114800D03*
X-4267200D03*
X-3657600Y-3810000D03*
G54D13*
X-3937000Y-3149600D03*
Y-3022600D03*
Y-2895600D03*
Y-2768600D03*
Y-2641600D03*
Y-2514600D03*
Y-2387600D03*
Y-2260600D03*
Y-2133600D03*
Y-2006600D03*
Y-1879600D03*
Y-1752600D03*
X-3047000Y-2895600D03*
Y-3022600D03*
Y-3149600D03*
Y-2133600D03*
Y-2260600D03*
Y-2387600D03*
Y-2514600D03*
Y-2641600D03*
Y-2768600D03*
Y-1752600D03*
Y-1879600D03*
Y-2006600D03*
G54D14*
X-4140200Y-3149600D03*
Y-2006600D03*
X-4110000Y-1198600D03*
X-3657600Y-5867400D03*
X-3708400Y-4470400D03*
X-3733800Y-4114800D03*
X-2895600Y-6375400D03*
X-2844800Y-2133600D03*
X-2819400Y-1752600D03*
X-2048000Y-6384800D03*
X-1828800Y-5867400D03*
X-1498600Y-3976400D03*
Y-2452400D03*
X-1473200Y-826800D03*
X-1422400Y755100D03*
X-355600Y-6375400D03*
X-787400Y-4521200D03*
X-812800Y-3048000D03*
X-838200Y-1346200D03*
X-812800Y254000D03*
X609600Y-6375400D03*
X304800Y-5511800D03*
X101600D03*
X177800Y-3976400D03*
X279400Y-2489200D03*
Y-819700D03*
X304800Y755100D03*
X660400Y-4546600D03*
X990600Y-3073400D03*
Y-1346200D03*
X965200Y228600D03*
X1905000Y-4027200D03*
X1955800Y-2419900D03*
X2006600Y-838200D03*
X1955800Y755100D03*
X2616200Y-5765800D03*
X2641600Y-3048000D03*
X2565400Y-1346200D03*
X2590800Y228600D03*
X2971800Y-5765800D03*
X3632200Y-4013200D03*
X3606800Y-2445300D03*
Y-819700D03*
Y762000D03*
X3759200Y-4521200D03*
X4064000Y-3048000D03*
X4013200Y-1346200D03*
Y254000D03*
X4648200Y-3810000D03*
G54D15*
X-4343400Y-1574800D03*
X-4191000Y-812800D03*
X-4171800Y-222400D03*
X-4169000Y377600D03*
X-3759200Y-3022600D03*
Y-2895600D03*
Y-2387600D03*
Y-2133600D03*
Y-2260600D03*
Y-2768600D03*
Y-2514600D03*
Y-2641600D03*
X-3712970Y-1574800D03*
X-3581400Y-812800D03*
X-3536800Y-222400D03*
X-3534000Y377600D03*
X-2844800Y-2895600D03*
Y-3149600D03*
Y-3022600D03*
Y-2260600D03*
Y-2387600D03*
Y-2641600D03*
Y-2768600D03*
Y-2514600D03*
X-3112970Y-1574800D03*
X-2514600D03*
X-2971800Y-812800D03*
X-2952600Y-222400D03*
X-2949800Y377600D03*
X-1955800Y-3556000D03*
X-2336800Y-812800D03*
X-2317600Y-222400D03*
X-2413000Y431800D03*
X-1270000Y-2032000D03*
Y-381000D03*
X-1295400Y1193800D03*
X-457200Y-3810000D03*
X-482600Y-2286000D03*
Y-635000D03*
X-457200Y939800D03*
X330200Y-3556000D03*
X406400Y-2032000D03*
Y-381000D03*
X457200Y1193800D03*
X1193800Y-3810000D03*
X1244600Y-2286000D03*
X1219200Y-635000D03*
X1270000Y939800D03*
X2082800Y-3581400D03*
X2108200Y-1981200D03*
Y-381000D03*
Y1193800D03*
X2870200Y-635000D03*
X2895600Y-3835400D03*
Y-2235200D03*
X2921000Y939800D03*
X3759200Y-3556000D03*
X3784600Y-2006600D03*
Y-381000D03*
X3771900Y1206500D03*
X4648200Y-2260600D03*
Y-635000D03*
X4622800Y939800D03*
G54D16*
X-3378200Y1574800D03*
Y1828800D03*
X-2438400Y-5308600D03*
X-2692400D03*
X-2438400Y-5054600D03*
X-2692400D03*
X-2438400Y-4800600D03*
X-2692400D03*
X-2438400Y-4546600D03*
Y-4292600D03*
X-2692400Y-4546600D03*
Y-4292600D03*
X-2438400Y-4038600D03*
Y-3784600D03*
Y-3530600D03*
X-2692400Y-4038600D03*
Y-3784600D03*
Y-3530600D03*
X-3124200Y1574800D03*
X-2870200D03*
X-2616200D03*
X-3124200Y1828800D03*
X-2870200D03*
X-2616200D03*
X-2362200Y1574800D03*
Y1828800D03*
X736600Y-5207000D03*
Y-5461000D03*
Y-5715000D03*
X2184400Y-4622800D03*
X1930400D03*
X2794000Y-5054600D03*
Y-5308600D03*
Y-5562600D03*
X2438400Y-4622800D03*
G54D17*
X-1715000Y-4064000D03*
Y-3810000D03*
Y-3556000D03*
Y-2540000D03*
Y-2286000D03*
Y-2032000D03*
Y-889000D03*
Y-635000D03*
Y-381000D03*
Y685800D03*
Y939800D03*
Y1193800D03*
X-825000Y-3556000D03*
Y-3810000D03*
Y-4064000D03*
Y-2032000D03*
Y-2286000D03*
Y-2540000D03*
Y-635000D03*
Y-889000D03*
Y-381000D03*
Y939800D03*
Y685800D03*
Y1193800D03*
X-38600Y-4064000D03*
Y-3810000D03*
Y-3556000D03*
Y-2540000D03*
Y-2286000D03*
Y-2032000D03*
X-13200Y-889000D03*
Y-635000D03*
Y-381000D03*
X12200Y685800D03*
Y939800D03*
Y1193800D03*
X851400Y-3556000D03*
Y-3810000D03*
Y-4064000D03*
Y-2032000D03*
Y-2286000D03*
Y-2540000D03*
X876800Y-635000D03*
Y-889000D03*
Y-381000D03*
X902200Y939800D03*
Y685800D03*
Y1193800D03*
X1663200Y-4089400D03*
Y-3835400D03*
Y-3581400D03*
Y-2489200D03*
Y-2235200D03*
Y-1981200D03*
Y-889000D03*
Y-635000D03*
Y-381000D03*
Y685800D03*
Y939800D03*
Y1193800D03*
X2553200Y-3581400D03*
Y-3835400D03*
Y-4089400D03*
Y-2235200D03*
Y-2489200D03*
Y-1981200D03*
Y-635000D03*
Y-889000D03*
Y-381000D03*
Y939800D03*
Y685800D03*
Y1193800D03*
X3314200Y-4064000D03*
Y-3810000D03*
Y-3556000D03*
Y-2514600D03*
Y-2260600D03*
Y-2006600D03*
Y-889000D03*
Y-635000D03*
Y-381000D03*
Y685800D03*
Y939800D03*
Y1193800D03*
X4204200Y-3556000D03*
Y-3810000D03*
Y-4064000D03*
Y-2006600D03*
Y-2260600D03*
Y-2514600D03*
Y-635000D03*
Y-889000D03*
Y-381000D03*
Y939800D03*
Y685800D03*
Y1193800D03*
G54D18*
X-354200Y-5867400D03*
X-584200D03*
X-124200D03*
X2058800D03*
X1828800D03*
X2288800D03*
G54D19*
X-354200Y-5287400D03*
X2058800D03*
M02*
