G04 ================== begin FILE IDENTIFICATION RECORD ==================*
G04 Layout Name:  SMA_fabB_v1_040418.brd*
G04 Film Name:    SMA_GND_fabB_040418*
G04 File Format:  Gerber RS274X*
G04 File Origin:  Cadence Allegro 17.2-P019*
G04 Origin Date:  Wed Apr 04 13:45:06 2018*
G04 *
G04 Layer:  VIA CLASS/GND*
G04 Layer:  PIN/GND*
G04 Layer:  ETCH/GND*
G04 *
G04 Offset:    (0.0000 0.0000)*
G04 Mirror:    No*
G04 Mode:      Positive*
G04 Rotation:  0*
G04 FullContactRelief:  No*
G04 UndefLineWidth:     0.2540*
G04 ================== end FILE IDENTIFICATION RECORD ====================*
%FSLAX25Y25*MOMM*%
%IR0*IPPOS*OFA0.00000B0.00000*MIA0B0*SFA1.00000B1.00000*%
%ADD12C,.4*%
%ADD11C,.5*%
%ADD10C,.635*%
%ADD14R,3.8X1.51*%
%ADD13R,1.51X3.8*%
%ADD16C,1.53*%
%ADD17C,2.85*%
%ADD15C,1.397*%
%ADD18C,.254*%
%ADD21C,.9084*%
%ADD26C,3.1044*%
%ADD20C,1.0084*%
%ADD25C,2.0384*%
%ADD23C,1.6514*%
%ADD22C,1.9054*%
%ADD19R,5.0804X5.0804*%
%ADD27C,3.3584*%
%ADD24C,1.7844*%
G75*
%LPD*%
G75*
G36*
G01X5097790Y-6791240D02*
X-4902190D01*
Y2260590D01*
X5097790D01*
Y-6791240D01*
G37*
%LPC*%
G75*
G36*
G01X-3860320Y-5623150D02*
Y-5472150D01*
G02X-3847600Y-5459430I12720J0D01*
G01X-3467600D01*
G02X-3454880Y-5472150I0J-12720D01*
G01Y-5623150D01*
G02X-3467600Y-5635870I-12720J0D01*
G01X-3847600D01*
G02X-3860320Y-5623150I0J12720D01*
G37*
G36*
G01Y-6273150D02*
Y-6122150D01*
G02X-3847600Y-6109430I12720J0D01*
G01X-3467600D01*
G02X-3454880Y-6122150I0J-12720D01*
G01Y-6273150D01*
G02X-3467600Y-6285870I-12720J0D01*
G01X-3847600D01*
G02X-3860320Y-6273150I0J12720D01*
G37*
G36*
G01X-3293520Y-6062650D02*
Y-5682650D01*
G02X-3268100Y-5657230I25420J0D01*
G01X-3117100D01*
G02X-3091680Y-5682650I0J-25420D01*
G01Y-6062650D01*
G02X-3117100Y-6088070I-25420J0D01*
G01X-3268100D01*
G02X-3293520Y-6062650I0J25420D01*
G37*
G54D21*
X-3759200Y-3022600D03*
Y-2895600D03*
Y-2387600D03*
Y-2133600D03*
Y-2260600D03*
Y-2768600D03*
Y-2514600D03*
Y-2641600D03*
X-2844800Y-2895600D03*
Y-3149600D03*
Y-3022600D03*
Y-2260600D03*
Y-2387600D03*
Y-2641600D03*
Y-2768600D03*
Y-2514600D03*
X-1955800Y-3556000D03*
X-1270000Y-2032000D03*
Y-381000D03*
X-1295400Y1193800D03*
X-457200Y-3810000D03*
X-482600Y-2286000D03*
Y-635000D03*
X-457200Y939800D03*
X330200Y-3556000D03*
X406400Y-2032000D03*
Y-381000D03*
X457200Y1193800D03*
X1193800Y-3810000D03*
X1244600Y-2286000D03*
X1219200Y-635000D03*
X1270000Y939800D03*
X2082800Y-3581400D03*
X2108200Y-1981200D03*
Y-381000D03*
Y1193800D03*
X2870200Y-635000D03*
X2895600Y-3835400D03*
Y-2235200D03*
X2921000Y939800D03*
X3759200Y-3556000D03*
X3784600Y-2006600D03*
Y-381000D03*
X3771900Y1206500D03*
X4648200Y-2260600D03*
Y-635000D03*
X4622800Y939800D03*
G54D26*
X-1473200Y-6324800D03*
G54D20*
X-3708400Y-4470400D03*
X-3733800Y-4114800D03*
X-2819400Y-1752600D03*
X-1828800Y-5867400D03*
X304800Y-5511800D03*
X101600D03*
X2616200Y-5765800D03*
X2971800D03*
X4648200Y-3810000D03*
G54D25*
X-2489200Y-5689600D03*
G54D23*
X-3378200Y1574800D03*
X-2362200D03*
G54D22*
X-3378200Y1828800D03*
X-2692400Y-5054600D03*
X-2438400D03*
X-2692400Y-5308600D03*
X-2438400D03*
X-2692400Y-4292600D03*
Y-4546600D03*
X-2438400Y-4292600D03*
Y-4546600D03*
X-2692400Y-4800600D03*
X-2438400D03*
X-2692400Y-3530600D03*
Y-3784600D03*
Y-4038600D03*
X-2438400Y-3530600D03*
Y-3784600D03*
Y-4038600D03*
X-2616200Y1828800D03*
X-2870200D03*
X-3124200D03*
X-2616200Y1574800D03*
X-2870200D03*
X-3124200D03*
X-2362200Y1828800D03*
X736600Y-5715000D03*
Y-5461000D03*
Y-5207000D03*
X1930400Y-4622800D03*
X2184400D03*
X2794000Y-5562600D03*
Y-5308600D03*
Y-5054600D03*
X2438400Y-4622800D03*
G54D19*
X-4470400Y-6273800D03*
X-4368800Y1701800D03*
X4445000Y-1422400D03*
G54D27*
X-1473200Y-5854800D03*
Y-5384800D03*
G54D24*
X-2489200Y-6689600D03*
%LPD*%
G75*
G54D10*
X-4470400Y-6273800D03*
X-4368800Y1701800D03*
X4445000Y-1422400D03*
G54D11*
X-4140200Y-3149600D03*
Y-2006600D03*
X-4110000Y-1198600D03*
X-3657600Y-5867400D03*
X-3708400Y-4470400D03*
X-3733800Y-4114800D03*
X-2895600Y-6375400D03*
X-2844800Y-2133600D03*
X-2819400Y-1752600D03*
X-2048000Y-6384800D03*
X-1828800Y-5867400D03*
X-1498600Y-3976400D03*
Y-2452400D03*
X-1473200Y-826800D03*
X-1422400Y755100D03*
X-355600Y-6375400D03*
X-787400Y-4521200D03*
X-812800Y-3048000D03*
X-838200Y-1346200D03*
X-812800Y254000D03*
X609600Y-6375400D03*
X304800Y-5511800D03*
X101600D03*
X177800Y-3976400D03*
X279400Y-2489200D03*
Y-819700D03*
X304800Y755100D03*
X660400Y-4546600D03*
X990600Y-3073400D03*
Y-1346200D03*
X965200Y228600D03*
X1905000Y-4027200D03*
X1955800Y-2419900D03*
X2006600Y-838200D03*
X1955800Y755100D03*
X2616200Y-5765800D03*
X2641600Y-3048000D03*
X2565400Y-1346200D03*
X2590800Y228600D03*
X2971800Y-5765800D03*
X3632200Y-4013200D03*
X3606800Y-2445300D03*
Y-819700D03*
Y762000D03*
X3759200Y-4521200D03*
X4064000Y-3048000D03*
X4013200Y-1346200D03*
Y254000D03*
X4648200Y-3810000D03*
G54D12*
X-4343400Y-1574800D03*
X-4191000Y-812800D03*
X-4171800Y-222400D03*
X-4169000Y377600D03*
X-3759200Y-3022600D03*
Y-2895600D03*
Y-2387600D03*
Y-2133600D03*
Y-2260600D03*
Y-2768600D03*
Y-2514600D03*
Y-2641600D03*
X-3712970Y-1574800D03*
X-3581400Y-812800D03*
X-3536800Y-222400D03*
X-3534000Y377600D03*
X-2844800Y-2895600D03*
Y-3149600D03*
Y-3022600D03*
Y-2260600D03*
Y-2387600D03*
Y-2641600D03*
Y-2768600D03*
Y-2514600D03*
X-3112970Y-1574800D03*
X-2514600D03*
X-2971800Y-812800D03*
X-2952600Y-222400D03*
X-2949800Y377600D03*
X-1955800Y-3556000D03*
X-2336800Y-812800D03*
X-2317600Y-222400D03*
X-2413000Y431800D03*
X-1270000Y-2032000D03*
Y-381000D03*
X-1295400Y1193800D03*
X-457200Y-3810000D03*
X-482600Y-2286000D03*
Y-635000D03*
X-457200Y939800D03*
X330200Y-3556000D03*
X406400Y-2032000D03*
Y-381000D03*
X457200Y1193800D03*
X1193800Y-3810000D03*
X1244600Y-2286000D03*
X1219200Y-635000D03*
X1270000Y939800D03*
X2082800Y-3581400D03*
X2108200Y-1981200D03*
Y-381000D03*
Y1193800D03*
X2870200Y-635000D03*
X2895600Y-3835400D03*
Y-2235200D03*
X2921000Y939800D03*
X3759200Y-3556000D03*
X3784600Y-2006600D03*
Y-381000D03*
X3771900Y1206500D03*
X4648200Y-2260600D03*
Y-635000D03*
X4622800Y939800D03*
G54D13*
X-3192600Y-5872650D03*
G54D14*
X-3657600Y-6197650D03*
Y-5547650D03*
G54D15*
X-3378200Y1574800D03*
Y1828800D03*
X-2438400Y-5308600D03*
X-2692400D03*
X-2438400Y-5054600D03*
X-2692400D03*
X-2438400Y-4800600D03*
X-2692400D03*
X-2438400Y-4546600D03*
Y-4292600D03*
X-2692400Y-4546600D03*
Y-4292600D03*
X-2438400Y-4038600D03*
Y-3784600D03*
Y-3530600D03*
X-2692400Y-4038600D03*
Y-3784600D03*
Y-3530600D03*
X-3124200Y1574800D03*
X-2870200D03*
X-2616200D03*
X-3124200Y1828800D03*
X-2870200D03*
X-2616200D03*
X-2362200Y1574800D03*
Y1828800D03*
X736600Y-5207000D03*
Y-5461000D03*
Y-5715000D03*
X2184400Y-4622800D03*
X1930400D03*
X2794000Y-5054600D03*
Y-5308600D03*
Y-5562600D03*
X2438400Y-4622800D03*
G54D16*
X-2489200Y-6689600D03*
Y-5689600D03*
G54D17*
X-1473200Y-6324800D03*
Y-5854800D03*
Y-5384800D03*
G54D18*
G01X-3657600Y-6290950D02*
Y-6197650D01*
G01D02*
Y-6104350D01*
G01X-3865400Y-6197650D02*
X-3657600D01*
G01D02*
X-3449800D01*
G01X-3657600Y-5640950D02*
Y-5547650D01*
G01D02*
Y-5454350D01*
G01X-3865400Y-5547650D02*
X-3657600D01*
G01D02*
X-3449800D01*
G01X-3378200Y1487150D02*
Y1574800D01*
G01D02*
Y1662450D01*
G01X-3465850Y1574800D02*
X-3378200D01*
G01D02*
X-3290550D01*
G01X-2489200Y-6783900D02*
Y-6689600D01*
G01D02*
Y-6595300D01*
G01X-2583500Y-6689600D02*
X-2489200D01*
G01D02*
X-2394900D01*
G01X-2362200Y1487150D02*
Y1574800D01*
G01D02*
Y1662450D01*
G01X-2449850Y1574800D02*
X-2362200D01*
G01D02*
X-2274550D01*
G01X-1473200Y-6485100D02*
Y-6324800D01*
G01D02*
Y-6164500D01*
G01X-1633500Y-6324800D02*
X-1473200D01*
G01D02*
X-1312900D01*
M02*
