G04 ================== begin FILE IDENTIFICATION RECORD ==================*
G04 Layout Name:  SMA_fabB_v1_040718.brd*
G04 Film Name:    SMA_ASSM_BOT_fabB_040418*
G04 File Format:  Gerber RS274X*
G04 File Origin:  Cadence Allegro 17.2-P019*
G04 Origin Date:  Sat Apr 07 20:27:05 2018*
G04 *
G04 Layer:  PACKAGE GEOMETRY/ASSEMBLY_BOTTOM*
G04 Layer:  REF DES/ASSEMBLY_BOTTOM*
G04 Layer:  PACKAGE GEOMETRY/PIN_NUMBER*
G04 Layer:  PACKAGE GEOMETRY/BODY_CENTER*
G04 Layer:  BOARD GEOMETRY/CUTOUT*
G04 *
G04 Offset:    (0.0000 0.0000)*
G04 Mirror:    No*
G04 Mode:      Positive*
G04 Rotation:  0*
G04 FullContactRelief:  No*
G04 UndefLineWidth:     0.2540*
G04 ================== end FILE IDENTIFICATION RECORD ====================*
%FSLAX25Y25*MOMM*%
%IR0*IPPOS*OFA0.00000B0.00000*MIA0B0*SFA1.00000B1.00000*%
%ADD10C,.254*%
G75*
%LPD*%
G75*
G36*
G01X-4019400Y-1473200D02*
Y-1117600D01*
X-3663800D01*
Y-1473200D01*
X-4019400D01*
G37*
G36*
G01X-4619400D02*
Y-1117600D01*
X-4263800D01*
Y-1473200D01*
X-4619400D01*
G37*
G36*
G01X-4019400Y-873200D02*
Y-517600D01*
X-3663800D01*
Y-873200D01*
X-4019400D01*
G37*
G36*
G01X-4619400D02*
Y-517600D01*
X-4263800D01*
Y-873200D01*
X-4619400D01*
G37*
G36*
G01X-4019400Y-273200D02*
Y82400D01*
X-3663800D01*
Y-273200D01*
X-4019400D01*
G37*
G36*
G01X-4619400D02*
Y82400D01*
X-4263800D01*
Y-273200D01*
X-4619400D01*
G37*
G36*
G01X-4019400Y326800D02*
Y682400D01*
X-3663800D01*
Y326800D01*
X-4019400D01*
G37*
G36*
G01X-4619400D02*
Y682400D01*
X-4263800D01*
Y326800D01*
X-4619400D01*
G37*
G36*
G01X-1627200Y-4616400D02*
X-1827200D01*
Y-4116400D01*
X-1627200D01*
Y-4616400D01*
G37*
G36*
G01X-1822400Y-3910000D02*
Y-3710000D01*
X-1322400D01*
Y-3910000D01*
X-1822400D01*
G37*
G36*
G01X-1627200Y-3143200D02*
X-1827200D01*
Y-2643200D01*
X-1627200D01*
Y-3143200D01*
G37*
G36*
G01X-1822400Y-2386000D02*
Y-2186000D01*
X-1322400D01*
Y-2386000D01*
X-1822400D01*
G37*
G36*
G01X-1652600Y-1441400D02*
X-1852600D01*
Y-941400D01*
X-1652600D01*
Y-1441400D01*
G37*
G36*
G01X-1847800Y-735000D02*
Y-535000D01*
X-1347800D01*
Y-735000D01*
X-1847800D01*
G37*
G36*
G01X-1728800Y158800D02*
X-1928800D01*
Y658800D01*
X-1728800D01*
Y158800D01*
G37*
G36*
G01X-1924000Y839800D02*
Y1039800D01*
X-1424000D01*
Y839800D01*
X-1924000D01*
G37*
G36*
G01X-1297000Y-4616400D02*
X-1497000D01*
Y-4116400D01*
X-1297000D01*
Y-4616400D01*
G37*
G36*
G01X-1187400Y-3910000D02*
Y-3710000D01*
X-687400D01*
Y-3910000D01*
X-1187400D01*
G37*
G36*
G01X-1297000Y-3143200D02*
X-1497000D01*
Y-2643200D01*
X-1297000D01*
Y-3143200D01*
G37*
G36*
G01X-1187400Y-2386000D02*
Y-2186000D01*
X-687400D01*
Y-2386000D01*
X-1187400D01*
G37*
G36*
G01X-1347800Y-1441400D02*
X-1547800D01*
Y-941400D01*
X-1347800D01*
Y-1441400D01*
G37*
G36*
G01X-1187400Y-735000D02*
Y-535000D01*
X-687400D01*
Y-735000D01*
X-1187400D01*
G37*
G36*
G01X-1373200Y158800D02*
X-1573200D01*
Y658800D01*
X-1373200D01*
Y158800D01*
G37*
G36*
G01X-1187400Y839800D02*
Y1039800D01*
X-687400D01*
Y839800D01*
X-1187400D01*
G37*
G36*
G01X-1600Y-3143200D02*
X-201600D01*
Y-2643200D01*
X-1600D01*
Y-3143200D01*
G37*
G36*
G01X-196800Y-2386000D02*
Y-2186000D01*
X303200D01*
Y-2386000D01*
X-196800D01*
G37*
G36*
G01X-1600Y-1441400D02*
X-201600D01*
Y-941400D01*
X-1600D01*
Y-1441400D01*
G37*
G36*
G01X-196800Y-735000D02*
Y-535000D01*
X303200D01*
Y-735000D01*
X-196800D01*
G37*
G36*
G01X23800Y-4616400D02*
X-176200D01*
Y-4116400D01*
X23800D01*
Y-4616400D01*
G37*
G36*
G01X354000D02*
X154000D01*
Y-4116400D01*
X354000D01*
Y-4616400D01*
G37*
G36*
G01X-171400Y-3910000D02*
Y-3710000D01*
X328600D01*
Y-3910000D01*
X-171400D01*
G37*
G36*
G01X463600D02*
Y-3710000D01*
X963600D01*
Y-3910000D01*
X463600D01*
G37*
G36*
G01X303200Y-3143200D02*
X103200D01*
Y-2643200D01*
X303200D01*
Y-3143200D01*
G37*
G36*
G01X489000Y-2386000D02*
Y-2186000D01*
X989000D01*
Y-2386000D01*
X489000D01*
G37*
G36*
G01X328600Y-1441400D02*
X128600D01*
Y-941400D01*
X328600D01*
Y-1441400D01*
G37*
G36*
G01X539800Y-735000D02*
Y-535000D01*
X1039800D01*
Y-735000D01*
X539800D01*
G37*
G36*
G01X74600Y158800D02*
X-125400D01*
Y658800D01*
X74600D01*
Y158800D01*
G37*
G36*
G01X404800D02*
X204800D01*
Y658800D01*
X404800D01*
Y158800D01*
G37*
G36*
G01X-120600Y839800D02*
Y1039800D01*
X379400D01*
Y839800D01*
X-120600D01*
G37*
G36*
G01X1217600Y-4641800D02*
X1017600D01*
Y-4141800D01*
X1217600D01*
Y-4641800D01*
G37*
G36*
G01X590600Y839800D02*
Y1039800D01*
X1090600D01*
Y839800D01*
X590600D01*
G37*
G36*
G01X1547800Y-4641800D02*
X1347800D01*
Y-4141800D01*
X1547800D01*
Y-4641800D01*
G37*
G36*
G01X1530400Y-3935400D02*
Y-3735400D01*
X2030400D01*
Y-3935400D01*
X1530400D01*
G37*
G36*
G01X1700200Y-3143200D02*
X1500200D01*
Y-2643200D01*
X1700200D01*
Y-3143200D01*
G37*
G36*
G01X2030400D02*
X1830400D01*
Y-2643200D01*
X2030400D01*
Y-3143200D01*
G37*
G36*
G01X1505000Y-2335200D02*
Y-2135200D01*
X2005000D01*
Y-2335200D01*
X1505000D01*
G37*
G36*
G01X1700200Y-1441400D02*
X1500200D01*
Y-941400D01*
X1700200D01*
Y-1441400D01*
G37*
G36*
G01X2030400D02*
X1830400D01*
Y-941400D01*
X2030400D01*
Y-1441400D01*
G37*
G36*
G01X1505000Y-735000D02*
Y-535000D01*
X2005000D01*
Y-735000D01*
X1505000D01*
G37*
G36*
G01X2030400Y158800D02*
X1830400D01*
Y658800D01*
X2030400D01*
Y158800D01*
G37*
G36*
G01X1700200D02*
X1500200D01*
Y658800D01*
X1700200D01*
Y158800D01*
G37*
G36*
G01X1505000Y839800D02*
Y1039800D01*
X2005000D01*
Y839800D01*
X1505000D01*
G37*
G36*
G01X2267000Y-3935400D02*
Y-3735400D01*
X2767000D01*
Y-3935400D01*
X2267000D01*
G37*
G36*
G01X2216200Y-2335200D02*
Y-2135200D01*
X2716200D01*
Y-2335200D01*
X2216200D01*
G37*
G36*
G01X2190800Y-735000D02*
Y-535000D01*
X2690800D01*
Y-735000D01*
X2190800D01*
G37*
G36*
G01X2216200Y839800D02*
Y1039800D01*
X2716200D01*
Y839800D01*
X2216200D01*
G37*
G36*
G01X3300400Y-4616400D02*
X3100400D01*
Y-4116400D01*
X3300400D01*
Y-4616400D01*
G37*
G36*
G01X3656000D02*
X3456000D01*
Y-4116400D01*
X3656000D01*
Y-4616400D01*
G37*
G36*
G01X3105200Y-3910000D02*
Y-3710000D01*
X3605200D01*
Y-3910000D01*
X3105200D01*
G37*
G36*
G01X3376600Y-3143200D02*
X3176600D01*
Y-2643200D01*
X3376600D01*
Y-3143200D01*
G37*
G36*
G01X3706800D02*
X3506800D01*
Y-2643200D01*
X3706800D01*
Y-3143200D01*
G37*
G36*
G01X3181400Y-2360600D02*
Y-2160600D01*
X3681400D01*
Y-2360600D01*
X3181400D01*
G37*
G36*
G01X3325800Y-1441400D02*
X3125800D01*
Y-941400D01*
X3325800D01*
Y-1441400D01*
G37*
G36*
G01X3681400D02*
X3481400D01*
Y-941400D01*
X3681400D01*
Y-1441400D01*
G37*
G36*
G01X3130600Y-735000D02*
Y-535000D01*
X3630600D01*
Y-735000D01*
X3130600D01*
G37*
G36*
G01X3351200Y158800D02*
X3151200D01*
Y658800D01*
X3351200D01*
Y158800D01*
G37*
G36*
G01X3681400D02*
X3481400D01*
Y658800D01*
X3681400D01*
Y158800D01*
G37*
G36*
G01X3156000Y839800D02*
Y1039800D01*
X3656000D01*
Y839800D01*
X3156000D01*
G37*
G36*
G01X3867200Y-3910000D02*
Y-3710000D01*
X4367200D01*
Y-3910000D01*
X3867200D01*
G37*
G36*
G01X3918000Y-2360600D02*
Y-2160600D01*
X4418000D01*
Y-2360600D01*
X3918000D01*
G37*
G36*
G01X3867200Y-735000D02*
Y-535000D01*
X4367200D01*
Y-735000D01*
X3867200D01*
G37*
G36*
G01Y839800D02*
Y1039800D01*
X4367200D01*
Y839800D01*
X3867200D01*
G37*
G54D10*
G01X5384800Y-6806200D02*
Y2260600D01*
X-5257800D01*
Y-6806200D01*
X5384800D01*
G01X-4011610Y-1344080D02*
X-4015670Y-1337730D01*
X-4020420Y-1334560D01*
X-4025830Y-1333500D01*
X-4032610Y-1335620D01*
X-4037350Y-1340910D01*
X-4038700Y-1347260D01*
X-4038030Y-1353610D01*
X-4035320Y-1358900D01*
X-4021770Y-1369480D01*
X-4015670Y-1376890D01*
X-4011610Y-1387480D01*
X-4010260Y-1397000D01*
X-4038700D01*
G01X-4372170Y-1308100D02*
X-4375560Y-1314450D01*
X-4379620Y-1318680D01*
X-4384370Y-1320800D01*
X-4389780Y-1318680D01*
X-4393850Y-1314450D01*
X-4397910Y-1308100D01*
X-4399270Y-1299630D01*
Y-1257300D01*
G01X-4428730Y-1267880D02*
X-4432790Y-1261530D01*
X-4437540Y-1258360D01*
X-4442950Y-1257300D01*
X-4449730Y-1259420D01*
X-4454470Y-1264710D01*
X-4455820Y-1271060D01*
X-4455150Y-1277410D01*
X-4452440Y-1282700D01*
X-4438890Y-1293280D01*
X-4432790Y-1300690D01*
X-4428730Y-1311280D01*
X-4427380Y-1320800D01*
X-4455820D01*
G01X-4496130D02*
X-4497480Y-1307040D01*
X-4499510Y-1295400D01*
X-4502220Y-1284820D01*
X-4505610Y-1273180D01*
X-4511030Y-1257300D01*
X-4483930D01*
G01X-4611610Y-1344080D02*
X-4615670Y-1337730D01*
X-4620420Y-1334560D01*
X-4625830Y-1333500D01*
X-4632610Y-1335620D01*
X-4637350Y-1340910D01*
X-4638700Y-1347260D01*
X-4638030Y-1353610D01*
X-4635320Y-1358900D01*
X-4621770Y-1369480D01*
X-4615670Y-1376890D01*
X-4611610Y-1387480D01*
X-4610260Y-1397000D01*
X-4638700D01*
G01X-4243480Y-1371600D02*
Y-1308100D01*
X-4235350Y-1320800D01*
G01Y-1371600D02*
X-4251610D01*
G01X-4011610Y-744080D02*
X-4015670Y-737730D01*
X-4020420Y-734560D01*
X-4025830Y-733500D01*
X-4032610Y-735620D01*
X-4037350Y-740910D01*
X-4038700Y-747260D01*
X-4038030Y-753610D01*
X-4035320Y-758900D01*
X-4021770Y-769480D01*
X-4015670Y-776890D01*
X-4011610Y-787480D01*
X-4010260Y-797000D01*
X-4038700D01*
G01X-4372170Y-708100D02*
X-4375560Y-714450D01*
X-4379620Y-718680D01*
X-4384370Y-720800D01*
X-4389780Y-718680D01*
X-4393850Y-714450D01*
X-4397910Y-708100D01*
X-4399270Y-699630D01*
Y-657300D01*
G01X-4428730Y-667880D02*
X-4432790Y-661530D01*
X-4437540Y-658360D01*
X-4442950Y-657300D01*
X-4449730Y-659420D01*
X-4454470Y-664710D01*
X-4455820Y-671060D01*
X-4455150Y-677410D01*
X-4452440Y-682700D01*
X-4438890Y-693280D01*
X-4432790Y-700690D01*
X-4428730Y-711280D01*
X-4427380Y-720800D01*
X-4455820D01*
G01X-4497480D02*
X-4502220Y-719740D01*
X-4507640Y-716570D01*
X-4511030Y-711280D01*
X-4512380Y-703870D01*
X-4511030Y-696460D01*
X-4506960Y-690110D01*
X-4500870Y-686930D01*
X-4494090D01*
X-4490030Y-684820D01*
X-4486640Y-679530D01*
X-4485290Y-672120D01*
X-4487320Y-664710D01*
X-4492060Y-659420D01*
X-4497480Y-657300D01*
X-4502900Y-659420D01*
X-4507640Y-664710D01*
X-4509670Y-672120D01*
X-4508320Y-679530D01*
X-4504930Y-684820D01*
X-4500870Y-686930D01*
X-4494090D01*
X-4488000Y-690110D01*
X-4483930Y-696460D01*
X-4482580Y-703870D01*
X-4483930Y-711280D01*
X-4487320Y-716570D01*
X-4492740Y-719740D01*
X-4497480Y-720800D01*
G01X-4611610Y-744080D02*
X-4615670Y-737730D01*
X-4620420Y-734560D01*
X-4625830Y-733500D01*
X-4632610Y-735620D01*
X-4637350Y-740910D01*
X-4638700Y-747260D01*
X-4638030Y-753610D01*
X-4635320Y-758900D01*
X-4621770Y-769480D01*
X-4615670Y-776890D01*
X-4611610Y-787480D01*
X-4610260Y-797000D01*
X-4638700D01*
G01X-4243480Y-771600D02*
Y-708100D01*
X-4235350Y-720800D01*
G01Y-771600D02*
X-4251610D01*
G01X-4011610Y-144080D02*
X-4015670Y-137730D01*
X-4020420Y-134560D01*
X-4025830Y-133500D01*
X-4032610Y-135620D01*
X-4037350Y-140910D01*
X-4038700Y-147260D01*
X-4038030Y-153610D01*
X-4035320Y-158900D01*
X-4021770Y-169480D01*
X-4015670Y-176890D01*
X-4011610Y-187480D01*
X-4010260Y-197000D01*
X-4038700D01*
G01X-4372170Y-108100D02*
X-4375560Y-114450D01*
X-4379620Y-118680D01*
X-4384370Y-120800D01*
X-4389780Y-118680D01*
X-4393850Y-114450D01*
X-4397910Y-108100D01*
X-4399270Y-99630D01*
Y-57300D01*
G01X-4428730Y-67880D02*
X-4432790Y-61530D01*
X-4437540Y-58360D01*
X-4442950Y-57300D01*
X-4449730Y-59420D01*
X-4454470Y-64710D01*
X-4455820Y-71060D01*
X-4455150Y-77410D01*
X-4452440Y-82700D01*
X-4438890Y-93280D01*
X-4432790Y-100690D01*
X-4428730Y-111280D01*
X-4427380Y-120800D01*
X-4455820D01*
G01X-4485960Y-113390D02*
X-4490710Y-118680D01*
X-4496130Y-120800D01*
X-4501540Y-118680D01*
X-4506290Y-112340D01*
X-4509670Y-102810D01*
X-4511030Y-93280D01*
Y-81640D01*
X-4509670Y-72120D01*
X-4506290Y-63650D01*
X-4502220Y-59420D01*
X-4497480Y-57300D01*
X-4492060Y-59420D01*
X-4488000Y-63650D01*
X-4485290Y-70000D01*
X-4483930Y-78470D01*
X-4485290Y-85870D01*
X-4488670Y-93280D01*
X-4492740Y-97520D01*
X-4497480Y-98580D01*
X-4502900Y-96460D01*
X-4506960Y-91170D01*
X-4511030Y-81640D01*
G01X-4611610Y-144080D02*
X-4615670Y-137730D01*
X-4620420Y-134560D01*
X-4625830Y-133500D01*
X-4632610Y-135620D01*
X-4637350Y-140910D01*
X-4638700Y-147260D01*
X-4638030Y-153610D01*
X-4635320Y-158900D01*
X-4621770Y-169480D01*
X-4615670Y-176890D01*
X-4611610Y-187480D01*
X-4610260Y-197000D01*
X-4638700D01*
G01X-4243480Y-171600D02*
Y-108100D01*
X-4235350Y-120800D01*
G01Y-171600D02*
X-4251610D01*
G01X-4011610Y455920D02*
X-4015670Y462270D01*
X-4020420Y465440D01*
X-4025830Y466500D01*
X-4032610Y464380D01*
X-4037350Y459090D01*
X-4038700Y452740D01*
X-4038030Y446390D01*
X-4035320Y441100D01*
X-4021770Y430520D01*
X-4015670Y423110D01*
X-4011610Y412520D01*
X-4010260Y403000D01*
X-4038700D01*
G01X-4372170Y491900D02*
X-4375560Y485550D01*
X-4379620Y481320D01*
X-4384370Y479200D01*
X-4389780Y481320D01*
X-4393850Y485550D01*
X-4397910Y491900D01*
X-4399270Y500370D01*
Y542700D01*
G01X-4426700Y491900D02*
X-4430760Y484490D01*
X-4436180Y480260D01*
X-4442280Y479200D01*
X-4447700Y480260D01*
X-4453120Y485550D01*
X-4456500Y491900D01*
X-4457180Y498250D01*
X-4455820Y505660D01*
X-4451080Y510950D01*
X-4446340Y513070D01*
X-4440250D01*
G01X-4446340D02*
X-4450410Y516240D01*
X-4453790Y521530D01*
X-4455150Y527880D01*
X-4453790Y534230D01*
X-4450410Y539520D01*
X-4444310Y542700D01*
X-4438210Y541640D01*
X-4432120Y537410D01*
G01X-4497480Y542700D02*
X-4492060Y540580D01*
X-4488000Y535290D01*
X-4485290Y528940D01*
X-4483260Y520470D01*
X-4482580Y510950D01*
X-4483260Y501420D01*
X-4485290Y492960D01*
X-4488000Y486610D01*
X-4492060Y481320D01*
X-4497480Y479200D01*
X-4502900Y481320D01*
X-4506960Y486610D01*
X-4509670Y492960D01*
X-4511700Y501420D01*
X-4512380Y510950D01*
X-4511700Y520470D01*
X-4509670Y528940D01*
X-4506960Y535290D01*
X-4502900Y540580D01*
X-4497480Y542700D01*
G01X-4611610Y455920D02*
X-4615670Y462270D01*
X-4620420Y465440D01*
X-4625830Y466500D01*
X-4632610Y464380D01*
X-4637350Y459090D01*
X-4638700Y452740D01*
X-4638030Y446390D01*
X-4635320Y441100D01*
X-4621770Y430520D01*
X-4615670Y423110D01*
X-4611610Y412520D01*
X-4610260Y403000D01*
X-4638700D01*
G01X-4243480Y428400D02*
Y491900D01*
X-4235350Y479200D01*
G01Y428400D02*
X-4251610D01*
G01X-3339920Y-5872650D02*
Y-5809150D01*
X-3348050Y-5821850D01*
G01Y-5872650D02*
X-3331790D01*
G01X-3819820Y-6184950D02*
X-3815760Y-6192360D01*
X-3810340Y-6196590D01*
X-3804240Y-6197650D01*
X-3798820Y-6196590D01*
X-3793400Y-6191300D01*
X-3790020Y-6184950D01*
X-3789340Y-6178600D01*
X-3790700Y-6171190D01*
X-3795440Y-6165900D01*
X-3800180Y-6163780D01*
X-3806270D01*
G01X-3800180D02*
X-3796110Y-6160610D01*
X-3792730Y-6155320D01*
X-3791370Y-6148970D01*
X-3792730Y-6142620D01*
X-3796110Y-6137330D01*
X-3802210Y-6134150D01*
X-3808310Y-6135210D01*
X-3814400Y-6139440D01*
G01X-3817790Y-5494730D02*
X-3813730Y-5488380D01*
X-3808980Y-5485210D01*
X-3803570Y-5484150D01*
X-3796790Y-5486270D01*
X-3792050Y-5491560D01*
X-3790700Y-5497910D01*
X-3791370Y-5504260D01*
X-3794080Y-5509550D01*
X-3807630Y-5520130D01*
X-3813730Y-5527540D01*
X-3817790Y-5538130D01*
X-3819140Y-5547650D01*
X-3790700D01*
G01X-3772170Y-1308100D02*
X-3775560Y-1314450D01*
X-3779620Y-1318680D01*
X-3784370Y-1320800D01*
X-3789780Y-1318680D01*
X-3793850Y-1314450D01*
X-3797910Y-1308100D01*
X-3799270Y-1299630D01*
Y-1257300D01*
G01X-3828730Y-1267880D02*
X-3832790Y-1261530D01*
X-3837540Y-1258360D01*
X-3842950Y-1257300D01*
X-3849730Y-1259420D01*
X-3854470Y-1264710D01*
X-3855820Y-1271060D01*
X-3855150Y-1277410D01*
X-3852440Y-1282700D01*
X-3838890Y-1293280D01*
X-3832790Y-1300690D01*
X-3828730Y-1311280D01*
X-3827380Y-1320800D01*
X-3855820D01*
G01X-3882580Y-1308100D02*
X-3886640Y-1315510D01*
X-3892060Y-1319740D01*
X-3898160Y-1320800D01*
X-3903580Y-1319740D01*
X-3909000Y-1314450D01*
X-3912380Y-1308100D01*
X-3913060Y-1301750D01*
X-3911700Y-1294340D01*
X-3906960Y-1289050D01*
X-3902220Y-1286930D01*
X-3896130D01*
G01X-3902220D02*
X-3906290Y-1283760D01*
X-3909670Y-1278470D01*
X-3911030Y-1272120D01*
X-3909670Y-1265770D01*
X-3906290Y-1260480D01*
X-3900190Y-1257300D01*
X-3894090Y-1258360D01*
X-3888000Y-1262590D01*
G01X-3643480Y-1371600D02*
Y-1308100D01*
X-3635350Y-1320800D01*
G01Y-1371600D02*
X-3651610D01*
G01X-3376410Y-1376080D02*
X-3380470Y-1369730D01*
X-3385220Y-1366560D01*
X-3390630Y-1365500D01*
X-3397410Y-1367620D01*
X-3402150Y-1372910D01*
X-3403500Y-1379260D01*
X-3402830Y-1385610D01*
X-3400120Y-1390900D01*
X-3386570Y-1401480D01*
X-3380470Y-1408890D01*
X-3376410Y-1419480D01*
X-3375060Y-1429000D01*
X-3403500D01*
G01X-3772170Y-708100D02*
X-3775560Y-714450D01*
X-3779620Y-718680D01*
X-3784370Y-720800D01*
X-3789780Y-718680D01*
X-3793850Y-714450D01*
X-3797910Y-708100D01*
X-3799270Y-699630D01*
Y-657300D01*
G01X-3828730Y-667880D02*
X-3832790Y-661530D01*
X-3837540Y-658360D01*
X-3842950Y-657300D01*
X-3849730Y-659420D01*
X-3854470Y-664710D01*
X-3855820Y-671060D01*
X-3855150Y-677410D01*
X-3852440Y-682700D01*
X-3838890Y-693280D01*
X-3832790Y-700690D01*
X-3828730Y-711280D01*
X-3827380Y-720800D01*
X-3855820D01*
G01X-3905610D02*
Y-657300D01*
X-3880550Y-702810D01*
X-3914410D01*
G01X-3643480Y-771600D02*
Y-708100D01*
X-3635350Y-720800D01*
G01Y-771600D02*
X-3651610D01*
G01X-3223500Y-438000D02*
X-3233450Y-454000D01*
X-3245380Y-464670D01*
X-3259310Y-470000D01*
X-3275230Y-464670D01*
X-3287170Y-454000D01*
X-3299110Y-438000D01*
X-3303080Y-416660D01*
Y-309980D01*
G01X-3385510Y-336650D02*
X-3397440Y-320650D01*
X-3411370Y-312650D01*
X-3427290Y-309980D01*
X-3447190Y-315310D01*
X-3461110Y-328650D01*
X-3465090Y-344650D01*
X-3463100Y-360660D01*
X-3455140Y-373990D01*
X-3415350Y-400660D01*
X-3397440Y-419330D01*
X-3385510Y-446000D01*
X-3381530Y-470000D01*
X-3465090D01*
G01X-3583330Y-309980D02*
X-3567410Y-315310D01*
X-3555480Y-328650D01*
X-3547510Y-344650D01*
X-3541550Y-365990D01*
X-3539560Y-389990D01*
X-3541550Y-414000D01*
X-3547510Y-435330D01*
X-3555480Y-451330D01*
X-3567410Y-464670D01*
X-3583330Y-470000D01*
X-3599250Y-464670D01*
X-3611180Y-451330D01*
X-3619150Y-435330D01*
X-3625110Y-414000D01*
X-3627100Y-389990D01*
X-3625110Y-365990D01*
X-3619150Y-344650D01*
X-3611180Y-328650D01*
X-3599250Y-315310D01*
X-3583330Y-309980D01*
G01X-3376410Y-776080D02*
X-3380470Y-769730D01*
X-3385220Y-766560D01*
X-3390630Y-765500D01*
X-3397410Y-767620D01*
X-3402150Y-772910D01*
X-3403500Y-779260D01*
X-3402830Y-785610D01*
X-3400120Y-790900D01*
X-3386570Y-801480D01*
X-3380470Y-808890D01*
X-3376410Y-819480D01*
X-3375060Y-829000D01*
X-3403500D01*
G01X-3223500Y-1038000D02*
X-3233450Y-1054000D01*
X-3245380Y-1064670D01*
X-3259310Y-1070000D01*
X-3275230Y-1064670D01*
X-3287170Y-1054000D01*
X-3299110Y-1038000D01*
X-3303080Y-1016660D01*
Y-909980D01*
G01X-3423310Y-1070000D02*
Y-909980D01*
X-3399430Y-941980D01*
G01Y-1070000D02*
X-3447180D01*
G01X-3549500Y-1051330D02*
X-3563430Y-1064670D01*
X-3579350Y-1070000D01*
X-3595270Y-1064670D01*
X-3609200Y-1048670D01*
X-3619150Y-1024660D01*
X-3623120Y-1000660D01*
Y-971320D01*
X-3619150Y-947320D01*
X-3609200Y-925980D01*
X-3597260Y-915310D01*
X-3583330Y-909980D01*
X-3567410Y-915310D01*
X-3555480Y-925980D01*
X-3547510Y-941980D01*
X-3543540Y-963320D01*
X-3547510Y-981990D01*
X-3557460Y-1000660D01*
X-3569400Y-1011330D01*
X-3583330Y-1014000D01*
X-3599250Y-1008660D01*
X-3611180Y-995330D01*
X-3623120Y-971320D01*
G01X-3772170Y-108100D02*
X-3775560Y-114450D01*
X-3779620Y-118680D01*
X-3784370Y-120800D01*
X-3789780Y-118680D01*
X-3793850Y-114450D01*
X-3797910Y-108100D01*
X-3799270Y-99630D01*
Y-57300D01*
G01X-3828730Y-67880D02*
X-3832790Y-61530D01*
X-3837540Y-58360D01*
X-3842950Y-57300D01*
X-3849730Y-59420D01*
X-3854470Y-64710D01*
X-3855820Y-71060D01*
X-3855150Y-77410D01*
X-3852440Y-82700D01*
X-3838890Y-93280D01*
X-3832790Y-100690D01*
X-3828730Y-111280D01*
X-3827380Y-120800D01*
X-3855820D01*
G01X-3882580Y-111280D02*
X-3886640Y-116570D01*
X-3891380Y-119740D01*
X-3897480Y-120800D01*
X-3903580Y-118680D01*
X-3908320Y-114450D01*
X-3911700Y-107040D01*
X-3912380Y-98580D01*
X-3911030Y-90110D01*
X-3907640Y-84820D01*
X-3902900Y-80580D01*
X-3898160Y-79530D01*
X-3893420Y-80580D01*
X-3887320Y-84820D01*
X-3889350Y-57300D01*
X-3907640D01*
G01X-3643480Y-171600D02*
Y-108100D01*
X-3635350Y-120800D01*
G01Y-171600D02*
X-3651610D01*
G01X-3223500Y162000D02*
X-3233450Y146000D01*
X-3245380Y135330D01*
X-3259310Y130000D01*
X-3275230Y135330D01*
X-3287170Y146000D01*
X-3299110Y162000D01*
X-3303080Y183340D01*
Y290020D01*
G01X-3385510Y263350D02*
X-3397440Y279350D01*
X-3411370Y287350D01*
X-3427290Y290020D01*
X-3447190Y284690D01*
X-3461110Y271350D01*
X-3465090Y255350D01*
X-3463100Y239340D01*
X-3455140Y226010D01*
X-3415350Y199340D01*
X-3397440Y180670D01*
X-3385510Y154000D01*
X-3381530Y130000D01*
X-3465090D01*
G01X-3583330D02*
Y290020D01*
X-3559450Y258020D01*
G01Y130000D02*
X-3607200D01*
G01X-3376410Y-176080D02*
X-3380470Y-169730D01*
X-3385220Y-166560D01*
X-3390630Y-165500D01*
X-3397410Y-167620D01*
X-3402150Y-172910D01*
X-3403500Y-179260D01*
X-3402830Y-185610D01*
X-3400120Y-190900D01*
X-3386570Y-201480D01*
X-3380470Y-208890D01*
X-3376410Y-219480D01*
X-3375060Y-229000D01*
X-3403500D01*
G01X-3772170Y491900D02*
X-3775560Y485550D01*
X-3779620Y481320D01*
X-3784370Y479200D01*
X-3789780Y481320D01*
X-3793850Y485550D01*
X-3797910Y491900D01*
X-3799270Y500370D01*
Y542700D01*
G01X-3828730Y532120D02*
X-3832790Y538470D01*
X-3837540Y541640D01*
X-3842950Y542700D01*
X-3849730Y540580D01*
X-3854470Y535290D01*
X-3855820Y528940D01*
X-3855150Y522590D01*
X-3852440Y517300D01*
X-3838890Y506720D01*
X-3832790Y499310D01*
X-3828730Y488720D01*
X-3827380Y479200D01*
X-3855820D01*
G01X-3884610Y505660D02*
X-3889350Y513070D01*
X-3893420Y517300D01*
X-3898830Y519420D01*
X-3903580Y517300D01*
X-3906960Y513070D01*
X-3909670Y506720D01*
X-3910350Y499310D01*
X-3909670Y492960D01*
X-3906960Y486610D01*
X-3902900Y481320D01*
X-3898160Y479200D01*
X-3892740Y481320D01*
X-3888000Y487660D01*
X-3885290Y497190D01*
X-3884610Y507770D01*
X-3885960Y521530D01*
X-3888000Y528940D01*
X-3891380Y536350D01*
X-3896130Y541640D01*
X-3900870Y542700D01*
X-3905610Y540580D01*
X-3909000Y535290D01*
G01X-3643480Y428400D02*
Y491900D01*
X-3635350Y479200D01*
G01Y428400D02*
X-3651610D01*
G01X-3223500Y762000D02*
X-3233450Y746000D01*
X-3245380Y735330D01*
X-3259310Y730000D01*
X-3275230Y735330D01*
X-3287170Y746000D01*
X-3299110Y762000D01*
X-3303080Y783340D01*
Y890020D01*
G01X-3385510Y863350D02*
X-3397440Y879350D01*
X-3411370Y887350D01*
X-3427290Y890020D01*
X-3447190Y884690D01*
X-3461110Y871350D01*
X-3465090Y855350D01*
X-3463100Y839340D01*
X-3455140Y826010D01*
X-3415350Y799340D01*
X-3397440Y780670D01*
X-3385510Y754000D01*
X-3381530Y730000D01*
X-3465090D01*
G01X-3545530Y863350D02*
X-3557460Y879350D01*
X-3571390Y887350D01*
X-3587310Y890020D01*
X-3607210Y884690D01*
X-3621130Y871350D01*
X-3625110Y855350D01*
X-3623120Y839340D01*
X-3615160Y826010D01*
X-3575370Y799340D01*
X-3557460Y780670D01*
X-3545530Y754000D01*
X-3541550Y730000D01*
X-3625110D01*
G01X-3376410Y423920D02*
X-3380470Y430270D01*
X-3385220Y433440D01*
X-3390630Y434500D01*
X-3397410Y432380D01*
X-3402150Y427090D01*
X-3403500Y420740D01*
X-3402830Y414390D01*
X-3400120Y409100D01*
X-3386570Y398520D01*
X-3380470Y391110D01*
X-3376410Y380520D01*
X-3375060Y371000D01*
X-3403500D01*
G01X-3350260Y1397000D02*
Y1333500D01*
X-3342130Y1346200D01*
G01Y1397000D02*
X-3358390D01*
G01X-3406140Y1333500D02*
X-3400720Y1335620D01*
X-3396660Y1340910D01*
X-3393950Y1347260D01*
X-3391920Y1355730D01*
X-3391240Y1365250D01*
X-3391920Y1374780D01*
X-3393950Y1383240D01*
X-3396660Y1389590D01*
X-3400720Y1394880D01*
X-3406140Y1397000D01*
X-3411560Y1394880D01*
X-3415620Y1389590D01*
X-3418330Y1383240D01*
X-3420360Y1374780D01*
X-3421040Y1365250D01*
X-3420360Y1355730D01*
X-3418330Y1347260D01*
X-3415620Y1340910D01*
X-3411560Y1335620D01*
X-3406140Y1333500D01*
G01X-3366680Y1999190D02*
X-3371430Y2004480D01*
X-3376850Y2006600D01*
X-3382260Y2004480D01*
X-3387010Y1998140D01*
X-3390390Y1988610D01*
X-3391750Y1979080D01*
Y1967440D01*
X-3390390Y1957920D01*
X-3387010Y1949450D01*
X-3382940Y1945220D01*
X-3378200Y1943100D01*
X-3372780Y1945220D01*
X-3368720Y1949450D01*
X-3366010Y1955800D01*
X-3364650Y1964270D01*
X-3366010Y1971670D01*
X-3369390Y1979080D01*
X-3373460Y1983320D01*
X-3378200Y1984380D01*
X-3383620Y1982260D01*
X-3387680Y1976970D01*
X-3391750Y1967440D01*
G01X-2436280Y-6529410D02*
X-2429930Y-6533470D01*
X-2426760Y-6538220D01*
X-2425700Y-6543630D01*
X-2427820Y-6550410D01*
X-2433110Y-6555150D01*
X-2439460Y-6556500D01*
X-2445810Y-6555830D01*
X-2451100Y-6553120D01*
X-2461680Y-6539570D01*
X-2469090Y-6533470D01*
X-2479680Y-6529410D01*
X-2489200Y-6528060D01*
Y-6556500D01*
G01Y-5542280D02*
X-2425700D01*
X-2438400Y-5534150D01*
G01X-2489200D02*
Y-5550410D01*
G01X-2882900Y-5232400D02*
X-2819400D01*
X-2832100Y-5224270D01*
G01X-2882900D02*
Y-5240530D01*
G01X-2873380Y-5273380D02*
X-2878670Y-5277440D01*
X-2881840Y-5282180D01*
X-2882900Y-5288280D01*
X-2880780Y-5294380D01*
X-2876550Y-5299120D01*
X-2869140Y-5302500D01*
X-2860680Y-5303180D01*
X-2852210Y-5301830D01*
X-2846920Y-5298440D01*
X-2842680Y-5293700D01*
X-2841630Y-5288960D01*
X-2842680Y-5284220D01*
X-2846920Y-5278120D01*
X-2819400Y-5280150D01*
Y-5298440D01*
G01X-2882900Y-4978400D02*
X-2819400D01*
X-2832100Y-4970270D01*
G01X-2882900D02*
Y-4986530D01*
G01X-2870200Y-5019380D02*
X-2877610Y-5023440D01*
X-2881840Y-5028860D01*
X-2882900Y-5034960D01*
X-2881840Y-5040380D01*
X-2876550Y-5045800D01*
X-2870200Y-5049180D01*
X-2863850Y-5049860D01*
X-2856440Y-5048500D01*
X-2851150Y-5043760D01*
X-2849030Y-5039020D01*
Y-5032930D01*
G01Y-5039020D02*
X-2845860Y-5043090D01*
X-2840570Y-5046470D01*
X-2834220Y-5047830D01*
X-2827870Y-5046470D01*
X-2822580Y-5043090D01*
X-2819400Y-5036990D01*
X-2820460Y-5030890D01*
X-2824690Y-5024800D01*
G01X-2882900Y-4724400D02*
X-2819400D01*
X-2832100Y-4716270D01*
G01X-2882900D02*
Y-4732530D01*
G01Y-4780280D02*
X-2819400D01*
X-2832100Y-4772150D01*
G01X-2882900D02*
Y-4788410D01*
G01X-2862790Y-4535080D02*
X-2868080Y-4539830D01*
X-2870200Y-4545250D01*
X-2868080Y-4550660D01*
X-2861740Y-4555410D01*
X-2852210Y-4558790D01*
X-2842680Y-4560150D01*
X-2831040D01*
X-2821520Y-4558790D01*
X-2813050Y-4555410D01*
X-2808820Y-4551340D01*
X-2806700Y-4546600D01*
X-2808820Y-4541180D01*
X-2813050Y-4537120D01*
X-2819400Y-4534410D01*
X-2827870Y-4533050D01*
X-2835270Y-4534410D01*
X-2842680Y-4537790D01*
X-2846920Y-4541860D01*
X-2847980Y-4546600D01*
X-2845860Y-4552020D01*
X-2840570Y-4556080D01*
X-2831040Y-4560150D01*
G01X-2870200Y-4291250D02*
X-2856440Y-4292600D01*
X-2844800Y-4294630D01*
X-2834220Y-4297340D01*
X-2822580Y-4300730D01*
X-2806700Y-4306150D01*
Y-4279050D01*
G01X-2860680Y-4023700D02*
X-2865970Y-4027760D01*
X-2869140Y-4032500D01*
X-2870200Y-4038600D01*
X-2868080Y-4044700D01*
X-2863850Y-4049440D01*
X-2856440Y-4052820D01*
X-2847980Y-4053500D01*
X-2839510Y-4052150D01*
X-2834220Y-4048760D01*
X-2829980Y-4044020D01*
X-2828930Y-4039280D01*
X-2829980Y-4034540D01*
X-2834220Y-4028440D01*
X-2806700Y-4030470D01*
Y-4048760D01*
G01X-2857500Y-3769700D02*
X-2864910Y-3773760D01*
X-2869140Y-3779180D01*
X-2870200Y-3785280D01*
X-2869140Y-3790700D01*
X-2863850Y-3796120D01*
X-2857500Y-3799500D01*
X-2851150Y-3800180D01*
X-2843740Y-3798820D01*
X-2838450Y-3794080D01*
X-2836330Y-3789340D01*
Y-3783250D01*
G01Y-3789340D02*
X-2833160Y-3793410D01*
X-2827870Y-3796790D01*
X-2821520Y-3798150D01*
X-2815170Y-3796790D01*
X-2809880Y-3793410D01*
X-2806700Y-3787310D01*
X-2807760Y-3781210D01*
X-2811990Y-3775120D01*
G01X-2870200Y-3530600D02*
X-2806700D01*
X-2819400Y-3522470D01*
G01X-2870200D02*
Y-3538730D01*
G01X-3087280Y-1430000D02*
Y-1366500D01*
X-3079150Y-1379200D01*
G01Y-1430000D02*
X-3095410D01*
G01X-2776410Y-1376080D02*
X-2780470Y-1369730D01*
X-2785220Y-1366560D01*
X-2790630Y-1365500D01*
X-2797410Y-1367620D01*
X-2802150Y-1372910D01*
X-2803500Y-1379260D01*
X-2802830Y-1385610D01*
X-2800120Y-1390900D01*
X-2786570Y-1401480D01*
X-2780470Y-1408890D01*
X-2776410Y-1419480D01*
X-2775060Y-1429000D01*
X-2803500D01*
G01X-2487280Y-1430000D02*
Y-1366500D01*
X-2479150Y-1379200D01*
G01Y-1430000D02*
X-2495410D01*
G01X-3087280Y-830000D02*
Y-766500D01*
X-3079150Y-779200D01*
G01Y-830000D02*
X-3095410D01*
G01X-2623500Y-438000D02*
X-2633450Y-454000D01*
X-2645380Y-464670D01*
X-2659310Y-470000D01*
X-2675230Y-464670D01*
X-2687170Y-454000D01*
X-2699110Y-438000D01*
X-2703080Y-416660D01*
Y-309980D01*
G01X-2823310Y-470000D02*
Y-309980D01*
X-2799430Y-341980D01*
G01Y-470000D02*
X-2847180D01*
G01X-2945530Y-403330D02*
X-2959450Y-384650D01*
X-2971390Y-373990D01*
X-2987310Y-368660D01*
X-3001240Y-373990D01*
X-3011180Y-384650D01*
X-3019150Y-400660D01*
X-3021130Y-419330D01*
X-3019150Y-435330D01*
X-3011180Y-451330D01*
X-2999250Y-464670D01*
X-2985320Y-470000D01*
X-2969400Y-464670D01*
X-2955480Y-448670D01*
X-2947510Y-424660D01*
X-2945530Y-397990D01*
X-2949500Y-363320D01*
X-2955480Y-344650D01*
X-2965420Y-325980D01*
X-2979350Y-312650D01*
X-2993280Y-309980D01*
X-3007210Y-315310D01*
X-3017160Y-328650D01*
G01X-2776410Y-776080D02*
X-2780470Y-769730D01*
X-2785220Y-766560D01*
X-2790630Y-765500D01*
X-2797410Y-767620D01*
X-2802150Y-772910D01*
X-2803500Y-779260D01*
X-2802830Y-785610D01*
X-2800120Y-790900D01*
X-2786570Y-801480D01*
X-2780470Y-808890D01*
X-2776410Y-819480D01*
X-2775060Y-829000D01*
X-2803500D01*
G01X-2487280Y-830000D02*
Y-766500D01*
X-2479150Y-779200D01*
G01Y-830000D02*
X-2495410D01*
G01X-2623500Y-1038000D02*
X-2633450Y-1054000D01*
X-2645380Y-1064670D01*
X-2659310Y-1070000D01*
X-2675230Y-1064670D01*
X-2687170Y-1054000D01*
X-2699110Y-1038000D01*
X-2703080Y-1016660D01*
Y-909980D01*
G01X-2823310Y-1070000D02*
Y-909980D01*
X-2799430Y-941980D01*
G01Y-1070000D02*
X-2847180D01*
G01X-2939560Y-1046000D02*
X-2951490Y-1059330D01*
X-2965420Y-1067330D01*
X-2983330Y-1070000D01*
X-3001240Y-1064670D01*
X-3015160Y-1054000D01*
X-3025110Y-1035330D01*
X-3027100Y-1014000D01*
X-3023120Y-992660D01*
X-3013170Y-979320D01*
X-2999250Y-968660D01*
X-2985320Y-965990D01*
X-2971390Y-968660D01*
X-2953490Y-979320D01*
X-2959450Y-909980D01*
X-3013170D01*
G01X-3087280Y-230000D02*
Y-166500D01*
X-3079150Y-179200D01*
G01Y-230000D02*
X-3095410D01*
G01X-2623500Y162000D02*
X-2633450Y146000D01*
X-2645380Y135330D01*
X-2659310Y130000D01*
X-2675230Y135330D01*
X-2687170Y146000D01*
X-2699110Y162000D01*
X-2703080Y183340D01*
Y290020D01*
G01X-2823310Y130000D02*
Y290020D01*
X-2799430Y258020D01*
G01Y130000D02*
X-2847180D01*
G01X-2979350D02*
X-2983330Y164670D01*
X-2989300Y194000D01*
X-2997260Y220680D01*
X-3007210Y250010D01*
X-3023120Y290020D01*
X-2943540D01*
G01X-2776410Y-176080D02*
X-2780470Y-169730D01*
X-2785220Y-166560D01*
X-2790630Y-165500D01*
X-2797410Y-167620D01*
X-2802150Y-172910D01*
X-2803500Y-179260D01*
X-2802830Y-185610D01*
X-2800120Y-190900D01*
X-2786570Y-201480D01*
X-2780470Y-208890D01*
X-2776410Y-219480D01*
X-2775060Y-229000D01*
X-2803500D01*
G01X-2487280Y-230000D02*
Y-166500D01*
X-2479150Y-179200D01*
G01Y-230000D02*
X-2495410D01*
G01X-3087280Y370000D02*
Y433500D01*
X-3079150Y420800D01*
G01Y370000D02*
X-3095410D01*
G01X-2623500Y762000D02*
X-2633450Y746000D01*
X-2645380Y735330D01*
X-2659310Y730000D01*
X-2675230Y735330D01*
X-2687170Y746000D01*
X-2699110Y762000D01*
X-2703080Y783340D01*
Y890020D01*
G01X-2823310Y730000D02*
Y890020D01*
X-2799430Y858020D01*
G01Y730000D02*
X-2847180D01*
G01X-2983330D02*
X-2997260Y732670D01*
X-3013170Y740670D01*
X-3023120Y754000D01*
X-3027100Y772670D01*
X-3023120Y791340D01*
X-3011180Y807340D01*
X-2993280Y815350D01*
X-2973380D01*
X-2961440Y820680D01*
X-2951490Y834010D01*
X-2947510Y852680D01*
X-2953490Y871350D01*
X-2967410Y884690D01*
X-2983330Y890020D01*
X-2999250Y884690D01*
X-3013170Y871350D01*
X-3019150Y852680D01*
X-3015160Y834010D01*
X-3005220Y820680D01*
X-2993280Y815350D01*
X-2973380D01*
X-2955480Y807340D01*
X-2943540Y791340D01*
X-2939560Y772670D01*
X-2943540Y754000D01*
X-2953490Y740670D01*
X-2969400Y732670D01*
X-2983330Y730000D01*
G01X-2776410Y423920D02*
X-2780470Y430270D01*
X-2785220Y433440D01*
X-2790630Y434500D01*
X-2797410Y432380D01*
X-2802150Y427090D01*
X-2803500Y420740D01*
X-2802830Y414390D01*
X-2800120Y409100D01*
X-2786570Y398520D01*
X-2780470Y391110D01*
X-2776410Y380520D01*
X-2775060Y371000D01*
X-2803500D01*
G01X-2487280Y370000D02*
Y433500D01*
X-2479150Y420800D01*
G01Y370000D02*
X-2495410D01*
G01X-3124200Y1397000D02*
X-3128940Y1395940D01*
X-3134360Y1392770D01*
X-3137750Y1387480D01*
X-3139100Y1380070D01*
X-3137750Y1372660D01*
X-3133680Y1366310D01*
X-3127590Y1363130D01*
X-3120810D01*
X-3116750Y1361020D01*
X-3113360Y1355730D01*
X-3112010Y1348320D01*
X-3114040Y1340910D01*
X-3118780Y1335620D01*
X-3124200Y1333500D01*
X-3129620Y1335620D01*
X-3134360Y1340910D01*
X-3136390Y1348320D01*
X-3135040Y1355730D01*
X-3131650Y1361020D01*
X-3127590Y1363130D01*
X-3120810D01*
X-3114720Y1366310D01*
X-3110650Y1372660D01*
X-3109300Y1380070D01*
X-3110650Y1387480D01*
X-3114040Y1392770D01*
X-3119460Y1395940D01*
X-3124200Y1397000D01*
G01X-2857330Y1370540D02*
X-2862070Y1363130D01*
X-2866140Y1358900D01*
X-2871550Y1356780D01*
X-2876300Y1358900D01*
X-2879680Y1363130D01*
X-2882390Y1369480D01*
X-2883070Y1376890D01*
X-2882390Y1383240D01*
X-2879680Y1389590D01*
X-2875620Y1394880D01*
X-2870880Y1397000D01*
X-2865460Y1394880D01*
X-2860720Y1388540D01*
X-2858010Y1379010D01*
X-2857330Y1368430D01*
X-2858680Y1354670D01*
X-2860720Y1347260D01*
X-2864100Y1339850D01*
X-2868850Y1334560D01*
X-2873590Y1333500D01*
X-2878330Y1335620D01*
X-2881720Y1340910D01*
G01X-2624330Y1397000D02*
Y1333500D01*
X-2599270Y1379010D01*
X-2633130D01*
G01X-3122850Y2006600D02*
X-3124200Y1992840D01*
X-3126230Y1981200D01*
X-3128940Y1970620D01*
X-3132330Y1958980D01*
X-3137750Y1943100D01*
X-3110650D01*
G01X-2855300Y1997080D02*
X-2859360Y2002370D01*
X-2864100Y2005540D01*
X-2870200Y2006600D01*
X-2876300Y2004480D01*
X-2881040Y2000250D01*
X-2884420Y1992840D01*
X-2885100Y1984380D01*
X-2883750Y1975910D01*
X-2880360Y1970620D01*
X-2875620Y1966380D01*
X-2870880Y1965330D01*
X-2866140Y1966380D01*
X-2860040Y1970620D01*
X-2862070Y1943100D01*
X-2880360D01*
G01X-2601300Y1993900D02*
X-2605360Y2001310D01*
X-2610780Y2005540D01*
X-2616880Y2006600D01*
X-2622300Y2005540D01*
X-2627720Y2000250D01*
X-2631100Y1993900D01*
X-2631780Y1987550D01*
X-2630420Y1980140D01*
X-2625680Y1974850D01*
X-2620940Y1972730D01*
X-2614850D01*
G01X-2620940D02*
X-2625010Y1969560D01*
X-2628390Y1964270D01*
X-2629750Y1957920D01*
X-2628390Y1951570D01*
X-2625010Y1946280D01*
X-2618910Y1943100D01*
X-2612810Y1944160D01*
X-2606720Y1948390D01*
G01X-2247900Y-5232400D02*
X-2184400D01*
X-2197100Y-5224270D01*
G01X-2247900D02*
Y-5240530D01*
G01X-2221440Y-5275410D02*
X-2214030Y-5280150D01*
X-2209800Y-5284220D01*
X-2207680Y-5289630D01*
X-2209800Y-5294380D01*
X-2214030Y-5297760D01*
X-2220380Y-5300470D01*
X-2227790Y-5301150D01*
X-2234140Y-5300470D01*
X-2240490Y-5297760D01*
X-2245780Y-5293700D01*
X-2247900Y-5288960D01*
X-2245780Y-5283540D01*
X-2239440Y-5278800D01*
X-2229910Y-5276090D01*
X-2219330Y-5275410D01*
X-2205570Y-5276760D01*
X-2198160Y-5278800D01*
X-2190750Y-5282180D01*
X-2185460Y-5286930D01*
X-2184400Y-5291670D01*
X-2186520Y-5296410D01*
X-2191810Y-5299800D01*
G01X-1784480Y-4252860D02*
X-1792490Y-4240920D01*
X-1797820Y-4227000D01*
Y-4211080D01*
X-1789820Y-4193170D01*
X-1776480Y-4179250D01*
X-1760480Y-4169300D01*
X-1733810Y-4161340D01*
X-1709810Y-4159350D01*
X-1685810Y-4163330D01*
X-1669800Y-4169300D01*
X-1653800Y-4181240D01*
X-1643130Y-4195160D01*
X-1637800Y-4209090D01*
Y-4223020D01*
X-1643130Y-4236940D01*
X-1651130Y-4248880D01*
X-1661800Y-4258830D01*
G01X-1637800Y-4392990D02*
X-1797820D01*
X-1683140Y-4319370D01*
Y-4418850D01*
G01X-1669800Y-4485360D02*
X-1651130Y-4497290D01*
X-1640470Y-4513210D01*
X-1637800Y-4531120D01*
X-1640470Y-4547040D01*
X-1653800Y-4562960D01*
X-1669800Y-4572900D01*
X-1685810Y-4574890D01*
X-1704470Y-4570910D01*
X-1717810Y-4556980D01*
X-1723150Y-4543060D01*
Y-4525150D01*
G01Y-4543060D02*
X-1731140Y-4555000D01*
X-1744480Y-4564950D01*
X-1760480Y-4568920D01*
X-1776480Y-4564950D01*
X-1789820Y-4555000D01*
X-1797820Y-4537090D01*
X-1795150Y-4519180D01*
X-1784480Y-4501280D01*
G01X-1780120Y-4356210D02*
X-1786470Y-4360270D01*
X-1789640Y-4365020D01*
X-1790700Y-4370430D01*
X-1788580Y-4377210D01*
X-1783290Y-4381950D01*
X-1776940Y-4383300D01*
X-1770590Y-4382630D01*
X-1765300Y-4379920D01*
X-1754720Y-4366370D01*
X-1747310Y-4360270D01*
X-1736720Y-4356210D01*
X-1727200Y-4354860D01*
Y-4383300D01*
G01X-2247900Y-4978400D02*
X-2184400D01*
X-2197100Y-4970270D01*
G01X-2247900D02*
Y-4986530D01*
G01Y-5042410D02*
X-2184400D01*
X-2229910Y-5017350D01*
Y-5051210D01*
G01X-2247900Y-4724400D02*
X-2184400D01*
X-2197100Y-4716270D01*
G01X-2247900D02*
Y-4732530D01*
G01X-2194980Y-4767410D02*
X-2188630Y-4771470D01*
X-2185460Y-4776220D01*
X-2184400Y-4781630D01*
X-2186520Y-4788410D01*
X-2191810Y-4793150D01*
X-2198160Y-4794500D01*
X-2204510Y-4793830D01*
X-2209800Y-4791120D01*
X-2220380Y-4777570D01*
X-2227790Y-4771470D01*
X-2238380Y-4767410D01*
X-2247900Y-4766060D01*
Y-4794500D01*
G01X-2260600Y-4518660D02*
X-2197100D01*
X-2209800Y-4510530D01*
G01X-2260600D02*
Y-4526790D01*
G01X-2197100Y-4574540D02*
X-2199220Y-4569120D01*
X-2204510Y-4565060D01*
X-2210860Y-4562350D01*
X-2219330Y-4560320D01*
X-2228850Y-4559640D01*
X-2238380Y-4560320D01*
X-2246840Y-4562350D01*
X-2253190Y-4565060D01*
X-2258480Y-4569120D01*
X-2260600Y-4574540D01*
X-2258480Y-4579960D01*
X-2253190Y-4584020D01*
X-2246840Y-4586730D01*
X-2238380Y-4588760D01*
X-2228850Y-4589440D01*
X-2219330Y-4588760D01*
X-2210860Y-4586730D01*
X-2204510Y-4584020D01*
X-2199220Y-4579960D01*
X-2197100Y-4574540D01*
G01X-1727200Y-4069080D02*
X-1790700D01*
X-1778000Y-4060950D01*
G01X-1727200D02*
Y-4077210D01*
G01X-2260600Y-4292600D02*
X-2259540Y-4297340D01*
X-2256370Y-4302760D01*
X-2251080Y-4306150D01*
X-2243670Y-4307500D01*
X-2236260Y-4306150D01*
X-2229910Y-4302080D01*
X-2226730Y-4295990D01*
Y-4289210D01*
X-2224620Y-4285150D01*
X-2219330Y-4281760D01*
X-2211920Y-4280410D01*
X-2204510Y-4282440D01*
X-2199220Y-4287180D01*
X-2197100Y-4292600D01*
X-2199220Y-4298020D01*
X-2204510Y-4302760D01*
X-2211920Y-4304790D01*
X-2219330Y-4303440D01*
X-2224620Y-4300050D01*
X-2226730Y-4295990D01*
Y-4289210D01*
X-2229910Y-4283120D01*
X-2236260Y-4279050D01*
X-2243670Y-4277700D01*
X-2251080Y-4279050D01*
X-2256370Y-4282440D01*
X-2259540Y-4287860D01*
X-2260600Y-4292600D01*
G01X-2234140Y-4025730D02*
X-2226730Y-4030470D01*
X-2222500Y-4034540D01*
X-2220380Y-4039950D01*
X-2222500Y-4044700D01*
X-2226730Y-4048080D01*
X-2233080Y-4050790D01*
X-2240490Y-4051470D01*
X-2246840Y-4050790D01*
X-2253190Y-4048080D01*
X-2258480Y-4044020D01*
X-2260600Y-4039280D01*
X-2258480Y-4033860D01*
X-2252140Y-4029120D01*
X-2242610Y-4026410D01*
X-2232030Y-4025730D01*
X-2218270Y-4027080D01*
X-2210860Y-4029120D01*
X-2203450Y-4032500D01*
X-2198160Y-4037250D01*
X-2197100Y-4041990D01*
X-2199220Y-4046730D01*
X-2204510Y-4050120D01*
G01X-2260600Y-3792730D02*
X-2197100D01*
X-2242610Y-3767670D01*
Y-3801530D01*
G01X-1406100Y-3884000D02*
Y-3723980D01*
X-1455840D01*
X-1471760Y-3731980D01*
X-1481710Y-3742650D01*
X-1485680Y-3763990D01*
X-1481710Y-3785320D01*
X-1469770Y-3798650D01*
X-1455840Y-3806660D01*
X-1406100D01*
G01X-1455840D02*
X-1485680Y-3884000D01*
G01X-1629790D02*
Y-3723980D01*
X-1556170Y-3838660D01*
X-1655650D01*
G01X-1765930Y-3884000D02*
Y-3723980D01*
X-1742050Y-3755980D01*
G01Y-3884000D02*
X-1789800D01*
G01X-1809880Y-2779660D02*
X-1817890Y-2767720D01*
X-1823220Y-2753800D01*
Y-2737880D01*
X-1815220Y-2719970D01*
X-1801880Y-2706050D01*
X-1785880Y-2696100D01*
X-1759210Y-2688140D01*
X-1735210Y-2686150D01*
X-1711210Y-2690130D01*
X-1695200Y-2696100D01*
X-1679200Y-2708040D01*
X-1668530Y-2721960D01*
X-1663200Y-2735890D01*
Y-2749820D01*
X-1668530Y-2763740D01*
X-1676530Y-2775680D01*
X-1687200Y-2785630D01*
G01X-1663200Y-2919790D02*
X-1823220D01*
X-1708540Y-2846170D01*
Y-2945650D01*
G01X-1663200Y-3079810D02*
X-1823220D01*
X-1708540Y-3006190D01*
Y-3105670D01*
G01X-1780120Y-2883010D02*
X-1786470Y-2887070D01*
X-1789640Y-2891820D01*
X-1790700Y-2897230D01*
X-1788580Y-2904010D01*
X-1783290Y-2908750D01*
X-1776940Y-2910100D01*
X-1770590Y-2909430D01*
X-1765300Y-2906720D01*
X-1754720Y-2893170D01*
X-1747310Y-2887070D01*
X-1736720Y-2883010D01*
X-1727200Y-2881660D01*
Y-2910100D01*
G01X-2207680Y-3517730D02*
X-2201330Y-3521790D01*
X-2198160Y-3526540D01*
X-2197100Y-3531950D01*
X-2199220Y-3538730D01*
X-2204510Y-3543470D01*
X-2210860Y-3544820D01*
X-2217210Y-3544150D01*
X-2222500Y-3541440D01*
X-2233080Y-3527890D01*
X-2240490Y-3521790D01*
X-2251080Y-3517730D01*
X-2260600Y-3516380D01*
Y-3544820D01*
G01X-1727200Y-2595880D02*
X-1790700D01*
X-1778000Y-2587750D01*
G01X-1727200D02*
Y-2604010D01*
G01X-1380700Y-2360000D02*
Y-2199980D01*
X-1430440D01*
X-1446360Y-2207980D01*
X-1456310Y-2218650D01*
X-1460280Y-2239990D01*
X-1456310Y-2261320D01*
X-1444370Y-2274650D01*
X-1430440Y-2282660D01*
X-1380700D01*
G01X-1430440D02*
X-1460280Y-2360000D01*
G01X-1604390D02*
Y-2199980D01*
X-1530770Y-2314660D01*
X-1630250D01*
G01X-1696760Y-2328000D02*
X-1708690Y-2346670D01*
X-1724610Y-2357330D01*
X-1742520Y-2360000D01*
X-1758440Y-2357330D01*
X-1774360Y-2344000D01*
X-1784300Y-2328000D01*
X-1786290Y-2311990D01*
X-1782310Y-2293330D01*
X-1768380Y-2279990D01*
X-1754460Y-2274650D01*
X-1736550D01*
G01X-1754460D02*
X-1766400Y-2266660D01*
X-1776350Y-2253320D01*
X-1780320Y-2237320D01*
X-1776350Y-2221320D01*
X-1766400Y-2207980D01*
X-1748490Y-2199980D01*
X-1730580Y-2202650D01*
X-1712680Y-2213320D01*
G01X-1809880Y-1077860D02*
X-1817890Y-1065920D01*
X-1823220Y-1052000D01*
Y-1036080D01*
X-1815220Y-1018170D01*
X-1801880Y-1004250D01*
X-1785880Y-994300D01*
X-1759210Y-986340D01*
X-1735210Y-984350D01*
X-1711210Y-988330D01*
X-1695200Y-994300D01*
X-1679200Y-1006240D01*
X-1668530Y-1020160D01*
X-1663200Y-1034090D01*
Y-1048020D01*
X-1668530Y-1061940D01*
X-1676530Y-1073880D01*
X-1687200Y-1083830D01*
G01X-1663200Y-1217990D02*
X-1823220D01*
X-1708540Y-1144370D01*
Y-1243850D01*
G01X-1729870Y-1316330D02*
X-1748550Y-1330250D01*
X-1759210Y-1342190D01*
X-1764540Y-1358110D01*
X-1759210Y-1372040D01*
X-1748550Y-1381980D01*
X-1732540Y-1389950D01*
X-1713870Y-1391930D01*
X-1697870Y-1389950D01*
X-1681870Y-1381980D01*
X-1668530Y-1370050D01*
X-1663200Y-1356120D01*
X-1668530Y-1340200D01*
X-1684530Y-1326280D01*
X-1708540Y-1318310D01*
X-1735210Y-1316330D01*
X-1769880Y-1320300D01*
X-1788550Y-1326280D01*
X-1807220Y-1336220D01*
X-1820550Y-1350150D01*
X-1823220Y-1364080D01*
X-1817890Y-1378010D01*
X-1804550Y-1387960D01*
G01X-1805520Y-1181210D02*
X-1811870Y-1185270D01*
X-1815040Y-1190020D01*
X-1816100Y-1195430D01*
X-1813980Y-1202210D01*
X-1808690Y-1206950D01*
X-1802340Y-1208300D01*
X-1795990Y-1207630D01*
X-1790700Y-1204920D01*
X-1780120Y-1191370D01*
X-1772710Y-1185270D01*
X-1762120Y-1181210D01*
X-1752600Y-1179860D01*
Y-1208300D01*
G01Y-894080D02*
X-1816100D01*
X-1803400Y-885950D01*
G01X-1752600D02*
Y-902210D01*
G01X-1406100Y-709000D02*
Y-548980D01*
X-1455840D01*
X-1471760Y-556980D01*
X-1481710Y-567650D01*
X-1485680Y-588990D01*
X-1481710Y-610320D01*
X-1469770Y-623650D01*
X-1455840Y-631660D01*
X-1406100D01*
G01X-1455840D02*
X-1485680Y-709000D01*
G01X-1629790D02*
Y-548980D01*
X-1556170Y-663660D01*
X-1655650D01*
G01X-1722160Y-685000D02*
X-1734090Y-698330D01*
X-1748020Y-706330D01*
X-1765930Y-709000D01*
X-1783840Y-703670D01*
X-1797760Y-693000D01*
X-1807710Y-674330D01*
X-1809700Y-653000D01*
X-1805720Y-631660D01*
X-1795770Y-618320D01*
X-1781850Y-607660D01*
X-1767920Y-604990D01*
X-1753990Y-607660D01*
X-1736090Y-618320D01*
X-1742050Y-548980D01*
X-1795770D01*
G01X-1886080Y522340D02*
X-1894090Y534280D01*
X-1899420Y548200D01*
Y564120D01*
X-1891420Y582030D01*
X-1878080Y595950D01*
X-1862080Y605900D01*
X-1835410Y613860D01*
X-1811410Y615850D01*
X-1787410Y611870D01*
X-1771400Y605900D01*
X-1755400Y593960D01*
X-1744730Y580040D01*
X-1739400Y566110D01*
Y552180D01*
X-1744730Y538260D01*
X-1752730Y526320D01*
X-1763400Y516370D01*
G01X-1739400Y382210D02*
X-1899420D01*
X-1784740Y455830D01*
Y356350D01*
G01X-1739400Y246070D02*
X-1742070Y232140D01*
X-1750070Y216230D01*
X-1763400Y206280D01*
X-1782070Y202300D01*
X-1800740Y206280D01*
X-1816740Y218220D01*
X-1824750Y236120D01*
Y256020D01*
X-1830080Y267960D01*
X-1843410Y277910D01*
X-1862080Y281890D01*
X-1880750Y275910D01*
X-1894090Y261990D01*
X-1899420Y246070D01*
X-1894090Y230150D01*
X-1880750Y216230D01*
X-1862080Y210250D01*
X-1843410Y214240D01*
X-1830080Y224180D01*
X-1824750Y236120D01*
Y256020D01*
X-1816740Y273920D01*
X-1800740Y285860D01*
X-1782070Y289840D01*
X-1763400Y285860D01*
X-1750070Y275910D01*
X-1742070Y260000D01*
X-1739400Y246070D01*
G01X-1881720Y418990D02*
X-1888070Y414930D01*
X-1891240Y410180D01*
X-1892300Y404770D01*
X-1890180Y397990D01*
X-1884890Y393250D01*
X-1878540Y391900D01*
X-1872190Y392570D01*
X-1866900Y395280D01*
X-1856320Y408830D01*
X-1848910Y414930D01*
X-1838320Y418990D01*
X-1828800Y420340D01*
Y391900D01*
G01Y706120D02*
X-1892300D01*
X-1879600Y714250D01*
G01X-1828800D02*
Y697990D01*
G01X-1456900Y840400D02*
Y1000420D01*
X-1506640D01*
X-1522560Y992420D01*
X-1532510Y981750D01*
X-1536480Y960410D01*
X-1532510Y939080D01*
X-1520570Y925750D01*
X-1506640Y917740D01*
X-1456900D01*
G01X-1506640D02*
X-1536480Y840400D01*
G01X-1680590D02*
Y1000420D01*
X-1606970Y885740D01*
X-1706450D01*
G01X-1812750Y840400D02*
X-1816730Y875070D01*
X-1822700Y904400D01*
X-1830660Y931080D01*
X-1840610Y960410D01*
X-1856520Y1000420D01*
X-1776940D01*
G01X-2349330Y1344080D02*
X-2353390Y1337730D01*
X-2358140Y1334560D01*
X-2363550Y1333500D01*
X-2370330Y1335620D01*
X-2375070Y1340910D01*
X-2376420Y1347260D01*
X-2375750Y1353610D01*
X-2373040Y1358900D01*
X-2359490Y1369480D01*
X-2353390Y1376890D01*
X-2349330Y1387480D01*
X-2347980Y1397000D01*
X-2376420D01*
G01X-2362200Y2006600D02*
Y1943100D01*
X-2354070Y1955800D01*
G01Y2006600D02*
X-2370330D01*
G01X-1635420Y-6312100D02*
X-1631360Y-6319510D01*
X-1625940Y-6323740D01*
X-1619840Y-6324800D01*
X-1614420Y-6323740D01*
X-1609000Y-6318450D01*
X-1605620Y-6312100D01*
X-1604940Y-6305750D01*
X-1606300Y-6298340D01*
X-1611040Y-6293050D01*
X-1615780Y-6290930D01*
X-1621870D01*
G01X-1615780D02*
X-1611710Y-6287760D01*
X-1608330Y-6282470D01*
X-1606970Y-6276120D01*
X-1608330Y-6269770D01*
X-1611710Y-6264480D01*
X-1617810Y-6261300D01*
X-1623910Y-6262360D01*
X-1630000Y-6266590D01*
G01X-1633390Y-5801880D02*
X-1629330Y-5795530D01*
X-1624580Y-5792360D01*
X-1619170Y-5791300D01*
X-1612390Y-5793420D01*
X-1607650Y-5798710D01*
X-1606300Y-5805060D01*
X-1606970Y-5811410D01*
X-1609680Y-5816700D01*
X-1623230Y-5827280D01*
X-1629330Y-5834690D01*
X-1633390Y-5845280D01*
X-1634740Y-5854800D01*
X-1606300D01*
G01X-1620520Y-5384800D02*
Y-5321300D01*
X-1628650Y-5334000D01*
G01Y-5384800D02*
X-1612390D01*
G01X-1454280Y-4252860D02*
X-1462290Y-4240920D01*
X-1467620Y-4227000D01*
Y-4211080D01*
X-1459620Y-4193170D01*
X-1446280Y-4179250D01*
X-1430280Y-4169300D01*
X-1403610Y-4161340D01*
X-1379610Y-4159350D01*
X-1355610Y-4163330D01*
X-1339600Y-4169300D01*
X-1323600Y-4181240D01*
X-1312930Y-4195160D01*
X-1307600Y-4209090D01*
Y-4223020D01*
X-1312930Y-4236940D01*
X-1320930Y-4248880D01*
X-1331600Y-4258830D01*
G01X-1307600Y-4392990D02*
X-1467620D01*
X-1352940Y-4319370D01*
Y-4418850D01*
G01X-1440950Y-4491330D02*
X-1456950Y-4503260D01*
X-1464950Y-4517190D01*
X-1467620Y-4533110D01*
X-1462290Y-4553010D01*
X-1448950Y-4566930D01*
X-1432950Y-4570910D01*
X-1416940Y-4568920D01*
X-1403610Y-4560960D01*
X-1376940Y-4521170D01*
X-1358270Y-4503260D01*
X-1331600Y-4491330D01*
X-1307600Y-4487350D01*
Y-4570910D01*
G01X-1449920Y-4356210D02*
X-1456270Y-4360270D01*
X-1459440Y-4365020D01*
X-1460500Y-4370430D01*
X-1458380Y-4377210D01*
X-1453090Y-4381950D01*
X-1446740Y-4383300D01*
X-1440390Y-4382630D01*
X-1435100Y-4379920D01*
X-1424520Y-4366370D01*
X-1417110Y-4360270D01*
X-1406520Y-4356210D01*
X-1397000Y-4354860D01*
Y-4383300D01*
G01Y-4069080D02*
X-1460500D01*
X-1447800Y-4060950D01*
G01X-1397000D02*
Y-4077210D01*
G01X-1562210Y-3757080D02*
X-1566270Y-3750730D01*
X-1571020Y-3747560D01*
X-1576430Y-3746500D01*
X-1583210Y-3748620D01*
X-1587950Y-3753910D01*
X-1589300Y-3760260D01*
X-1588630Y-3766610D01*
X-1585920Y-3771900D01*
X-1572370Y-3782480D01*
X-1566270Y-3789890D01*
X-1562210Y-3800480D01*
X-1560860Y-3810000D01*
X-1589300D01*
G01X-1275080D02*
Y-3746500D01*
X-1266950Y-3759200D01*
G01Y-3810000D02*
X-1283210D01*
G01X-771100Y-3884000D02*
Y-3723980D01*
X-820840D01*
X-836760Y-3731980D01*
X-846710Y-3742650D01*
X-850680Y-3763990D01*
X-846710Y-3785320D01*
X-834770Y-3798650D01*
X-820840Y-3806660D01*
X-771100D01*
G01X-820840D02*
X-850680Y-3884000D01*
G01X-994790D02*
Y-3723980D01*
X-921170Y-3838660D01*
X-1020650D01*
G01X-1130930Y-3723980D02*
X-1115010Y-3729310D01*
X-1103080Y-3742650D01*
X-1095110Y-3758650D01*
X-1089150Y-3779990D01*
X-1087160Y-3803990D01*
X-1089150Y-3828000D01*
X-1095110Y-3849330D01*
X-1103080Y-3865330D01*
X-1115010Y-3878670D01*
X-1130930Y-3884000D01*
X-1146850Y-3878670D01*
X-1158780Y-3865330D01*
X-1166750Y-3849330D01*
X-1172710Y-3828000D01*
X-1174700Y-3803990D01*
X-1172710Y-3779990D01*
X-1166750Y-3758650D01*
X-1158780Y-3742650D01*
X-1146850Y-3729310D01*
X-1130930Y-3723980D01*
G01X-927210Y-3757080D02*
X-931270Y-3750730D01*
X-936020Y-3747560D01*
X-941430Y-3746500D01*
X-948210Y-3748620D01*
X-952950Y-3753910D01*
X-954300Y-3760260D01*
X-953630Y-3766610D01*
X-950920Y-3771900D01*
X-937370Y-3782480D01*
X-931270Y-3789890D01*
X-927210Y-3800480D01*
X-925860Y-3810000D01*
X-954300D01*
G01X-1479680Y-2779660D02*
X-1487690Y-2767720D01*
X-1493020Y-2753800D01*
Y-2737880D01*
X-1485020Y-2719970D01*
X-1471680Y-2706050D01*
X-1455680Y-2696100D01*
X-1429010Y-2688140D01*
X-1405010Y-2686150D01*
X-1381010Y-2690130D01*
X-1365000Y-2696100D01*
X-1349000Y-2708040D01*
X-1338330Y-2721960D01*
X-1333000Y-2735890D01*
Y-2749820D01*
X-1338330Y-2763740D01*
X-1346330Y-2775680D01*
X-1357000Y-2785630D01*
G01X-1333000Y-2919790D02*
X-1493020D01*
X-1378340Y-2846170D01*
Y-2945650D01*
G01X-1357000Y-3012160D02*
X-1343670Y-3024090D01*
X-1335670Y-3038020D01*
X-1333000Y-3055930D01*
X-1338330Y-3073840D01*
X-1349000Y-3087760D01*
X-1367670Y-3097710D01*
X-1389000Y-3099700D01*
X-1410340Y-3095720D01*
X-1423680Y-3085770D01*
X-1434340Y-3071850D01*
X-1437010Y-3057920D01*
X-1434340Y-3043990D01*
X-1423680Y-3026090D01*
X-1493020Y-3032050D01*
Y-3085770D01*
G01X-1449920Y-2883010D02*
X-1456270Y-2887070D01*
X-1459440Y-2891820D01*
X-1460500Y-2897230D01*
X-1458380Y-2904010D01*
X-1453090Y-2908750D01*
X-1446740Y-2910100D01*
X-1440390Y-2909430D01*
X-1435100Y-2906720D01*
X-1424520Y-2893170D01*
X-1417110Y-2887070D01*
X-1406520Y-2883010D01*
X-1397000Y-2881660D01*
Y-2910100D01*
G01Y-2595880D02*
X-1460500D01*
X-1447800Y-2587750D01*
G01X-1397000D02*
Y-2604010D01*
G01X-1562210Y-2233080D02*
X-1566270Y-2226730D01*
X-1571020Y-2223560D01*
X-1576430Y-2222500D01*
X-1583210Y-2224620D01*
X-1587950Y-2229910D01*
X-1589300Y-2236260D01*
X-1588630Y-2242610D01*
X-1585920Y-2247900D01*
X-1572370Y-2258480D01*
X-1566270Y-2265890D01*
X-1562210Y-2276480D01*
X-1560860Y-2286000D01*
X-1589300D01*
G01X-1275080D02*
Y-2222500D01*
X-1266950Y-2235200D01*
G01Y-2286000D02*
X-1283210D01*
G01X-745700Y-2360000D02*
Y-2199980D01*
X-795440D01*
X-811360Y-2207980D01*
X-821310Y-2218650D01*
X-825280Y-2239990D01*
X-821310Y-2261320D01*
X-809370Y-2274650D01*
X-795440Y-2282660D01*
X-745700D01*
G01X-795440D02*
X-825280Y-2360000D01*
G01X-969390D02*
Y-2199980D01*
X-895770Y-2314660D01*
X-995250D01*
G01X-1067730Y-2226650D02*
X-1079660Y-2210650D01*
X-1093590Y-2202650D01*
X-1109510Y-2199980D01*
X-1129410Y-2205310D01*
X-1143330Y-2218650D01*
X-1147310Y-2234650D01*
X-1145320Y-2250660D01*
X-1137360Y-2263990D01*
X-1097570Y-2290660D01*
X-1079660Y-2309330D01*
X-1067730Y-2336000D01*
X-1063750Y-2360000D01*
X-1147310D01*
G01X-927210Y-2233080D02*
X-931270Y-2226730D01*
X-936020Y-2223560D01*
X-941430Y-2222500D01*
X-948210Y-2224620D01*
X-952950Y-2229910D01*
X-954300Y-2236260D01*
X-953630Y-2242610D01*
X-950920Y-2247900D01*
X-937370Y-2258480D01*
X-931270Y-2265890D01*
X-927210Y-2276480D01*
X-925860Y-2286000D01*
X-954300D01*
G01X-1505080Y-1077860D02*
X-1513090Y-1065920D01*
X-1518420Y-1052000D01*
Y-1036080D01*
X-1510420Y-1018170D01*
X-1497080Y-1004250D01*
X-1481080Y-994300D01*
X-1454410Y-986340D01*
X-1430410Y-984350D01*
X-1406410Y-988330D01*
X-1390400Y-994300D01*
X-1374400Y-1006240D01*
X-1363730Y-1020160D01*
X-1358400Y-1034090D01*
Y-1048020D01*
X-1363730Y-1061940D01*
X-1371730Y-1073880D01*
X-1382400Y-1083830D01*
G01X-1358400Y-1217990D02*
X-1518420D01*
X-1403740Y-1144370D01*
Y-1243850D01*
G01X-1358400Y-1350150D02*
X-1393070Y-1354130D01*
X-1422400Y-1360100D01*
X-1449080Y-1368060D01*
X-1478410Y-1378010D01*
X-1518420Y-1393920D01*
Y-1314340D01*
G01X-1500720Y-1181210D02*
X-1507070Y-1185270D01*
X-1510240Y-1190020D01*
X-1511300Y-1195430D01*
X-1509180Y-1202210D01*
X-1503890Y-1206950D01*
X-1497540Y-1208300D01*
X-1491190Y-1207630D01*
X-1485900Y-1204920D01*
X-1475320Y-1191370D01*
X-1467910Y-1185270D01*
X-1457320Y-1181210D01*
X-1447800Y-1179860D01*
Y-1208300D01*
G01Y-894080D02*
X-1511300D01*
X-1498600Y-885950D01*
G01X-1447800D02*
Y-902210D01*
G01X-1587610Y-582080D02*
X-1591670Y-575730D01*
X-1596420Y-572560D01*
X-1601830Y-571500D01*
X-1608610Y-573620D01*
X-1613350Y-578910D01*
X-1614700Y-585260D01*
X-1614030Y-591610D01*
X-1611320Y-596900D01*
X-1597770Y-607480D01*
X-1591670Y-614890D01*
X-1587610Y-625480D01*
X-1586260Y-635000D01*
X-1614700D01*
G01X-1300480D02*
Y-571500D01*
X-1292350Y-584200D01*
G01Y-635000D02*
X-1308610D01*
G01X-745700Y-709000D02*
Y-548980D01*
X-795440D01*
X-811360Y-556980D01*
X-821310Y-567650D01*
X-825280Y-588990D01*
X-821310Y-610320D01*
X-809370Y-623650D01*
X-795440Y-631660D01*
X-745700D01*
G01X-795440D02*
X-825280Y-709000D01*
G01X-969390D02*
Y-548980D01*
X-895770Y-663660D01*
X-995250D01*
G01X-1129410Y-709000D02*
Y-548980D01*
X-1055790Y-663660D01*
X-1155270D01*
G01X-927210Y-582080D02*
X-931270Y-575730D01*
X-936020Y-572560D01*
X-941430Y-571500D01*
X-948210Y-573620D01*
X-952950Y-578910D01*
X-954300Y-585260D01*
X-953630Y-591610D01*
X-950920Y-596900D01*
X-937370Y-607480D01*
X-931270Y-614890D01*
X-927210Y-625480D01*
X-925860Y-635000D01*
X-954300D01*
G01X-1530480Y522340D02*
X-1538490Y534280D01*
X-1543820Y548200D01*
Y564120D01*
X-1535820Y582030D01*
X-1522480Y595950D01*
X-1506480Y605900D01*
X-1479810Y613860D01*
X-1455810Y615850D01*
X-1431810Y611870D01*
X-1415800Y605900D01*
X-1399800Y593960D01*
X-1389130Y580040D01*
X-1383800Y566110D01*
Y552180D01*
X-1389130Y538260D01*
X-1397130Y526320D01*
X-1407800Y516370D01*
G01X-1383800Y382210D02*
X-1543820D01*
X-1429140Y455830D01*
Y356350D01*
G01X-1402470Y279900D02*
X-1389130Y265970D01*
X-1383800Y250050D01*
X-1389130Y234130D01*
X-1405130Y220200D01*
X-1429140Y210250D01*
X-1453140Y206280D01*
X-1482480D01*
X-1506480Y210250D01*
X-1527820Y220200D01*
X-1538490Y232140D01*
X-1543820Y246070D01*
X-1538490Y261990D01*
X-1527820Y273920D01*
X-1511820Y281890D01*
X-1490480Y285860D01*
X-1471810Y281890D01*
X-1453140Y271940D01*
X-1442470Y260000D01*
X-1439800Y246070D01*
X-1445140Y230150D01*
X-1458470Y218220D01*
X-1482480Y206280D01*
G01X-1526120Y418990D02*
X-1532470Y414930D01*
X-1535640Y410180D01*
X-1536700Y404770D01*
X-1534580Y397990D01*
X-1529290Y393250D01*
X-1522940Y391900D01*
X-1516590Y392570D01*
X-1511300Y395280D01*
X-1500720Y408830D01*
X-1493310Y414930D01*
X-1482720Y418990D01*
X-1473200Y420340D01*
Y391900D01*
G01Y706120D02*
X-1536700D01*
X-1524000Y714250D01*
G01X-1473200D02*
Y697990D01*
G01X-1663810Y992720D02*
X-1667870Y999070D01*
X-1672620Y1002240D01*
X-1678030Y1003300D01*
X-1684810Y1001180D01*
X-1689550Y995890D01*
X-1690900Y989540D01*
X-1690230Y983190D01*
X-1687520Y977900D01*
X-1673970Y967320D01*
X-1667870Y959910D01*
X-1663810Y949320D01*
X-1662460Y939800D01*
X-1690900D01*
G01X-1376680D02*
Y1003300D01*
X-1368550Y990600D01*
G01Y939800D02*
X-1384810D01*
G01X-720300Y840400D02*
Y1000420D01*
X-770040D01*
X-785960Y992420D01*
X-795910Y981750D01*
X-799880Y960410D01*
X-795910Y939080D01*
X-783970Y925750D01*
X-770040Y917740D01*
X-720300D01*
G01X-770040D02*
X-799880Y840400D01*
G01X-943990D02*
Y1000420D01*
X-870370Y885740D01*
X-969850D01*
G01X-1042330Y907070D02*
X-1056250Y925750D01*
X-1068190Y936410D01*
X-1084110Y941740D01*
X-1098040Y936410D01*
X-1107980Y925750D01*
X-1115950Y909740D01*
X-1117930Y891070D01*
X-1115950Y875070D01*
X-1107980Y859070D01*
X-1096050Y845730D01*
X-1082120Y840400D01*
X-1066200Y845730D01*
X-1052280Y861730D01*
X-1044310Y885740D01*
X-1042330Y912410D01*
X-1046300Y947080D01*
X-1052280Y965750D01*
X-1062220Y984420D01*
X-1076150Y997750D01*
X-1090080Y1000420D01*
X-1104010Y995090D01*
X-1113960Y981750D01*
G01X-927210Y992720D02*
X-931270Y999070D01*
X-936020Y1002240D01*
X-941430Y1003300D01*
X-948210Y1001180D01*
X-952950Y995890D01*
X-954300Y989540D01*
X-953630Y983190D01*
X-950920Y977900D01*
X-937370Y967320D01*
X-931270Y959910D01*
X-927210Y949320D01*
X-925860Y939800D01*
X-954300D01*
G01X-640080Y-3810000D02*
Y-3746500D01*
X-631950Y-3759200D01*
G01Y-3810000D02*
X-648210D01*
G01X-184280Y-2779660D02*
X-192290Y-2767720D01*
X-197620Y-2753800D01*
Y-2737880D01*
X-189620Y-2719970D01*
X-176280Y-2706050D01*
X-160280Y-2696100D01*
X-133610Y-2688140D01*
X-109610Y-2686150D01*
X-85610Y-2690130D01*
X-69600Y-2696100D01*
X-53600Y-2708040D01*
X-42930Y-2721960D01*
X-37600Y-2735890D01*
Y-2749820D01*
X-42930Y-2763740D01*
X-50930Y-2775680D01*
X-61600Y-2785630D01*
G01X-69600Y-2852140D02*
X-50930Y-2864070D01*
X-40270Y-2879990D01*
X-37600Y-2897900D01*
X-40270Y-2913820D01*
X-53600Y-2929740D01*
X-69600Y-2939680D01*
X-85610Y-2941670D01*
X-104270Y-2937690D01*
X-117610Y-2923760D01*
X-122950Y-2909840D01*
Y-2891930D01*
G01Y-2909840D02*
X-130940Y-2921780D01*
X-144280Y-2931730D01*
X-160280Y-2935700D01*
X-176280Y-2931730D01*
X-189620Y-2921780D01*
X-197620Y-2903870D01*
X-194950Y-2885960D01*
X-184280Y-2868060D01*
G01X-104270Y-3018130D02*
X-122950Y-3032050D01*
X-133610Y-3043990D01*
X-138940Y-3059910D01*
X-133610Y-3073840D01*
X-122950Y-3083780D01*
X-106940Y-3091750D01*
X-88270Y-3093730D01*
X-72270Y-3091750D01*
X-56270Y-3083780D01*
X-42930Y-3071850D01*
X-37600Y-3057920D01*
X-42930Y-3042000D01*
X-58930Y-3028080D01*
X-82940Y-3020110D01*
X-109610Y-3018130D01*
X-144280Y-3022100D01*
X-162950Y-3028080D01*
X-181620Y-3038020D01*
X-194950Y-3051950D01*
X-197620Y-3065880D01*
X-192290Y-3079810D01*
X-178950Y-3089760D01*
G01X-640080Y-2286000D02*
Y-2222500D01*
X-631950Y-2235200D01*
G01Y-2286000D02*
X-648210D01*
G01X-640080Y-635000D02*
Y-571500D01*
X-631950Y-584200D01*
G01Y-635000D02*
X-648210D01*
G01X-640080Y939800D02*
Y1003300D01*
X-631950Y990600D01*
G01Y939800D02*
X-648210D01*
G01X-133480Y-4252860D02*
X-141490Y-4240920D01*
X-146820Y-4227000D01*
Y-4211080D01*
X-138820Y-4193170D01*
X-125480Y-4179250D01*
X-109480Y-4169300D01*
X-82810Y-4161340D01*
X-58810Y-4159350D01*
X-34810Y-4163330D01*
X-18800Y-4169300D01*
X-2800Y-4181240D01*
X7870Y-4195160D01*
X13200Y-4209090D01*
Y-4223020D01*
X7870Y-4236940D01*
X-130Y-4248880D01*
X-10800Y-4258830D01*
G01X-18800Y-4325340D02*
X-130Y-4337270D01*
X10530Y-4353190D01*
X13200Y-4371100D01*
X10530Y-4387020D01*
X-2800Y-4402940D01*
X-18800Y-4412880D01*
X-34810Y-4414870D01*
X-53470Y-4410890D01*
X-66810Y-4396960D01*
X-72150Y-4383040D01*
Y-4365130D01*
G01Y-4383040D02*
X-80140Y-4394980D01*
X-93480Y-4404930D01*
X-109480Y-4408900D01*
X-125480Y-4404930D01*
X-138820Y-4394980D01*
X-146820Y-4377070D01*
X-144150Y-4359160D01*
X-133480Y-4341260D01*
G01X13200Y-4553010D02*
X-146820D01*
X-32140Y-4479390D01*
Y-4578870D01*
G01X-129120Y-4356210D02*
X-135470Y-4360270D01*
X-138640Y-4365020D01*
X-139700Y-4370430D01*
X-137580Y-4377210D01*
X-132290Y-4381950D01*
X-125940Y-4383300D01*
X-119590Y-4382630D01*
X-114300Y-4379920D01*
X-103720Y-4366370D01*
X-96310Y-4360270D01*
X-85720Y-4356210D01*
X-76200Y-4354860D01*
Y-4383300D01*
G01X196720Y-4252860D02*
X188710Y-4240920D01*
X183380Y-4227000D01*
Y-4211080D01*
X191380Y-4193170D01*
X204720Y-4179250D01*
X220720Y-4169300D01*
X247390Y-4161340D01*
X271390Y-4159350D01*
X295390Y-4163330D01*
X311400Y-4169300D01*
X327400Y-4181240D01*
X338070Y-4195160D01*
X343400Y-4209090D01*
Y-4223020D01*
X338070Y-4236940D01*
X330070Y-4248880D01*
X319400Y-4258830D01*
G01X311400Y-4325340D02*
X330070Y-4337270D01*
X340730Y-4353190D01*
X343400Y-4371100D01*
X340730Y-4387020D01*
X327400Y-4402940D01*
X311400Y-4412880D01*
X295390Y-4414870D01*
X276730Y-4410890D01*
X263390Y-4396960D01*
X258050Y-4383040D01*
Y-4365130D01*
G01Y-4383040D02*
X250060Y-4394980D01*
X236720Y-4404930D01*
X220720Y-4408900D01*
X204720Y-4404930D01*
X191380Y-4394980D01*
X183380Y-4377070D01*
X186050Y-4359160D01*
X196720Y-4341260D01*
G01X319400Y-4485360D02*
X332730Y-4497290D01*
X340730Y-4511220D01*
X343400Y-4529130D01*
X338070Y-4547040D01*
X327400Y-4560960D01*
X308730Y-4570910D01*
X287400Y-4572900D01*
X266060Y-4568920D01*
X252720Y-4558970D01*
X242060Y-4545050D01*
X239390Y-4531120D01*
X242060Y-4517190D01*
X252720Y-4499290D01*
X183380Y-4505250D01*
Y-4558970D01*
G01X201080Y-4356210D02*
X194730Y-4360270D01*
X191560Y-4365020D01*
X190500Y-4370430D01*
X192620Y-4377210D01*
X197910Y-4381950D01*
X204260Y-4383300D01*
X210610Y-4382630D01*
X215900Y-4379920D01*
X226480Y-4366370D01*
X233890Y-4360270D01*
X244480Y-4356210D01*
X254000Y-4354860D01*
Y-4383300D01*
G01X-76200Y-4069080D02*
X-139700D01*
X-127000Y-4060950D01*
G01X-76200D02*
Y-4077210D01*
G01X254000Y-4069080D02*
X190500D01*
X203200Y-4060950D01*
G01X254000D02*
Y-4077210D01*
G01X244900Y-3884000D02*
Y-3723980D01*
X195160D01*
X179240Y-3731980D01*
X169290Y-3742650D01*
X165320Y-3763990D01*
X169290Y-3785320D01*
X181230Y-3798650D01*
X195160Y-3806660D01*
X244900D01*
G01X195160D02*
X165320Y-3884000D01*
G01X88860Y-3852000D02*
X76930Y-3870670D01*
X61010Y-3881330D01*
X43100Y-3884000D01*
X27180Y-3881330D01*
X11260Y-3868000D01*
X1320Y-3852000D01*
X-670Y-3835990D01*
X3310Y-3817330D01*
X17240Y-3803990D01*
X31160Y-3798650D01*
X49070D01*
G01X31160D02*
X19220Y-3790660D01*
X9270Y-3777320D01*
X5300Y-3761320D01*
X9270Y-3745320D01*
X19220Y-3731980D01*
X37130Y-3723980D01*
X55040Y-3726650D01*
X72940Y-3737320D01*
G01X-71160Y-3852000D02*
X-83090Y-3870670D01*
X-99010Y-3881330D01*
X-116920Y-3884000D01*
X-132840Y-3881330D01*
X-148760Y-3868000D01*
X-158700Y-3852000D01*
X-160690Y-3835990D01*
X-156710Y-3817330D01*
X-142780Y-3803990D01*
X-128860Y-3798650D01*
X-110950D01*
G01X-128860D02*
X-140800Y-3790660D01*
X-150750Y-3777320D01*
X-154720Y-3761320D01*
X-150750Y-3745320D01*
X-140800Y-3731980D01*
X-122890Y-3723980D01*
X-104980Y-3726650D01*
X-87080Y-3737320D01*
G01X88790Y-3757080D02*
X84730Y-3750730D01*
X79980Y-3747560D01*
X74570Y-3746500D01*
X67790Y-3748620D01*
X63050Y-3753910D01*
X61700Y-3760260D01*
X62370Y-3766610D01*
X65080Y-3771900D01*
X78630Y-3782480D01*
X84730Y-3789890D01*
X88790Y-3800480D01*
X90140Y-3810000D01*
X61700D01*
G01X375920D02*
Y-3746500D01*
X384050Y-3759200D01*
G01Y-3810000D02*
X367790D01*
G01X879900Y-3884000D02*
Y-3723980D01*
X830160D01*
X814240Y-3731980D01*
X804290Y-3742650D01*
X800320Y-3763990D01*
X804290Y-3785320D01*
X816230Y-3798650D01*
X830160Y-3806660D01*
X879900D01*
G01X830160D02*
X800320Y-3884000D01*
G01X723860Y-3852000D02*
X711930Y-3870670D01*
X696010Y-3881330D01*
X678100Y-3884000D01*
X662180Y-3881330D01*
X646260Y-3868000D01*
X636320Y-3852000D01*
X634330Y-3835990D01*
X638310Y-3817330D01*
X652240Y-3803990D01*
X666160Y-3798650D01*
X684070D01*
G01X666160D02*
X654220Y-3790660D01*
X644270Y-3777320D01*
X640300Y-3761320D01*
X644270Y-3745320D01*
X654220Y-3731980D01*
X672130Y-3723980D01*
X690040Y-3726650D01*
X707940Y-3737320D01*
G01X557870Y-3750650D02*
X545940Y-3734650D01*
X532010Y-3726650D01*
X516090Y-3723980D01*
X496190Y-3729310D01*
X482270Y-3742650D01*
X478290Y-3758650D01*
X480280Y-3774660D01*
X488240Y-3787990D01*
X528030Y-3814660D01*
X545940Y-3833330D01*
X557870Y-3860000D01*
X561850Y-3884000D01*
X478290D01*
G01X-154520Y-2883010D02*
X-160870Y-2887070D01*
X-164040Y-2891820D01*
X-165100Y-2897230D01*
X-162980Y-2904010D01*
X-157690Y-2908750D01*
X-151340Y-2910100D01*
X-144990Y-2909430D01*
X-139700Y-2906720D01*
X-129120Y-2893170D01*
X-121710Y-2887070D01*
X-111120Y-2883010D01*
X-101600Y-2881660D01*
Y-2910100D01*
G01X120520Y-2779660D02*
X112510Y-2767720D01*
X107180Y-2753800D01*
Y-2737880D01*
X115180Y-2719970D01*
X128520Y-2706050D01*
X144520Y-2696100D01*
X171190Y-2688140D01*
X195190Y-2686150D01*
X219190Y-2690130D01*
X235200Y-2696100D01*
X251200Y-2708040D01*
X261870Y-2721960D01*
X267200Y-2735890D01*
Y-2749820D01*
X261870Y-2763740D01*
X253870Y-2775680D01*
X243200Y-2785630D01*
G01X235200Y-2852140D02*
X253870Y-2864070D01*
X264530Y-2879990D01*
X267200Y-2897900D01*
X264530Y-2913820D01*
X251200Y-2929740D01*
X235200Y-2939680D01*
X219190Y-2941670D01*
X200530Y-2937690D01*
X187190Y-2923760D01*
X181850Y-2909840D01*
Y-2891930D01*
G01Y-2909840D02*
X173860Y-2921780D01*
X160520Y-2931730D01*
X144520Y-2935700D01*
X128520Y-2931730D01*
X115180Y-2921780D01*
X107180Y-2903870D01*
X109850Y-2885960D01*
X120520Y-2868060D01*
G01X267200Y-3051950D02*
X232530Y-3055930D01*
X203200Y-3061900D01*
X176520Y-3069860D01*
X147190Y-3079810D01*
X107180Y-3095720D01*
Y-3016140D01*
G01X150280Y-2883010D02*
X143930Y-2887070D01*
X140760Y-2891820D01*
X139700Y-2897230D01*
X141820Y-2904010D01*
X147110Y-2908750D01*
X153460Y-2910100D01*
X159810Y-2909430D01*
X165100Y-2906720D01*
X175680Y-2893170D01*
X183090Y-2887070D01*
X193680Y-2883010D01*
X203200Y-2881660D01*
Y-2910100D01*
G01X-101600Y-2595880D02*
X-165100D01*
X-152400Y-2587750D01*
G01X-101600D02*
Y-2604010D01*
G01X203200Y-2595880D02*
X139700D01*
X152400Y-2587750D01*
G01X203200D02*
Y-2604010D01*
G01X244900Y-2360000D02*
Y-2199980D01*
X195160D01*
X179240Y-2207980D01*
X169290Y-2218650D01*
X165320Y-2239990D01*
X169290Y-2261320D01*
X181230Y-2274650D01*
X195160Y-2282660D01*
X244900D01*
G01X195160D02*
X165320Y-2360000D01*
G01X88860Y-2328000D02*
X76930Y-2346670D01*
X61010Y-2357330D01*
X43100Y-2360000D01*
X27180Y-2357330D01*
X11260Y-2344000D01*
X1320Y-2328000D01*
X-670Y-2311990D01*
X3310Y-2293330D01*
X17240Y-2279990D01*
X31160Y-2274650D01*
X49070D01*
G01X31160D02*
X19220Y-2266660D01*
X9270Y-2253320D01*
X5300Y-2237320D01*
X9270Y-2221320D01*
X19220Y-2207980D01*
X37130Y-2199980D01*
X55040Y-2202650D01*
X72940Y-2213320D01*
G01X-71160Y-2336000D02*
X-83090Y-2349330D01*
X-97020Y-2357330D01*
X-114930Y-2360000D01*
X-132840Y-2354670D01*
X-146760Y-2344000D01*
X-156710Y-2325330D01*
X-158700Y-2304000D01*
X-154720Y-2282660D01*
X-144770Y-2269320D01*
X-130850Y-2258660D01*
X-116920Y-2255990D01*
X-102990Y-2258660D01*
X-85090Y-2269320D01*
X-91050Y-2199980D01*
X-144770D01*
G01X63390Y-2233080D02*
X59330Y-2226730D01*
X54580Y-2223560D01*
X49170Y-2222500D01*
X42390Y-2224620D01*
X37650Y-2229910D01*
X36300Y-2236260D01*
X36970Y-2242610D01*
X39680Y-2247900D01*
X53230Y-2258480D01*
X59330Y-2265890D01*
X63390Y-2276480D01*
X64740Y-2286000D01*
X36300D01*
G01X350520D02*
Y-2222500D01*
X358650Y-2235200D01*
G01Y-2286000D02*
X342390D01*
G01X930700Y-2360000D02*
Y-2199980D01*
X880960D01*
X865040Y-2207980D01*
X855090Y-2218650D01*
X851120Y-2239990D01*
X855090Y-2261320D01*
X867030Y-2274650D01*
X880960Y-2282660D01*
X930700D01*
G01X880960D02*
X851120Y-2360000D01*
G01X774660Y-2328000D02*
X762730Y-2346670D01*
X746810Y-2357330D01*
X728900Y-2360000D01*
X712980Y-2357330D01*
X697060Y-2344000D01*
X687120Y-2328000D01*
X685130Y-2311990D01*
X689110Y-2293330D01*
X703040Y-2279990D01*
X716960Y-2274650D01*
X734870D01*
G01X716960D02*
X705020Y-2266660D01*
X695070Y-2253320D01*
X691100Y-2237320D01*
X695070Y-2221320D01*
X705020Y-2207980D01*
X722930Y-2199980D01*
X740840Y-2202650D01*
X758740Y-2213320D01*
G01X546990Y-2360000D02*
Y-2199980D01*
X620610Y-2314660D01*
X521130D01*
G01X-158880Y-1077860D02*
X-166890Y-1065920D01*
X-172220Y-1052000D01*
Y-1036080D01*
X-164220Y-1018170D01*
X-150880Y-1004250D01*
X-134880Y-994300D01*
X-108210Y-986340D01*
X-84210Y-984350D01*
X-60210Y-988330D01*
X-44200Y-994300D01*
X-28200Y-1006240D01*
X-17530Y-1020160D01*
X-12200Y-1034090D01*
Y-1048020D01*
X-17530Y-1061940D01*
X-25530Y-1073880D01*
X-36200Y-1083830D01*
G01X-44200Y-1150340D02*
X-25530Y-1162270D01*
X-14870Y-1178190D01*
X-12200Y-1196100D01*
X-14870Y-1212020D01*
X-28200Y-1227940D01*
X-44200Y-1237880D01*
X-60210Y-1239870D01*
X-78870Y-1235890D01*
X-92210Y-1221960D01*
X-97550Y-1208040D01*
Y-1190130D01*
G01Y-1208040D02*
X-105540Y-1219980D01*
X-118880Y-1229930D01*
X-134880Y-1233900D01*
X-150880Y-1229930D01*
X-164220Y-1219980D01*
X-172220Y-1202070D01*
X-169550Y-1184160D01*
X-158880Y-1166260D01*
G01X-12200Y-1354130D02*
X-14870Y-1368060D01*
X-22870Y-1383970D01*
X-36200Y-1393920D01*
X-54870Y-1397900D01*
X-73540Y-1393920D01*
X-89540Y-1381980D01*
X-97550Y-1364080D01*
Y-1344180D01*
X-102880Y-1332240D01*
X-116210Y-1322290D01*
X-134880Y-1318310D01*
X-153550Y-1324290D01*
X-166890Y-1338210D01*
X-172220Y-1354130D01*
X-166890Y-1370050D01*
X-153550Y-1383970D01*
X-134880Y-1389950D01*
X-116210Y-1385960D01*
X-102880Y-1376020D01*
X-97550Y-1364080D01*
Y-1344180D01*
X-89540Y-1326280D01*
X-73540Y-1314340D01*
X-54870Y-1310360D01*
X-36200Y-1314340D01*
X-22870Y-1324290D01*
X-14870Y-1340200D01*
X-12200Y-1354130D01*
G01X171320Y-1077860D02*
X163310Y-1065920D01*
X157980Y-1052000D01*
Y-1036080D01*
X165980Y-1018170D01*
X179320Y-1004250D01*
X195320Y-994300D01*
X221990Y-986340D01*
X245990Y-984350D01*
X269990Y-988330D01*
X286000Y-994300D01*
X302000Y-1006240D01*
X312670Y-1020160D01*
X318000Y-1034090D01*
Y-1048020D01*
X312670Y-1061940D01*
X304670Y-1073880D01*
X294000Y-1083830D01*
G01X286000Y-1150340D02*
X304670Y-1162270D01*
X315330Y-1178190D01*
X318000Y-1196100D01*
X315330Y-1212020D01*
X302000Y-1227940D01*
X286000Y-1237880D01*
X269990Y-1239870D01*
X251330Y-1235890D01*
X237990Y-1221960D01*
X232650Y-1208040D01*
Y-1190130D01*
G01Y-1208040D02*
X224660Y-1219980D01*
X211320Y-1229930D01*
X195320Y-1233900D01*
X179320Y-1229930D01*
X165980Y-1219980D01*
X157980Y-1202070D01*
X160650Y-1184160D01*
X171320Y-1166260D01*
G01X299330Y-1320300D02*
X312670Y-1334230D01*
X318000Y-1350150D01*
X312670Y-1366070D01*
X296670Y-1380000D01*
X272660Y-1389950D01*
X248660Y-1393920D01*
X219320D01*
X195320Y-1389950D01*
X173980Y-1380000D01*
X163310Y-1368060D01*
X157980Y-1354130D01*
X163310Y-1338210D01*
X173980Y-1326280D01*
X189980Y-1318310D01*
X211320Y-1314340D01*
X229990Y-1318310D01*
X248660Y-1328260D01*
X259330Y-1340200D01*
X262000Y-1354130D01*
X256660Y-1370050D01*
X243330Y-1381980D01*
X219320Y-1393920D01*
G01X-154520Y-1181210D02*
X-160870Y-1185270D01*
X-164040Y-1190020D01*
X-165100Y-1195430D01*
X-162980Y-1202210D01*
X-157690Y-1206950D01*
X-151340Y-1208300D01*
X-144990Y-1207630D01*
X-139700Y-1204920D01*
X-129120Y-1191370D01*
X-121710Y-1185270D01*
X-111120Y-1181210D01*
X-101600Y-1179860D01*
Y-1208300D01*
G01Y-894080D02*
X-165100D01*
X-152400Y-885950D01*
G01X-101600D02*
Y-902210D01*
G01X175680Y-1181210D02*
X169330Y-1185270D01*
X166160Y-1190020D01*
X165100Y-1195430D01*
X167220Y-1202210D01*
X172510Y-1206950D01*
X178860Y-1208300D01*
X185210Y-1207630D01*
X190500Y-1204920D01*
X201080Y-1191370D01*
X208490Y-1185270D01*
X219080Y-1181210D01*
X228600Y-1179860D01*
Y-1208300D01*
G01Y-894080D02*
X165100D01*
X177800Y-885950D01*
G01X228600D02*
Y-902210D01*
G01X244900Y-709000D02*
Y-548980D01*
X195160D01*
X179240Y-556980D01*
X169290Y-567650D01*
X165320Y-588990D01*
X169290Y-610320D01*
X181230Y-623650D01*
X195160Y-631660D01*
X244900D01*
G01X195160D02*
X165320Y-709000D01*
G01X88860Y-677000D02*
X76930Y-695670D01*
X61010Y-706330D01*
X43100Y-709000D01*
X27180Y-706330D01*
X11260Y-693000D01*
X1320Y-677000D01*
X-670Y-660990D01*
X3310Y-642330D01*
X17240Y-628990D01*
X31160Y-623650D01*
X49070D01*
G01X31160D02*
X19220Y-615660D01*
X9270Y-602320D01*
X5300Y-586320D01*
X9270Y-570320D01*
X19220Y-556980D01*
X37130Y-548980D01*
X55040Y-551650D01*
X72940Y-562320D01*
G01X-110950Y-709000D02*
X-114930Y-674330D01*
X-120900Y-645000D01*
X-128860Y-618320D01*
X-138810Y-588990D01*
X-154720Y-548980D01*
X-75140D01*
G01X63390Y-582080D02*
X59330Y-575730D01*
X54580Y-572560D01*
X49170Y-571500D01*
X42390Y-573620D01*
X37650Y-578910D01*
X36300Y-585260D01*
X36970Y-591610D01*
X39680Y-596900D01*
X53230Y-607480D01*
X59330Y-614890D01*
X63390Y-625480D01*
X64740Y-635000D01*
X36300D01*
G01X350520D02*
Y-571500D01*
X358650Y-584200D01*
G01Y-635000D02*
X342390D01*
G01X981500Y-709000D02*
Y-548980D01*
X931760D01*
X915840Y-556980D01*
X905890Y-567650D01*
X901920Y-588990D01*
X905890Y-610320D01*
X917830Y-623650D01*
X931760Y-631660D01*
X981500D01*
G01X931760D02*
X901920Y-709000D01*
G01X825460Y-677000D02*
X813530Y-695670D01*
X797610Y-706330D01*
X779700Y-709000D01*
X763780Y-706330D01*
X747860Y-693000D01*
X737920Y-677000D01*
X735930Y-660990D01*
X739910Y-642330D01*
X753840Y-628990D01*
X767760Y-623650D01*
X785670D01*
G01X767760D02*
X755820Y-615660D01*
X745870Y-602320D01*
X741900Y-586320D01*
X745870Y-570320D01*
X755820Y-556980D01*
X773730Y-548980D01*
X791640Y-551650D01*
X809540Y-562320D01*
G01X659470Y-642330D02*
X645550Y-623650D01*
X633610Y-612990D01*
X617690Y-607660D01*
X603760Y-612990D01*
X593820Y-623650D01*
X585850Y-639660D01*
X583870Y-658330D01*
X585850Y-674330D01*
X593820Y-690330D01*
X605750Y-703670D01*
X619680Y-709000D01*
X635600Y-703670D01*
X649520Y-687670D01*
X657490Y-663660D01*
X659470Y-636990D01*
X655500Y-602320D01*
X649520Y-583650D01*
X639580Y-564980D01*
X625650Y-551650D01*
X611720Y-548980D01*
X597790Y-554310D01*
X587840Y-567650D01*
G01X-82680Y522340D02*
X-90690Y534280D01*
X-96020Y548200D01*
Y564120D01*
X-88020Y582030D01*
X-74680Y595950D01*
X-58680Y605900D01*
X-32010Y613860D01*
X-8010Y615850D01*
X15990Y611870D01*
X32000Y605900D01*
X48000Y593960D01*
X58670Y580040D01*
X64000Y566110D01*
Y552180D01*
X58670Y538260D01*
X50670Y526320D01*
X40000Y516370D01*
G01X64000Y382210D02*
X-96020D01*
X18660Y455830D01*
Y356350D01*
G01X-96020Y246070D02*
X-90690Y261990D01*
X-77350Y273920D01*
X-61350Y281890D01*
X-40010Y287850D01*
X-16010Y289840D01*
X8000Y287850D01*
X29330Y281890D01*
X45330Y273920D01*
X58670Y261990D01*
X64000Y246070D01*
X58670Y230150D01*
X45330Y218220D01*
X29330Y210250D01*
X8000Y204290D01*
X-16010Y202300D01*
X-40010Y204290D01*
X-61350Y210250D01*
X-77350Y218220D01*
X-90690Y230150D01*
X-96020Y246070D01*
G01X247520Y522340D02*
X239510Y534280D01*
X234180Y548200D01*
Y564120D01*
X242180Y582030D01*
X255520Y595950D01*
X271520Y605900D01*
X298190Y613860D01*
X322190Y615850D01*
X346190Y611870D01*
X362200Y605900D01*
X378200Y593960D01*
X388870Y580040D01*
X394200Y566110D01*
Y552180D01*
X388870Y538260D01*
X380870Y526320D01*
X370200Y516370D01*
G01X394200Y382210D02*
X234180D01*
X348860Y455830D01*
Y356350D01*
G01X394200Y246070D02*
X234180D01*
X266180Y269950D01*
G01X394200D02*
Y222200D01*
G01X-78320Y418990D02*
X-84670Y414930D01*
X-87840Y410180D01*
X-88900Y404770D01*
X-86780Y397990D01*
X-81490Y393250D01*
X-75140Y391900D01*
X-68790Y392570D01*
X-63500Y395280D01*
X-52920Y408830D01*
X-45510Y414930D01*
X-34920Y418990D01*
X-25400Y420340D01*
Y391900D01*
G01Y706120D02*
X-88900D01*
X-76200Y714250D01*
G01X-25400D02*
Y697990D01*
G01X251880Y418990D02*
X245530Y414930D01*
X242360Y410180D01*
X241300Y404770D01*
X243420Y397990D01*
X248710Y393250D01*
X255060Y391900D01*
X261410Y392570D01*
X266700Y395280D01*
X277280Y408830D01*
X284690Y414930D01*
X295280Y418990D01*
X304800Y420340D01*
Y391900D01*
G01Y706120D02*
X241300D01*
X254000Y714250D01*
G01X304800D02*
Y697990D01*
G01X346500Y840400D02*
Y1000420D01*
X296760D01*
X280840Y992420D01*
X270890Y981750D01*
X266920Y960410D01*
X270890Y939080D01*
X282830Y925750D01*
X296760Y917740D01*
X346500D01*
G01X296760D02*
X266920Y840400D01*
G01X190460Y872400D02*
X178530Y853730D01*
X162610Y843070D01*
X144700Y840400D01*
X128780Y843070D01*
X112860Y856400D01*
X102920Y872400D01*
X100930Y888410D01*
X104910Y907070D01*
X118840Y920410D01*
X132760Y925750D01*
X150670D01*
G01X132760D02*
X120820Y933740D01*
X110870Y947080D01*
X106900Y963080D01*
X110870Y979080D01*
X120820Y992420D01*
X138730Y1000420D01*
X156640Y997750D01*
X174540Y987080D01*
G01X20500Y859070D02*
X6570Y845730D01*
X-9350Y840400D01*
X-25270Y845730D01*
X-39200Y861730D01*
X-49150Y885740D01*
X-53120Y909740D01*
Y939080D01*
X-49150Y963080D01*
X-39200Y984420D01*
X-27260Y995090D01*
X-13330Y1000420D01*
X2590Y995090D01*
X14520Y984420D01*
X22490Y968420D01*
X26460Y947080D01*
X22490Y928410D01*
X12540Y909740D01*
X600Y899070D01*
X-13330Y896400D01*
X-29250Y901740D01*
X-41180Y915070D01*
X-53120Y939080D01*
G01X139590Y992720D02*
X135530Y999070D01*
X130780Y1002240D01*
X125370Y1003300D01*
X118590Y1001180D01*
X113850Y995890D01*
X112500Y989540D01*
X113170Y983190D01*
X115880Y977900D01*
X129430Y967320D01*
X135530Y959910D01*
X139590Y949320D01*
X140940Y939800D01*
X112500D01*
G01X426720D02*
Y1003300D01*
X434850Y990600D01*
G01Y939800D02*
X418590D01*
G01X901700Y-5221900D02*
X909110Y-5217840D01*
X913340Y-5212420D01*
X914400Y-5206320D01*
X913340Y-5200900D01*
X908050Y-5195480D01*
X901700Y-5192100D01*
X895350Y-5191420D01*
X887940Y-5192780D01*
X882650Y-5197520D01*
X880530Y-5202260D01*
Y-5208350D01*
G01Y-5202260D02*
X877360Y-5198190D01*
X872070Y-5194810D01*
X865720Y-5193450D01*
X859370Y-5194810D01*
X854080Y-5198190D01*
X850900Y-5204290D01*
X851960Y-5210390D01*
X856190Y-5216480D01*
G01X861480Y-5473870D02*
X855130Y-5469810D01*
X851960Y-5465060D01*
X850900Y-5459650D01*
X853020Y-5452870D01*
X858310Y-5448130D01*
X864660Y-5446780D01*
X871010Y-5447450D01*
X876300Y-5450160D01*
X886880Y-5463710D01*
X894290Y-5469810D01*
X904880Y-5473870D01*
X914400Y-5475220D01*
Y-5446780D01*
G01Y-5715000D02*
X850900D01*
X863600Y-5723130D01*
G01X914400D02*
Y-5706870D01*
G01X1060320Y-4278260D02*
X1052310Y-4266320D01*
X1046980Y-4252400D01*
Y-4236480D01*
X1054980Y-4218570D01*
X1068320Y-4204650D01*
X1084320Y-4194700D01*
X1110990Y-4186740D01*
X1134990Y-4184750D01*
X1158990Y-4188730D01*
X1175000Y-4194700D01*
X1191000Y-4206640D01*
X1201670Y-4220560D01*
X1207000Y-4234490D01*
Y-4248420D01*
X1201670Y-4262340D01*
X1193670Y-4274280D01*
X1183000Y-4284230D01*
G01X1073650Y-4356710D02*
X1057650Y-4368640D01*
X1049650Y-4382570D01*
X1046980Y-4398490D01*
X1052310Y-4418390D01*
X1065650Y-4432310D01*
X1081650Y-4436290D01*
X1097660Y-4434300D01*
X1110990Y-4426340D01*
X1137660Y-4386550D01*
X1156330Y-4368640D01*
X1183000Y-4356710D01*
X1207000Y-4352730D01*
Y-4436290D01*
G01X1140330Y-4516730D02*
X1121650Y-4530650D01*
X1110990Y-4542590D01*
X1105660Y-4558510D01*
X1110990Y-4572440D01*
X1121650Y-4582380D01*
X1137660Y-4590350D01*
X1156330Y-4592330D01*
X1172330Y-4590350D01*
X1188330Y-4582380D01*
X1201670Y-4570450D01*
X1207000Y-4556520D01*
X1201670Y-4540600D01*
X1185670Y-4526680D01*
X1161660Y-4518710D01*
X1134990Y-4516730D01*
X1100320Y-4520700D01*
X1081650Y-4526680D01*
X1062980Y-4536620D01*
X1049650Y-4550550D01*
X1046980Y-4564480D01*
X1052310Y-4578410D01*
X1065650Y-4588360D01*
G01X1064680Y-4381610D02*
X1058330Y-4385670D01*
X1055160Y-4390420D01*
X1054100Y-4395830D01*
X1056220Y-4402610D01*
X1061510Y-4407350D01*
X1067860Y-4408700D01*
X1074210Y-4408030D01*
X1079500Y-4405320D01*
X1090080Y-4391770D01*
X1097490Y-4385670D01*
X1108080Y-4381610D01*
X1117600Y-4380260D01*
Y-4408700D01*
G01Y-4094480D02*
X1054100D01*
X1066800Y-4086350D01*
G01X1117600D02*
Y-4102610D01*
G01X723790Y-3757080D02*
X719730Y-3750730D01*
X714980Y-3747560D01*
X709570Y-3746500D01*
X702790Y-3748620D01*
X698050Y-3753910D01*
X696700Y-3760260D01*
X697370Y-3766610D01*
X700080Y-3771900D01*
X713630Y-3782480D01*
X719730Y-3789890D01*
X723790Y-3800480D01*
X725140Y-3810000D01*
X696700D01*
G01X1010920D02*
Y-3746500D01*
X1019050Y-3759200D01*
G01Y-3810000D02*
X1002790D01*
G01X749190Y-2233080D02*
X745130Y-2226730D01*
X740380Y-2223560D01*
X734970Y-2222500D01*
X728190Y-2224620D01*
X723450Y-2229910D01*
X722100Y-2236260D01*
X722770Y-2242610D01*
X725480Y-2247900D01*
X739030Y-2258480D01*
X745130Y-2265890D01*
X749190Y-2276480D01*
X750540Y-2286000D01*
X722100D01*
G01X1036320D02*
Y-2222500D01*
X1044450Y-2235200D01*
G01Y-2286000D02*
X1028190D01*
G01X799990Y-582080D02*
X795930Y-575730D01*
X791180Y-572560D01*
X785770Y-571500D01*
X778990Y-573620D01*
X774250Y-578910D01*
X772900Y-585260D01*
X773570Y-591610D01*
X776280Y-596900D01*
X789830Y-607480D01*
X795930Y-614890D01*
X799990Y-625480D01*
X801340Y-635000D01*
X772900D01*
G01X1087120D02*
Y-571500D01*
X1095250Y-584200D01*
G01Y-635000D02*
X1078990D01*
G01X1057700Y840400D02*
Y1000420D01*
X1007960D01*
X992040Y992420D01*
X982090Y981750D01*
X978120Y960410D01*
X982090Y939080D01*
X994030Y925750D01*
X1007960Y917740D01*
X1057700D01*
G01X1007960D02*
X978120Y840400D01*
G01X901660Y872400D02*
X889730Y853730D01*
X873810Y843070D01*
X855900Y840400D01*
X839980Y843070D01*
X824060Y856400D01*
X814120Y872400D01*
X812130Y888410D01*
X816110Y907070D01*
X830040Y920410D01*
X843960Y925750D01*
X861870D01*
G01X843960D02*
X832020Y933740D01*
X822070Y947080D01*
X818100Y963080D01*
X822070Y979080D01*
X832020Y992420D01*
X849930Y1000420D01*
X867840Y997750D01*
X885740Y987080D01*
G01X697870Y840400D02*
X683940Y843070D01*
X668030Y851070D01*
X658080Y864400D01*
X654100Y883070D01*
X658080Y901740D01*
X670020Y917740D01*
X687920Y925750D01*
X707820D01*
X719760Y931080D01*
X729710Y944410D01*
X733690Y963080D01*
X727710Y981750D01*
X713790Y995090D01*
X697870Y1000420D01*
X681950Y995090D01*
X668030Y981750D01*
X662050Y963080D01*
X666040Y944410D01*
X675980Y931080D01*
X687920Y925750D01*
X707820D01*
X725720Y917740D01*
X737660Y901740D01*
X741640Y883070D01*
X737660Y864400D01*
X727710Y851070D01*
X711800Y843070D01*
X697870Y840400D01*
G01X850790Y992720D02*
X846730Y999070D01*
X841980Y1002240D01*
X836570Y1003300D01*
X829790Y1001180D01*
X825050Y995890D01*
X823700Y989540D01*
X824370Y983190D01*
X827080Y977900D01*
X840630Y967320D01*
X846730Y959910D01*
X850790Y949320D01*
X852140Y939800D01*
X823700D01*
G01X1137920D02*
Y1003300D01*
X1146050Y990600D01*
G01Y939800D02*
X1129790D01*
G01X1390520Y-4278260D02*
X1382510Y-4266320D01*
X1377180Y-4252400D01*
Y-4236480D01*
X1385180Y-4218570D01*
X1398520Y-4204650D01*
X1414520Y-4194700D01*
X1441190Y-4186740D01*
X1465190Y-4184750D01*
X1489190Y-4188730D01*
X1505200Y-4194700D01*
X1521200Y-4206640D01*
X1531870Y-4220560D01*
X1537200Y-4234490D01*
Y-4248420D01*
X1531870Y-4262340D01*
X1523870Y-4274280D01*
X1513200Y-4284230D01*
G01X1403850Y-4356710D02*
X1387850Y-4368640D01*
X1379850Y-4382570D01*
X1377180Y-4398490D01*
X1382510Y-4418390D01*
X1395850Y-4432310D01*
X1411850Y-4436290D01*
X1427860Y-4434300D01*
X1441190Y-4426340D01*
X1467860Y-4386550D01*
X1486530Y-4368640D01*
X1513200Y-4356710D01*
X1537200Y-4352730D01*
Y-4436290D01*
G01Y-4550550D02*
X1502530Y-4554530D01*
X1473200Y-4560500D01*
X1446520Y-4568460D01*
X1417190Y-4578410D01*
X1377180Y-4594320D01*
Y-4514740D01*
G01X1394880Y-4381610D02*
X1388530Y-4385670D01*
X1385360Y-4390420D01*
X1384300Y-4395830D01*
X1386420Y-4402610D01*
X1391710Y-4407350D01*
X1398060Y-4408700D01*
X1404410Y-4408030D01*
X1409700Y-4405320D01*
X1420280Y-4391770D01*
X1427690Y-4385670D01*
X1438280Y-4381610D01*
X1447800Y-4380260D01*
Y-4408700D01*
G01X1930400Y-4800600D02*
Y-4737100D01*
X1922270Y-4749800D01*
G01Y-4800600D02*
X1938530D01*
G01X1447800Y-4094480D02*
X1384300D01*
X1397000Y-4086350D01*
G01X1447800D02*
Y-4102610D01*
G01X1946700Y-3909400D02*
Y-3749380D01*
X1896960D01*
X1881040Y-3757380D01*
X1871090Y-3768050D01*
X1867120Y-3789390D01*
X1871090Y-3810720D01*
X1883030Y-3824050D01*
X1896960Y-3832060D01*
X1946700D01*
G01X1896960D02*
X1867120Y-3909400D01*
G01X1784690Y-3776050D02*
X1772760Y-3760050D01*
X1758830Y-3752050D01*
X1742910Y-3749380D01*
X1723010Y-3754710D01*
X1709090Y-3768050D01*
X1705110Y-3784050D01*
X1707100Y-3800060D01*
X1715060Y-3813390D01*
X1754850Y-3840060D01*
X1772760Y-3858730D01*
X1784690Y-3885400D01*
X1788670Y-3909400D01*
X1705110D01*
G01X1630640Y-3885400D02*
X1618710Y-3898730D01*
X1604780Y-3906730D01*
X1586870Y-3909400D01*
X1568960Y-3904070D01*
X1555040Y-3893400D01*
X1545090Y-3874730D01*
X1543100Y-3853400D01*
X1547080Y-3832060D01*
X1557030Y-3818720D01*
X1570950Y-3808060D01*
X1584880Y-3805390D01*
X1598810Y-3808060D01*
X1616710Y-3818720D01*
X1610750Y-3749380D01*
X1557030D01*
G01X1790590Y-3782480D02*
X1786530Y-3776130D01*
X1781780Y-3772960D01*
X1776370Y-3771900D01*
X1769590Y-3774020D01*
X1764850Y-3779310D01*
X1763500Y-3785660D01*
X1764170Y-3792010D01*
X1766880Y-3797300D01*
X1780430Y-3807880D01*
X1786530Y-3815290D01*
X1790590Y-3825880D01*
X1791940Y-3835400D01*
X1763500D01*
G01X2077720D02*
Y-3771900D01*
X2085850Y-3784600D01*
G01Y-3835400D02*
X2069590D01*
G01X1517520Y-2779660D02*
X1509510Y-2767720D01*
X1504180Y-2753800D01*
Y-2737880D01*
X1512180Y-2719970D01*
X1525520Y-2706050D01*
X1541520Y-2696100D01*
X1568190Y-2688140D01*
X1592190Y-2686150D01*
X1616190Y-2690130D01*
X1632200Y-2696100D01*
X1648200Y-2708040D01*
X1658870Y-2721960D01*
X1664200Y-2735890D01*
Y-2749820D01*
X1658870Y-2763740D01*
X1650870Y-2775680D01*
X1640200Y-2785630D01*
G01X1530850Y-2858110D02*
X1514850Y-2870040D01*
X1506850Y-2883970D01*
X1504180Y-2899890D01*
X1509510Y-2919790D01*
X1522850Y-2933710D01*
X1538850Y-2937690D01*
X1554860Y-2935700D01*
X1568190Y-2927740D01*
X1594860Y-2887950D01*
X1613530Y-2870040D01*
X1640200Y-2858110D01*
X1664200Y-2854130D01*
Y-2937690D01*
G01Y-3055930D02*
X1661530Y-3069860D01*
X1653530Y-3085770D01*
X1640200Y-3095720D01*
X1621530Y-3099700D01*
X1602860Y-3095720D01*
X1586860Y-3083780D01*
X1578850Y-3065880D01*
Y-3045980D01*
X1573520Y-3034040D01*
X1560190Y-3024090D01*
X1541520Y-3020110D01*
X1522850Y-3026090D01*
X1509510Y-3040010D01*
X1504180Y-3055930D01*
X1509510Y-3071850D01*
X1522850Y-3085770D01*
X1541520Y-3091750D01*
X1560190Y-3087760D01*
X1573520Y-3077820D01*
X1578850Y-3065880D01*
Y-3045980D01*
X1586860Y-3028080D01*
X1602860Y-3016140D01*
X1621530Y-3012160D01*
X1640200Y-3016140D01*
X1653530Y-3026090D01*
X1661530Y-3042000D01*
X1664200Y-3055930D01*
G01X1547280Y-2883010D02*
X1540930Y-2887070D01*
X1537760Y-2891820D01*
X1536700Y-2897230D01*
X1538820Y-2904010D01*
X1544110Y-2908750D01*
X1550460Y-2910100D01*
X1556810Y-2909430D01*
X1562100Y-2906720D01*
X1572680Y-2893170D01*
X1580090Y-2887070D01*
X1590680Y-2883010D01*
X1600200Y-2881660D01*
Y-2910100D01*
G01X1847720Y-2779660D02*
X1839710Y-2767720D01*
X1834380Y-2753800D01*
Y-2737880D01*
X1842380Y-2719970D01*
X1855720Y-2706050D01*
X1871720Y-2696100D01*
X1898390Y-2688140D01*
X1922390Y-2686150D01*
X1946390Y-2690130D01*
X1962400Y-2696100D01*
X1978400Y-2708040D01*
X1989070Y-2721960D01*
X1994400Y-2735890D01*
Y-2749820D01*
X1989070Y-2763740D01*
X1981070Y-2775680D01*
X1970400Y-2785630D01*
G01X1861050Y-2858110D02*
X1845050Y-2870040D01*
X1837050Y-2883970D01*
X1834380Y-2899890D01*
X1839710Y-2919790D01*
X1853050Y-2933710D01*
X1869050Y-2937690D01*
X1885060Y-2935700D01*
X1898390Y-2927740D01*
X1925060Y-2887950D01*
X1943730Y-2870040D01*
X1970400Y-2858110D01*
X1994400Y-2854130D01*
Y-2937690D01*
G01X1975730Y-3022100D02*
X1989070Y-3036030D01*
X1994400Y-3051950D01*
X1989070Y-3067870D01*
X1973070Y-3081800D01*
X1949060Y-3091750D01*
X1925060Y-3095720D01*
X1895720D01*
X1871720Y-3091750D01*
X1850380Y-3081800D01*
X1839710Y-3069860D01*
X1834380Y-3055930D01*
X1839710Y-3040010D01*
X1850380Y-3028080D01*
X1866380Y-3020110D01*
X1887720Y-3016140D01*
X1906390Y-3020110D01*
X1925060Y-3030060D01*
X1935730Y-3042000D01*
X1938400Y-3055930D01*
X1933060Y-3071850D01*
X1919730Y-3083780D01*
X1895720Y-3095720D01*
G01X1877480Y-2883010D02*
X1871130Y-2887070D01*
X1867960Y-2891820D01*
X1866900Y-2897230D01*
X1869020Y-2904010D01*
X1874310Y-2908750D01*
X1880660Y-2910100D01*
X1887010Y-2909430D01*
X1892300Y-2906720D01*
X1902880Y-2893170D01*
X1910290Y-2887070D01*
X1920880Y-2883010D01*
X1930400Y-2881660D01*
Y-2910100D01*
G01X1600200Y-2595880D02*
X1536700D01*
X1549400Y-2587750D01*
G01X1600200D02*
Y-2604010D01*
G01X1930400Y-2595880D02*
X1866900D01*
X1879600Y-2587750D01*
G01X1930400D02*
Y-2604010D01*
G01X1946700Y-2309200D02*
Y-2149180D01*
X1896960D01*
X1881040Y-2157180D01*
X1871090Y-2167850D01*
X1867120Y-2189190D01*
X1871090Y-2210520D01*
X1883030Y-2223850D01*
X1896960Y-2231860D01*
X1946700D01*
G01X1896960D02*
X1867120Y-2309200D01*
G01X1784690Y-2175850D02*
X1772760Y-2159850D01*
X1758830Y-2151850D01*
X1742910Y-2149180D01*
X1723010Y-2154510D01*
X1709090Y-2167850D01*
X1705110Y-2183850D01*
X1707100Y-2199860D01*
X1715060Y-2213190D01*
X1754850Y-2239860D01*
X1772760Y-2258530D01*
X1784690Y-2285200D01*
X1788670Y-2309200D01*
X1705110D01*
G01X1590850D02*
X1586870Y-2274530D01*
X1580900Y-2245200D01*
X1572940Y-2218520D01*
X1562990Y-2189190D01*
X1547080Y-2149180D01*
X1626660D01*
G01X1765190Y-2182280D02*
X1761130Y-2175930D01*
X1756380Y-2172760D01*
X1750970Y-2171700D01*
X1744190Y-2173820D01*
X1739450Y-2179110D01*
X1738100Y-2185460D01*
X1738770Y-2191810D01*
X1741480Y-2197100D01*
X1755030Y-2207680D01*
X1761130Y-2215090D01*
X1765190Y-2225680D01*
X1766540Y-2235200D01*
X1738100D01*
G01X2052320D02*
Y-2171700D01*
X2060450Y-2184400D01*
G01Y-2235200D02*
X2044190D01*
G01X1542920Y-1077860D02*
X1534910Y-1065920D01*
X1529580Y-1052000D01*
Y-1036080D01*
X1537580Y-1018170D01*
X1550920Y-1004250D01*
X1566920Y-994300D01*
X1593590Y-986340D01*
X1617590Y-984350D01*
X1641590Y-988330D01*
X1657600Y-994300D01*
X1673600Y-1006240D01*
X1684270Y-1020160D01*
X1689600Y-1034090D01*
Y-1048020D01*
X1684270Y-1061940D01*
X1676270Y-1073880D01*
X1665600Y-1083830D01*
G01X1657600Y-1150340D02*
X1676270Y-1162270D01*
X1686930Y-1178190D01*
X1689600Y-1196100D01*
X1686930Y-1212020D01*
X1673600Y-1227940D01*
X1657600Y-1237880D01*
X1641590Y-1239870D01*
X1622930Y-1235890D01*
X1609590Y-1221960D01*
X1604250Y-1208040D01*
Y-1190130D01*
G01Y-1208040D02*
X1596260Y-1219980D01*
X1582920Y-1229930D01*
X1566920Y-1233900D01*
X1550920Y-1229930D01*
X1537580Y-1219980D01*
X1529580Y-1202070D01*
X1532250Y-1184160D01*
X1542920Y-1166260D01*
G01X1529580Y-1354130D02*
X1534910Y-1338210D01*
X1548250Y-1326280D01*
X1564250Y-1318310D01*
X1585590Y-1312350D01*
X1609590Y-1310360D01*
X1633600Y-1312350D01*
X1654930Y-1318310D01*
X1670930Y-1326280D01*
X1684270Y-1338210D01*
X1689600Y-1354130D01*
X1684270Y-1370050D01*
X1670930Y-1381980D01*
X1654930Y-1389950D01*
X1633600Y-1395910D01*
X1609590Y-1397900D01*
X1585590Y-1395910D01*
X1564250Y-1389950D01*
X1548250Y-1381980D01*
X1534910Y-1370050D01*
X1529580Y-1354130D01*
G01X1873120Y-1077860D02*
X1865110Y-1065920D01*
X1859780Y-1052000D01*
Y-1036080D01*
X1867780Y-1018170D01*
X1881120Y-1004250D01*
X1897120Y-994300D01*
X1923790Y-986340D01*
X1947790Y-984350D01*
X1971790Y-988330D01*
X1987800Y-994300D01*
X2003800Y-1006240D01*
X2014470Y-1020160D01*
X2019800Y-1034090D01*
Y-1048020D01*
X2014470Y-1061940D01*
X2006470Y-1073880D01*
X1995800Y-1083830D01*
G01X1987800Y-1150340D02*
X2006470Y-1162270D01*
X2017130Y-1178190D01*
X2019800Y-1196100D01*
X2017130Y-1212020D01*
X2003800Y-1227940D01*
X1987800Y-1237880D01*
X1971790Y-1239870D01*
X1953130Y-1235890D01*
X1939790Y-1221960D01*
X1934450Y-1208040D01*
Y-1190130D01*
G01Y-1208040D02*
X1926460Y-1219980D01*
X1913120Y-1229930D01*
X1897120Y-1233900D01*
X1881120Y-1229930D01*
X1867780Y-1219980D01*
X1859780Y-1202070D01*
X1862450Y-1184160D01*
X1873120Y-1166260D01*
G01X2019800Y-1354130D02*
X1859780D01*
X1891780Y-1330250D01*
G01X2019800D02*
Y-1378000D01*
G01X1547280Y-1181210D02*
X1540930Y-1185270D01*
X1537760Y-1190020D01*
X1536700Y-1195430D01*
X1538820Y-1202210D01*
X1544110Y-1206950D01*
X1550460Y-1208300D01*
X1556810Y-1207630D01*
X1562100Y-1204920D01*
X1572680Y-1191370D01*
X1580090Y-1185270D01*
X1590680Y-1181210D01*
X1600200Y-1179860D01*
Y-1208300D01*
G01Y-894080D02*
X1536700D01*
X1549400Y-885950D01*
G01X1600200D02*
Y-902210D01*
G01X1877480Y-1181210D02*
X1871130Y-1185270D01*
X1867960Y-1190020D01*
X1866900Y-1195430D01*
X1869020Y-1202210D01*
X1874310Y-1206950D01*
X1880660Y-1208300D01*
X1887010Y-1207630D01*
X1892300Y-1204920D01*
X1902880Y-1191370D01*
X1910290Y-1185270D01*
X1920880Y-1181210D01*
X1930400Y-1179860D01*
Y-1208300D01*
G01Y-894080D02*
X1866900D01*
X1879600Y-885950D01*
G01X1930400D02*
Y-902210D01*
G01X1946700Y-709000D02*
Y-548980D01*
X1896960D01*
X1881040Y-556980D01*
X1871090Y-567650D01*
X1867120Y-588990D01*
X1871090Y-610320D01*
X1883030Y-623650D01*
X1896960Y-631660D01*
X1946700D01*
G01X1896960D02*
X1867120Y-709000D01*
G01X1784690Y-575650D02*
X1772760Y-559650D01*
X1758830Y-551650D01*
X1742910Y-548980D01*
X1723010Y-554310D01*
X1709090Y-567650D01*
X1705110Y-583650D01*
X1707100Y-599660D01*
X1715060Y-612990D01*
X1754850Y-639660D01*
X1772760Y-658330D01*
X1784690Y-685000D01*
X1788670Y-709000D01*
X1705110D01*
G01X1620700Y-690330D02*
X1606770Y-703670D01*
X1590850Y-709000D01*
X1574930Y-703670D01*
X1561000Y-687670D01*
X1551050Y-663660D01*
X1547080Y-639660D01*
Y-610320D01*
X1551050Y-586320D01*
X1561000Y-564980D01*
X1572940Y-554310D01*
X1586870Y-548980D01*
X1602790Y-554310D01*
X1614720Y-564980D01*
X1622690Y-580980D01*
X1626660Y-602320D01*
X1622690Y-620990D01*
X1612740Y-639660D01*
X1600800Y-650330D01*
X1586870Y-653000D01*
X1570950Y-647660D01*
X1559020Y-634330D01*
X1547080Y-610320D01*
G01X1765190Y-582080D02*
X1761130Y-575730D01*
X1756380Y-572560D01*
X1750970Y-571500D01*
X1744190Y-573620D01*
X1739450Y-578910D01*
X1738100Y-585260D01*
X1738770Y-591610D01*
X1741480Y-596900D01*
X1755030Y-607480D01*
X1761130Y-614890D01*
X1765190Y-625480D01*
X1766540Y-635000D01*
X1738100D01*
G01X2052320D02*
Y-571500D01*
X2060450Y-584200D01*
G01Y-635000D02*
X2044190D01*
G01X1873120Y522340D02*
X1865110Y534280D01*
X1859780Y548200D01*
Y564120D01*
X1867780Y582030D01*
X1881120Y595950D01*
X1897120Y605900D01*
X1923790Y613860D01*
X1947790Y615850D01*
X1971790Y611870D01*
X1987800Y605900D01*
X2003800Y593960D01*
X2014470Y580040D01*
X2019800Y566110D01*
Y552180D01*
X2014470Y538260D01*
X2006470Y526320D01*
X1995800Y516370D01*
G01X1987800Y449860D02*
X2006470Y437930D01*
X2017130Y422010D01*
X2019800Y404100D01*
X2017130Y388180D01*
X2003800Y372260D01*
X1987800Y362320D01*
X1971790Y360330D01*
X1953130Y364310D01*
X1939790Y378240D01*
X1934450Y392160D01*
Y410070D01*
G01Y392160D02*
X1926460Y380220D01*
X1913120Y370270D01*
X1897120Y366300D01*
X1881120Y370270D01*
X1867780Y380220D01*
X1859780Y398130D01*
X1862450Y416040D01*
X1873120Y433940D01*
G01X1886450Y283870D02*
X1870450Y271940D01*
X1862450Y258010D01*
X1859780Y242090D01*
X1865110Y222190D01*
X1878450Y208270D01*
X1894450Y204290D01*
X1910460Y206280D01*
X1923790Y214240D01*
X1950460Y254030D01*
X1969130Y271940D01*
X1995800Y283870D01*
X2019800Y287850D01*
Y204290D01*
G01X1542920Y522340D02*
X1534910Y534280D01*
X1529580Y548200D01*
Y564120D01*
X1537580Y582030D01*
X1550920Y595950D01*
X1566920Y605900D01*
X1593590Y613860D01*
X1617590Y615850D01*
X1641590Y611870D01*
X1657600Y605900D01*
X1673600Y593960D01*
X1684270Y580040D01*
X1689600Y566110D01*
Y552180D01*
X1684270Y538260D01*
X1676270Y526320D01*
X1665600Y516370D01*
G01X1657600Y449860D02*
X1676270Y437930D01*
X1686930Y422010D01*
X1689600Y404100D01*
X1686930Y388180D01*
X1673600Y372260D01*
X1657600Y362320D01*
X1641590Y360330D01*
X1622930Y364310D01*
X1609590Y378240D01*
X1604250Y392160D01*
Y410070D01*
G01Y392160D02*
X1596260Y380220D01*
X1582920Y370270D01*
X1566920Y366300D01*
X1550920Y370270D01*
X1537580Y380220D01*
X1529580Y398130D01*
X1532250Y416040D01*
X1542920Y433940D01*
G01X1657600Y289840D02*
X1676270Y277910D01*
X1686930Y261990D01*
X1689600Y244080D01*
X1686930Y228160D01*
X1673600Y212240D01*
X1657600Y202300D01*
X1641590Y200310D01*
X1622930Y204290D01*
X1609590Y218220D01*
X1604250Y232140D01*
Y250050D01*
G01Y232140D02*
X1596260Y220200D01*
X1582920Y210250D01*
X1566920Y206280D01*
X1550920Y210250D01*
X1537580Y220200D01*
X1529580Y238110D01*
X1532250Y256020D01*
X1542920Y273920D01*
G01X1877480Y418990D02*
X1871130Y414930D01*
X1867960Y410180D01*
X1866900Y404770D01*
X1869020Y397990D01*
X1874310Y393250D01*
X1880660Y391900D01*
X1887010Y392570D01*
X1892300Y395280D01*
X1902880Y408830D01*
X1910290Y414930D01*
X1920880Y418990D01*
X1930400Y420340D01*
Y391900D01*
G01Y706120D02*
X1866900D01*
X1879600Y714250D01*
G01X1930400D02*
Y697990D01*
G01X1547280Y418990D02*
X1540930Y414930D01*
X1537760Y410180D01*
X1536700Y404770D01*
X1538820Y397990D01*
X1544110Y393250D01*
X1550460Y391900D01*
X1556810Y392570D01*
X1562100Y395280D01*
X1572680Y408830D01*
X1580090Y414930D01*
X1590680Y418990D01*
X1600200Y420340D01*
Y391900D01*
G01Y706120D02*
X1536700D01*
X1549400Y714250D01*
G01X1600200D02*
Y697990D01*
G01X1972100Y840400D02*
Y1000420D01*
X1922360D01*
X1906440Y992420D01*
X1896490Y981750D01*
X1892520Y960410D01*
X1896490Y939080D01*
X1908430Y925750D01*
X1922360Y917740D01*
X1972100D01*
G01X1922360D02*
X1892520Y840400D01*
G01X1816060Y872400D02*
X1804130Y853730D01*
X1788210Y843070D01*
X1770300Y840400D01*
X1754380Y843070D01*
X1738460Y856400D01*
X1728520Y872400D01*
X1726530Y888410D01*
X1730510Y907070D01*
X1744440Y920410D01*
X1758360Y925750D01*
X1776270D01*
G01X1758360D02*
X1746420Y933740D01*
X1736470Y947080D01*
X1732500Y963080D01*
X1736470Y979080D01*
X1746420Y992420D01*
X1764330Y1000420D01*
X1782240Y997750D01*
X1800140Y987080D01*
G01X1612270Y840400D02*
Y1000420D01*
X1636150Y968420D01*
G01Y840400D02*
X1588400D01*
G01X1765190Y992720D02*
X1761130Y999070D01*
X1756380Y1002240D01*
X1750970Y1003300D01*
X1744190Y1001180D01*
X1739450Y995890D01*
X1738100Y989540D01*
X1738770Y983190D01*
X1741480Y977900D01*
X1755030Y967320D01*
X1761130Y959910D01*
X1765190Y949320D01*
X1766540Y939800D01*
X1738100D01*
G01X2052320D02*
Y1003300D01*
X2060450Y990600D01*
G01Y939800D02*
X2044190D01*
G01X2423500Y-4787900D02*
X2427560Y-4795310D01*
X2432980Y-4799540D01*
X2439080Y-4800600D01*
X2444500Y-4799540D01*
X2449920Y-4794250D01*
X2453300Y-4787900D01*
X2453980Y-4781550D01*
X2452620Y-4774140D01*
X2447880Y-4768850D01*
X2443140Y-4766730D01*
X2437050D01*
G01X2443140D02*
X2447210Y-4763560D01*
X2450590Y-4758270D01*
X2451950Y-4751920D01*
X2450590Y-4745570D01*
X2447210Y-4740280D01*
X2441110Y-4737100D01*
X2435010Y-4738160D01*
X2428920Y-4742390D01*
G01X2171530Y-4747680D02*
X2175590Y-4741330D01*
X2180340Y-4738160D01*
X2185750Y-4737100D01*
X2192530Y-4739220D01*
X2197270Y-4744510D01*
X2198620Y-4750860D01*
X2197950Y-4757210D01*
X2195240Y-4762500D01*
X2181690Y-4773080D01*
X2175590Y-4780490D01*
X2171530Y-4791080D01*
X2170180Y-4800600D01*
X2198620D01*
G01X2683300Y-3909400D02*
Y-3749380D01*
X2633560D01*
X2617640Y-3757380D01*
X2607690Y-3768050D01*
X2603720Y-3789390D01*
X2607690Y-3810720D01*
X2619630Y-3824050D01*
X2633560Y-3832060D01*
X2683300D01*
G01X2633560D02*
X2603720Y-3909400D01*
G01X2521290Y-3776050D02*
X2509360Y-3760050D01*
X2495430Y-3752050D01*
X2479510Y-3749380D01*
X2459610Y-3754710D01*
X2445690Y-3768050D01*
X2441710Y-3784050D01*
X2443700Y-3800060D01*
X2451660Y-3813390D01*
X2491450Y-3840060D01*
X2509360Y-3858730D01*
X2521290Y-3885400D01*
X2525270Y-3909400D01*
X2441710D01*
G01X2299590D02*
Y-3749380D01*
X2373210Y-3864060D01*
X2273730D01*
G01X2527190Y-3782480D02*
X2523130Y-3776130D01*
X2518380Y-3772960D01*
X2512970Y-3771900D01*
X2506190Y-3774020D01*
X2501450Y-3779310D01*
X2500100Y-3785660D01*
X2500770Y-3792010D01*
X2503480Y-3797300D01*
X2517030Y-3807880D01*
X2523130Y-3815290D01*
X2527190Y-3825880D01*
X2528540Y-3835400D01*
X2500100D01*
G01X2814320D02*
Y-3771900D01*
X2822450Y-3784600D01*
G01Y-3835400D02*
X2806190D01*
G01X2657900Y-2309200D02*
Y-2149180D01*
X2608160D01*
X2592240Y-2157180D01*
X2582290Y-2167850D01*
X2578320Y-2189190D01*
X2582290Y-2210520D01*
X2594230Y-2223850D01*
X2608160Y-2231860D01*
X2657900D01*
G01X2608160D02*
X2578320Y-2309200D01*
G01X2495890Y-2175850D02*
X2483960Y-2159850D01*
X2470030Y-2151850D01*
X2454110Y-2149180D01*
X2434210Y-2154510D01*
X2420290Y-2167850D01*
X2416310Y-2183850D01*
X2418300Y-2199860D01*
X2426260Y-2213190D01*
X2466050Y-2239860D01*
X2483960Y-2258530D01*
X2495890Y-2285200D01*
X2499870Y-2309200D01*
X2416310D01*
G01X2335870Y-2242530D02*
X2321950Y-2223850D01*
X2310010Y-2213190D01*
X2294090Y-2207860D01*
X2280160Y-2213190D01*
X2270220Y-2223850D01*
X2262250Y-2239860D01*
X2260270Y-2258530D01*
X2262250Y-2274530D01*
X2270220Y-2290530D01*
X2282150Y-2303870D01*
X2296080Y-2309200D01*
X2312000Y-2303870D01*
X2325920Y-2287870D01*
X2333890Y-2263860D01*
X2335870Y-2237190D01*
X2331900Y-2202520D01*
X2325920Y-2183850D01*
X2315980Y-2165180D01*
X2302050Y-2151850D01*
X2288120Y-2149180D01*
X2274190Y-2154510D01*
X2264240Y-2167850D01*
G01X2476390Y-2182280D02*
X2472330Y-2175930D01*
X2467580Y-2172760D01*
X2462170Y-2171700D01*
X2455390Y-2173820D01*
X2450650Y-2179110D01*
X2449300Y-2185460D01*
X2449970Y-2191810D01*
X2452680Y-2197100D01*
X2466230Y-2207680D01*
X2472330Y-2215090D01*
X2476390Y-2225680D01*
X2477740Y-2235200D01*
X2449300D01*
G01X2763520D02*
Y-2171700D01*
X2771650Y-2184400D01*
G01Y-2235200D02*
X2755390D01*
G01X2632500Y-709000D02*
Y-548980D01*
X2582760D01*
X2566840Y-556980D01*
X2556890Y-567650D01*
X2552920Y-588990D01*
X2556890Y-610320D01*
X2568830Y-623650D01*
X2582760Y-631660D01*
X2632500D01*
G01X2582760D02*
X2552920Y-709000D01*
G01X2470490Y-575650D02*
X2458560Y-559650D01*
X2444630Y-551650D01*
X2428710Y-548980D01*
X2408810Y-554310D01*
X2394890Y-567650D01*
X2390910Y-583650D01*
X2392900Y-599660D01*
X2400860Y-612990D01*
X2440650Y-639660D01*
X2458560Y-658330D01*
X2470490Y-685000D01*
X2474470Y-709000D01*
X2390910D01*
G01X2272670D02*
X2258740Y-706330D01*
X2242830Y-698330D01*
X2232880Y-685000D01*
X2228900Y-666330D01*
X2232880Y-647660D01*
X2244820Y-631660D01*
X2262720Y-623650D01*
X2282620D01*
X2294560Y-618320D01*
X2304510Y-604990D01*
X2308490Y-586320D01*
X2302510Y-567650D01*
X2288590Y-554310D01*
X2272670Y-548980D01*
X2256750Y-554310D01*
X2242830Y-567650D01*
X2236850Y-586320D01*
X2240840Y-604990D01*
X2250780Y-618320D01*
X2262720Y-623650D01*
X2282620D01*
X2300520Y-631660D01*
X2312460Y-647660D01*
X2316440Y-666330D01*
X2312460Y-685000D01*
X2302510Y-698330D01*
X2286600Y-706330D01*
X2272670Y-709000D01*
G01X2450990Y-582080D02*
X2446930Y-575730D01*
X2442180Y-572560D01*
X2436770Y-571500D01*
X2429990Y-573620D01*
X2425250Y-578910D01*
X2423900Y-585260D01*
X2424570Y-591610D01*
X2427280Y-596900D01*
X2440830Y-607480D01*
X2446930Y-614890D01*
X2450990Y-625480D01*
X2452340Y-635000D01*
X2423900D01*
G01X2738120D02*
Y-571500D01*
X2746250Y-584200D01*
G01Y-635000D02*
X2729990D01*
G01X2683300Y840400D02*
Y1000420D01*
X2633560D01*
X2617640Y992420D01*
X2607690Y981750D01*
X2603720Y960410D01*
X2607690Y939080D01*
X2619630Y925750D01*
X2633560Y917740D01*
X2683300D01*
G01X2633560D02*
X2603720Y840400D01*
G01X2527260Y872400D02*
X2515330Y853730D01*
X2499410Y843070D01*
X2481500Y840400D01*
X2465580Y843070D01*
X2449660Y856400D01*
X2439720Y872400D01*
X2437730Y888410D01*
X2441710Y907070D01*
X2455640Y920410D01*
X2469560Y925750D01*
X2487470D01*
G01X2469560D02*
X2457620Y933740D01*
X2447670Y947080D01*
X2443700Y963080D01*
X2447670Y979080D01*
X2457620Y992420D01*
X2475530Y1000420D01*
X2493440Y997750D01*
X2511340Y987080D01*
G01X2323470Y1000420D02*
X2339390Y995090D01*
X2351320Y981750D01*
X2359290Y965750D01*
X2365250Y944410D01*
X2367240Y920410D01*
X2365250Y896400D01*
X2359290Y875070D01*
X2351320Y859070D01*
X2339390Y845730D01*
X2323470Y840400D01*
X2307550Y845730D01*
X2295620Y859070D01*
X2287650Y875070D01*
X2281690Y896400D01*
X2279700Y920410D01*
X2281690Y944410D01*
X2287650Y965750D01*
X2295620Y981750D01*
X2307550Y995090D01*
X2323470Y1000420D01*
G01X2476390Y992720D02*
X2472330Y999070D01*
X2467580Y1002240D01*
X2462170Y1003300D01*
X2455390Y1001180D01*
X2450650Y995890D01*
X2449300Y989540D01*
X2449970Y983190D01*
X2452680Y977900D01*
X2466230Y967320D01*
X2472330Y959910D01*
X2476390Y949320D01*
X2477740Y939800D01*
X2449300D01*
G01X2763520D02*
Y1003300D01*
X2771650Y990600D01*
G01Y939800D02*
X2755390D01*
G01X2918880Y-5321470D02*
X2912530Y-5317410D01*
X2909360Y-5312660D01*
X2908300Y-5307250D01*
X2910420Y-5300470D01*
X2915710Y-5295730D01*
X2922060Y-5294380D01*
X2928410Y-5295050D01*
X2933700Y-5297760D01*
X2944280Y-5311310D01*
X2951690Y-5317410D01*
X2962280Y-5321470D01*
X2971800Y-5322820D01*
Y-5294380D01*
G01Y-5562600D02*
X2908300D01*
X2921000Y-5570730D01*
G01X2971800D02*
Y-5554470D01*
G01X3143120Y-4252860D02*
X3135110Y-4240920D01*
X3129780Y-4227000D01*
Y-4211080D01*
X3137780Y-4193170D01*
X3151120Y-4179250D01*
X3167120Y-4169300D01*
X3193790Y-4161340D01*
X3217790Y-4159350D01*
X3241790Y-4163330D01*
X3257800Y-4169300D01*
X3273800Y-4181240D01*
X3284470Y-4195160D01*
X3289800Y-4209090D01*
Y-4223020D01*
X3284470Y-4236940D01*
X3276470Y-4248880D01*
X3265800Y-4258830D01*
G01X3289800Y-4369110D02*
X3129780D01*
X3161780Y-4345230D01*
G01X3289800D02*
Y-4392980D01*
G01Y-4529130D02*
X3287130Y-4543060D01*
X3279130Y-4558970D01*
X3265800Y-4568920D01*
X3247130Y-4572900D01*
X3228460Y-4568920D01*
X3212460Y-4556980D01*
X3204450Y-4539080D01*
Y-4519180D01*
X3199120Y-4507240D01*
X3185790Y-4497290D01*
X3167120Y-4493310D01*
X3148450Y-4499290D01*
X3135110Y-4513210D01*
X3129780Y-4529130D01*
X3135110Y-4545050D01*
X3148450Y-4558970D01*
X3167120Y-4564950D01*
X3185790Y-4560960D01*
X3199120Y-4551020D01*
X3204450Y-4539080D01*
Y-4519180D01*
X3212460Y-4501280D01*
X3228460Y-4489340D01*
X3247130Y-4485360D01*
X3265800Y-4489340D01*
X3279130Y-4499290D01*
X3287130Y-4515200D01*
X3289800Y-4529130D01*
G01X3147480Y-4356210D02*
X3141130Y-4360270D01*
X3137960Y-4365020D01*
X3136900Y-4370430D01*
X3139020Y-4377210D01*
X3144310Y-4381950D01*
X3150660Y-4383300D01*
X3157010Y-4382630D01*
X3162300Y-4379920D01*
X3172880Y-4366370D01*
X3180290Y-4360270D01*
X3190880Y-4356210D01*
X3200400Y-4354860D01*
Y-4383300D01*
G01X3498720Y-4252860D02*
X3490710Y-4240920D01*
X3485380Y-4227000D01*
Y-4211080D01*
X3493380Y-4193170D01*
X3506720Y-4179250D01*
X3522720Y-4169300D01*
X3549390Y-4161340D01*
X3573390Y-4159350D01*
X3597390Y-4163330D01*
X3613400Y-4169300D01*
X3629400Y-4181240D01*
X3640070Y-4195160D01*
X3645400Y-4209090D01*
Y-4223020D01*
X3640070Y-4236940D01*
X3632070Y-4248880D01*
X3621400Y-4258830D01*
G01X3645400Y-4369110D02*
X3485380D01*
X3517380Y-4345230D01*
G01X3645400D02*
Y-4392980D01*
G01X3626730Y-4495300D02*
X3640070Y-4509230D01*
X3645400Y-4525150D01*
X3640070Y-4541070D01*
X3624070Y-4555000D01*
X3600060Y-4564950D01*
X3576060Y-4568920D01*
X3546720D01*
X3522720Y-4564950D01*
X3501380Y-4555000D01*
X3490710Y-4543060D01*
X3485380Y-4529130D01*
X3490710Y-4513210D01*
X3501380Y-4501280D01*
X3517380Y-4493310D01*
X3538720Y-4489340D01*
X3557390Y-4493310D01*
X3576060Y-4503260D01*
X3586730Y-4515200D01*
X3589400Y-4529130D01*
X3584060Y-4545050D01*
X3570730Y-4556980D01*
X3546720Y-4568920D01*
G01X3503080Y-4356210D02*
X3496730Y-4360270D01*
X3493560Y-4365020D01*
X3492500Y-4370430D01*
X3494620Y-4377210D01*
X3499910Y-4381950D01*
X3506260Y-4383300D01*
X3512610Y-4382630D01*
X3517900Y-4379920D01*
X3528480Y-4366370D01*
X3535890Y-4360270D01*
X3546480Y-4356210D01*
X3556000Y-4354860D01*
Y-4383300D01*
G01X2959100Y-5069500D02*
X2966510Y-5065440D01*
X2970740Y-5060020D01*
X2971800Y-5053920D01*
X2970740Y-5048500D01*
X2965450Y-5043080D01*
X2959100Y-5039700D01*
X2952750Y-5039020D01*
X2945340Y-5040380D01*
X2940050Y-5045120D01*
X2937930Y-5049860D01*
Y-5055950D01*
G01Y-5049860D02*
X2934760Y-5045790D01*
X2929470Y-5042410D01*
X2923120Y-5041050D01*
X2916770Y-5042410D01*
X2911480Y-5045790D01*
X2908300Y-5051890D01*
X2909360Y-5057990D01*
X2913590Y-5064080D01*
G01X3200400Y-4069080D02*
X3136900D01*
X3149600Y-4060950D01*
G01X3200400D02*
Y-4077210D01*
G01X3556000Y-4069080D02*
X3492500D01*
X3505200Y-4060950D01*
G01X3556000D02*
Y-4077210D01*
G01X3521500Y-3884000D02*
Y-3723980D01*
X3471760D01*
X3455840Y-3731980D01*
X3445890Y-3742650D01*
X3441920Y-3763990D01*
X3445890Y-3785320D01*
X3457830Y-3798650D01*
X3471760Y-3806660D01*
X3521500D01*
G01X3471760D02*
X3441920Y-3884000D01*
G01X3321690D02*
Y-3723980D01*
X3345570Y-3755980D01*
G01Y-3884000D02*
X3297820D01*
G01X3165650D02*
X3161670Y-3849330D01*
X3155700Y-3820000D01*
X3147740Y-3793320D01*
X3137790Y-3763990D01*
X3121880Y-3723980D01*
X3201460D01*
G01X3365390Y-3757080D02*
X3361330Y-3750730D01*
X3356580Y-3747560D01*
X3351170Y-3746500D01*
X3344390Y-3748620D01*
X3339650Y-3753910D01*
X3338300Y-3760260D01*
X3338970Y-3766610D01*
X3341680Y-3771900D01*
X3355230Y-3782480D01*
X3361330Y-3789890D01*
X3365390Y-3800480D01*
X3366740Y-3810000D01*
X3338300D01*
G01X3193920Y-2779660D02*
X3185910Y-2767720D01*
X3180580Y-2753800D01*
Y-2737880D01*
X3188580Y-2719970D01*
X3201920Y-2706050D01*
X3217920Y-2696100D01*
X3244590Y-2688140D01*
X3268590Y-2686150D01*
X3292590Y-2690130D01*
X3308600Y-2696100D01*
X3324600Y-2708040D01*
X3335270Y-2721960D01*
X3340600Y-2735890D01*
Y-2749820D01*
X3335270Y-2763740D01*
X3327270Y-2775680D01*
X3316600Y-2785630D01*
G01X3207250Y-2858110D02*
X3191250Y-2870040D01*
X3183250Y-2883970D01*
X3180580Y-2899890D01*
X3185910Y-2919790D01*
X3199250Y-2933710D01*
X3215250Y-2937690D01*
X3231260Y-2935700D01*
X3244590Y-2927740D01*
X3271260Y-2887950D01*
X3289930Y-2870040D01*
X3316600Y-2858110D01*
X3340600Y-2854130D01*
Y-2937690D01*
G01X3180580Y-3055930D02*
X3185910Y-3040010D01*
X3199250Y-3028080D01*
X3215250Y-3020110D01*
X3236590Y-3014150D01*
X3260590Y-3012160D01*
X3284600Y-3014150D01*
X3305930Y-3020110D01*
X3321930Y-3028080D01*
X3335270Y-3040010D01*
X3340600Y-3055930D01*
X3335270Y-3071850D01*
X3321930Y-3083780D01*
X3305930Y-3091750D01*
X3284600Y-3097710D01*
X3260590Y-3099700D01*
X3236590Y-3097710D01*
X3215250Y-3091750D01*
X3199250Y-3083780D01*
X3185910Y-3071850D01*
X3180580Y-3055930D01*
G01X3223680Y-2883010D02*
X3217330Y-2887070D01*
X3214160Y-2891820D01*
X3213100Y-2897230D01*
X3215220Y-2904010D01*
X3220510Y-2908750D01*
X3226860Y-2910100D01*
X3233210Y-2909430D01*
X3238500Y-2906720D01*
X3249080Y-2893170D01*
X3256490Y-2887070D01*
X3267080Y-2883010D01*
X3276600Y-2881660D01*
Y-2910100D01*
G01X3524120Y-2779660D02*
X3516110Y-2767720D01*
X3510780Y-2753800D01*
Y-2737880D01*
X3518780Y-2719970D01*
X3532120Y-2706050D01*
X3548120Y-2696100D01*
X3574790Y-2688140D01*
X3598790Y-2686150D01*
X3622790Y-2690130D01*
X3638800Y-2696100D01*
X3654800Y-2708040D01*
X3665470Y-2721960D01*
X3670800Y-2735890D01*
Y-2749820D01*
X3665470Y-2763740D01*
X3657470Y-2775680D01*
X3646800Y-2785630D01*
G01X3537450Y-2858110D02*
X3521450Y-2870040D01*
X3513450Y-2883970D01*
X3510780Y-2899890D01*
X3516110Y-2919790D01*
X3529450Y-2933710D01*
X3545450Y-2937690D01*
X3561460Y-2935700D01*
X3574790Y-2927740D01*
X3601460Y-2887950D01*
X3620130Y-2870040D01*
X3646800Y-2858110D01*
X3670800Y-2854130D01*
Y-2937690D01*
G01Y-3055930D02*
X3510780D01*
X3542780Y-3032050D01*
G01X3670800D02*
Y-3079800D01*
G01X3553880Y-2883010D02*
X3547530Y-2887070D01*
X3544360Y-2891820D01*
X3543300Y-2897230D01*
X3545420Y-2904010D01*
X3550710Y-2908750D01*
X3557060Y-2910100D01*
X3563410Y-2909430D01*
X3568700Y-2906720D01*
X3579280Y-2893170D01*
X3586690Y-2887070D01*
X3597280Y-2883010D01*
X3606800Y-2881660D01*
Y-2910100D01*
G01X3276600Y-2595880D02*
X3213100D01*
X3225800Y-2587750D01*
G01X3276600D02*
Y-2604010D01*
G01X3606800Y-2595880D02*
X3543300D01*
X3556000Y-2587750D01*
G01X3606800D02*
Y-2604010D01*
G01X3623100Y-2334600D02*
Y-2174580D01*
X3573360D01*
X3557440Y-2182580D01*
X3547490Y-2193250D01*
X3543520Y-2214590D01*
X3547490Y-2235920D01*
X3559430Y-2249250D01*
X3573360Y-2257260D01*
X3623100D01*
G01X3573360D02*
X3543520Y-2334600D01*
G01X3423290D02*
Y-2174580D01*
X3447170Y-2206580D01*
G01Y-2334600D02*
X3399420D01*
G01X3297100Y-2315930D02*
X3283170Y-2329270D01*
X3267250Y-2334600D01*
X3251330Y-2329270D01*
X3237400Y-2313270D01*
X3227450Y-2289260D01*
X3223480Y-2265260D01*
Y-2235920D01*
X3227450Y-2211920D01*
X3237400Y-2190580D01*
X3249340Y-2179910D01*
X3263270Y-2174580D01*
X3279190Y-2179910D01*
X3291120Y-2190580D01*
X3299090Y-2206580D01*
X3303060Y-2227920D01*
X3299090Y-2246590D01*
X3289140Y-2265260D01*
X3277200Y-2275930D01*
X3263270Y-2278600D01*
X3247350Y-2273260D01*
X3235420Y-2259930D01*
X3223480Y-2235920D01*
G01X3441590Y-2207680D02*
X3437530Y-2201330D01*
X3432780Y-2198160D01*
X3427370Y-2197100D01*
X3420590Y-2199220D01*
X3415850Y-2204510D01*
X3414500Y-2210860D01*
X3415170Y-2217210D01*
X3417880Y-2222500D01*
X3431430Y-2233080D01*
X3437530Y-2240490D01*
X3441590Y-2251080D01*
X3442940Y-2260600D01*
X3414500D01*
G01X3168520Y-1077860D02*
X3160510Y-1065920D01*
X3155180Y-1052000D01*
Y-1036080D01*
X3163180Y-1018170D01*
X3176520Y-1004250D01*
X3192520Y-994300D01*
X3219190Y-986340D01*
X3243190Y-984350D01*
X3267190Y-988330D01*
X3283200Y-994300D01*
X3299200Y-1006240D01*
X3309870Y-1020160D01*
X3315200Y-1034090D01*
Y-1048020D01*
X3309870Y-1061940D01*
X3301870Y-1073880D01*
X3291200Y-1083830D01*
G01X3181850Y-1156310D02*
X3165850Y-1168240D01*
X3157850Y-1182170D01*
X3155180Y-1198090D01*
X3160510Y-1217990D01*
X3173850Y-1231910D01*
X3189850Y-1235890D01*
X3205860Y-1233900D01*
X3219190Y-1225940D01*
X3245860Y-1186150D01*
X3264530Y-1168240D01*
X3291200Y-1156310D01*
X3315200Y-1152330D01*
Y-1235890D01*
G01X3181850Y-1316330D02*
X3165850Y-1328260D01*
X3157850Y-1342190D01*
X3155180Y-1358110D01*
X3160510Y-1378010D01*
X3173850Y-1391930D01*
X3189850Y-1395910D01*
X3205860Y-1393920D01*
X3219190Y-1385960D01*
X3245860Y-1346170D01*
X3264530Y-1328260D01*
X3291200Y-1316330D01*
X3315200Y-1312350D01*
Y-1395910D01*
G01X3524120Y-1077860D02*
X3516110Y-1065920D01*
X3510780Y-1052000D01*
Y-1036080D01*
X3518780Y-1018170D01*
X3532120Y-1004250D01*
X3548120Y-994300D01*
X3574790Y-986340D01*
X3598790Y-984350D01*
X3622790Y-988330D01*
X3638800Y-994300D01*
X3654800Y-1006240D01*
X3665470Y-1020160D01*
X3670800Y-1034090D01*
Y-1048020D01*
X3665470Y-1061940D01*
X3657470Y-1073880D01*
X3646800Y-1083830D01*
G01X3537450Y-1156310D02*
X3521450Y-1168240D01*
X3513450Y-1182170D01*
X3510780Y-1198090D01*
X3516110Y-1217990D01*
X3529450Y-1231910D01*
X3545450Y-1235890D01*
X3561460Y-1233900D01*
X3574790Y-1225940D01*
X3601460Y-1186150D01*
X3620130Y-1168240D01*
X3646800Y-1156310D01*
X3670800Y-1152330D01*
Y-1235890D01*
G01X3638800Y-1310360D02*
X3657470Y-1322290D01*
X3668130Y-1338210D01*
X3670800Y-1356120D01*
X3668130Y-1372040D01*
X3654800Y-1387960D01*
X3638800Y-1397900D01*
X3622790Y-1399890D01*
X3604130Y-1395910D01*
X3590790Y-1381980D01*
X3585450Y-1368060D01*
Y-1350150D01*
G01Y-1368060D02*
X3577460Y-1380000D01*
X3564120Y-1389950D01*
X3548120Y-1393920D01*
X3532120Y-1389950D01*
X3518780Y-1380000D01*
X3510780Y-1362090D01*
X3513450Y-1344180D01*
X3524120Y-1326280D01*
G01X3172880Y-1181210D02*
X3166530Y-1185270D01*
X3163360Y-1190020D01*
X3162300Y-1195430D01*
X3164420Y-1202210D01*
X3169710Y-1206950D01*
X3176060Y-1208300D01*
X3182410Y-1207630D01*
X3187700Y-1204920D01*
X3198280Y-1191370D01*
X3205690Y-1185270D01*
X3216280Y-1181210D01*
X3225800Y-1179860D01*
Y-1208300D01*
G01Y-894080D02*
X3162300D01*
X3175000Y-885950D01*
G01X3225800D02*
Y-902210D01*
G01X3528480Y-1181210D02*
X3522130Y-1185270D01*
X3518960Y-1190020D01*
X3517900Y-1195430D01*
X3520020Y-1202210D01*
X3525310Y-1206950D01*
X3531660Y-1208300D01*
X3538010Y-1207630D01*
X3543300Y-1204920D01*
X3553880Y-1191370D01*
X3561290Y-1185270D01*
X3571880Y-1181210D01*
X3581400Y-1179860D01*
Y-1208300D01*
G01Y-894080D02*
X3517900D01*
X3530600Y-885950D01*
G01X3581400D02*
Y-902210D01*
G01X3572300Y-709000D02*
Y-548980D01*
X3522560D01*
X3506640Y-556980D01*
X3496690Y-567650D01*
X3492720Y-588990D01*
X3496690Y-610320D01*
X3508630Y-623650D01*
X3522560Y-631660D01*
X3572300D01*
G01X3522560D02*
X3492720Y-709000D01*
G01X3410290Y-575650D02*
X3398360Y-559650D01*
X3384430Y-551650D01*
X3368510Y-548980D01*
X3348610Y-554310D01*
X3334690Y-567650D01*
X3330710Y-583650D01*
X3332700Y-599660D01*
X3340660Y-612990D01*
X3380450Y-639660D01*
X3398360Y-658330D01*
X3410290Y-685000D01*
X3414270Y-709000D01*
X3330710D01*
G01X3212470D02*
Y-548980D01*
X3236350Y-580980D01*
G01Y-709000D02*
X3188600D01*
G01X3390790Y-582080D02*
X3386730Y-575730D01*
X3381980Y-572560D01*
X3376570Y-571500D01*
X3369790Y-573620D01*
X3365050Y-578910D01*
X3363700Y-585260D01*
X3364370Y-591610D01*
X3367080Y-596900D01*
X3380630Y-607480D01*
X3386730Y-614890D01*
X3390790Y-625480D01*
X3392140Y-635000D01*
X3363700D01*
G01X3193920Y522340D02*
X3185910Y534280D01*
X3180580Y548200D01*
Y564120D01*
X3188580Y582030D01*
X3201920Y595950D01*
X3217920Y605900D01*
X3244590Y613860D01*
X3268590Y615850D01*
X3292590Y611870D01*
X3308600Y605900D01*
X3324600Y593960D01*
X3335270Y580040D01*
X3340600Y566110D01*
Y552180D01*
X3335270Y538260D01*
X3327270Y526320D01*
X3316600Y516370D01*
G01X3207250Y443890D02*
X3191250Y431960D01*
X3183250Y418030D01*
X3180580Y402110D01*
X3185910Y382210D01*
X3199250Y368290D01*
X3215250Y364310D01*
X3231260Y366300D01*
X3244590Y374260D01*
X3271260Y414050D01*
X3289930Y431960D01*
X3316600Y443890D01*
X3340600Y447870D01*
Y364310D01*
G01Y222190D02*
X3180580D01*
X3295260Y295810D01*
Y196330D01*
G01X3524120Y522340D02*
X3516110Y534280D01*
X3510780Y548200D01*
Y564120D01*
X3518780Y582030D01*
X3532120Y595950D01*
X3548120Y605900D01*
X3574790Y613860D01*
X3598790Y615850D01*
X3622790Y611870D01*
X3638800Y605900D01*
X3654800Y593960D01*
X3665470Y580040D01*
X3670800Y566110D01*
Y552180D01*
X3665470Y538260D01*
X3657470Y526320D01*
X3646800Y516370D01*
G01X3537450Y443890D02*
X3521450Y431960D01*
X3513450Y418030D01*
X3510780Y402110D01*
X3516110Y382210D01*
X3529450Y368290D01*
X3545450Y364310D01*
X3561460Y366300D01*
X3574790Y374260D01*
X3601460Y414050D01*
X3620130Y431960D01*
X3646800Y443890D01*
X3670800Y447870D01*
Y364310D01*
G01X3646800Y289840D02*
X3660130Y277910D01*
X3668130Y263980D01*
X3670800Y246070D01*
X3665470Y228160D01*
X3654800Y214240D01*
X3636130Y204290D01*
X3614800Y202300D01*
X3593460Y206280D01*
X3580120Y216230D01*
X3569460Y230150D01*
X3566790Y244080D01*
X3569460Y258010D01*
X3580120Y275910D01*
X3510780Y269950D01*
Y216230D01*
G01X3198280Y418990D02*
X3191930Y414930D01*
X3188760Y410180D01*
X3187700Y404770D01*
X3189820Y397990D01*
X3195110Y393250D01*
X3201460Y391900D01*
X3207810Y392570D01*
X3213100Y395280D01*
X3223680Y408830D01*
X3231090Y414930D01*
X3241680Y418990D01*
X3251200Y420340D01*
Y391900D01*
G01Y706120D02*
X3187700D01*
X3200400Y714250D01*
G01X3251200D02*
Y697990D01*
G01X3528480Y418990D02*
X3522130Y414930D01*
X3518960Y410180D01*
X3517900Y404770D01*
X3520020Y397990D01*
X3525310Y393250D01*
X3531660Y391900D01*
X3538010Y392570D01*
X3543300Y395280D01*
X3553880Y408830D01*
X3561290Y414930D01*
X3571880Y418990D01*
X3581400Y420340D01*
Y391900D01*
G01Y706120D02*
X3517900D01*
X3530600Y714250D01*
G01X3581400D02*
Y697990D01*
G01X3623100Y840400D02*
Y1000420D01*
X3573360D01*
X3557440Y992420D01*
X3547490Y981750D01*
X3543520Y960410D01*
X3547490Y939080D01*
X3559430Y925750D01*
X3573360Y917740D01*
X3623100D01*
G01X3573360D02*
X3543520Y840400D01*
G01X3461090Y973750D02*
X3449160Y989750D01*
X3435230Y997750D01*
X3419310Y1000420D01*
X3399410Y995090D01*
X3385490Y981750D01*
X3381510Y965750D01*
X3383500Y949740D01*
X3391460Y936410D01*
X3431250Y909740D01*
X3449160Y891070D01*
X3461090Y864400D01*
X3465070Y840400D01*
X3381510D01*
G01X3307040Y872400D02*
X3295110Y853730D01*
X3279190Y843070D01*
X3261280Y840400D01*
X3245360Y843070D01*
X3229440Y856400D01*
X3219500Y872400D01*
X3217510Y888410D01*
X3221490Y907070D01*
X3235420Y920410D01*
X3249340Y925750D01*
X3267250D01*
G01X3249340D02*
X3237400Y933740D01*
X3227450Y947080D01*
X3223480Y963080D01*
X3227450Y979080D01*
X3237400Y992420D01*
X3255310Y1000420D01*
X3273220Y997750D01*
X3291120Y987080D01*
G01X3416190Y992720D02*
X3412130Y999070D01*
X3407380Y1002240D01*
X3401970Y1003300D01*
X3395190Y1001180D01*
X3390450Y995890D01*
X3389100Y989540D01*
X3389770Y983190D01*
X3392480Y977900D01*
X3406030Y967320D01*
X3412130Y959910D01*
X3416190Y949320D01*
X3417540Y939800D01*
X3389100D01*
G01X3652520Y-3810000D02*
Y-3746500D01*
X3660650Y-3759200D01*
G01Y-3810000D02*
X3644390D01*
G01X4283500Y-3884000D02*
Y-3723980D01*
X4233760D01*
X4217840Y-3731980D01*
X4207890Y-3742650D01*
X4203920Y-3763990D01*
X4207890Y-3785320D01*
X4219830Y-3798650D01*
X4233760Y-3806660D01*
X4283500D01*
G01X4233760D02*
X4203920Y-3884000D01*
G01X4083690D02*
Y-3723980D01*
X4107570Y-3755980D01*
G01Y-3884000D02*
X4059820D01*
G01X3961470Y-3817330D02*
X3947550Y-3798650D01*
X3935610Y-3787990D01*
X3919690Y-3782660D01*
X3905760Y-3787990D01*
X3895820Y-3798650D01*
X3887850Y-3814660D01*
X3885870Y-3833330D01*
X3887850Y-3849330D01*
X3895820Y-3865330D01*
X3907750Y-3878670D01*
X3921680Y-3884000D01*
X3937600Y-3878670D01*
X3951520Y-3862670D01*
X3959490Y-3838660D01*
X3961470Y-3811990D01*
X3957500Y-3777320D01*
X3951520Y-3758650D01*
X3941580Y-3739980D01*
X3927650Y-3726650D01*
X3913720Y-3723980D01*
X3899790Y-3729310D01*
X3889840Y-3742650D01*
G01X4127390Y-3757080D02*
X4123330Y-3750730D01*
X4118580Y-3747560D01*
X4113170Y-3746500D01*
X4106390Y-3748620D01*
X4101650Y-3753910D01*
X4100300Y-3760260D01*
X4100970Y-3766610D01*
X4103680Y-3771900D01*
X4117230Y-3782480D01*
X4123330Y-3789890D01*
X4127390Y-3800480D01*
X4128740Y-3810000D01*
X4100300D01*
G01X3728720Y-2260600D02*
Y-2197100D01*
X3736850Y-2209800D01*
G01Y-2260600D02*
X3720590D01*
G01X4359700Y-2334600D02*
Y-2174580D01*
X4309960D01*
X4294040Y-2182580D01*
X4284090Y-2193250D01*
X4280120Y-2214590D01*
X4284090Y-2235920D01*
X4296030Y-2249250D01*
X4309960Y-2257260D01*
X4359700D01*
G01X4309960D02*
X4280120Y-2334600D01*
G01X4159890D02*
Y-2174580D01*
X4183770Y-2206580D01*
G01Y-2334600D02*
X4136020D01*
G01X3999870D02*
X3985940Y-2331930D01*
X3970030Y-2323930D01*
X3960080Y-2310600D01*
X3956100Y-2291930D01*
X3960080Y-2273260D01*
X3972020Y-2257260D01*
X3989920Y-2249250D01*
X4009820D01*
X4021760Y-2243920D01*
X4031710Y-2230590D01*
X4035690Y-2211920D01*
X4029710Y-2193250D01*
X4015790Y-2179910D01*
X3999870Y-2174580D01*
X3983950Y-2179910D01*
X3970030Y-2193250D01*
X3964050Y-2211920D01*
X3968040Y-2230590D01*
X3977980Y-2243920D01*
X3989920Y-2249250D01*
X4009820D01*
X4027720Y-2257260D01*
X4039660Y-2273260D01*
X4043640Y-2291930D01*
X4039660Y-2310600D01*
X4029710Y-2323930D01*
X4013800Y-2331930D01*
X3999870Y-2334600D01*
G01X4178190Y-2207680D02*
X4174130Y-2201330D01*
X4169380Y-2198160D01*
X4163970Y-2197100D01*
X4157190Y-2199220D01*
X4152450Y-2204510D01*
X4151100Y-2210860D01*
X4151770Y-2217210D01*
X4154480Y-2222500D01*
X4168030Y-2233080D01*
X4174130Y-2240490D01*
X4178190Y-2251080D01*
X4179540Y-2260600D01*
X4151100D01*
G01X3677920Y-635000D02*
Y-571500D01*
X3686050Y-584200D01*
G01Y-635000D02*
X3669790D01*
G01X4308900Y-709000D02*
Y-548980D01*
X4259160D01*
X4243240Y-556980D01*
X4233290Y-567650D01*
X4229320Y-588990D01*
X4233290Y-610320D01*
X4245230Y-623650D01*
X4259160Y-631660D01*
X4308900D01*
G01X4259160D02*
X4229320Y-709000D01*
G01X4146890Y-575650D02*
X4134960Y-559650D01*
X4121030Y-551650D01*
X4105110Y-548980D01*
X4085210Y-554310D01*
X4071290Y-567650D01*
X4067310Y-583650D01*
X4069300Y-599660D01*
X4077260Y-612990D01*
X4117050Y-639660D01*
X4134960Y-658330D01*
X4146890Y-685000D01*
X4150870Y-709000D01*
X4067310D01*
G01X3949070Y-548980D02*
X3964990Y-554310D01*
X3976920Y-567650D01*
X3984890Y-583650D01*
X3990850Y-604990D01*
X3992840Y-628990D01*
X3990850Y-653000D01*
X3984890Y-674330D01*
X3976920Y-690330D01*
X3964990Y-703670D01*
X3949070Y-709000D01*
X3933150Y-703670D01*
X3921220Y-690330D01*
X3913250Y-674330D01*
X3907290Y-653000D01*
X3905300Y-628990D01*
X3907290Y-604990D01*
X3913250Y-583650D01*
X3921220Y-567650D01*
X3933150Y-554310D01*
X3949070Y-548980D01*
G01X4127390Y-582080D02*
X4123330Y-575730D01*
X4118580Y-572560D01*
X4113170Y-571500D01*
X4106390Y-573620D01*
X4101650Y-578910D01*
X4100300Y-585260D01*
X4100970Y-591610D01*
X4103680Y-596900D01*
X4117230Y-607480D01*
X4123330Y-614890D01*
X4127390Y-625480D01*
X4128740Y-635000D01*
X4100300D01*
G01X3703320Y939800D02*
Y1003300D01*
X3711450Y990600D01*
G01Y939800D02*
X3695190D01*
G01X4334300Y840400D02*
Y1000420D01*
X4284560D01*
X4268640Y992420D01*
X4258690Y981750D01*
X4254720Y960410D01*
X4258690Y939080D01*
X4270630Y925750D01*
X4284560Y917740D01*
X4334300D01*
G01X4284560D02*
X4254720Y840400D01*
G01X4172290Y973750D02*
X4160360Y989750D01*
X4146430Y997750D01*
X4130510Y1000420D01*
X4110610Y995090D01*
X4096690Y981750D01*
X4092710Y965750D01*
X4094700Y949740D01*
X4102660Y936410D01*
X4142450Y909740D01*
X4160360Y891070D01*
X4172290Y864400D01*
X4176270Y840400D01*
X4092710D01*
G01X4012270Y973750D02*
X4000340Y989750D01*
X3986410Y997750D01*
X3970490Y1000420D01*
X3950590Y995090D01*
X3936670Y981750D01*
X3932690Y965750D01*
X3934680Y949740D01*
X3942640Y936410D01*
X3982430Y909740D01*
X4000340Y891070D01*
X4012270Y864400D01*
X4016250Y840400D01*
X3932690D01*
G01X4127390Y992720D02*
X4123330Y999070D01*
X4118580Y1002240D01*
X4113170Y1003300D01*
X4106390Y1001180D01*
X4101650Y995890D01*
X4100300Y989540D01*
X4100970Y983190D01*
X4103680Y977900D01*
X4117230Y967320D01*
X4123330Y959910D01*
X4127390Y949320D01*
X4128740Y939800D01*
X4100300D01*
G01X4414520Y-3810000D02*
Y-3746500D01*
X4422650Y-3759200D01*
G01Y-3810000D02*
X4406390D01*
G01X4465320Y-2260600D02*
Y-2197100D01*
X4473450Y-2209800D01*
G01Y-2260600D02*
X4457190D01*
G01X4414520Y-635000D02*
Y-571500D01*
X4422650Y-584200D01*
G01Y-635000D02*
X4406390D01*
G01X4414520Y939800D02*
Y1003300D01*
X4422650Y990600D01*
G01Y939800D02*
X4406390D01*
M02*
