  0
SECTION
  2
HEADER
  9
$ACADVER
  1
AC1009
  9
$INSBASE
 10
0.000000
 20
0.000000
  9
$LIMMIN
 10
-7874.016000
 20
-5905.512000
  9
$LIMMAX
 10
11303.366000
 20
8521.654000
  9
$EXTMIN
 10
-7874.016000
 20
-5905.512000
  9
$EXTMAX
 10
11303.366000
 20
8521.654000
  9
$ATTMODE
 70
0
  9
$LUNITS
 70
2
  9
$LUPREC
 70
3
  9
$THICKNESS
 40
10.400000
  0
ENDSEC
  0
SECTION
  2
TABLES
  0
TABLE
  2
LTYPE
 70
1
  0
LTYPE
  3
Solid Line
  2
CONTINUOUS
 70
0
 72
65
 73
0
 40
0.000000
  0
ENDTAB
  0
TABLE
  2
LAYER
 70
104
  0
LAYER
  2
0
 70
0
 62
7
  6
CONTINUOUS
  0
LAYER
  2
0
 70
0
 62
254
  6
CONTINUOUS
  0
LAYER
  2
0
 70
0
 62
80
  6
CONTINUOUS
  0
LAYER
  2
0
 70
0
 62
2
  6
CONTINUOUS
  0
LAYER
  2
0
 70
0
 62
85
  6
CONTINUOUS
  0
LAYER
  2
0
 70
0
 62
85
  6
CONTINUOUS
  0
LAYER
  2
0
 70
0
 62
85
  6
CONTINUOUS
  0
LAYER
  2
0
 70
0
 62
85
  6
CONTINUOUS
  0
LAYER
  2
0
 70
0
 62
85
  6
CONTINUOUS
  0
LAYER
  2
0
 70
0
 62
85
  6
CONTINUOUS
  0
LAYER
  2
0
 70
0
 62
85
  6
CONTINUOUS
  0
LAYER
  2
0
 70
0
 62
85
  6
CONTINUOUS
  0
LAYER
  2
0
 70
0
 62
85
  6
CONTINUOUS
  0
LAYER
  2
0
 70
0
 62
85
  6
CONTINUOUS
  0
LAYER
  2
0
 70
0
 62
85
  6
CONTINUOUS
  0
LAYER
  2
0
 70
0
 62
85
  6
CONTINUOUS
  0
LAYER
  2
0
 70
0
 62
85
  6
CONTINUOUS
  0
LAYER
  2
0
 70
0
 62
85
  6
CONTINUOUS
  0
LAYER
  2
0
 70
0
 62
85
  6
CONTINUOUS
  0
LAYER
  2
0
 70
0
 62
85
  6
CONTINUOUS
  0
LAYER
  2
0
 70
0
 62
85
  6
CONTINUOUS
  0
LAYER
  2
0
 70
0
 62
85
  6
CONTINUOUS
  0
LAYER
  2
0
 70
0
 62
85
  6
CONTINUOUS
  0
LAYER
  2
0
 70
0
 62
12
  6
CONTINUOUS
  0
LAYER
  2
0
 70
0
 62
111
  6
CONTINUOUS
  0
LAYER
  2
0
 70
0
 62
202
  6
CONTINUOUS
  0
LAYER
  2
0
 70
0
 62
234
  6
CONTINUOUS
  0
LAYER
  2
0
 70
0
 62
234
  6
CONTINUOUS
  0
LAYER
  2
0
 70
0
 62
234
  6
CONTINUOUS
  0
LAYER
  2
0
 70
0
 62
80
  6
CONTINUOUS
  0
LAYER
  2
0
 70
0
 62
2
  6
CONTINUOUS
  0
LAYER
  2
0
 70
0
 62
85
  6
CONTINUOUS
  0
LAYER
  2
0
 70
0
 62
85
  6
CONTINUOUS
  0
LAYER
  2
0
 70
0
 62
85
  6
CONTINUOUS
  0
LAYER
  2
0
 70
0
 62
85
  6
CONTINUOUS
  0
LAYER
  2
0
 70
0
 62
85
  6
CONTINUOUS
  0
LAYER
  2
0
 70
0
 62
85
  6
CONTINUOUS
  0
LAYER
  2
0
 70
0
 62
142
  6
CONTINUOUS
  0
LAYER
  2
0
 70
0
 62
142
  6
CONTINUOUS
  0
LAYER
  2
0
 70
0
 62
142
  6
CONTINUOUS
  0
LAYER
  2
0
 70
0
 62
142
  6
CONTINUOUS
  0
LAYER
  2
0
 70
0
 62
142
  6
CONTINUOUS
  0
LAYER
  2
0
 70
0
 62
142
  6
CONTINUOUS
  0
LAYER
  2
0
 70
0
 62
43
  6
CONTINUOUS
  0
LAYER
  2
0
 70
0
 62
253
  6
CONTINUOUS
  0
LAYER
  2
0
 70
0
 62
253
  6
CONTINUOUS
  0
LAYER
  2
0
 70
0
 62
253
  6
CONTINUOUS
  0
LAYER
  2
0
 70
0
 62
85
  6
CONTINUOUS
  0
LAYER
  2
0
 70
0
 62
85
  6
CONTINUOUS
  0
LAYER
  2
0
 70
0
 62
85
  6
CONTINUOUS
  0
LAYER
  2
0
 70
0
 62
85
  6
CONTINUOUS
  0
LAYER
  2
0
 70
0
 62
85
  6
CONTINUOUS
  0
LAYER
  2
0
 70
0
 62
85
  6
CONTINUOUS
  0
LAYER
  2
0
 70
0
 62
85
  6
CONTINUOUS
  0
LAYER
  2
0
 70
0
 62
85
  6
CONTINUOUS
  0
LAYER
  2
0
 70
0
 62
85
  6
CONTINUOUS
  0
LAYER
  2
0
 70
0
 62
85
  6
CONTINUOUS
  0
LAYER
  2
0
 70
0
 62
85
  6
CONTINUOUS
  0
LAYER
  2
0
 70
0
 62
85
  6
CONTINUOUS
  0
LAYER
  2
0
 70
0
 62
80
  6
CONTINUOUS
  0
LAYER
  2
0
 70
0
 62
2
  6
CONTINUOUS
  0
LAYER
  2
0
 70
0
 62
85
  6
CONTINUOUS
  0
LAYER
  2
0
 70
0
 62
85
  6
CONTINUOUS
  0
LAYER
  2
0
 70
0
 62
85
  6
CONTINUOUS
  0
LAYER
  2
0
 70
0
 62
85
  6
CONTINUOUS
  0
LAYER
  2
0
 70
0
 62
85
  6
CONTINUOUS
  0
LAYER
  2
0
 70
0
 62
85
  6
CONTINUOUS
  0
LAYER
  2
0
 70
0
 62
253
  6
CONTINUOUS
  0
LAYER
  2
0
 70
0
 62
253
  6
CONTINUOUS
  0
LAYER
  2
0
 70
0
 62
253
  6
CONTINUOUS
  0
LAYER
  2
0
 70
0
 62
85
  6
CONTINUOUS
  0
LAYER
  2
0
 70
0
 62
85
  6
CONTINUOUS
  0
LAYER
  2
0
 70
0
 62
85
  6
CONTINUOUS
  0
LAYER
  2
0
 70
0
 62
85
  6
CONTINUOUS
  0
LAYER
  2
0
 70
0
 62
85
  6
CONTINUOUS
  0
LAYER
  2
0
 70
0
 62
85
  6
CONTINUOUS
  0
LAYER
  2
0
 70
0
 62
85
  6
CONTINUOUS
  0
LAYER
  2
0
 70
0
 62
85
  6
CONTINUOUS
  0
LAYER
  2
0
 70
0
 62
85
  6
CONTINUOUS
  0
LAYER
  2
0
 70
0
 62
85
  6
CONTINUOUS
  0
LAYER
  2
0
 70
0
 62
85
  6
CONTINUOUS
  0
LAYER
  2
0
 70
0
 62
85
  6
CONTINUOUS
  0
LAYER
  2
0
 70
0
 62
85
  6
CONTINUOUS
  0
LAYER
  2
0
 70
0
 62
85
  6
CONTINUOUS
  0
LAYER
  2
0
 70
0
 62
85
  6
CONTINUOUS
  0
LAYER
  2
0
 70
0
 62
85
  6
CONTINUOUS
  0
LAYER
  2
0
 70
0
 62
85
  6
CONTINUOUS
  0
LAYER
  2
0
 70
0
 62
85
  6
CONTINUOUS
  0
LAYER
  2
0
 70
0
 62
85
  6
CONTINUOUS
  0
LAYER
  2
0
 70
0
 62
85
  6
CONTINUOUS
  0
LAYER
  2
0
 70
0
 62
85
  6
CONTINUOUS
  0
LAYER
  2
0
 70
0
 62
85
  6
CONTINUOUS
  0
LAYER
  2
0
 70
0
 62
85
  6
CONTINUOUS
  0
LAYER
  2
0
 70
0
 62
85
  6
CONTINUOUS
  0
LAYER
  2
0
 70
0
 62
85
  6
CONTINUOUS
  0
LAYER
  2
0
 70
0
 62
85
  6
CONTINUOUS
  0
LAYER
  2
0
 70
0
 62
85
  6
CONTINUOUS
  0
LAYER
  2
0
 70
0
 62
85
  6
CONTINUOUS
  0
LAYER
  2
0
 70
0
 62
85
  6
CONTINUOUS
  0
LAYER
  2
0
 70
0
 62
85
  6
CONTINUOUS
  0
LAYER
  2
0
 70
0
 62
85
  6
CONTINUOUS
  0
LAYER
  2
0
 70
0
 62
85
  6
CONTINUOUS
  0
LAYER
  2
0
 70
0
 62
7
  6
CONTINUOUS
  0
LAYER
  2
0
 70
0
 62
7
  6
CONTINUOUS
  0
ENDTAB
  0
TABLE
  2
STYLE
 70
1
  0
STYLE
  2
STANDARD
 70
0
 40
0.000000
 41
1.000000
 50
0.000000
 71
0
 42
0.200000
  3
txt
  0
ENDTAB
  0
ENDSEC
  0
SECTION
  2
BLOCKS
  0
BLOCK
  8
0
  2
FIGURE_CIRCLE
 70
0
 10
0.000000
 20
0.000000
  0
CIRCLE
  8
0
 10
0.000000
 20
0.000000
 40
0.500000
  0
ENDBLK
  0
BLOCK
  8
0
  2
FIGURE_SQUARE
 70
0
 10
0.000000
 20
0.000000
  0
POLYLINE
  8
0
 66
1
 70
1
 40
0.000000
 41
0.000000
 39
0.000000
  0
VERTEX
  8
0
 10
-0.500000
 20
-0.500000
 40
0.000000
 41
0.000000
 42
0.000000
  0
VERTEX
  8
0
 10
-0.500000
 20
0.500000
 40
0.000000
 41
0.000000
 42
0.000000
  0
VERTEX
  8
0
 10
0.500000
 20
0.500000
 40
0.000000
 41
0.000000
 42
0.000000
  0
VERTEX
  8
0
 10
0.500000
 20
-0.500000
 40
0.000000
 41
0.000000
 42
0.000000
  0
SEQEND
  0
ENDBLK
  0
BLOCK
  8
0
  2
FIGURE_HEX
 70
0
 10
0.000000
 20
0.000000
  0
POLYLINE
  8
0
 66
1
 70
1
 40
0.000000
 41
0.000000
 39
0.000000
  0
VERTEX
  8
0
 10
-0.500000
 20
0.000000
 40
0.000000
 41
0.000000
 42
0.000000
  0
VERTEX
  8
0
 10
-0.250000
 20
0.500000
 40
0.000000
 41
0.000000
 42
0.000000
  0
VERTEX
  8
0
 10
0.250000
 20
0.500000
 40
0.000000
 41
0.000000
 42
0.000000
  0
VERTEX
  8
0
 10
0.500000
 20
0.000000
 40
0.000000
 41
0.000000
 42
0.000000
  0
VERTEX
  8
0
 10
0.250000
 20
-0.500000
 40
0.000000
 41
0.000000
 42
0.000000
  0
VERTEX
  8
0
 10
-0.250000
 20
-0.500000
 40
0.000000
 41
0.000000
 42
0.000000
  0
SEQEND
  0
ENDBLK
  0
BLOCK
  8
0
  2
FIGURE_OCT
 70
0
 10
0.000000
 20
0.000000
  0
POLYLINE
  8
0
 66
1
 70
1
 40
0.000000
 41
0.000000
 39
0.000000
  0
VERTEX
  8
0
 10
-0.500000
 20
-0.207100
 40
0.000000
 41
0.000000
 42
0.000000
  0
VERTEX
  8
0
 10
-0.500000
 20
0.207100
 40
0.000000
 41
0.000000
 42
0.000000
  0
VERTEX
  8
0
 10
-0.207100
 20
0.500000
 40
0.000000
 41
0.000000
 42
0.000000
  0
VERTEX
  8
0
 10
0.207100
 20
0.500000
 40
0.000000
 41
0.000000
 42
0.000000
  0
VERTEX
  8
0
 10
0.500000
 20
0.207100
 40
0.000000
 41
0.000000
 42
0.000000
  0
VERTEX
  8
0
 10
0.500000
 20
-0.207100
 40
0.000000
 41
0.000000
 42
0.000000
  0
VERTEX
  8
0
 10
0.207100
 20
-0.500000
 40
0.000000
 41
0.000000
 42
0.000000
  0
VERTEX
  8
0
 10
-0.207100
 20
-0.500000
 40
0.000000
 41
0.000000
 42
0.000000
  0
SEQEND
  0
ENDBLK
  0
BLOCK
  8
0
  2
FIGURE_OBLONG
 70
0
 10
0.000000
 20
0.000000
  0
POLYLINE
  8
0
 66
1
 70
1
 40
0.000000
 41
0.000000
 39
0.000000
  0
VERTEX
  8
0
 10
-0.500000
 20
-0.125000
 40
0.000000
 41
0.000000
 42
0.000000
  0
VERTEX
  8
0
 10
-0.500000
 20
0.125000
 40
0.000000
 41
0.000000
 42
0.000000
  0
VERTEX
  8
0
 10
-0.416000
 20
0.375000
 40
0.000000
 41
0.000000
 42
0.000000
  0
VERTEX
  8
0
 10
-0.250000
 20
0.500000
 40
0.000000
 41
0.000000
 42
0.000000
  0
VERTEX
  8
0
 10
0.250000
 20
0.500000
 40
0.000000
 41
0.000000
 42
0.000000
  0
VERTEX
  8
0
 10
0.416000
 20
0.375000
 40
0.000000
 41
0.000000
 42
0.000000
  0
VERTEX
  8
0
 10
0.500000
 20
0.125000
 40
0.000000
 41
0.000000
 42
0.000000
  0
VERTEX
  8
0
 10
0.500000
 20
-0.125000
 40
0.000000
 41
0.000000
 42
0.000000
  0
VERTEX
  8
0
 10
0.416000
 20
-0.375000
 40
0.000000
 41
0.000000
 42
0.000000
  0
VERTEX
  8
0
 10
0.250000
 20
-0.500000
 40
0.000000
 41
0.000000
 42
0.000000
  0
VERTEX
  8
0
 10
-0.250000
 20
-0.500000
 40
0.000000
 41
0.000000
 42
0.000000
  0
VERTEX
  8
0
 10
-0.416000
 20
-0.375000
 40
0.000000
 41
0.000000
 42
0.000000
  0
SEQEND
  0
ENDBLK
  0
BLOCK
  8
0
  2
FIGURE_TRI
 70
0
 10
0.000000
 20
0.000000
  0
POLYLINE
  8
0
 66
1
 70
1
 40
0.000000
 41
0.000000
 39
0.000000
  0
VERTEX
  8
0
 10
-0.500000
 20
-0.500000
 40
0.000000
 41
0.000000
 42
0.000000
  0
VERTEX
  8
0
 10
0.000000
 20
0.500000
 40
0.000000
 41
0.000000
 42
0.000000
  0
VERTEX
  8
0
 10
0.500000
 20
-0.500000
 40
0.000000
 41
0.000000
 42
0.000000
  0
SEQEND
  0
ENDBLK
  0
BLOCK
  8
0
  2
FIGURE_CROSS
 70
0
 10
0.000000
 20
0.000000
  0
POLYLINE
  8
0
 66
1
 70
0
 40
0.000000
 41
0.000000
 39
0.000000
  0
VERTEX
  8
0
 10
-0.500000
 20
0.000000
 40
0.000000
 41
0.000000
 42
0.000000
  0
VERTEX
  8
0
 10
0.500000
 20
0.000000
 40
0.000000
 41
0.000000
 42
0.000000
  0
SEQEND
  0
POLYLINE
  8
0
 66
1
 70
0
 40
0.000000
 41
0.000000
 39
0.000000
  0
VERTEX
  8
0
 10
0.000000
 20
0.500000
 40
0.000000
 41
0.000000
 42
0.000000
  0
VERTEX
  8
0
 10
0.000000
 20
-0.500000
 40
0.000000
 41
0.000000
 42
0.000000
  0
SEQEND
  0
ENDBLK
  0
BLOCK
  8
0
  2
FIGURE_DIAMOND
 70
0
 10
0.000000
 20
0.000000
  0
POLYLINE
  8
0
 66
1
 70
1
 40
0.000000
 41
0.000000
 39
0.000000
  0
VERTEX
  8
0
 10
-0.500000
 20
0.000000
 40
0.000000
 41
0.000000
 42
0.000000
  0
VERTEX
  8
0
 10
0.000000
 20
0.500000
 40
0.000000
 41
0.000000
 42
0.000000
  0
VERTEX
  8
0
 10
0.500000
 20
0.000000
 40
0.000000
 41
0.000000
 42
0.000000
  0
VERTEX
  8
0
 10
0.000000
 20
-0.500000
 40
0.000000
 41
0.000000
 42
0.000000
  0
SEQEND
  0
ENDBLK
  0
ENDSEC
  0
SECTION
  2
ENTITIES
  0
POLYLINE
  8
0
 66
1
 70
0
 40
0.000000
 41
0.000000
 39
0.000000
  0
VERTEX
  8
0
 10
2100.000000
 20
-2500.000000
 40
30.000000
 41
30.000000
 42
0.000000
  0
VERTEX
  8
0
 10
2100.000000
 20
-2225.000000
 40
30.000000
 41
30.000000
 42
0.000000
  0
VERTEX
  8
0
 10
1750.000000
 20
-1875.000000
 40
30.000000
 41
30.000000
 42
0.000000
  0
VERTEX
  8
0
 10
1750.000000
 20
-1550.394000
 40
30.000000
 41
30.000000
 42
0.000000
  0
SEQEND
  0
POLYLINE
  8
0
 66
1
 70
0
 40
0.000000
 41
0.000000
 39
0.000000
  0
VERTEX
  8
0
 10
1950.000000
 20
-1550.394000
 40
30.000000
 41
30.000000
 42
0.000000
  0
VERTEX
  8
0
 10
1950.000000
 20
-1875.000000
 40
30.000000
 41
30.000000
 42
0.000000
  0
VERTEX
  8
0
 10
2045.000000
 20
-1970.000000
 40
30.000000
 41
30.000000
 42
0.000000
  0
VERTEX
  8
0
 10
2850.000000
 20
-1970.000000
 40
30.000000
 41
30.000000
 42
0.000000
  0
SEQEND
  0
POLYLINE
  8
0
 66
1
 70
0
 40
0.000000
 41
0.000000
 39
0.000000
  0
VERTEX
  8
0
 10
2850.000000
 20
-2745.000000
 40
30.000000
 41
30.000000
 42
0.000000
  0
VERTEX
  8
0
 10
3475.000000
 20
-2745.000000
 40
30.000000
 41
30.000000
 42
0.000000
  0
SEQEND
  0
POLYLINE
  8
0
 66
1
 70
0
 40
0.000000
 41
0.000000
 39
0.000000
  0
VERTEX
  8
0
 10
2850.000000
 20
-1970.000000
 40
30.000000
 41
30.000000
 42
0.000000
  0
VERTEX
  8
0
 10
2960.000000
 20
-1970.000000
 40
30.000000
 41
30.000000
 42
0.000000
  0
VERTEX
  8
0
 10
2965.000000
 20
-1975.000000
 40
30.000000
 41
30.000000
 42
0.000000
  0
VERTEX
  8
0
 10
3325.000000
 20
-1975.000000
 40
30.000000
 41
30.000000
 42
0.000000
  0
VERTEX
  8
0
 10
3475.000000
 20
-2125.000000
 40
30.000000
 41
30.000000
 42
0.000000
  0
VERTEX
  8
0
 10
3475.000000
 20
-2745.000000
 40
30.000000
 41
30.000000
 42
0.000000
  0
SEQEND
  0
POLYLINE
  8
0
 66
1
 70
0
 40
0.000000
 41
0.000000
 39
0.000000
  0
VERTEX
  8
0
 10
2100.000000
 20
-2800.000000
 40
30.000000
 41
30.000000
 42
0.000000
  0
VERTEX
  8
0
 10
1500.000000
 20
-2800.000000
 40
30.000000
 41
30.000000
 42
0.000000
  0
SEQEND
  0
POLYLINE
  8
0
 66
1
 70
0
 40
0.000000
 41
0.000000
 39
0.000000
  0
VERTEX
  8
0
 10
2100.000000
 20
-2800.000000
 40
30.000000
 41
30.000000
 42
0.000000
  0
VERTEX
  8
0
 10
2150.000000
 20
-2850.000000
 40
30.000000
 41
30.000000
 42
0.000000
  0
VERTEX
  8
0
 10
2175.000000
 20
-2850.000000
 40
30.000000
 41
30.000000
 42
0.000000
  0
VERTEX
  8
0
 10
2200.000000
 20
-2875.000000
 40
30.000000
 41
30.000000
 42
0.000000
  0
VERTEX
  8
0
 10
2525.000000
 20
-2875.000000
 40
30.000000
 41
30.000000
 42
0.000000
  0
SEQEND
  0
POLYLINE
  8
0
 66
1
 70
0
 40
0.000000
 41
0.000000
 39
0.000000
  0
VERTEX
  8
0
 10
2525.000000
 20
-2875.000000
 40
30.000000
 41
30.000000
 42
0.000000
  0
VERTEX
  8
0
 10
2850.000000
 20
-2875.000000
 40
30.000000
 41
30.000000
 42
0.000000
  0
SEQEND
  0
POLYLINE
  8
0
 66
1
 70
0
 40
0.000000
 41
0.000000
 39
0.000000
  0
VERTEX
  8
0
 10
2850.000000
 20
-2100.000000
 40
30.000000
 41
30.000000
 42
0.000000
  0
VERTEX
  8
0
 10
2800.000000
 20
-2100.000000
 40
30.000000
 41
30.000000
 42
0.000000
  0
VERTEX
  8
0
 10
2525.000000
 20
-2375.000000
 40
30.000000
 41
30.000000
 42
0.000000
  0
VERTEX
  8
0
 10
2525.000000
 20
-2875.000000
 40
30.000000
 41
30.000000
 42
0.000000
  0
SEQEND
  0
POLYLINE
  8
0
 66
1
 70
0
 40
0.000000
 41
0.000000
 39
0.000000
  0
VERTEX
  8
0
 10
2850.000000
 20
-2875.000000
 40
30.000000
 41
30.000000
 42
0.000000
  0
VERTEX
  8
0
 10
3475.000000
 20
-2875.000000
 40
30.000000
 41
30.000000
 42
0.000000
  0
SEQEND
  0
POLYLINE
  8
0
 66
1
 70
0
 40
0.000000
 41
0.000000
 39
0.000000
  0
VERTEX
  8
0
 10
1850.000000
 20
-1200.000000
 40
30.000000
 41
30.000000
 42
0.000000
  0
VERTEX
  8
0
 10
1450.000000
 20
-1200.000000
 40
30.000000
 41
30.000000
 42
0.000000
  0
VERTEX
  8
0
 10
1050.000000
 20
-1600.000000
 40
30.000000
 41
30.000000
 42
0.000000
  0
VERTEX
  8
0
 10
1050.000000
 20
-1900.000000
 40
30.000000
 41
30.000000
 42
0.000000
  0
SEQEND
  0
POLYLINE
  8
0
 66
1
 70
0
 40
0.000000
 41
0.000000
 39
0.000000
  0
VERTEX
  8
0
 10
1050.000000
 20
-2030.000000
 40
30.000000
 41
30.000000
 42
0.000000
  0
VERTEX
  8
0
 10
1050.000000
 20
-2150.000000
 40
30.000000
 41
30.000000
 42
0.000000
  0
VERTEX
  8
0
 10
1400.000000
 20
-2500.000000
 40
30.000000
 41
30.000000
 42
0.000000
  0
VERTEX
  8
0
 10
1500.000000
 20
-2500.000000
 40
30.000000
 41
30.000000
 42
0.000000
  0
SEQEND
  0
POLYLINE
  8
0
 66
1
 70
1
 40
0.000000
 41
0.000000
 39
0.000000
  0
VERTEX
  8
0
 10
1460.000000
 20
-2890.000000
 40
0.000000
 41
0.000000
 42
0.000000
  0
VERTEX
  8
0
 10
1460.000000
 20
-2710.000000
 40
0.000000
 41
0.000000
 42
0.000000
  0
VERTEX
  8
0
 10
1540.000000
 20
-2710.000000
 40
0.000000
 41
0.000000
 42
0.000000
  0
VERTEX
  8
0
 10
1540.000000
 20
-2890.000000
 40
0.000000
 41
0.000000
 42
0.000000
  0
SEQEND
  0
POLYLINE
  8
0
 66
1
 70
1
 40
0.000000
 41
0.000000
 39
0.000000
  0
VERTEX
  8
0
 10
1450.000000
 20
-2905.000000
 40
0.000000
 41
0.000000
 42
0.000000
  0
VERTEX
  8
0
 10
1450.000000
 20
-2695.000000
 40
0.000000
 41
0.000000
 42
0.000000
  0
VERTEX
  8
0
 10
1550.000000
 20
-2695.000000
 40
0.000000
 41
0.000000
 42
0.000000
  0
VERTEX
  8
0
 10
1550.000000
 20
-2905.000000
 40
0.000000
 41
0.000000
 42
0.000000
  0
SEQEND
  0
TEXT
  8
0
 10
1441.666667
 20
-2800.000000
 11
1450.000000
 21
-2800.000000
 40
25.000000
 41
0.880000
 50
0.000000
  7
STANDARD
 71
0
 72
2
  1
2
 73
0
  0
POLYLINE
  8
0
 66
1
 70
1
 40
0.000000
 41
0.000000
 39
0.000000
  0
VERTEX
  8
0
 10
1460.000000
 20
-2590.000000
 40
0.000000
 41
0.000000
 42
0.000000
  0
VERTEX
  8
0
 10
1460.000000
 20
-2410.000000
 40
0.000000
 41
0.000000
 42
0.000000
  0
VERTEX
  8
0
 10
1540.000000
 20
-2410.000000
 40
0.000000
 41
0.000000
 42
0.000000
  0
VERTEX
  8
0
 10
1540.000000
 20
-2590.000000
 40
0.000000
 41
0.000000
 42
0.000000
  0
SEQEND
  0
POLYLINE
  8
0
 66
1
 70
1
 40
0.000000
 41
0.000000
 39
0.000000
  0
VERTEX
  8
0
 10
1450.000000
 20
-2605.000000
 40
0.000000
 41
0.000000
 42
0.000000
  0
VERTEX
  8
0
 10
1450.000000
 20
-2395.000000
 40
0.000000
 41
0.000000
 42
0.000000
  0
VERTEX
  8
0
 10
1550.000000
 20
-2395.000000
 40
0.000000
 41
0.000000
 42
0.000000
  0
VERTEX
  8
0
 10
1550.000000
 20
-2605.000000
 40
0.000000
 41
0.000000
 42
0.000000
  0
SEQEND
  0
TEXT
  8
0
 10
1441.666667
 20
-2500.000000
 11
1450.000000
 21
-2500.000000
 40
25.000000
 41
0.880000
 50
0.000000
  7
STANDARD
 71
0
 72
2
  1
3
 73
0
  0
POLYLINE
  8
0
 66
1
 70
1
 40
0.000000
 41
0.000000
 39
0.000000
  0
VERTEX
  8
0
 10
2060.000000
 20
-2590.000000
 40
0.000000
 41
0.000000
 42
0.000000
  0
VERTEX
  8
0
 10
2060.000000
 20
-2410.000000
 40
0.000000
 41
0.000000
 42
0.000000
  0
VERTEX
  8
0
 10
2140.000000
 20
-2410.000000
 40
0.000000
 41
0.000000
 42
0.000000
  0
VERTEX
  8
0
 10
2140.000000
 20
-2590.000000
 40
0.000000
 41
0.000000
 42
0.000000
  0
SEQEND
  0
POLYLINE
  8
0
 66
1
 70
1
 40
0.000000
 41
0.000000
 39
0.000000
  0
VERTEX
  8
0
 10
2050.000000
 20
-2605.000000
 40
0.000000
 41
0.000000
 42
0.000000
  0
VERTEX
  8
0
 10
2050.000000
 20
-2395.000000
 40
0.000000
 41
0.000000
 42
0.000000
  0
VERTEX
  8
0
 10
2150.000000
 20
-2395.000000
 40
0.000000
 41
0.000000
 42
0.000000
  0
VERTEX
  8
0
 10
2150.000000
 20
-2605.000000
 40
0.000000
 41
0.000000
 42
0.000000
  0
SEQEND
  0
TEXT
  8
0
 10
2041.666667
 20
-2500.000000
 11
2050.000000
 21
-2500.000000
 40
25.000000
 41
0.880000
 50
0.000000
  7
STANDARD
 71
0
 72
2
  1
1
 73
0
  0
POLYLINE
  8
0
 66
1
 70
1
 40
0.000000
 41
0.000000
 39
0.000000
  0
VERTEX
  8
0
 10
2060.000000
 20
-2890.000000
 40
0.000000
 41
0.000000
 42
0.000000
  0
VERTEX
  8
0
 10
2060.000000
 20
-2710.000000
 40
0.000000
 41
0.000000
 42
0.000000
  0
VERTEX
  8
0
 10
2140.000000
 20
-2710.000000
 40
0.000000
 41
0.000000
 42
0.000000
  0
VERTEX
  8
0
 10
2140.000000
 20
-2890.000000
 40
0.000000
 41
0.000000
 42
0.000000
  0
SEQEND
  0
POLYLINE
  8
0
 66
1
 70
1
 40
0.000000
 41
0.000000
 39
0.000000
  0
VERTEX
  8
0
 10
2050.000000
 20
-2905.000000
 40
0.000000
 41
0.000000
 42
0.000000
  0
VERTEX
  8
0
 10
2050.000000
 20
-2695.000000
 40
0.000000
 41
0.000000
 42
0.000000
  0
VERTEX
  8
0
 10
2150.000000
 20
-2695.000000
 40
0.000000
 41
0.000000
 42
0.000000
  0
VERTEX
  8
0
 10
2150.000000
 20
-2905.000000
 40
0.000000
 41
0.000000
 42
0.000000
  0
SEQEND
  0
TEXT
  8
0
 10
2041.666667
 20
-2800.000000
 11
2050.000000
 21
-2800.000000
 40
25.000000
 41
0.880000
 50
0.000000
  7
STANDARD
 71
0
 72
2
  1
4
 73
0
  0
POLYLINE
  8
0
 66
1
 70
1
 40
0.000000
 41
0.000000
 39
0.000000
  0
VERTEX
  8
0
 10
1400.000000
 20
-3000.000000
 40
0.000000
 41
0.000000
 42
0.000000
  0
VERTEX
  8
0
 10
1400.000000
 20
-2300.000000
 40
0.000000
 41
0.000000
 42
0.000000
  0
VERTEX
  8
0
 10
2200.000000
 20
-2300.000000
 40
0.000000
 41
0.000000
 42
0.000000
  0
VERTEX
  8
0
 10
2200.000000
 20
-3000.000000
 40
0.000000
 41
0.000000
 42
0.000000
  0
SEQEND
  0
POLYLINE
  8
0
 66
1
 70
1
 40
0.000000
 41
0.000000
 39
0.000000
  0
VERTEX
  8
0
 10
1400.000000
 20
-2300.000000
 40
0.000000
 41
0.000000
 42
0.000000
  0
VERTEX
  8
0
 10
1400.000000
 20
-3000.000000
 40
0.000000
 41
0.000000
 42
0.000000
  0
VERTEX
  8
0
 10
2200.000000
 20
-3000.000000
 40
0.000000
 41
0.000000
 42
0.000000
  0
VERTEX
  8
0
 10
2200.000000
 20
-2300.000000
 40
0.000000
 41
0.000000
 42
0.000000
  0
SEQEND
  0
TEXT
  8
0
 10
1700.000000
 20
-3100.000000
 11
0.000000
 21
0.000000
 40
63.000000
 41
1.000000
 50
0.000000
  7
STANDARD
 71
0
 72
0
  1
U1
 73
0
  0
POLYLINE
  8
0
 66
1
 70
1
 40
0.000000
 41
0.000000
 39
0.000000
  0
VERTEX
  8
0
 10
1594.094000
 20
-1406.693000
 40
0.000000
 41
0.000000
 42
0.000000
  0
VERTEX
  8
0
 10
1594.094000
 20
-993.307000
 40
0.000000
 41
0.000000
 42
0.000000
  0
VERTEX
  8
0
 10
2105.905000
 20
-993.307000
 40
0.000000
 41
0.000000
 42
0.000000
  0
VERTEX
  8
0
 10
2105.905000
 20
-1406.693000
 40
0.000000
 41
0.000000
 42
0.000000
  0
SEQEND
  0
POLYLINE
  8
0
 66
1
 70
1
 40
0.000000
 41
0.000000
 39
0.000000
  0
VERTEX
  8
0
 10
1584.252000
 20
-1416.536000
 40
0.000000
 41
0.000000
 42
0.000000
  0
VERTEX
  8
0
 10
1584.252000
 20
-983.465000
 40
0.000000
 41
0.000000
 42
0.000000
  0
VERTEX
  8
0
 10
2115.748000
 20
-983.465000
 40
0.000000
 41
0.000000
 42
0.000000
  0
VERTEX
  8
0
 10
2115.748000
 20
-1416.536000
 40
0.000000
 41
0.000000
 42
0.000000
  0
SEQEND
  0
TEXT
  8
0
 10
1791.666667
 20
-1200.000000
 11
1800.000000
 21
-1200.000000
 40
25.000000
 41
0.880000
 50
0.000000
  7
STANDARD
 71
0
 72
2
  1
2
 73
0
  0
POLYLINE
  8
0
 66
1
 70
1
 40
0.000000
 41
0.000000
 39
0.000000
  0
VERTEX
  8
0
 10
1708.661000
 20
-1629.134000
 40
0.000000
 41
0.000000
 42
0.000000
  0
VERTEX
  8
0
 10
1708.661000
 20
-1471.654000
 40
0.000000
 41
0.000000
 42
0.000000
  0
VERTEX
  8
0
 10
1791.338000
 20
-1471.654000
 40
0.000000
 41
0.000000
 42
0.000000
  0
VERTEX
  8
0
 10
1791.338000
 20
-1629.134000
 40
0.000000
 41
0.000000
 42
0.000000
  0
SEQEND
  0
POLYLINE
  8
0
 66
1
 70
1
 40
0.000000
 41
0.000000
 39
0.000000
  0
VERTEX
  8
0
 10
1704.724000
 20
-1633.071000
 40
0.000000
 41
0.000000
 42
0.000000
  0
VERTEX
  8
0
 10
1704.724000
 20
-1467.717000
 40
0.000000
 41
0.000000
 42
0.000000
  0
VERTEX
  8
0
 10
1795.275000
 20
-1467.717000
 40
0.000000
 41
0.000000
 42
0.000000
  0
VERTEX
  8
0
 10
1795.275000
 20
-1633.071000
 40
0.000000
 41
0.000000
 42
0.000000
  0
SEQEND
  0
TEXT
  8
0
 10
1691.666667
 20
-1550.394000
 11
1700.000000
 21
-1550.394000
 40
25.000000
 41
0.880000
 50
0.000000
  7
STANDARD
 71
0
 72
2
  1
1
 73
0
  0
POLYLINE
  8
0
 66
1
 70
1
 40
0.000000
 41
0.000000
 39
0.000000
  0
VERTEX
  8
0
 10
1908.661000
 20
-1629.134000
 40
0.000000
 41
0.000000
 42
0.000000
  0
VERTEX
  8
0
 10
1908.661000
 20
-1471.654000
 40
0.000000
 41
0.000000
 42
0.000000
  0
VERTEX
  8
0
 10
1991.338000
 20
-1471.654000
 40
0.000000
 41
0.000000
 42
0.000000
  0
VERTEX
  8
0
 10
1991.338000
 20
-1629.134000
 40
0.000000
 41
0.000000
 42
0.000000
  0
SEQEND
  0
POLYLINE
  8
0
 66
1
 70
1
 40
0.000000
 41
0.000000
 39
0.000000
  0
VERTEX
  8
0
 10
1904.724000
 20
-1633.071000
 40
0.000000
 41
0.000000
 42
0.000000
  0
VERTEX
  8
0
 10
1904.724000
 20
-1467.717000
 40
0.000000
 41
0.000000
 42
0.000000
  0
VERTEX
  8
0
 10
1995.275000
 20
-1467.717000
 40
0.000000
 41
0.000000
 42
0.000000
  0
VERTEX
  8
0
 10
1995.275000
 20
-1633.071000
 40
0.000000
 41
0.000000
 42
0.000000
  0
SEQEND
  0
TEXT
  8
0
 10
1891.666667
 20
-1550.394000
 11
1900.000000
 21
-1550.394000
 40
25.000000
 41
0.880000
 50
0.000000
  7
STANDARD
 71
0
 72
2
  1
3
 73
0
  0
POLYLINE
  8
0
 66
1
 70
1
 40
0.000000
 41
0.000000
 39
0.000000
  0
VERTEX
  8
0
 10
2237.402000
 20
-1687.402000
 40
0.000000
 41
0.000000
 42
0.000000
  0
VERTEX
  8
0
 10
2237.402000
 20
-900.000000
 40
0.000000
 41
0.000000
 42
0.000000
  0
VERTEX
  8
0
 10
1450.000000
 20
-900.000000
 40
0.000000
 41
0.000000
 42
0.000000
  0
VERTEX
  8
0
 10
1450.000000
 20
-1687.402000
 40
0.000000
 41
0.000000
 42
0.000000
  0
SEQEND
  0
POLYLINE
  8
0
 66
1
 70
1
 40
0.000000
 41
0.000000
 39
0.000000
  0
VERTEX
  8
0
 10
2237.402000
 20
-1687.402000
 40
0.000000
 41
0.000000
 42
0.000000
  0
VERTEX
  8
0
 10
2237.402000
 20
-900.000000
 40
0.000000
 41
0.000000
 42
0.000000
  0
VERTEX
  8
0
 10
1450.000000
 20
-900.000000
 40
0.000000
 41
0.000000
 42
0.000000
  0
VERTEX
  8
0
 10
1450.000000
 20
-1687.402000
 40
0.000000
 41
0.000000
 42
0.000000
  0
SEQEND
  0
POLYLINE
  8
0
 66
1
 70
1
 40
0.000000
 41
0.000000
 39
0.000000
  0
VERTEX
  8
0
 10
2237.402000
 20
-1687.402000
 40
0.000000
 41
0.000000
 42
0.000000
  0
VERTEX
  8
0
 10
2237.402000
 20
-900.000000
 40
0.000000
 41
0.000000
 42
0.000000
  0
VERTEX
  8
0
 10
1450.000000
 20
-900.000000
 40
0.000000
 41
0.000000
 42
0.000000
  0
VERTEX
  8
0
 10
1450.000000
 20
-1687.402000
 40
0.000000
 41
0.000000
 42
0.000000
  0
SEQEND
  0
TEXT
  8
0
 10
1850.000000
 20
-900.000000
 11
0.000000
 21
0.000000
 40
63.000000
 41
1.000000
 50
0.000000
  7
STANDARD
 71
0
 72
0
  1
Q1
 73
0
  0
TEXT
  8
0
 10
1850.000000
 20
-900.000000
 11
0.000000
 21
0.000000
 40
63.000000
 41
1.000000
 50
0.000000
  7
STANDARD
 71
0
 72
0
  1
Q1
 73
0
  0
POLYLINE
  8
0
 66
1
 70
1
 40
0.000000
 41
0.000000
 39
0.000000
  0
VERTEX
  8
0
 10
1140.000000
 20
-2070.000000
 40
0.000000
 41
0.000000
 42
0.000000
  0
VERTEX
  8
0
 10
960.000000
 20
-2070.000000
 40
0.000000
 41
0.000000
 42
0.000000
  0
VERTEX
  8
0
 10
960.000000
 20
-1990.000000
 40
0.000000
 41
0.000000
 42
0.000000
  0
VERTEX
  8
0
 10
1140.000000
 20
-1990.000000
 40
0.000000
 41
0.000000
 42
0.000000
  0
SEQEND
  0
POLYLINE
  8
0
 66
1
 70
1
 40
0.000000
 41
0.000000
 39
0.000000
  0
VERTEX
  8
0
 10
1155.000000
 20
-2080.000000
 40
0.000000
 41
0.000000
 42
0.000000
  0
VERTEX
  8
0
 10
945.000000
 20
-2080.000000
 40
0.000000
 41
0.000000
 42
0.000000
  0
VERTEX
  8
0
 10
945.000000
 20
-1980.000000
 40
0.000000
 41
0.000000
 42
0.000000
  0
VERTEX
  8
0
 10
1155.000000
 20
-1980.000000
 40
0.000000
 41
0.000000
 42
0.000000
  0
SEQEND
  0
TEXT
  8
0
 10
1041.666667
 20
-2080.000000
 11
1050.000000
 21
-2080.000000
 40
25.000000
 41
0.880000
 50
90.000000
  7
STANDARD
 71
0
 72
2
  1
1
 73
0
  0
POLYLINE
  8
0
 66
1
 70
1
 40
0.000000
 41
0.000000
 39
0.000000
  0
VERTEX
  8
0
 10
1140.000000
 20
-1940.000000
 40
0.000000
 41
0.000000
 42
0.000000
  0
VERTEX
  8
0
 10
960.000000
 20
-1940.000000
 40
0.000000
 41
0.000000
 42
0.000000
  0
VERTEX
  8
0
 10
960.000000
 20
-1860.000000
 40
0.000000
 41
0.000000
 42
0.000000
  0
VERTEX
  8
0
 10
1140.000000
 20
-1860.000000
 40
0.000000
 41
0.000000
 42
0.000000
  0
SEQEND
  0
POLYLINE
  8
0
 66
1
 70
1
 40
0.000000
 41
0.000000
 39
0.000000
  0
VERTEX
  8
0
 10
1155.000000
 20
-1950.000000
 40
0.000000
 41
0.000000
 42
0.000000
  0
VERTEX
  8
0
 10
945.000000
 20
-1950.000000
 40
0.000000
 41
0.000000
 42
0.000000
  0
VERTEX
  8
0
 10
945.000000
 20
-1850.000000
 40
0.000000
 41
0.000000
 42
0.000000
  0
VERTEX
  8
0
 10
1155.000000
 20
-1850.000000
 40
0.000000
 41
0.000000
 42
0.000000
  0
SEQEND
  0
TEXT
  8
0
 10
1041.666667
 20
-1950.000000
 11
1050.000000
 21
-1950.000000
 40
25.000000
 41
0.880000
 50
90.000000
  7
STANDARD
 71
0
 72
2
  1
2
 73
0
  0
POLYLINE
  8
0
 66
1
 70
1
 40
0.000000
 41
0.000000
 39
0.000000
  0
VERTEX
  8
0
 10
1155.000000
 20
-2080.000000
 40
0.000000
 41
0.000000
 42
0.000000
  0
VERTEX
  8
0
 10
945.000000
 20
-2080.000000
 40
0.000000
 41
0.000000
 42
0.000000
  0
VERTEX
  8
0
 10
945.000000
 20
-1850.000000
 40
0.000000
 41
0.000000
 42
0.000000
  0
VERTEX
  8
0
 10
1155.000000
 20
-1850.000000
 40
0.000000
 41
0.000000
 42
0.000000
  0
SEQEND
  0
POLYLINE
  8
0
 66
1
 70
1
 40
0.000000
 41
0.000000
 39
0.000000
  0
VERTEX
  8
0
 10
1065.748000
 20
-1937.008000
 40
0.000000
 41
0.000000
 42
0.000000
  0
VERTEX
  8
0
 10
1034.252000
 20
-1937.008000
 40
0.000000
 41
0.000000
 42
0.000000
  0
VERTEX
  8
0
 10
1034.252000
 20
-2000.000000
 40
0.000000
 41
0.000000
 42
0.000000
  0
VERTEX
  8
0
 10
1065.748000
 20
-2000.000000
 40
0.000000
 41
0.000000
 42
0.000000
  0
SEQEND
  0
POLYLINE
  8
0
 66
1
 70
1
 40
0.000000
 41
0.000000
 39
0.000000
  0
VERTEX
  8
0
 10
1065.748000
 20
-1937.008000
 40
0.000000
 41
0.000000
 42
0.000000
  0
VERTEX
  8
0
 10
1034.252000
 20
-1937.008000
 40
0.000000
 41
0.000000
 42
0.000000
  0
VERTEX
  8
0
 10
1034.252000
 20
-2000.000000
 40
0.000000
 41
0.000000
 42
0.000000
  0
VERTEX
  8
0
 10
1065.748000
 20
-2000.000000
 40
0.000000
 41
0.000000
 42
0.000000
  0
SEQEND
  0
POLYLINE
  8
0
 66
1
 70
1
 40
0.000000
 41
0.000000
 39
0.000000
  0
VERTEX
  8
0
 10
1065.748000
 20
-1937.008000
 40
0.000000
 41
0.000000
 42
0.000000
  0
VERTEX
  8
0
 10
1034.252000
 20
-1937.008000
 40
0.000000
 41
0.000000
 42
0.000000
  0
VERTEX
  8
0
 10
1034.252000
 20
-2000.000000
 40
0.000000
 41
0.000000
 42
0.000000
  0
VERTEX
  8
0
 10
1065.748000
 20
-2000.000000
 40
0.000000
 41
0.000000
 42
0.000000
  0
SEQEND
  0
TEXT
  8
0
 10
1100.000000
 20
-1990.000000
 11
0.000000
 21
0.000000
 40
25.000000
 41
0.880000
 50
90.000000
  7
STANDARD
 71
0
 72
0
  1
R2
 73
0
  0
TEXT
  8
0
 10
1100.000000
 20
-1990.000000
 11
0.000000
 21
0.000000
 40
25.000000
 41
0.880000
 50
90.000000
  7
STANDARD
 71
0
 72
0
  1
R2
 73
0
  0
POLYLINE
  8
0
 66
1
 70
1
 40
0.000000
 41
0.000000
 39
0.000000
  0
VERTEX
  8
0
 10
2760.000000
 20
-1930.000000
 40
0.000000
 41
0.000000
 42
0.000000
  0
VERTEX
  8
0
 10
2940.000000
 20
-1930.000000
 40
0.000000
 41
0.000000
 42
0.000000
  0
VERTEX
  8
0
 10
2940.000000
 20
-2010.000000
 40
0.000000
 41
0.000000
 42
0.000000
  0
VERTEX
  8
0
 10
2760.000000
 20
-2010.000000
 40
0.000000
 41
0.000000
 42
0.000000
  0
SEQEND
  0
POLYLINE
  8
0
 66
1
 70
1
 40
0.000000
 41
0.000000
 39
0.000000
  0
VERTEX
  8
0
 10
2745.000000
 20
-1920.000000
 40
0.000000
 41
0.000000
 42
0.000000
  0
VERTEX
  8
0
 10
2955.000000
 20
-1920.000000
 40
0.000000
 41
0.000000
 42
0.000000
  0
VERTEX
  8
0
 10
2955.000000
 20
-2020.000000
 40
0.000000
 41
0.000000
 42
0.000000
  0
VERTEX
  8
0
 10
2745.000000
 20
-2020.000000
 40
0.000000
 41
0.000000
 42
0.000000
  0
SEQEND
  0
TEXT
  8
0
 10
2841.666667
 20
-1920.000000
 11
2850.000000
 21
-1920.000000
 40
25.000000
 41
0.880000
 50
270.000000
  7
STANDARD
 71
0
 72
2
  1
1
 73
0
  0
POLYLINE
  8
0
 66
1
 70
1
 40
0.000000
 41
0.000000
 39
0.000000
  0
VERTEX
  8
0
 10
2760.000000
 20
-2060.000000
 40
0.000000
 41
0.000000
 42
0.000000
  0
VERTEX
  8
0
 10
2940.000000
 20
-2060.000000
 40
0.000000
 41
0.000000
 42
0.000000
  0
VERTEX
  8
0
 10
2940.000000
 20
-2140.000000
 40
0.000000
 41
0.000000
 42
0.000000
  0
VERTEX
  8
0
 10
2760.000000
 20
-2140.000000
 40
0.000000
 41
0.000000
 42
0.000000
  0
SEQEND
  0
POLYLINE
  8
0
 66
1
 70
1
 40
0.000000
 41
0.000000
 39
0.000000
  0
VERTEX
  8
0
 10
2745.000000
 20
-2050.000000
 40
0.000000
 41
0.000000
 42
0.000000
  0
VERTEX
  8
0
 10
2955.000000
 20
-2050.000000
 40
0.000000
 41
0.000000
 42
0.000000
  0
VERTEX
  8
0
 10
2955.000000
 20
-2150.000000
 40
0.000000
 41
0.000000
 42
0.000000
  0
VERTEX
  8
0
 10
2745.000000
 20
-2150.000000
 40
0.000000
 41
0.000000
 42
0.000000
  0
SEQEND
  0
TEXT
  8
0
 10
2841.666667
 20
-2050.000000
 11
2850.000000
 21
-2050.000000
 40
25.000000
 41
0.880000
 50
270.000000
  7
STANDARD
 71
0
 72
2
  1
2
 73
0
  0
POLYLINE
  8
0
 66
1
 70
1
 40
0.000000
 41
0.000000
 39
0.000000
  0
VERTEX
  8
0
 10
2745.000000
 20
-1920.000000
 40
0.000000
 41
0.000000
 42
0.000000
  0
VERTEX
  8
0
 10
2955.000000
 20
-1920.000000
 40
0.000000
 41
0.000000
 42
0.000000
  0
VERTEX
  8
0
 10
2955.000000
 20
-2150.000000
 40
0.000000
 41
0.000000
 42
0.000000
  0
VERTEX
  8
0
 10
2745.000000
 20
-2150.000000
 40
0.000000
 41
0.000000
 42
0.000000
  0
SEQEND
  0
POLYLINE
  8
0
 66
1
 70
1
 40
0.000000
 41
0.000000
 39
0.000000
  0
VERTEX
  8
0
 10
2834.252000
 20
-2062.992000
 40
0.000000
 41
0.000000
 42
0.000000
  0
VERTEX
  8
0
 10
2865.748000
 20
-2062.992000
 40
0.000000
 41
0.000000
 42
0.000000
  0
VERTEX
  8
0
 10
2865.748000
 20
-2000.000000
 40
0.000000
 41
0.000000
 42
0.000000
  0
VERTEX
  8
0
 10
2834.252000
 20
-2000.000000
 40
0.000000
 41
0.000000
 42
0.000000
  0
SEQEND
  0
POLYLINE
  8
0
 66
1
 70
1
 40
0.000000
 41
0.000000
 39
0.000000
  0
VERTEX
  8
0
 10
2834.252000
 20
-2062.992000
 40
0.000000
 41
0.000000
 42
0.000000
  0
VERTEX
  8
0
 10
2865.748000
 20
-2062.992000
 40
0.000000
 41
0.000000
 42
0.000000
  0
VERTEX
  8
0
 10
2865.748000
 20
-2000.000000
 40
0.000000
 41
0.000000
 42
0.000000
  0
VERTEX
  8
0
 10
2834.252000
 20
-2000.000000
 40
0.000000
 41
0.000000
 42
0.000000
  0
SEQEND
  0
POLYLINE
  8
0
 66
1
 70
1
 40
0.000000
 41
0.000000
 39
0.000000
  0
VERTEX
  8
0
 10
2834.252000
 20
-2062.992000
 40
0.000000
 41
0.000000
 42
0.000000
  0
VERTEX
  8
0
 10
2865.748000
 20
-2062.992000
 40
0.000000
 41
0.000000
 42
0.000000
  0
VERTEX
  8
0
 10
2865.748000
 20
-2000.000000
 40
0.000000
 41
0.000000
 42
0.000000
  0
VERTEX
  8
0
 10
2834.252000
 20
-2000.000000
 40
0.000000
 41
0.000000
 42
0.000000
  0
SEQEND
  0
TEXT
  8
0
 10
2800.000000
 20
-2010.000000
 11
0.000000
 21
0.000000
 40
25.000000
 41
0.880000
 50
270.000000
  7
STANDARD
 71
0
 72
0
  1
R1
 73
0
  0
TEXT
  8
0
 10
2800.000000
 20
-2010.000000
 11
0.000000
 21
0.000000
 40
25.000000
 41
0.880000
 50
270.000000
  7
STANDARD
 71
0
 72
0
  1
R1
 73
0
  0
POLYLINE
  8
0
 66
1
 70
1
 40
0.000000
 41
0.000000
 39
0.000000
  0
VERTEX
  8
0
 10
3385.000000
 20
-2705.000000
 40
0.000000
 41
0.000000
 42
0.000000
  0
VERTEX
  8
0
 10
3565.000000
 20
-2705.000000
 40
0.000000
 41
0.000000
 42
0.000000
  0
VERTEX
  8
0
 10
3565.000000
 20
-2785.000000
 40
0.000000
 41
0.000000
 42
0.000000
  0
VERTEX
  8
0
 10
3385.000000
 20
-2785.000000
 40
0.000000
 41
0.000000
 42
0.000000
  0
SEQEND
  0
POLYLINE
  8
0
 66
1
 70
1
 40
0.000000
 41
0.000000
 39
0.000000
  0
VERTEX
  8
0
 10
3370.000000
 20
-2695.000000
 40
0.000000
 41
0.000000
 42
0.000000
  0
VERTEX
  8
0
 10
3580.000000
 20
-2695.000000
 40
0.000000
 41
0.000000
 42
0.000000
  0
VERTEX
  8
0
 10
3580.000000
 20
-2795.000000
 40
0.000000
 41
0.000000
 42
0.000000
  0
VERTEX
  8
0
 10
3370.000000
 20
-2795.000000
 40
0.000000
 41
0.000000
 42
0.000000
  0
SEQEND
  0
TEXT
  8
0
 10
3466.666667
 20
-2695.000000
 11
3475.000000
 21
-2695.000000
 40
25.000000
 41
0.880000
 50
270.000000
  7
STANDARD
 71
0
 72
2
  1
1
 73
0
  0
POLYLINE
  8
0
 66
1
 70
1
 40
0.000000
 41
0.000000
 39
0.000000
  0
VERTEX
  8
0
 10
3385.000000
 20
-2835.000000
 40
0.000000
 41
0.000000
 42
0.000000
  0
VERTEX
  8
0
 10
3565.000000
 20
-2835.000000
 40
0.000000
 41
0.000000
 42
0.000000
  0
VERTEX
  8
0
 10
3565.000000
 20
-2915.000000
 40
0.000000
 41
0.000000
 42
0.000000
  0
VERTEX
  8
0
 10
3385.000000
 20
-2915.000000
 40
0.000000
 41
0.000000
 42
0.000000
  0
SEQEND
  0
POLYLINE
  8
0
 66
1
 70
1
 40
0.000000
 41
0.000000
 39
0.000000
  0
VERTEX
  8
0
 10
3370.000000
 20
-2825.000000
 40
0.000000
 41
0.000000
 42
0.000000
  0
VERTEX
  8
0
 10
3580.000000
 20
-2825.000000
 40
0.000000
 41
0.000000
 42
0.000000
  0
VERTEX
  8
0
 10
3580.000000
 20
-2925.000000
 40
0.000000
 41
0.000000
 42
0.000000
  0
VERTEX
  8
0
 10
3370.000000
 20
-2925.000000
 40
0.000000
 41
0.000000
 42
0.000000
  0
SEQEND
  0
TEXT
  8
0
 10
3466.666667
 20
-2825.000000
 11
3475.000000
 21
-2825.000000
 40
25.000000
 41
0.880000
 50
270.000000
  7
STANDARD
 71
0
 72
2
  1
2
 73
0
  0
POLYLINE
  8
0
 66
1
 70
1
 40
0.000000
 41
0.000000
 39
0.000000
  0
VERTEX
  8
0
 10
3370.000000
 20
-2695.000000
 40
0.000000
 41
0.000000
 42
0.000000
  0
VERTEX
  8
0
 10
3580.000000
 20
-2695.000000
 40
0.000000
 41
0.000000
 42
0.000000
  0
VERTEX
  8
0
 10
3580.000000
 20
-2925.000000
 40
0.000000
 41
0.000000
 42
0.000000
  0
VERTEX
  8
0
 10
3370.000000
 20
-2925.000000
 40
0.000000
 41
0.000000
 42
0.000000
  0
SEQEND
  0
POLYLINE
  8
0
 66
1
 70
1
 40
0.000000
 41
0.000000
 39
0.000000
  0
VERTEX
  8
0
 10
3459.252000
 20
-2837.992000
 40
0.000000
 41
0.000000
 42
0.000000
  0
VERTEX
  8
0
 10
3490.748000
 20
-2837.992000
 40
0.000000
 41
0.000000
 42
0.000000
  0
VERTEX
  8
0
 10
3490.748000
 20
-2775.000000
 40
0.000000
 41
0.000000
 42
0.000000
  0
VERTEX
  8
0
 10
3459.252000
 20
-2775.000000
 40
0.000000
 41
0.000000
 42
0.000000
  0
SEQEND
  0
POLYLINE
  8
0
 66
1
 70
1
 40
0.000000
 41
0.000000
 39
0.000000
  0
VERTEX
  8
0
 10
3459.252000
 20
-2837.992000
 40
0.000000
 41
0.000000
 42
0.000000
  0
VERTEX
  8
0
 10
3490.748000
 20
-2837.992000
 40
0.000000
 41
0.000000
 42
0.000000
  0
VERTEX
  8
0
 10
3490.748000
 20
-2775.000000
 40
0.000000
 41
0.000000
 42
0.000000
  0
VERTEX
  8
0
 10
3459.252000
 20
-2775.000000
 40
0.000000
 41
0.000000
 42
0.000000
  0
SEQEND
  0
POLYLINE
  8
0
 66
1
 70
1
 40
0.000000
 41
0.000000
 39
0.000000
  0
VERTEX
  8
0
 10
3459.252000
 20
-2837.992000
 40
0.000000
 41
0.000000
 42
0.000000
  0
VERTEX
  8
0
 10
3490.748000
 20
-2837.992000
 40
0.000000
 41
0.000000
 42
0.000000
  0
VERTEX
  8
0
 10
3490.748000
 20
-2775.000000
 40
0.000000
 41
0.000000
 42
0.000000
  0
VERTEX
  8
0
 10
3459.252000
 20
-2775.000000
 40
0.000000
 41
0.000000
 42
0.000000
  0
SEQEND
  0
TEXT
  8
0
 10
3425.000000
 20
-2785.000000
 11
0.000000
 21
0.000000
 40
25.000000
 41
0.880000
 50
270.000000
  7
STANDARD
 71
0
 72
0
  1
C2
 73
0
  0
TEXT
  8
0
 10
3425.000000
 20
-2785.000000
 11
0.000000
 21
0.000000
 40
25.000000
 41
0.880000
 50
270.000000
  7
STANDARD
 71
0
 72
0
  1
C2
 73
0
  0
POLYLINE
  8
0
 66
1
 70
1
 40
0.000000
 41
0.000000
 39
0.000000
  0
VERTEX
  8
0
 10
2760.000000
 20
-2705.000000
 40
0.000000
 41
0.000000
 42
0.000000
  0
VERTEX
  8
0
 10
2940.000000
 20
-2705.000000
 40
0.000000
 41
0.000000
 42
0.000000
  0
VERTEX
  8
0
 10
2940.000000
 20
-2785.000000
 40
0.000000
 41
0.000000
 42
0.000000
  0
VERTEX
  8
0
 10
2760.000000
 20
-2785.000000
 40
0.000000
 41
0.000000
 42
0.000000
  0
SEQEND
  0
POLYLINE
  8
0
 66
1
 70
1
 40
0.000000
 41
0.000000
 39
0.000000
  0
VERTEX
  8
0
 10
2745.000000
 20
-2695.000000
 40
0.000000
 41
0.000000
 42
0.000000
  0
VERTEX
  8
0
 10
2955.000000
 20
-2695.000000
 40
0.000000
 41
0.000000
 42
0.000000
  0
VERTEX
  8
0
 10
2955.000000
 20
-2795.000000
 40
0.000000
 41
0.000000
 42
0.000000
  0
VERTEX
  8
0
 10
2745.000000
 20
-2795.000000
 40
0.000000
 41
0.000000
 42
0.000000
  0
SEQEND
  0
TEXT
  8
0
 10
2841.666667
 20
-2695.000000
 11
2850.000000
 21
-2695.000000
 40
25.000000
 41
0.880000
 50
270.000000
  7
STANDARD
 71
0
 72
2
  1
1
 73
0
  0
POLYLINE
  8
0
 66
1
 70
1
 40
0.000000
 41
0.000000
 39
0.000000
  0
VERTEX
  8
0
 10
2760.000000
 20
-2835.000000
 40
0.000000
 41
0.000000
 42
0.000000
  0
VERTEX
  8
0
 10
2940.000000
 20
-2835.000000
 40
0.000000
 41
0.000000
 42
0.000000
  0
VERTEX
  8
0
 10
2940.000000
 20
-2915.000000
 40
0.000000
 41
0.000000
 42
0.000000
  0
VERTEX
  8
0
 10
2760.000000
 20
-2915.000000
 40
0.000000
 41
0.000000
 42
0.000000
  0
SEQEND
  0
POLYLINE
  8
0
 66
1
 70
1
 40
0.000000
 41
0.000000
 39
0.000000
  0
VERTEX
  8
0
 10
2745.000000
 20
-2825.000000
 40
0.000000
 41
0.000000
 42
0.000000
  0
VERTEX
  8
0
 10
2955.000000
 20
-2825.000000
 40
0.000000
 41
0.000000
 42
0.000000
  0
VERTEX
  8
0
 10
2955.000000
 20
-2925.000000
 40
0.000000
 41
0.000000
 42
0.000000
  0
VERTEX
  8
0
 10
2745.000000
 20
-2925.000000
 40
0.000000
 41
0.000000
 42
0.000000
  0
SEQEND
  0
TEXT
  8
0
 10
2841.666667
 20
-2825.000000
 11
2850.000000
 21
-2825.000000
 40
25.000000
 41
0.880000
 50
270.000000
  7
STANDARD
 71
0
 72
2
  1
2
 73
0
  0
POLYLINE
  8
0
 66
1
 70
1
 40
0.000000
 41
0.000000
 39
0.000000
  0
VERTEX
  8
0
 10
2745.000000
 20
-2695.000000
 40
0.000000
 41
0.000000
 42
0.000000
  0
VERTEX
  8
0
 10
2955.000000
 20
-2695.000000
 40
0.000000
 41
0.000000
 42
0.000000
  0
VERTEX
  8
0
 10
2955.000000
 20
-2925.000000
 40
0.000000
 41
0.000000
 42
0.000000
  0
VERTEX
  8
0
 10
2745.000000
 20
-2925.000000
 40
0.000000
 41
0.000000
 42
0.000000
  0
SEQEND
  0
POLYLINE
  8
0
 66
1
 70
1
 40
0.000000
 41
0.000000
 39
0.000000
  0
VERTEX
  8
0
 10
2834.252000
 20
-2837.992000
 40
0.000000
 41
0.000000
 42
0.000000
  0
VERTEX
  8
0
 10
2865.748000
 20
-2837.992000
 40
0.000000
 41
0.000000
 42
0.000000
  0
VERTEX
  8
0
 10
2865.748000
 20
-2775.000000
 40
0.000000
 41
0.000000
 42
0.000000
  0
VERTEX
  8
0
 10
2834.252000
 20
-2775.000000
 40
0.000000
 41
0.000000
 42
0.000000
  0
SEQEND
  0
POLYLINE
  8
0
 66
1
 70
1
 40
0.000000
 41
0.000000
 39
0.000000
  0
VERTEX
  8
0
 10
2834.252000
 20
-2837.992000
 40
0.000000
 41
0.000000
 42
0.000000
  0
VERTEX
  8
0
 10
2865.748000
 20
-2837.992000
 40
0.000000
 41
0.000000
 42
0.000000
  0
VERTEX
  8
0
 10
2865.748000
 20
-2775.000000
 40
0.000000
 41
0.000000
 42
0.000000
  0
VERTEX
  8
0
 10
2834.252000
 20
-2775.000000
 40
0.000000
 41
0.000000
 42
0.000000
  0
SEQEND
  0
POLYLINE
  8
0
 66
1
 70
1
 40
0.000000
 41
0.000000
 39
0.000000
  0
VERTEX
  8
0
 10
2834.252000
 20
-2837.992000
 40
0.000000
 41
0.000000
 42
0.000000
  0
VERTEX
  8
0
 10
2865.748000
 20
-2837.992000
 40
0.000000
 41
0.000000
 42
0.000000
  0
VERTEX
  8
0
 10
2865.748000
 20
-2775.000000
 40
0.000000
 41
0.000000
 42
0.000000
  0
VERTEX
  8
0
 10
2834.252000
 20
-2775.000000
 40
0.000000
 41
0.000000
 42
0.000000
  0
SEQEND
  0
TEXT
  8
0
 10
2800.000000
 20
-2785.000000
 11
0.000000
 21
0.000000
 40
25.000000
 41
0.880000
 50
270.000000
  7
STANDARD
 71
0
 72
0
  1
C1
 73
0
  0
TEXT
  8
0
 10
2800.000000
 20
-2785.000000
 11
0.000000
 21
0.000000
 40
25.000000
 41
0.880000
 50
270.000000
  7
STANDARD
 71
0
 72
0
  1
C1
 73
0
  0
POLYLINE
  8
0
 66
1
 70
1
 40
0.000000
 41
0.000000
 39
0.000000
  0
VERTEX
  8
0
 10
5000.000000
 20
-4000.000000
 40
0.000000
 41
0.000000
 42
0.000000
  0
VERTEX
  8
0
 10
5000.000000
 20
0.000000
 40
0.000000
 41
0.000000
 42
0.000000
  0
VERTEX
  8
0
 10
0.000000
 20
0.000000
 40
0.000000
 41
0.000000
 42
0.000000
  0
VERTEX
  8
0
 10
0.000000
 20
-4000.000000
 40
0.000000
 41
0.000000
 42
0.000000
  0
SEQEND
  0
ENDSEC
  0
EOF
