G04 ================== begin FILE IDENTIFICATION RECORD ==================*
G04 Layout Name:  SMA_Prototype_B.brd*
G04 Film Name:    TOP_OUTLINE*
G04 File Format:  Gerber RS274X*
G04 File Origin:  Cadence Allegro 17.2-S025*
G04 Origin Date:  Tue Mar 20 16:24:48 2018*
G04 *
G04 Layer:  BOARD GEOMETRY/OUTLINE*
G04 Layer:  VIA CLASS/TOP*
G04 Layer:  PIN/TOP*
G04 Layer:  ETCH/TOP*
G04 *
G04 Offset:    (0.000 0.000)*
G04 Mirror:    No*
G04 Mode:      Positive*
G04 Rotation:  0*
G04 FullContactRelief:  No*
G04 UndefLineWidth:     10.000*
G04 ================== end FILE IDENTIFICATION RECORD ====================*
%FSLAX25Y25*MOIN*%
%IR0*IPPOS*OFA0.00000B0.00000*MIA0B0*SFA1.00000B1.00000*%
%ADD11R,.18X.08*%
%ADD10R,.08X.18*%
%ADD12R,.05X.025*%
%ADD13C,.022*%
%ADD14R,.064961X.025591*%
%ADD15C,.02*%
%ADD16C,.01*%
G75*
%LPD*%
G75*
G54D10*
X59000Y-225000D03*
X78000D03*
X59000Y-185000D03*
X78000D03*
X215000Y-332500D03*
Y-302500D03*
X224500Y-190000D03*
Y-157500D03*
X243500Y-190000D03*
Y-157500D03*
X275000Y-332500D03*
Y-302500D03*
X334000Y-130000D03*
X353000D03*
X353500Y-97500D03*
X334500D03*
G54D11*
X140000Y-366000D03*
Y-347000D03*
X452500Y-150500D03*
Y-131500D03*
G54D12*
X120250Y-307500D03*
Y-312500D03*
Y-302500D03*
Y-297500D03*
X139750Y-312500D03*
Y-307500D03*
Y-302500D03*
Y-297500D03*
G54D13*
X224500Y-242500D03*
X220000D03*
X215500D03*
G54D14*
X382480Y-130000D03*
Y-120000D03*
Y-110000D03*
X417520D03*
Y-120000D03*
Y-130000D03*
G54D15*
G01X140000Y-366000D02*
X61000D01*
X59000Y-364000D01*
Y-225000D01*
G01X78000D02*
Y-297500D01*
G01X120250D02*
X78000D01*
G01X120250Y-302500D02*
X78000D01*
G01Y-308000D02*
X82500Y-312500D01*
X120250D01*
G01X78000Y-302500D02*
Y-308000D01*
G01D02*
X78500Y-307500D01*
X120250D01*
G01X78000Y-297500D02*
Y-302500D01*
G01X59000Y-185000D02*
Y-225000D01*
G01X352500Y-72500D02*
X97500D01*
X59000Y-111000D01*
Y-185000D01*
G01X215000Y-332500D02*
Y-343000D01*
X192000Y-366000D01*
X140000D01*
G01X139750Y-312500D02*
Y-341250D01*
X140000Y-341500D01*
Y-347000D01*
G01X139750Y-297500D02*
X132000D01*
X130000Y-299500D01*
Y-305500D01*
X132000Y-307500D01*
X139750D01*
G01X275000Y-302500D02*
Y-307500D01*
X265000Y-317500D01*
X172500D01*
X162500Y-307500D01*
X139750D01*
G01X215000Y-302500D02*
X139750D01*
G01X215500Y-242500D02*
X202500D01*
X192500Y-232500D01*
Y-135000D01*
X197500Y-130000D01*
X334000D01*
G01X275000Y-332500D02*
X215000D01*
G01X215500Y-242500D02*
Y-245100D01*
X215000Y-245600D01*
Y-302500D01*
G01X275000D02*
X265000D01*
X220000Y-257500D01*
Y-242500D01*
G01D02*
Y-237500D01*
X210000Y-227500D01*
Y-145000D01*
X215000Y-140000D01*
X305000D01*
X315000Y-150000D01*
X441500D01*
X442000Y-150500D01*
X452500D01*
G01X224500Y-242500D02*
Y-190000D01*
G01D02*
Y-157500D01*
G01X275000Y-332500D02*
X295500D01*
X297500Y-330500D01*
Y-262500D01*
X243500Y-208500D01*
Y-190000D01*
G01Y-157500D02*
Y-190000D01*
G01X350000Y-235000D02*
X470500D01*
X472500Y-237000D01*
Y-320500D01*
X470500Y-322500D01*
X349500D01*
X347500Y-320500D01*
Y-235000D01*
G01X382480Y-120000D02*
X370000D01*
X362500Y-112500D01*
X337500D01*
X334500Y-109500D01*
Y-97500D01*
G01X353000Y-130000D02*
X382480D01*
G01X353500Y-97500D02*
Y-73500D01*
X352500Y-72500D01*
G01X417520Y-120000D02*
X432500D01*
X435000Y-117500D01*
Y-74500D01*
X433000Y-72500D01*
X352500D01*
G01X385000Y-237500D02*
Y-315000D01*
G01X382480Y-130000D02*
X397500D01*
X400000Y-127500D01*
Y-112500D01*
X397500Y-110000D01*
X382480D01*
G01X430000Y-237500D02*
Y-315000D01*
G01X452500Y-131500D02*
X442000D01*
X440500Y-130000D01*
X417520D01*
G54D16*
G01X500000Y-400000D02*
Y0D01*
X0D01*
Y-400000D01*
X500000D01*
G01X24255Y-30420D02*
X25815Y-31720D01*
X27570Y-32500D01*
X29130D01*
X30690Y-31720D01*
X31860Y-30420D01*
X32445Y-28600D01*
X32055Y-26780D01*
X31080Y-25220D01*
X29325Y-24180D01*
X26985Y-23660D01*
X25620Y-22620D01*
X25035Y-20800D01*
X25425Y-18980D01*
X26400Y-17680D01*
X27765Y-16900D01*
X29130D01*
X30495Y-17420D01*
X31665Y-18720D01*
G01X41180Y-32500D02*
Y-16900D01*
X46250Y-29900D01*
X51320Y-16900D01*
Y-32500D01*
G01X59275D02*
X64150Y-16900D01*
X69025Y-32500D01*
G01X67270Y-27040D02*
X61030D01*
G01X76200Y-37700D02*
X87900D01*
G01X96050Y-32500D02*
Y-16900D01*
X100730D01*
X102290Y-17680D01*
X103460Y-19500D01*
X103850Y-21580D01*
X103460Y-23660D01*
X102485Y-25220D01*
X100730Y-26000D01*
X96050D01*
G01X113950Y-32500D02*
Y-16900D01*
X118825D01*
X120385Y-17680D01*
X121360Y-18720D01*
X121750Y-20800D01*
X121360Y-22880D01*
X120190Y-24180D01*
X118825Y-24960D01*
X113950D01*
G01X118825D02*
X121750Y-32500D01*
G01X135750D02*
X134190Y-32240D01*
X132825Y-31200D01*
X131655Y-29640D01*
X130875Y-27820D01*
X130485Y-25740D01*
Y-23660D01*
X130875Y-21580D01*
X131655Y-19760D01*
X132825Y-18200D01*
X134190Y-17160D01*
X135750Y-16900D01*
X137310Y-17160D01*
X138675Y-18200D01*
X139845Y-19760D01*
X140625Y-21580D01*
X141015Y-23660D01*
Y-25740D01*
X140625Y-27820D01*
X139845Y-29640D01*
X138675Y-31200D01*
X137310Y-32240D01*
X135750Y-32500D01*
G01X153650Y-16900D02*
Y-32500D01*
G01X149165Y-16900D02*
X158135D01*
G01X171550Y-32500D02*
X169990Y-32240D01*
X168625Y-31200D01*
X167455Y-29640D01*
X166675Y-27820D01*
X166285Y-25740D01*
Y-23660D01*
X166675Y-21580D01*
X167455Y-19760D01*
X168625Y-18200D01*
X169990Y-17160D01*
X171550Y-16900D01*
X173110Y-17160D01*
X174475Y-18200D01*
X175645Y-19760D01*
X176425Y-21580D01*
X176815Y-23660D01*
Y-25740D01*
X176425Y-27820D01*
X175645Y-29640D01*
X174475Y-31200D01*
X173110Y-32240D01*
X171550Y-32500D01*
G01X189450Y-16900D02*
Y-32500D01*
G01X184965Y-16900D02*
X193935D01*
G01X207350Y-32500D02*
Y-25480D01*
X203450Y-16900D01*
G01X211250D02*
X207350Y-25480D01*
G01X221350Y-32500D02*
Y-16900D01*
X226030D01*
X227590Y-17680D01*
X228760Y-19500D01*
X229150Y-21580D01*
X228760Y-23660D01*
X227785Y-25220D01*
X226030Y-26000D01*
X221350D01*
G01X247050Y-32500D02*
X239250D01*
Y-16900D01*
X247050D01*
G01X243930Y-24440D02*
X239250D01*
G01X255200Y-37700D02*
X266900D01*
G01X280510Y-24180D02*
X281290Y-23400D01*
X281875Y-22100D01*
X282265Y-20280D01*
X281875Y-18720D01*
X281095Y-17680D01*
X279730Y-16900D01*
X274465D01*
Y-32500D01*
X280900D01*
X282265Y-31460D01*
X283045Y-29900D01*
X283435Y-28080D01*
X283045Y-26260D01*
X281875Y-24700D01*
X280510Y-24180D01*
X274465D01*
G01X93125Y-175000D02*
X96250Y-185000D01*
X99375Y-175000D01*
G01X102500Y-188333D02*
X110000D01*
G01X116250Y-185000D02*
X115250Y-184833D01*
X114375Y-184167D01*
X113625Y-183167D01*
X113125Y-182000D01*
X112875Y-180667D01*
Y-179333D01*
X113125Y-178000D01*
X113625Y-176833D01*
X114375Y-175834D01*
X115250Y-175167D01*
X116250Y-175000D01*
X117250Y-175167D01*
X118125Y-175834D01*
X118875Y-176833D01*
X119375Y-178000D01*
X119625Y-179333D01*
Y-180667D01*
X119375Y-182000D01*
X118875Y-183167D01*
X118125Y-184167D01*
X117250Y-184833D01*
X116250Y-185000D01*
G01X123500Y-175000D02*
Y-182167D01*
X124000Y-183667D01*
X125000Y-184667D01*
X126250Y-185000D01*
X127500Y-184667D01*
X128500Y-183667D01*
X129000Y-182167D01*
Y-175000D01*
G01X136250D02*
Y-185000D01*
G01X133375Y-175000D02*
X139125D01*
G01X111000Y-280000D02*
Y-270000D01*
X113500D01*
X114500Y-270500D01*
X115250Y-271167D01*
X115875Y-272166D01*
X116375Y-273334D01*
X116500Y-275000D01*
X116375Y-276667D01*
X115875Y-277834D01*
X115250Y-278834D01*
X114500Y-279500D01*
X113500Y-280000D01*
X111000D01*
G01X120875D02*
Y-270000D01*
X126625Y-280000D01*
Y-270000D01*
G01X111000Y-265000D02*
Y-255000D01*
X113500D01*
X114500Y-255500D01*
X115250Y-256167D01*
X115875Y-257166D01*
X116375Y-258334D01*
X116500Y-260000D01*
X116375Y-261667D01*
X115875Y-262834D01*
X115250Y-263834D01*
X114500Y-264500D01*
X113500Y-265000D01*
X111000D01*
G01X120875D02*
Y-255000D01*
X126625Y-265000D01*
Y-255000D01*
G01X111000Y-235000D02*
Y-225000D01*
X113500D01*
X114500Y-225500D01*
X115250Y-226167D01*
X115875Y-227166D01*
X116375Y-228334D01*
X116500Y-230000D01*
X116375Y-231667D01*
X115875Y-232834D01*
X115250Y-233834D01*
X114500Y-234500D01*
X113500Y-235000D01*
X111000D01*
G01X121250D02*
Y-225000D01*
X124250D01*
X125250Y-225500D01*
X126000Y-226667D01*
X126250Y-228000D01*
X126000Y-229333D01*
X125375Y-230333D01*
X124250Y-230834D01*
X121250D01*
G01X111000Y-250000D02*
Y-240000D01*
X113500D01*
X114500Y-240500D01*
X115250Y-241167D01*
X115875Y-242166D01*
X116375Y-243334D01*
X116500Y-245000D01*
X116375Y-246667D01*
X115875Y-247834D01*
X115250Y-248834D01*
X114500Y-249500D01*
X113500Y-250000D01*
X111000D01*
G01X121250D02*
Y-240000D01*
X124250D01*
X125250Y-240500D01*
X126000Y-241667D01*
X126250Y-243000D01*
X126000Y-244333D01*
X125375Y-245333D01*
X124250Y-245834D01*
X121250D01*
G01X149500Y-260000D02*
X152000D01*
Y-263000D01*
X151250Y-264000D01*
X150375Y-264667D01*
X149125Y-265000D01*
X147875Y-264667D01*
X147000Y-264000D01*
X146250Y-263000D01*
X145750Y-261833D01*
X145500Y-260500D01*
Y-259333D01*
X145750Y-258334D01*
X146250Y-257166D01*
X147000Y-256167D01*
X147750Y-255500D01*
X148750Y-255000D01*
X149625D01*
X150625Y-255333D01*
X151375Y-256000D01*
G01X155875Y-265000D02*
Y-255000D01*
X161625Y-265000D01*
Y-255000D01*
G01X146125Y-278667D02*
X147125Y-279500D01*
X148250Y-280000D01*
X149250D01*
X150250Y-279500D01*
X151000Y-278667D01*
X151375Y-277500D01*
X151125Y-276334D01*
X150500Y-275333D01*
X149375Y-274667D01*
X147875Y-274333D01*
X147000Y-273667D01*
X146625Y-272500D01*
X146875Y-271333D01*
X147500Y-270500D01*
X148375Y-270000D01*
X149250D01*
X150125Y-270333D01*
X150875Y-271167D01*
G01X155875Y-280000D02*
Y-270000D01*
X161625Y-280000D01*
Y-270000D01*
G01X149500Y-230000D02*
X152000D01*
Y-233000D01*
X151250Y-234000D01*
X150375Y-234667D01*
X149125Y-235000D01*
X147875Y-234667D01*
X147000Y-234000D01*
X146250Y-233000D01*
X145750Y-231833D01*
X145500Y-230500D01*
Y-229333D01*
X145750Y-228334D01*
X146250Y-227166D01*
X147000Y-226167D01*
X147750Y-225500D01*
X148750Y-225000D01*
X149625D01*
X150625Y-225333D01*
X151375Y-226000D01*
G01X156250Y-235000D02*
Y-225000D01*
X159250D01*
X160250Y-225500D01*
X161000Y-226667D01*
X161250Y-228000D01*
X161000Y-229333D01*
X160375Y-230333D01*
X159250Y-230834D01*
X156250D01*
G01X146125Y-248667D02*
X147125Y-249500D01*
X148250Y-250000D01*
X149250D01*
X150250Y-249500D01*
X151000Y-248667D01*
X151375Y-247500D01*
X151125Y-246334D01*
X150500Y-245333D01*
X149375Y-244667D01*
X147875Y-244333D01*
X147000Y-243667D01*
X146625Y-242500D01*
X146875Y-241333D01*
X147500Y-240500D01*
X148375Y-240000D01*
X149250D01*
X150125Y-240333D01*
X150875Y-241167D01*
G01X156250Y-250000D02*
Y-240000D01*
X159250D01*
X160250Y-240500D01*
X161000Y-241667D01*
X161250Y-243000D01*
X161000Y-244333D01*
X160375Y-245333D01*
X159250Y-245834D01*
X156250D01*
G01X263125Y-185000D02*
X266250Y-195000D01*
X269375Y-185000D01*
G01X272500Y-198333D02*
X280000D01*
G01X286250Y-195000D02*
X285250Y-194833D01*
X284375Y-194167D01*
X283625Y-193167D01*
X283125Y-192000D01*
X282875Y-190667D01*
Y-189333D01*
X283125Y-188000D01*
X283625Y-186833D01*
X284375Y-185834D01*
X285250Y-185167D01*
X286250Y-185000D01*
X287250Y-185167D01*
X288125Y-185834D01*
X288875Y-186833D01*
X289375Y-188000D01*
X289625Y-189333D01*
Y-190667D01*
X289375Y-192000D01*
X288875Y-193167D01*
X288125Y-194167D01*
X287250Y-194833D01*
X286250Y-195000D01*
G01X293500Y-185000D02*
Y-192167D01*
X294000Y-193667D01*
X295000Y-194667D01*
X296250Y-195000D01*
X297500Y-194667D01*
X298500Y-193667D01*
X299000Y-192167D01*
Y-185000D01*
G01X306250D02*
Y-195000D01*
G01X303375Y-185000D02*
X309125D01*
G01X263125Y-92500D02*
X266250Y-102500D01*
X269375Y-92500D01*
G01X272500Y-105833D02*
X280000D01*
G01X286250Y-102500D02*
X285250Y-102333D01*
X284375Y-101667D01*
X283625Y-100667D01*
X283125Y-99500D01*
X282875Y-98167D01*
Y-96833D01*
X283125Y-95500D01*
X283625Y-94333D01*
X284375Y-93334D01*
X285250Y-92667D01*
X286250Y-92500D01*
X287250Y-92667D01*
X288125Y-93334D01*
X288875Y-94333D01*
X289375Y-95500D01*
X289625Y-96833D01*
Y-98167D01*
X289375Y-99500D01*
X288875Y-100667D01*
X288125Y-101667D01*
X287250Y-102333D01*
X286250Y-102500D01*
G01X293500Y-92500D02*
Y-99667D01*
X294000Y-101167D01*
X295000Y-102167D01*
X296250Y-102500D01*
X297500Y-102167D01*
X298500Y-101167D01*
X299000Y-99667D01*
Y-92500D01*
G01X306250D02*
Y-102500D01*
G01X303375Y-92500D02*
X309125D01*
G01X352000Y-377500D02*
X354500D01*
Y-380500D01*
X353750Y-381500D01*
X352875Y-382167D01*
X351625Y-382500D01*
X350375Y-382167D01*
X349500Y-381500D01*
X348750Y-380500D01*
X348250Y-379333D01*
X348000Y-378000D01*
Y-376833D01*
X348250Y-375834D01*
X348750Y-374666D01*
X349500Y-373667D01*
X350250Y-373000D01*
X351250Y-372500D01*
X352125D01*
X353125Y-372833D01*
X353875Y-373500D01*
G01X358375Y-382500D02*
Y-372500D01*
X364125Y-382500D01*
Y-372500D01*
G01X368500Y-382500D02*
Y-372500D01*
X371000D01*
X372000Y-373000D01*
X372750Y-373667D01*
X373375Y-374666D01*
X373875Y-375834D01*
X374000Y-377500D01*
X373875Y-379167D01*
X373375Y-380334D01*
X372750Y-381334D01*
X372000Y-382000D01*
X371000Y-382500D01*
X368500D01*
G01X348125Y-342500D02*
X351250Y-352500D01*
X354375Y-342500D01*
G01X357500Y-355833D02*
X365000D01*
G01X368625Y-351167D02*
X369625Y-352000D01*
X370750Y-352500D01*
X371750D01*
X372750Y-352000D01*
X373500Y-351167D01*
X373875Y-350000D01*
X373625Y-348834D01*
X373000Y-347833D01*
X371875Y-347167D01*
X370375Y-346833D01*
X369500Y-346167D01*
X369125Y-345000D01*
X369375Y-343833D01*
X370000Y-343000D01*
X370875Y-342500D01*
X371750D01*
X372625Y-342833D01*
X373375Y-343667D01*
G01X381250Y-342500D02*
Y-352500D01*
G01X378375Y-342500D02*
X384125D01*
G01X388125Y-352500D02*
X391250Y-342500D01*
X394375Y-352500D01*
G01X393250Y-349000D02*
X389250D01*
G01X401250Y-342500D02*
Y-352500D01*
G01X398375Y-342500D02*
X404125D01*
G01X329500Y-190000D02*
X332000D01*
Y-193000D01*
X331250Y-194000D01*
X330375Y-194667D01*
X329125Y-195000D01*
X327875Y-194667D01*
X327000Y-194000D01*
X326250Y-193000D01*
X325750Y-191833D01*
X325500Y-190500D01*
Y-189333D01*
X325750Y-188334D01*
X326250Y-187166D01*
X327000Y-186167D01*
X327750Y-185500D01*
X328750Y-185000D01*
X329625D01*
X330625Y-185333D01*
X331375Y-186000D01*
G01X335875Y-195000D02*
Y-185000D01*
X341625Y-195000D01*
Y-185000D01*
G01X346000Y-195000D02*
Y-185000D01*
X348500D01*
X349500Y-185500D01*
X350250Y-186167D01*
X350875Y-187166D01*
X351375Y-188334D01*
X351500Y-190000D01*
X351375Y-191667D01*
X350875Y-192834D01*
X350250Y-193834D01*
X349500Y-194500D01*
X348500Y-195000D01*
X346000D01*
G01X363334Y-288500D02*
X362833Y-289250D01*
X362500Y-290125D01*
Y-291125D01*
X363000Y-292250D01*
X363833Y-293125D01*
X364833Y-293750D01*
X366500Y-294250D01*
X368000Y-294375D01*
X369500Y-294125D01*
X370500Y-293750D01*
X371500Y-293000D01*
X372167Y-292125D01*
X372500Y-291250D01*
Y-290375D01*
X372167Y-289500D01*
X371667Y-288750D01*
X371000Y-288125D01*
G01X372500Y-284500D02*
X362500D01*
X370833Y-281250D01*
X362500Y-278000D01*
X372500D01*
G01Y-271250D02*
X372333Y-272250D01*
X371667Y-273125D01*
X370667Y-273875D01*
X369500Y-274375D01*
X368167Y-274625D01*
X366833D01*
X365500Y-274375D01*
X364333Y-273875D01*
X363334Y-273125D01*
X362667Y-272250D01*
X362500Y-271250D01*
X362667Y-270250D01*
X363334Y-269375D01*
X364333Y-268625D01*
X365500Y-268125D01*
X366833Y-267875D01*
X368167D01*
X369500Y-268125D01*
X370667Y-268625D01*
X371667Y-269375D01*
X372333Y-270250D01*
X372500Y-271250D01*
G01X371167Y-263875D02*
X372000Y-262875D01*
X372500Y-261750D01*
Y-260750D01*
X372000Y-259750D01*
X371167Y-259000D01*
X370000Y-258625D01*
X368834Y-258875D01*
X367833Y-259500D01*
X367167Y-260625D01*
X366833Y-262125D01*
X366167Y-263000D01*
X365000Y-263375D01*
X363833Y-263125D01*
X363000Y-262500D01*
X362500Y-261625D01*
Y-260750D01*
X362833Y-259875D01*
X363667Y-259125D01*
G01X412500Y-293750D02*
X402500D01*
Y-290750D01*
X403000Y-289750D01*
X404167Y-289000D01*
X405500Y-288750D01*
X406833Y-289000D01*
X407833Y-289625D01*
X408334Y-290750D01*
Y-293750D01*
G01X412500Y-284500D02*
X402500D01*
X410833Y-281250D01*
X402500Y-278000D01*
X412500D01*
G01Y-271250D02*
X412333Y-272250D01*
X411667Y-273125D01*
X410667Y-273875D01*
X409500Y-274375D01*
X408167Y-274625D01*
X406833D01*
X405500Y-274375D01*
X404333Y-273875D01*
X403334Y-273125D01*
X402667Y-272250D01*
X402500Y-271250D01*
X402667Y-270250D01*
X403334Y-269375D01*
X404333Y-268625D01*
X405500Y-268125D01*
X406833Y-267875D01*
X408167D01*
X409500Y-268125D01*
X410667Y-268625D01*
X411667Y-269375D01*
X412333Y-270250D01*
X412500Y-271250D01*
G01X411167Y-263875D02*
X412000Y-262875D01*
X412500Y-261750D01*
Y-260750D01*
X412000Y-259750D01*
X411167Y-259000D01*
X410000Y-258625D01*
X408834Y-258875D01*
X407833Y-259500D01*
X407167Y-260625D01*
X406833Y-262125D01*
X406167Y-263000D01*
X405000Y-263375D01*
X403833Y-263125D01*
X403000Y-262500D01*
X402500Y-261625D01*
Y-260750D01*
X402833Y-259875D01*
X403667Y-259125D01*
G01X434500Y-377500D02*
X437000D01*
Y-380500D01*
X436250Y-381500D01*
X435375Y-382167D01*
X434125Y-382500D01*
X432875Y-382167D01*
X432000Y-381500D01*
X431250Y-380500D01*
X430750Y-379333D01*
X430500Y-378000D01*
Y-376833D01*
X430750Y-375834D01*
X431250Y-374666D01*
X432000Y-373667D01*
X432750Y-373000D01*
X433750Y-372500D01*
X434625D01*
X435625Y-372833D01*
X436375Y-373500D01*
G01X440875Y-382500D02*
Y-372500D01*
X446625Y-382500D01*
Y-372500D01*
G01X451000Y-382500D02*
Y-372500D01*
X453500D01*
X454500Y-373000D01*
X455250Y-373667D01*
X455875Y-374666D01*
X456375Y-375834D01*
X456500Y-377500D01*
X456375Y-379167D01*
X455875Y-380334D01*
X455250Y-381334D01*
X454500Y-382000D01*
X453500Y-382500D01*
X451000D01*
G01X430625Y-342500D02*
X433750Y-352500D01*
X436875Y-342500D01*
G01X440000Y-355833D02*
X447500D01*
G01X452250Y-342500D02*
X455250D01*
G01X453750D02*
Y-352500D01*
G01X452250D02*
X455250D01*
G01X460875D02*
Y-342500D01*
X466625Y-352500D01*
Y-342500D01*
G01X456167Y-288875D02*
X457000Y-287875D01*
X457500Y-286750D01*
Y-285750D01*
X457000Y-284750D01*
X456167Y-284000D01*
X455000Y-283625D01*
X453834Y-283875D01*
X452833Y-284500D01*
X452167Y-285625D01*
X451833Y-287125D01*
X451167Y-288000D01*
X450000Y-288375D01*
X448833Y-288125D01*
X448000Y-287500D01*
X447500Y-286625D01*
Y-285750D01*
X447833Y-284875D01*
X448667Y-284125D01*
G01X456167Y-278875D02*
X457000Y-277875D01*
X457500Y-276750D01*
Y-275750D01*
X457000Y-274750D01*
X456167Y-274000D01*
X455000Y-273625D01*
X453834Y-273875D01*
X452833Y-274500D01*
X452167Y-275625D01*
X451833Y-277125D01*
X451167Y-278000D01*
X450000Y-278375D01*
X448833Y-278125D01*
X448000Y-277500D01*
X447500Y-276625D01*
Y-275750D01*
X447833Y-274875D01*
X448667Y-274125D01*
G01X457500Y-268750D02*
X447500D01*
Y-265625D01*
X448000Y-264625D01*
X448667Y-264000D01*
X450000Y-263750D01*
X451333Y-264000D01*
X452167Y-264750D01*
X452667Y-265625D01*
Y-268750D01*
G01Y-265625D02*
X457500Y-263750D01*
M02*
