G04 ================== begin FILE IDENTIFICATION RECORD ==================*
G04 Layout Name:  SMA_Prototype_C.brd*
G04 Film Name:    TOP*
G04 File Format:  Gerber RS274X*
G04 File Origin:  Cadence Allegro 17.2-S025*
G04 Origin Date:  Tue Mar 27 12:37:08 2018*
G04 *
G04 Layer:  ETCH/TOP*
G04 Layer:  PIN/TOP*
G04 Layer:  VIA CLASS/TOP*
G04 *
G04 Offset:    (0.000 0.000)*
G04 Mirror:    No*
G04 Mode:      Positive*
G04 Rotation:  0*
G04 FullContactRelief:  No*
G04 UndefLineWidth:     10.000*
G04 ================== end FILE IDENTIFICATION RECORD ====================*
%FSLAX25Y25*MOIN*%
%IR0*IPPOS*OFA0.00000B0.00000*MIA0B0*SFA1.00000B1.00000*%
%ADD14R,.18X.08*%
%ADD10R,.08X.18*%
%ADD11R,.030984X.034016*%
%ADD13R,.064961X.025591*%
%ADD12R,.035984X.067008*%
%ADD15C,.03*%
%ADD16C,.01*%
G75*
%LPD*%
G75*
G54D10*
X97000Y-95000D03*
X116000Y-123000D03*
X135000D03*
Y-95000D03*
X116000D03*
X155000Y-342000D03*
X174000D03*
X154000Y-123000D03*
X173000D03*
Y-95000D03*
X154000D03*
X192000Y-123000D03*
Y-95000D03*
X230000Y-123000D03*
X211000D03*
Y-95000D03*
X230000D03*
X249000Y-123000D03*
Y-95000D03*
X268000Y-123000D03*
X287000D03*
X268000Y-95000D03*
X301500Y-264000D03*
Y-234000D03*
X361500Y-264000D03*
Y-234000D03*
G54D11*
X160906Y-319000D03*
X155000D03*
X160906Y-296000D03*
X155000D03*
X160906Y-307000D03*
X155000D03*
X160906Y-271000D03*
X155000D03*
X160906Y-283000D03*
X155000D03*
X160906Y-234000D03*
X155000D03*
X160906Y-246000D03*
X155000D03*
X160906Y-258000D03*
X155000D03*
X160906Y-212000D03*
X155000D03*
X160906Y-223000D03*
X155000D03*
G54D12*
X154689Y-171500D03*
X166500D03*
X184689D03*
X196500D03*
X214689D03*
X226500D03*
X244689D03*
X256500D03*
X274689D03*
X286500D03*
G54D13*
X308980Y-181500D03*
Y-171500D03*
Y-161500D03*
X344020Y-171500D03*
Y-181500D03*
Y-161500D03*
G54D14*
X396500Y-204500D03*
Y-185500D03*
G54D15*
G01X154689Y-171500D02*
X113500D01*
X97000Y-155000D01*
Y-95000D01*
G01X135000D02*
Y-123000D01*
G01X116000Y-95000D02*
Y-123000D01*
G01X160906Y-319000D02*
Y-307000D01*
G01X155000D02*
Y-319000D01*
G01D02*
Y-342000D01*
G01X160906Y-296000D02*
Y-283000D01*
G01Y-307000D02*
Y-296000D01*
G01X155000D02*
Y-307000D01*
G01Y-283000D02*
Y-296000D01*
G01X160906Y-283000D02*
Y-271000D01*
G01X301500Y-264000D02*
X167754D01*
X164869Y-261115D01*
X163869D01*
X160906Y-258152D01*
G01D02*
Y-271000D01*
G01X155000D02*
Y-283000D01*
G01Y-258000D02*
Y-271000D01*
G01X160906Y-234000D02*
Y-223000D01*
G01Y-246000D02*
Y-234000D01*
G01Y-258000D02*
Y-246000D01*
G01Y-258000D02*
Y-258152D01*
G01X155000Y-246000D02*
Y-258000D01*
G01Y-234000D02*
Y-246000D01*
G01Y-223000D02*
Y-234000D01*
G01X160906Y-223000D02*
Y-212000D01*
G01X154689Y-171500D02*
Y-207988D01*
X155000Y-208299D01*
Y-212000D01*
G01D02*
Y-223000D01*
G01X184689Y-171500D02*
X166500D01*
G01X154000Y-95000D02*
Y-123000D01*
G01X301500Y-264000D02*
Y-275000D01*
X234500Y-342000D01*
X174000D01*
G01X214689Y-171500D02*
X196500D01*
G01X192000Y-95000D02*
Y-123000D01*
G01X173000Y-95000D02*
Y-123000D01*
G01X244689Y-171500D02*
X226500D01*
G01X230000Y-95000D02*
Y-123000D01*
G01X211000Y-95000D02*
Y-123000D01*
G01X274689Y-171500D02*
X256500D01*
G01X249000Y-95000D02*
Y-123000D01*
G01X308980Y-171500D02*
X286500D01*
G01X287000Y-123000D02*
Y-165650D01*
X286500Y-166150D01*
Y-171500D01*
G01X268000Y-95000D02*
Y-123000D01*
G01X301500Y-264000D02*
X361500D01*
G01X308980Y-181500D02*
Y-184780D01*
X309000Y-184799D01*
Y-206500D01*
X301500Y-214000D01*
Y-234000D01*
G01X308980Y-181500D02*
X324000D01*
X326500Y-179000D01*
Y-164000D01*
X324000Y-161500D01*
X308980D01*
G01X344020Y-171500D02*
X349268D01*
X349768Y-171000D01*
X422000D01*
X430000Y-179000D01*
Y-221000D01*
X387000Y-264000D01*
X361500D01*
G01X396500Y-185500D02*
X370500D01*
X366500Y-181500D01*
X344020D01*
G01X396500Y-204500D02*
Y-224000D01*
X386500Y-234000D01*
X361500D01*
G54D16*
G01X24255Y-30420D02*
X25815Y-31720D01*
X27570Y-32500D01*
X29130D01*
X30690Y-31720D01*
X31860Y-30420D01*
X32445Y-28600D01*
X32055Y-26780D01*
X31080Y-25220D01*
X29325Y-24180D01*
X26985Y-23660D01*
X25620Y-22620D01*
X25035Y-20800D01*
X25425Y-18980D01*
X26400Y-17680D01*
X27765Y-16900D01*
X29130D01*
X30495Y-17420D01*
X31665Y-18720D01*
G01X41180Y-32500D02*
Y-16900D01*
X46250Y-29900D01*
X51320Y-16900D01*
Y-32500D01*
G01X59275D02*
X64150Y-16900D01*
X69025Y-32500D01*
G01X67270Y-27040D02*
X61030D01*
G01X76200Y-37700D02*
X87900D01*
G01X96050Y-32500D02*
Y-16900D01*
X100730D01*
X102290Y-17680D01*
X103460Y-19500D01*
X103850Y-21580D01*
X103460Y-23660D01*
X102485Y-25220D01*
X100730Y-26000D01*
X96050D01*
G01X113950Y-32500D02*
Y-16900D01*
X118825D01*
X120385Y-17680D01*
X121360Y-18720D01*
X121750Y-20800D01*
X121360Y-22880D01*
X120190Y-24180D01*
X118825Y-24960D01*
X113950D01*
G01X118825D02*
X121750Y-32500D01*
G01X135750D02*
X134190Y-32240D01*
X132825Y-31200D01*
X131655Y-29640D01*
X130875Y-27820D01*
X130485Y-25740D01*
Y-23660D01*
X130875Y-21580D01*
X131655Y-19760D01*
X132825Y-18200D01*
X134190Y-17160D01*
X135750Y-16900D01*
X137310Y-17160D01*
X138675Y-18200D01*
X139845Y-19760D01*
X140625Y-21580D01*
X141015Y-23660D01*
Y-25740D01*
X140625Y-27820D01*
X139845Y-29640D01*
X138675Y-31200D01*
X137310Y-32240D01*
X135750Y-32500D01*
G01X153650Y-16900D02*
Y-32500D01*
G01X149165Y-16900D02*
X158135D01*
G01X171550Y-32500D02*
X169990Y-32240D01*
X168625Y-31200D01*
X167455Y-29640D01*
X166675Y-27820D01*
X166285Y-25740D01*
Y-23660D01*
X166675Y-21580D01*
X167455Y-19760D01*
X168625Y-18200D01*
X169990Y-17160D01*
X171550Y-16900D01*
X173110Y-17160D01*
X174475Y-18200D01*
X175645Y-19760D01*
X176425Y-21580D01*
X176815Y-23660D01*
Y-25740D01*
X176425Y-27820D01*
X175645Y-29640D01*
X174475Y-31200D01*
X173110Y-32240D01*
X171550Y-32500D01*
G01X189450Y-16900D02*
Y-32500D01*
G01X184965Y-16900D02*
X193935D01*
G01X207350Y-32500D02*
Y-25480D01*
X203450Y-16900D01*
G01X211250D02*
X207350Y-25480D01*
G01X221350Y-32500D02*
Y-16900D01*
X226030D01*
X227590Y-17680D01*
X228760Y-19500D01*
X229150Y-21580D01*
X228760Y-23660D01*
X227785Y-25220D01*
X226030Y-26000D01*
X221350D01*
G01X247050Y-32500D02*
X239250D01*
Y-16900D01*
X247050D01*
G01X243930Y-24440D02*
X239250D01*
G01X255200Y-37700D02*
X266900D01*
G01X283240Y-18200D02*
X282070Y-17420D01*
X280705Y-16900D01*
X279145D01*
X277390Y-17680D01*
X276025Y-18980D01*
X275050Y-20540D01*
X274270Y-23140D01*
X274075Y-25480D01*
X274465Y-27820D01*
X275050Y-29380D01*
X276220Y-30940D01*
X277585Y-31980D01*
X278950Y-32500D01*
X280315D01*
X281680Y-31980D01*
X282850Y-31200D01*
X283825Y-30160D01*
G01X107500Y-255834D02*
X106750Y-255333D01*
X105875Y-255000D01*
X104875D01*
X103750Y-255500D01*
X102875Y-256333D01*
X102250Y-257333D01*
X101750Y-259000D01*
X101625Y-260500D01*
X101875Y-262000D01*
X102250Y-263000D01*
X103000Y-264000D01*
X103875Y-264667D01*
X104750Y-265000D01*
X105625D01*
X106500Y-264667D01*
X107250Y-264167D01*
X107875Y-263500D01*
G01X111625Y-265000D02*
X114750Y-255000D01*
X117875Y-265000D01*
G01X116750Y-261500D02*
X112750D01*
G01X122250Y-265000D02*
Y-255000D01*
X125250D01*
X126250Y-255500D01*
X127000Y-256667D01*
X127250Y-258000D01*
X127000Y-259333D01*
X126375Y-260333D01*
X125250Y-260834D01*
X122250D01*
G01X132125Y-263667D02*
X133125Y-264500D01*
X134250Y-265000D01*
X135250D01*
X136250Y-264500D01*
X137000Y-263667D01*
X137375Y-262500D01*
X137125Y-261334D01*
X136500Y-260333D01*
X135375Y-259667D01*
X133875Y-259333D01*
X133000Y-258667D01*
X132625Y-257500D01*
X132875Y-256333D01*
X133500Y-255500D01*
X134375Y-255000D01*
X135250D01*
X136125Y-255333D01*
X136875Y-256167D01*
G01X111625Y-370000D02*
X114750Y-380000D01*
X117875Y-370000D01*
G01X121000Y-383333D02*
X128500D01*
G01X134750Y-380000D02*
X133750Y-379833D01*
X132875Y-379167D01*
X132125Y-378167D01*
X131625Y-377000D01*
X131375Y-375667D01*
Y-374333D01*
X131625Y-373000D01*
X132125Y-371833D01*
X132875Y-370834D01*
X133750Y-370167D01*
X134750Y-370000D01*
X135750Y-370167D01*
X136625Y-370834D01*
X137375Y-371833D01*
X137875Y-373000D01*
X138125Y-374333D01*
Y-375667D01*
X137875Y-377000D01*
X137375Y-378167D01*
X136625Y-379167D01*
X135750Y-379833D01*
X134750Y-380000D01*
G01X142000Y-370000D02*
Y-377167D01*
X142500Y-378667D01*
X143500Y-379667D01*
X144750Y-380000D01*
X146000Y-379667D01*
X147000Y-378667D01*
X147500Y-377167D01*
Y-370000D01*
G01X154750D02*
Y-380000D01*
G01X151875Y-370000D02*
X157625D01*
G01X165250Y-59000D02*
Y-69000D01*
X170250D01*
G01X174625Y-59000D02*
X177750Y-69000D01*
X180875Y-59000D01*
G01X195250Y-69000D02*
Y-59000D01*
X198375D01*
X199375Y-59500D01*
X200000Y-60167D01*
X200250Y-61500D01*
X200000Y-62833D01*
X199250Y-63667D01*
X198375Y-64167D01*
X195250D01*
G01X198375D02*
X200250Y-69000D01*
G01X210250D02*
X205250D01*
Y-59000D01*
X210250D01*
G01X208250Y-63833D02*
X205250D01*
G01X215125Y-67667D02*
X216125Y-68500D01*
X217250Y-69000D01*
X218250D01*
X219250Y-68500D01*
X220000Y-67667D01*
X220375Y-66500D01*
X220125Y-65334D01*
X219500Y-64333D01*
X218375Y-63667D01*
X216875Y-63333D01*
X216000Y-62667D01*
X215625Y-61500D01*
X215875Y-60333D01*
X216500Y-59500D01*
X217375Y-59000D01*
X218250D01*
X219125Y-59333D01*
X219875Y-60167D01*
G01X175500Y-375000D02*
X178000D01*
Y-378000D01*
X177250Y-379000D01*
X176375Y-379667D01*
X175125Y-380000D01*
X173875Y-379667D01*
X173000Y-379000D01*
X172250Y-378000D01*
X171750Y-376833D01*
X171500Y-375500D01*
Y-374333D01*
X171750Y-373334D01*
X172250Y-372166D01*
X173000Y-371167D01*
X173750Y-370500D01*
X174750Y-370000D01*
X175625D01*
X176625Y-370333D01*
X177375Y-371000D01*
G01X181875Y-380000D02*
Y-370000D01*
X187625Y-380000D01*
Y-370000D01*
G01X192000Y-380000D02*
Y-370000D01*
X194500D01*
X195500Y-370500D01*
X196250Y-371167D01*
X196875Y-372166D01*
X197375Y-373334D01*
X197500Y-375000D01*
X197375Y-376667D01*
X196875Y-377834D01*
X196250Y-378834D01*
X195500Y-379500D01*
X194500Y-380000D01*
X192000D01*
G01X203125Y-201000D02*
Y-191000D01*
G01X208375D02*
Y-201000D01*
G01Y-196000D02*
X203125D01*
G01X212625Y-191000D02*
X215750Y-201000D01*
X218875Y-191000D01*
G01X233250Y-201000D02*
Y-191000D01*
X236375D01*
X237375Y-191500D01*
X238000Y-192167D01*
X238250Y-193500D01*
X238000Y-194833D01*
X237250Y-195667D01*
X236375Y-196167D01*
X233250D01*
G01X236375D02*
X238250Y-201000D01*
G01X248250D02*
X243250D01*
Y-191000D01*
X248250D01*
G01X246250Y-195833D02*
X243250D01*
G01X253125Y-199667D02*
X254125Y-200500D01*
X255250Y-201000D01*
X256250D01*
X257250Y-200500D01*
X258000Y-199667D01*
X258375Y-198500D01*
X258125Y-197334D01*
X257500Y-196333D01*
X256375Y-195667D01*
X254875Y-195333D01*
X254000Y-194667D01*
X253625Y-193500D01*
X253875Y-192333D01*
X254500Y-191500D01*
X255375Y-191000D01*
X256250D01*
X257125Y-191333D01*
X257875Y-192167D01*
G01X303500Y-342000D02*
X306000D01*
Y-345000D01*
X305250Y-346000D01*
X304375Y-346667D01*
X303125Y-347000D01*
X301875Y-346667D01*
X301000Y-346000D01*
X300250Y-345000D01*
X299750Y-343833D01*
X299500Y-342500D01*
Y-341333D01*
X299750Y-340334D01*
X300250Y-339166D01*
X301000Y-338167D01*
X301750Y-337500D01*
X302750Y-337000D01*
X303625D01*
X304625Y-337333D01*
X305375Y-338000D01*
G01X309875Y-347000D02*
Y-337000D01*
X315625Y-347000D01*
Y-337000D01*
G01X320000Y-347000D02*
Y-337000D01*
X322500D01*
X323500Y-337500D01*
X324250Y-338167D01*
X324875Y-339166D01*
X325375Y-340334D01*
X325500Y-342000D01*
X325375Y-343667D01*
X324875Y-344834D01*
X324250Y-345834D01*
X323500Y-346500D01*
X322500Y-347000D01*
X320000D01*
G01X299625Y-300000D02*
X302750Y-310000D01*
X305875Y-300000D01*
G01X309000Y-313333D02*
X316500D01*
G01X320125Y-308667D02*
X321125Y-309500D01*
X322250Y-310000D01*
X323250D01*
X324250Y-309500D01*
X325000Y-308667D01*
X325375Y-307500D01*
X325125Y-306334D01*
X324500Y-305333D01*
X323375Y-304667D01*
X321875Y-304333D01*
X321000Y-303667D01*
X320625Y-302500D01*
X320875Y-301333D01*
X321500Y-300500D01*
X322375Y-300000D01*
X323250D01*
X324125Y-300333D01*
X324875Y-301167D01*
G01X332750Y-300000D02*
Y-310000D01*
G01X329875Y-300000D02*
X335625D01*
G01X339625Y-310000D02*
X342750Y-300000D01*
X345875Y-310000D01*
G01X344750Y-306500D02*
X340750D01*
G01X352750Y-300000D02*
Y-310000D01*
G01X349875Y-300000D02*
X355625D01*
G01X381500Y-342000D02*
X384000D01*
Y-345000D01*
X383250Y-346000D01*
X382375Y-346667D01*
X381125Y-347000D01*
X379875Y-346667D01*
X379000Y-346000D01*
X378250Y-345000D01*
X377750Y-343833D01*
X377500Y-342500D01*
Y-341333D01*
X377750Y-340334D01*
X378250Y-339166D01*
X379000Y-338167D01*
X379750Y-337500D01*
X380750Y-337000D01*
X381625D01*
X382625Y-337333D01*
X383375Y-338000D01*
G01X387875Y-347000D02*
Y-337000D01*
X393625Y-347000D01*
Y-337000D01*
G01X398000Y-347000D02*
Y-337000D01*
X400500D01*
X401500Y-337500D01*
X402250Y-338167D01*
X402875Y-339166D01*
X403375Y-340334D01*
X403500Y-342000D01*
X403375Y-343667D01*
X402875Y-344834D01*
X402250Y-345834D01*
X401500Y-346500D01*
X400500Y-347000D01*
X398000D01*
G01X376625Y-299000D02*
X379750Y-309000D01*
X382875Y-299000D01*
G01X386000Y-312333D02*
X393500D01*
G01X398250Y-299000D02*
X401250D01*
G01X399750D02*
Y-309000D01*
G01X398250D02*
X401250D01*
G01X406875D02*
Y-299000D01*
X412625Y-309000D01*
Y-299000D01*
M02*
